<svg width="138" height="16" viewBox="0 0 138 16" fill="none" xmlns="http://www.w3.org/2000/svg">
<path d="M0.72 14.8947V0.934653H9.66V2.93465H2.98V6.81465H9.04V8.81465H2.98V12.8947H9.66V14.8947H0.72ZM19.2568 13.1747H19.1568C18.9301 13.788 18.5568 14.268 18.0368 14.6147C17.5301 14.9613 16.9301 15.1347 16.2368 15.1347C14.9168 15.1347 13.8968 14.6613 13.1768 13.7147C12.4568 12.7547 12.0968 11.4147 12.0968 9.69465C12.0968 7.97465 12.4568 6.64132 13.1768 5.69465C13.8968 4.73465 14.9168 4.25465 16.2368 4.25465C16.9301 4.25465 17.5301 4.42799 18.0368 4.77465C18.5568 5.10799 18.9301 5.58799 19.1568 6.21465H19.2568V0.0946531H21.4368V14.8947H19.2568V13.1747ZM16.8968 13.2547C17.5635 13.2547 18.1235 13.0947 18.5768 12.7747C19.0301 12.4413 19.2568 12.008 19.2568 11.4747V7.91465C19.2568 7.38132 19.0301 6.95465 18.5768 6.63465C18.1235 6.30132 17.5635 6.13465 16.8968 6.13465C16.1368 6.13465 15.5301 6.38132 15.0768 6.87465C14.6235 7.35465 14.3968 7.99465 14.3968 8.79465V10.5947C14.3968 11.3947 14.6235 12.0413 15.0768 12.5347C15.5301 13.0147 16.1368 13.2547 16.8968 13.2547ZM24.0094 4.49465H26.1294L27.1894 8.85465L28.1294 12.7947H28.1894L29.2694 8.85465L30.5294 4.49465H32.4894L33.7694 8.85465L34.8694 12.7947H34.9294L35.8494 8.85465L36.9294 4.49465H38.9494L36.1494 14.8947H33.6894L32.3294 10.1547L31.4894 7.23465H31.4494L30.6294 10.1547L29.2494 14.8947H26.8494L24.0094 4.49465ZM48.9278 14.8947C48.3545 14.8947 47.9145 14.7347 47.6078 14.4147C47.3011 14.0813 47.1145 13.6613 47.0478 13.1547H46.9478C46.7478 13.808 46.3811 14.3013 45.8478 14.6347C45.3145 14.968 44.6678 15.1347 43.9078 15.1347C42.8278 15.1347 41.9945 14.8547 41.4078 14.2947C40.8345 13.7347 40.5478 12.9813 40.5478 12.0347C40.5478 10.9947 40.9211 10.2147 41.6678 9.69465C42.4278 9.17465 43.5345 8.91465 44.9878 8.91465H46.8678V8.03465C46.8678 7.39465 46.6945 6.90132 46.3478 6.55465C46.0011 6.20799 45.4611 6.03465 44.7278 6.03465C44.1145 6.03465 43.6145 6.16799 43.2278 6.43465C42.8411 6.70132 42.5145 7.04132 42.2478 7.45465L40.9478 6.27465C41.2945 5.68799 41.7811 5.20799 42.4078 4.83465C43.0345 4.44799 43.8545 4.25465 44.8678 4.25465C46.2145 4.25465 47.2478 4.56799 47.9678 5.19465C48.6878 5.82132 49.0478 6.72132 49.0478 7.89465V13.1147H50.1478V14.8947H48.9278ZM44.5278 13.4747C45.2078 13.4747 45.7678 13.328 46.2078 13.0347C46.6478 12.728 46.8678 12.3213 46.8678 11.8147V10.3147H45.0278C43.5211 10.3147 42.7678 10.7813 42.7678 11.7147V12.0747C42.7678 12.5413 42.9211 12.8947 43.2278 13.1347C43.5478 13.3613 43.9811 13.4747 44.5278 13.4747ZM52.781 14.8947V4.49465H54.961V6.49465H55.061C55.2077 5.96132 55.5143 5.49465 55.981 5.09465C56.4477 4.69465 57.0943 4.49465 57.921 4.49465H58.501V6.59465H57.641C56.7743 6.59465 56.1077 6.73465 55.641 7.01465C55.1877 7.29465 54.961 7.70799 54.961 8.25465V14.8947H52.781ZM67.3763 13.1747H67.2763C67.0496 13.788 66.6763 14.268 66.1563 14.6147C65.6496 14.9613 65.0496 15.1347 64.3563 15.1347C63.0363 15.1347 62.0163 14.6613 61.2963 13.7147C60.5763 12.7547 60.2163 11.4147 60.2163 9.69465C60.2163 7.97465 60.5763 6.64132 61.2963 5.69465C62.0163 4.73465 63.0363 4.25465 64.3563 4.25465C65.0496 4.25465 65.6496 4.42799 66.1563 4.77465C66.6763 5.10799 67.0496 5.58799 67.2763 6.21465H67.3763V0.0946531H69.5563V14.8947H67.3763V13.1747ZM65.0163 13.2547C65.6829 13.2547 66.2429 13.0947 66.6963 12.7747C67.1496 12.4413 67.3763 12.008 67.3763 11.4747V7.91465C67.3763 7.38132 67.1496 6.95465 66.6963 6.63465C66.2429 6.30132 65.6829 6.13465 65.0163 6.13465C64.2563 6.13465 63.6496 6.38132 63.1963 6.87465C62.7429 7.35465 62.5163 7.99465 62.5163 8.79465V10.5947C62.5163 11.3947 62.7429 12.0413 63.1963 12.5347C63.6496 13.0147 64.2563 13.2547 65.0163 13.2547ZM82.7321 8.37465L80.8121 10.5747V14.8947H78.5521V0.934653H80.8121V8.01465H80.8921L82.8921 5.47465L86.6521 0.934653H89.2921L84.3121 6.81465L89.6921 14.8947H86.9721L82.7321 8.37465ZM93.6272 15.1347C93.1338 15.1347 92.7672 15.008 92.5272 14.7547C92.2872 14.488 92.1672 14.1613 92.1672 13.7747V13.4747C92.1672 13.088 92.2872 12.768 92.5272 12.5147C92.7672 12.248 93.1338 12.1147 93.6272 12.1147C94.1205 12.1147 94.4872 12.248 94.7272 12.5147C94.9672 12.768 95.0872 13.088 95.0872 13.4747V13.7747C95.0872 14.1613 94.9672 14.488 94.7272 14.7547C94.4872 15.008 94.1205 15.1347 93.6272 15.1347ZM108.148 8.37465L106.228 10.5747V14.8947H103.968V0.934653H106.228V8.01465H106.308L108.308 5.47465L112.068 0.934653H114.708L109.728 6.81465L115.108 14.8947H112.388L108.148 8.37465ZM118.608 2.63465C118.154 2.63465 117.821 2.52799 117.608 2.31465C117.408 2.10132 117.308 1.82799 117.308 1.49465V1.15465C117.308 0.82132 117.408 0.547986 117.608 0.334652C117.821 0.121319 118.154 0.014653 118.608 0.014653C119.061 0.014653 119.388 0.121319 119.588 0.334652C119.788 0.547986 119.888 0.82132 119.888 1.15465V1.49465C119.888 1.82799 119.788 2.10132 119.588 2.31465C119.388 2.52799 119.061 2.63465 118.608 2.63465ZM117.508 4.49465H119.688V14.8947H117.508V4.49465ZM123.297 14.8947V4.49465H125.477V6.21465H125.577C125.684 5.94799 125.811 5.69465 125.957 5.45465C126.117 5.21465 126.304 5.00799 126.517 4.83465C126.744 4.64799 127.004 4.50799 127.297 4.41465C127.604 4.30799 127.957 4.25465 128.357 4.25465C129.064 4.25465 129.691 4.42799 130.237 4.77465C130.784 5.12132 131.184 5.65465 131.437 6.37465H131.497C131.684 5.78799 132.044 5.28799 132.577 4.87465C133.111 4.46132 133.797 4.25465 134.637 4.25465C135.677 4.25465 136.484 4.60799 137.057 5.31465C137.631 6.00799 137.917 7.00132 137.917 8.29465V14.8947H135.737V8.55465C135.737 7.75465 135.584 7.15465 135.277 6.75465C134.971 6.34132 134.484 6.13465 133.817 6.13465C133.537 6.13465 133.271 6.17465 133.017 6.25465C132.764 6.32132 132.537 6.42799 132.337 6.57465C132.151 6.72132 131.997 6.90799 131.877 7.13465C131.757 7.36132 131.697 7.62132 131.697 7.91465V14.8947H129.517V8.55465C129.517 6.94132 128.884 6.13465 127.617 6.13465C127.351 6.13465 127.084 6.17465 126.817 6.25465C126.564 6.32132 126.337 6.42799 126.137 6.57465C125.937 6.72132 125.777 6.90799 125.657 7.13465C125.537 7.36132 125.477 7.62132 125.477 7.91465V14.8947H123.297Z" fill="#263238"/>
</svg>
