<svg width="387" height="731" viewBox="0 0 387 731" fill="none" xmlns="http://www.w3.org/2000/svg">
<path d="M23.6828 694V692.894H25.2314V684.076H23.6828V682.97H28.1075V684.076H26.5589V692.894H28.1075V694H23.6828ZM30.6873 694V685.846H31.9515V687.173H32.0147C32.2149 686.71 32.4941 686.341 32.8523 686.067C33.221 685.793 33.7109 685.656 34.3219 685.656C35.1647 685.656 35.8284 685.93 36.3131 686.478C36.8082 687.015 37.0558 687.779 37.0558 688.769V694H35.7916V688.991C35.7916 687.526 35.1753 686.794 33.9427 686.794C33.6898 686.794 33.4422 686.826 33.1999 686.889C32.9682 686.952 32.7575 687.047 32.5678 687.173C32.3782 687.3 32.2254 687.463 32.1095 687.663C32.0042 687.853 31.9515 688.079 31.9515 688.343V694H30.6873ZM39.9511 694V685.846H41.2153V687.173H41.2785C41.4787 686.71 41.7579 686.341 42.1161 686.067C42.4848 685.793 42.9747 685.656 43.5857 685.656C44.4285 685.656 45.0923 685.93 45.5769 686.478C46.072 687.015 46.3196 687.779 46.3196 688.769V694H45.0554V688.991C45.0554 687.526 44.4391 686.794 43.2065 686.794C42.9536 686.794 42.706 686.826 42.4637 686.889C42.232 686.952 42.0213 687.047 41.8316 687.173C41.642 687.3 41.4892 687.463 41.3734 687.663C41.268 687.853 41.2153 688.079 41.2153 688.343V694H39.9511ZM52.2964 694.19C51.7486 694.19 51.2482 694.09 50.7952 693.889C50.3422 693.689 49.9524 693.405 49.6258 693.036C49.3097 692.657 49.0622 692.209 48.8831 691.693C48.704 691.166 48.6144 690.576 48.6144 689.923C48.6144 689.28 48.704 688.696 48.8831 688.169C49.0622 687.642 49.3097 687.194 49.6258 686.826C49.9524 686.446 50.3422 686.157 50.7952 685.956C51.2482 685.756 51.7486 685.656 52.2964 685.656C52.8443 685.656 53.3394 685.756 53.7819 685.956C54.2349 686.157 54.6247 686.446 54.9513 686.826C55.2779 687.194 55.5307 687.642 55.7098 688.169C55.8889 688.696 55.9785 689.28 55.9785 689.923C55.9785 690.576 55.8889 691.166 55.7098 691.693C55.5307 692.209 55.2779 692.657 54.9513 693.036C54.6247 693.405 54.2349 693.689 53.7819 693.889C53.3394 694.09 52.8443 694.19 52.2964 694.19ZM52.2964 693.068C52.9812 693.068 53.5396 692.857 53.9715 692.436C54.4035 692.014 54.6194 691.371 54.6194 690.508V689.338C54.6194 688.474 54.4035 687.832 53.9715 687.41C53.5396 686.989 52.9812 686.778 52.2964 686.778C51.6117 686.778 51.0533 686.989 50.6214 687.41C50.1894 687.832 49.9734 688.474 49.9734 689.338V690.508C49.9734 691.371 50.1894 692.014 50.6214 692.436C51.0533 692.857 51.6117 693.068 52.2964 693.068ZM60.0179 694L57.1576 685.846H58.4218L59.8441 689.891L60.729 692.673H60.808L61.693 689.891L63.1468 685.846H64.3636L61.4875 694H60.0179ZM72.0636 694C71.5895 694 71.2471 693.874 71.0364 693.621C70.8362 693.368 70.7098 693.052 70.6571 692.673H70.5781C70.399 693.178 70.1041 693.558 69.6932 693.81C69.2823 694.063 68.7924 694.19 68.2235 694.19C67.3596 694.19 66.6854 693.968 66.2008 693.526C65.7267 693.083 65.4897 692.483 65.4897 691.724C65.4897 690.955 65.7688 690.365 66.3272 689.955C66.8961 689.544 67.7758 689.338 68.9663 689.338H70.5781V688.532C70.5781 687.953 70.4201 687.51 70.1041 687.205C69.788 686.899 69.3034 686.747 68.6502 686.747C68.1551 686.747 67.7389 686.857 67.4018 687.078C67.0752 687.3 66.8013 687.595 66.58 687.963L65.8215 687.252C66.0428 686.81 66.3957 686.436 66.8803 686.13C67.3649 685.814 67.976 685.656 68.7134 685.656C69.7037 685.656 70.4728 685.898 71.0206 686.383C71.5684 686.868 71.8424 687.542 71.8424 688.406V692.894H72.7747V694H72.0636ZM68.429 693.115C68.745 693.115 69.0347 693.078 69.2981 693.004C69.5615 692.931 69.788 692.825 69.9776 692.688C70.1673 692.551 70.3148 692.393 70.4201 692.214C70.5255 692.035 70.5781 691.84 70.5781 691.63V690.286H68.903C68.1761 690.286 67.6441 690.392 67.307 690.602C66.9804 690.813 66.8171 691.119 66.8171 691.519V691.851C66.8171 692.251 66.9593 692.562 67.2438 692.783C67.5387 693.004 67.9338 693.115 68.429 693.115ZM76.6628 694C76.2203 694 75.8832 693.879 75.6514 693.637C75.4301 693.384 75.3195 693.057 75.3195 692.657V686.952H73.9763V685.846H74.7348C75.0087 685.846 75.1931 685.793 75.2879 685.688C75.3933 685.572 75.446 685.377 75.446 685.103V683.586H76.5837V685.846H78.3695V686.952H76.5837V692.894H78.243V694H76.6628ZM81.3158 683.934C81.0418 683.934 80.8417 683.87 80.7153 683.744C80.5994 683.607 80.5414 683.433 80.5414 683.223V683.017C80.5414 682.806 80.5994 682.638 80.7153 682.511C80.8417 682.374 81.0418 682.306 81.3158 682.306C81.5897 682.306 81.7846 682.374 81.9005 682.511C82.0269 682.638 82.0901 682.806 82.0901 683.017V683.223C82.0901 683.433 82.0269 683.607 81.9005 683.744C81.7846 683.87 81.5897 683.934 81.3158 683.934ZM80.6837 685.846H81.9479V694H80.6837V685.846ZM86.718 694L83.8577 685.846H85.122L86.5442 689.891L87.4291 692.673H87.5082L88.3931 689.891L89.847 685.846H91.0638L88.1877 694H86.718ZM95.9189 694.19C95.3605 694.19 94.8548 694.09 94.4018 693.889C93.9593 693.689 93.5748 693.405 93.2482 693.036C92.9322 692.657 92.6846 692.209 92.5055 691.693C92.3369 691.166 92.2526 690.576 92.2526 689.923C92.2526 689.28 92.3369 688.696 92.5055 688.169C92.6846 687.642 92.9322 687.194 93.2482 686.826C93.5748 686.446 93.9593 686.157 94.4018 685.956C94.8548 685.756 95.3605 685.656 95.9189 685.656C96.4667 685.656 96.9566 685.756 97.3885 685.956C97.8205 686.157 98.1892 686.436 98.4947 686.794C98.8002 687.142 99.032 687.558 99.19 688.042C99.3586 688.527 99.4429 689.059 99.4429 689.638V690.239H93.5801V690.618C93.5801 690.966 93.6327 691.292 93.7381 691.598C93.854 691.893 94.012 692.151 94.2122 692.372C94.4229 692.594 94.6757 692.767 94.9707 692.894C95.2762 693.02 95.6186 693.083 95.9979 693.083C96.5141 693.083 96.9619 692.962 97.3411 692.72C97.7309 692.478 98.0312 692.13 98.2419 691.677L99.1426 692.325C98.8792 692.883 98.4684 693.336 97.91 693.684C97.3517 694.021 96.6879 694.19 95.9189 694.19ZM95.9189 686.715C95.5712 686.715 95.2552 686.778 94.9707 686.905C94.6863 687.02 94.4387 687.189 94.228 687.41C94.0278 687.632 93.8698 687.895 93.7539 688.2C93.638 688.495 93.5801 688.822 93.5801 689.18V689.291H98.0838V689.117C98.0838 688.39 97.8837 687.811 97.4833 687.379C97.0935 686.936 96.5721 686.715 95.9189 686.715ZM105.825 685.846H107.089V687.173H107.153C107.363 686.657 107.669 686.278 108.069 686.035C108.48 685.783 108.97 685.656 109.539 685.656C110.044 685.656 110.503 685.756 110.914 685.956C111.324 686.157 111.672 686.441 111.957 686.81C112.252 687.178 112.473 687.626 112.62 688.153C112.778 688.68 112.857 689.27 112.857 689.923C112.857 690.576 112.778 691.166 112.62 691.693C112.473 692.22 112.252 692.667 111.957 693.036C111.672 693.405 111.324 693.689 110.914 693.889C110.503 694.09 110.044 694.19 109.539 694.19C108.433 694.19 107.637 693.684 107.153 692.673H107.089V697.161H105.825V685.846ZM109.191 693.052C109.907 693.052 110.471 692.831 110.882 692.388C111.293 691.935 111.498 691.345 111.498 690.618V689.228C111.498 688.501 111.293 687.916 110.882 687.473C110.471 687.02 109.907 686.794 109.191 686.794C108.907 686.794 108.633 686.836 108.369 686.92C108.117 686.994 107.895 687.099 107.706 687.236C107.516 687.373 107.363 687.542 107.247 687.742C107.142 687.932 107.089 688.137 107.089 688.358V691.393C107.089 691.656 107.142 691.893 107.247 692.104C107.363 692.304 107.516 692.478 107.706 692.625C107.895 692.762 108.117 692.867 108.369 692.941C108.633 693.015 108.907 693.052 109.191 693.052ZM115.274 694V685.846H116.538V687.347H116.617C116.765 686.957 117.028 686.61 117.407 686.304C117.787 685.999 118.308 685.846 118.972 685.846H119.462V687.11H118.719C118.034 687.11 117.497 687.242 117.107 687.505C116.728 687.758 116.538 688.079 116.538 688.469V694H115.274ZM124.363 694.19C123.815 694.19 123.315 694.09 122.862 693.889C122.409 693.689 122.019 693.405 121.693 693.036C121.377 692.657 121.129 692.209 120.95 691.693C120.771 691.166 120.681 690.576 120.681 689.923C120.681 689.28 120.771 688.696 120.95 688.169C121.129 687.642 121.377 687.194 121.693 686.826C122.019 686.446 122.409 686.157 122.862 685.956C123.315 685.756 123.815 685.656 124.363 685.656C124.911 685.656 125.406 685.756 125.849 685.956C126.302 686.157 126.692 686.446 127.018 686.826C127.345 687.194 127.598 687.642 127.777 688.169C127.956 688.696 128.045 689.28 128.045 689.923C128.045 690.576 127.956 691.166 127.777 691.693C127.598 692.209 127.345 692.657 127.018 693.036C126.692 693.405 126.302 693.689 125.849 693.889C125.406 694.09 124.911 694.19 124.363 694.19ZM124.363 693.068C125.048 693.068 125.606 692.857 126.038 692.436C126.47 692.014 126.686 691.371 126.686 690.508V689.338C126.686 688.474 126.47 687.832 126.038 687.41C125.606 686.989 125.048 686.778 124.363 686.778C123.678 686.778 123.12 686.989 122.688 687.41C122.256 687.832 122.04 688.474 122.04 689.338V690.508C122.04 691.371 122.256 692.014 122.688 692.436C123.12 692.857 123.678 693.068 124.363 693.068ZM130.407 685.846H131.671V687.173H131.734C131.945 686.657 132.25 686.278 132.651 686.035C133.061 685.783 133.551 685.656 134.12 685.656C134.626 685.656 135.084 685.756 135.495 685.956C135.906 686.157 136.254 686.441 136.538 686.81C136.833 687.178 137.054 687.626 137.202 688.153C137.36 688.68 137.439 689.27 137.439 689.923C137.439 690.576 137.36 691.166 137.202 691.693C137.054 692.22 136.833 692.667 136.538 693.036C136.254 693.405 135.906 693.689 135.495 693.889C135.084 694.09 134.626 694.19 134.12 694.19C133.014 694.19 132.219 693.684 131.734 692.673H131.671V697.161H130.407V685.846ZM133.773 693.052C134.489 693.052 135.053 692.831 135.463 692.388C135.874 691.935 136.08 691.345 136.08 690.618V689.228C136.08 688.501 135.874 687.916 135.463 687.473C135.053 687.02 134.489 686.794 133.773 686.794C133.488 686.794 133.214 686.836 132.951 686.92C132.698 686.994 132.477 687.099 132.287 687.236C132.098 687.373 131.945 687.542 131.829 687.742C131.724 687.932 131.671 688.137 131.671 688.358V691.393C131.671 691.656 131.724 691.893 131.829 692.104C131.945 692.304 132.098 692.478 132.287 692.625C132.477 692.762 132.698 692.867 132.951 692.941C133.214 693.015 133.488 693.052 133.773 693.052ZM142.937 694.19C142.389 694.19 141.889 694.09 141.436 693.889C140.983 693.689 140.593 693.405 140.266 693.036C139.95 692.657 139.703 692.209 139.524 691.693C139.345 691.166 139.255 690.576 139.255 689.923C139.255 689.28 139.345 688.696 139.524 688.169C139.703 687.642 139.95 687.194 140.266 686.826C140.593 686.446 140.983 686.157 141.436 685.956C141.889 685.756 142.389 685.656 142.937 685.656C143.485 685.656 143.98 685.756 144.423 685.956C144.876 686.157 145.265 686.446 145.592 686.826C145.919 687.194 146.171 687.642 146.351 688.169C146.53 688.696 146.619 689.28 146.619 689.923C146.619 690.576 146.53 691.166 146.351 691.693C146.171 692.209 145.919 692.657 145.592 693.036C145.265 693.405 144.876 693.689 144.423 693.889C143.98 694.09 143.485 694.19 142.937 694.19ZM142.937 693.068C143.622 693.068 144.18 692.857 144.612 692.436C145.044 692.014 145.26 691.371 145.26 690.508V689.338C145.26 688.474 145.044 687.832 144.612 687.41C144.18 686.989 143.622 686.778 142.937 686.778C142.252 686.778 141.694 686.989 141.262 687.41C140.83 687.832 140.614 688.474 140.614 689.338V690.508C140.614 691.371 140.83 692.014 141.262 692.436C141.694 692.857 142.252 693.068 142.937 693.068ZM151.43 694.19C150.671 694.19 150.034 694.047 149.518 693.763C149.012 693.468 148.575 693.078 148.206 692.594L149.107 691.867C149.423 692.267 149.776 692.578 150.166 692.799C150.556 693.01 151.009 693.115 151.525 693.115C152.062 693.115 152.478 692.999 152.773 692.767C153.079 692.536 153.231 692.209 153.231 691.788C153.231 691.472 153.126 691.203 152.915 690.982C152.715 690.75 152.347 690.592 151.809 690.508L151.161 690.413C150.782 690.36 150.434 690.281 150.118 690.176C149.802 690.06 149.523 689.912 149.281 689.733C149.049 689.544 148.865 689.312 148.728 689.038C148.601 688.764 148.538 688.437 148.538 688.058C148.538 687.658 148.612 687.31 148.759 687.015C148.907 686.71 149.107 686.457 149.36 686.257C149.623 686.057 149.934 685.909 150.292 685.814C150.65 685.709 151.035 685.656 151.446 685.656C152.109 685.656 152.663 685.772 153.105 686.004C153.558 686.236 153.953 686.557 154.29 686.968L153.453 687.726C153.274 687.473 153.01 687.247 152.663 687.047C152.315 686.836 151.878 686.731 151.351 686.731C150.824 686.731 150.424 686.847 150.15 687.078C149.887 687.3 149.755 687.605 149.755 687.995C149.755 688.395 149.887 688.685 150.15 688.864C150.424 689.043 150.814 689.175 151.319 689.259L151.951 689.354C152.857 689.491 153.5 689.754 153.879 690.144C154.259 690.523 154.448 691.024 154.448 691.645C154.448 692.436 154.18 693.057 153.642 693.51C153.105 693.963 152.368 694.19 151.43 694.19ZM162.889 694C162.415 694 162.073 693.874 161.862 693.621C161.662 693.368 161.536 693.052 161.483 692.673H161.404C161.225 693.178 160.93 693.558 160.519 693.81C160.108 694.063 159.618 694.19 159.049 694.19C158.186 694.19 157.511 693.968 157.027 693.526C156.553 693.083 156.316 692.483 156.316 691.724C156.316 690.955 156.595 690.365 157.153 689.955C157.722 689.544 158.602 689.338 159.792 689.338H161.404V688.532C161.404 687.953 161.246 687.51 160.93 687.205C160.614 686.899 160.129 686.747 159.476 686.747C158.981 686.747 158.565 686.857 158.228 687.078C157.901 687.3 157.627 687.595 157.406 687.963L156.647 687.252C156.869 686.81 157.222 686.436 157.706 686.13C158.191 685.814 158.802 685.656 159.539 685.656C160.53 685.656 161.299 685.898 161.847 686.383C162.394 686.868 162.668 687.542 162.668 688.406V692.894H163.601V694H162.889ZM159.255 693.115C159.571 693.115 159.861 693.078 160.124 693.004C160.387 692.931 160.614 692.825 160.804 692.688C160.993 692.551 161.141 692.393 161.246 692.214C161.351 692.035 161.404 691.84 161.404 691.63V690.286H159.729C159.002 690.286 158.47 690.392 158.133 690.602C157.806 690.813 157.643 691.119 157.643 691.519V691.851C157.643 692.251 157.785 692.562 158.07 692.783C158.365 693.004 158.76 693.115 159.255 693.115ZM167.03 694C166.588 694 166.251 693.879 166.019 693.637C165.798 693.384 165.687 693.068 165.687 692.688V682.306H166.951V692.894H168.152V694H167.03ZM176.093 694C175.651 694 175.314 693.879 175.082 693.637C174.861 693.384 174.75 693.057 174.75 692.657V686.952H173.407V685.846H174.165C174.439 685.846 174.624 685.793 174.718 685.688C174.824 685.572 174.876 685.377 174.876 685.103V683.586H176.014V685.846H177.8V686.952H176.014V692.894H177.674V694H176.093ZM183.134 694.19C182.586 694.19 182.086 694.09 181.633 693.889C181.18 693.689 180.79 693.405 180.463 693.036C180.147 692.657 179.9 692.209 179.721 691.693C179.541 691.166 179.452 690.576 179.452 689.923C179.452 689.28 179.541 688.696 179.721 688.169C179.9 687.642 180.147 687.194 180.463 686.826C180.79 686.446 181.18 686.157 181.633 685.956C182.086 685.756 182.586 685.656 183.134 685.656C183.682 685.656 184.177 685.756 184.619 685.956C185.072 686.157 185.462 686.446 185.789 686.826C186.115 687.194 186.368 687.642 186.547 688.169C186.726 688.696 186.816 689.28 186.816 689.923C186.816 690.576 186.726 691.166 186.547 691.693C186.368 692.209 186.115 692.657 185.789 693.036C185.462 693.405 185.072 693.689 184.619 693.889C184.177 694.09 183.682 694.19 183.134 694.19ZM183.134 693.068C183.819 693.068 184.377 692.857 184.809 692.436C185.241 692.014 185.457 691.371 185.457 690.508V689.338C185.457 688.474 185.241 687.832 184.809 687.41C184.377 686.989 183.819 686.778 183.134 686.778C182.449 686.778 181.891 686.989 181.459 687.41C181.027 687.832 180.811 688.474 180.811 689.338V690.508C180.811 691.371 181.027 692.014 181.459 692.436C181.891 692.857 182.449 693.068 183.134 693.068ZM196.228 694.19C195.659 694.19 195.148 694.09 194.695 693.889C194.242 693.689 193.858 693.405 193.542 693.036C193.236 692.667 192.999 692.22 192.831 691.693C192.673 691.166 192.594 690.576 192.594 689.923C192.594 689.27 192.673 688.68 192.831 688.153C192.999 687.626 193.236 687.178 193.542 686.81C193.858 686.441 194.242 686.157 194.695 685.956C195.148 685.756 195.659 685.656 196.228 685.656C197.04 685.656 197.687 685.835 198.172 686.193C198.667 686.541 199.036 686.999 199.278 687.568L198.219 688.106C198.072 687.684 197.83 687.358 197.493 687.126C197.155 686.894 196.734 686.778 196.228 686.778C195.849 686.778 195.517 686.841 195.233 686.968C194.948 687.084 194.711 687.252 194.522 687.473C194.332 687.684 194.19 687.942 194.095 688.248C194 688.543 193.953 688.869 193.953 689.228V690.618C193.953 691.335 194.142 691.925 194.522 692.388C194.911 692.841 195.48 693.068 196.228 693.068C197.25 693.068 197.988 692.594 198.441 691.645L199.357 692.262C199.094 692.852 198.699 693.32 198.172 693.668C197.656 694.016 197.008 694.19 196.228 694.19ZM206.449 692.673H206.386C206.302 692.862 206.196 693.052 206.07 693.241C205.954 693.421 205.807 693.584 205.628 693.731C205.448 693.868 205.232 693.979 204.98 694.063C204.727 694.147 204.432 694.19 204.095 694.19C203.252 694.19 202.583 693.921 202.088 693.384C201.593 692.836 201.345 692.067 201.345 691.076V685.846H202.609V690.855C202.609 692.32 203.231 693.052 204.474 693.052C204.727 693.052 204.969 693.02 205.201 692.957C205.443 692.894 205.654 692.799 205.833 692.673C206.023 692.546 206.17 692.388 206.275 692.198C206.391 691.998 206.449 691.761 206.449 691.487V685.846H207.714V694H206.449V692.673ZM210.688 694V685.846H211.952V687.347H212.031C212.179 686.957 212.442 686.61 212.821 686.304C213.2 685.999 213.722 685.846 214.386 685.846H214.876V687.11H214.133C213.448 687.11 212.911 687.242 212.521 687.505C212.142 687.758 211.952 688.079 211.952 688.469V694H210.688ZM216.773 694V685.846H218.037V687.347H218.116C218.263 686.957 218.527 686.61 218.906 686.304C219.285 685.999 219.807 685.846 220.47 685.846H220.96V687.11H220.218C219.533 687.11 218.995 687.242 218.606 687.505C218.226 687.758 218.037 688.079 218.037 688.469V694H216.773ZM225.846 694.19C225.288 694.19 224.782 694.09 224.329 693.889C223.886 693.689 223.502 693.405 223.175 693.036C222.859 692.657 222.612 692.209 222.433 691.693C222.264 691.166 222.18 690.576 222.18 689.923C222.18 689.28 222.264 688.696 222.433 688.169C222.612 687.642 222.859 687.194 223.175 686.826C223.502 686.446 223.886 686.157 224.329 685.956C224.782 685.756 225.288 685.656 225.846 685.656C226.394 685.656 226.884 685.756 227.316 685.956C227.747 686.157 228.116 686.436 228.422 686.794C228.727 687.142 228.959 687.558 229.117 688.042C229.286 688.527 229.37 689.059 229.37 689.638V690.239H223.507V690.618C223.507 690.966 223.56 691.292 223.665 691.598C223.781 691.893 223.939 692.151 224.139 692.372C224.35 692.594 224.603 692.767 224.898 692.894C225.203 693.02 225.546 693.083 225.925 693.083C226.441 693.083 226.889 692.962 227.268 692.72C227.658 692.478 227.958 692.13 228.169 691.677L229.07 692.325C228.806 692.883 228.395 693.336 227.837 693.684C227.279 694.021 226.615 694.19 225.846 694.19ZM225.846 686.715C225.498 686.715 225.182 686.778 224.898 686.905C224.613 687.02 224.366 687.189 224.155 687.41C223.955 687.632 223.797 687.895 223.681 688.2C223.565 688.495 223.507 688.822 223.507 689.18V689.291H228.011V689.117C228.011 688.39 227.811 687.811 227.41 687.379C227.021 686.936 226.499 686.715 225.846 686.715ZM231.735 694V685.846H233V687.173H233.063C233.263 686.71 233.542 686.341 233.9 686.067C234.269 685.793 234.759 685.656 235.37 685.656C236.213 685.656 236.876 685.93 237.361 686.478C237.856 687.015 238.104 687.779 238.104 688.769V694H236.84V688.991C236.84 687.526 236.223 686.794 234.991 686.794C234.738 686.794 234.49 686.826 234.248 686.889C234.016 686.952 233.805 687.047 233.616 687.173C233.426 687.3 233.273 687.463 233.158 687.663C233.052 687.853 233 688.079 233 688.343V694H231.735ZM242.801 694C242.358 694 242.021 693.879 241.789 693.637C241.568 693.384 241.457 693.057 241.457 692.657V686.952H240.114V685.846H240.873C241.147 685.846 241.331 685.793 241.426 685.688C241.531 685.572 241.584 685.377 241.584 685.103V683.586H242.722V685.846H244.507V686.952H242.722V692.894H244.381V694H242.801ZM250.838 685.846H252.103V687.173H252.166C252.376 686.657 252.682 686.278 253.082 686.035C253.493 685.783 253.983 685.656 254.552 685.656C255.058 685.656 255.516 685.756 255.927 685.956C256.338 686.157 256.685 686.441 256.97 686.81C257.265 687.178 257.486 687.626 257.634 688.153C257.792 688.68 257.871 689.27 257.871 689.923C257.871 690.576 257.792 691.166 257.634 691.693C257.486 692.22 257.265 692.667 256.97 693.036C256.685 693.405 256.338 693.689 255.927 693.889C255.516 694.09 255.058 694.19 254.552 694.19C253.446 694.19 252.65 693.684 252.166 692.673H252.103V697.161H250.838V685.846ZM254.204 693.052C254.921 693.052 255.484 692.831 255.895 692.388C256.306 691.935 256.512 691.345 256.512 690.618V689.228C256.512 688.501 256.306 687.916 255.895 687.473C255.484 687.02 254.921 686.794 254.204 686.794C253.92 686.794 253.646 686.836 253.383 686.92C253.13 686.994 252.909 687.099 252.719 687.236C252.529 687.373 252.376 687.542 252.261 687.742C252.155 687.932 252.103 688.137 252.103 688.358V691.393C252.103 691.656 252.155 691.893 252.261 692.104C252.376 692.304 252.529 692.478 252.719 692.625C252.909 692.762 253.13 692.867 253.383 692.941C253.646 693.015 253.92 693.052 254.204 693.052ZM263.353 694.19C262.795 694.19 262.289 694.09 261.836 693.889C261.394 693.689 261.009 693.405 260.682 693.036C260.366 692.657 260.119 692.209 259.94 691.693C259.771 691.166 259.687 690.576 259.687 689.923C259.687 689.28 259.771 688.696 259.94 688.169C260.119 687.642 260.366 687.194 260.682 686.826C261.009 686.446 261.394 686.157 261.836 685.956C262.289 685.756 262.795 685.656 263.353 685.656C263.901 685.656 264.391 685.756 264.823 685.956C265.255 686.157 265.623 686.436 265.929 686.794C266.234 687.142 266.466 687.558 266.624 688.042C266.793 688.527 266.877 689.059 266.877 689.638V690.239H261.014V690.618C261.014 690.966 261.067 691.292 261.172 691.598C261.288 691.893 261.446 692.151 261.646 692.372C261.857 692.594 262.11 692.767 262.405 692.894C262.71 693.02 263.053 693.083 263.432 693.083C263.948 693.083 264.396 692.962 264.775 692.72C265.165 692.478 265.465 692.13 265.676 691.677L266.577 692.325C266.313 692.883 265.903 693.336 265.344 693.684C264.786 694.021 264.122 694.19 263.353 694.19ZM263.353 686.715C263.005 686.715 262.689 686.778 262.405 686.905C262.12 687.02 261.873 687.189 261.662 687.41C261.462 687.632 261.304 687.895 261.188 688.2C261.072 688.495 261.014 688.822 261.014 689.18V689.291H265.518V689.117C265.518 688.39 265.318 687.811 264.918 687.379C264.528 686.936 264.006 686.715 263.353 686.715ZM269.243 694V685.846H270.507V687.173H270.57C270.77 686.71 271.049 686.341 271.407 686.067C271.776 685.793 272.266 685.656 272.877 685.656C273.72 685.656 274.384 685.93 274.868 686.478C275.363 687.015 275.611 687.779 275.611 688.769V694H274.347V688.991C274.347 687.526 273.73 686.794 272.498 686.794C272.245 686.794 271.997 686.826 271.755 686.889C271.523 686.952 271.313 687.047 271.123 687.173C270.933 687.3 270.781 687.463 270.665 687.663C270.559 687.853 270.507 688.079 270.507 688.343V694H269.243ZM280.956 694.19C280.197 694.19 279.56 694.047 279.044 693.763C278.538 693.468 278.101 693.078 277.732 692.594L278.633 691.867C278.949 692.267 279.302 692.578 279.692 692.799C280.081 693.01 280.534 693.115 281.051 693.115C281.588 693.115 282.004 692.999 282.299 692.767C282.604 692.536 282.757 692.209 282.757 691.788C282.757 691.472 282.652 691.203 282.441 690.982C282.241 690.75 281.872 690.592 281.335 690.508L280.687 690.413C280.308 690.36 279.96 690.281 279.644 690.176C279.328 690.06 279.049 689.912 278.807 689.733C278.575 689.544 278.39 689.312 278.253 689.038C278.127 688.764 278.064 688.437 278.064 688.058C278.064 687.658 278.138 687.31 278.285 687.015C278.433 686.71 278.633 686.457 278.886 686.257C279.149 686.057 279.46 685.909 279.818 685.814C280.176 685.709 280.561 685.656 280.972 685.656C281.635 685.656 282.188 685.772 282.631 686.004C283.084 686.236 283.479 686.557 283.816 686.968L282.978 687.726C282.799 687.473 282.536 687.247 282.188 687.047C281.841 686.836 281.403 686.731 280.877 686.731C280.35 686.731 279.95 686.847 279.676 687.078C279.412 687.3 279.281 687.605 279.281 687.995C279.281 688.395 279.412 688.685 279.676 688.864C279.95 689.043 280.339 689.175 280.845 689.259L281.477 689.354C282.383 689.491 283.026 689.754 283.405 690.144C283.784 690.523 283.974 691.024 283.974 691.645C283.974 692.436 283.705 693.057 283.168 693.51C282.631 693.963 281.893 694.19 280.956 694.19ZM287.121 683.934C286.847 683.934 286.647 683.87 286.521 683.744C286.405 683.607 286.347 683.433 286.347 683.223V683.017C286.347 682.806 286.405 682.638 286.521 682.511C286.647 682.374 286.847 682.306 287.121 682.306C287.395 682.306 287.59 682.374 287.706 682.511C287.832 682.638 287.896 682.806 287.896 683.017V683.223C287.896 683.433 287.832 683.607 287.706 683.744C287.59 683.87 287.395 683.934 287.121 683.934ZM286.489 685.846H287.753V694H286.489V685.846ZM293.804 694.19C293.256 694.19 292.755 694.09 292.302 693.889C291.849 693.689 291.46 693.405 291.133 693.036C290.817 692.657 290.569 692.209 290.39 691.693C290.211 691.166 290.122 690.576 290.122 689.923C290.122 689.28 290.211 688.696 290.39 688.169C290.569 687.642 290.817 687.194 291.133 686.826C291.46 686.446 291.849 686.157 292.302 685.956C292.755 685.756 293.256 685.656 293.804 685.656C294.351 685.656 294.847 685.756 295.289 685.956C295.742 686.157 296.132 686.446 296.458 686.826C296.785 687.194 297.038 687.642 297.217 688.169C297.396 688.696 297.486 689.28 297.486 689.923C297.486 690.576 297.396 691.166 297.217 691.693C297.038 692.209 296.785 692.657 296.458 693.036C296.132 693.405 295.742 693.689 295.289 693.889C294.847 694.09 294.351 694.19 293.804 694.19ZM293.804 693.068C294.488 693.068 295.047 692.857 295.479 692.436C295.911 692.014 296.127 691.371 296.127 690.508V689.338C296.127 688.474 295.911 687.832 295.479 687.41C295.047 686.989 294.488 686.778 293.804 686.778C293.119 686.778 292.56 686.989 292.129 687.41C291.697 687.832 291.481 688.474 291.481 689.338V690.508C291.481 691.371 291.697 692.014 292.129 692.436C292.56 692.857 293.119 693.068 293.804 693.068ZM299.847 694V685.846H301.111V687.173H301.174C301.375 686.71 301.654 686.341 302.012 686.067C302.381 685.793 302.871 685.656 303.482 685.656C304.324 685.656 304.988 685.93 305.473 686.478C305.968 687.015 306.216 687.779 306.216 688.769V694H304.951V688.991C304.951 687.526 304.335 686.794 303.102 686.794C302.85 686.794 302.602 686.826 302.36 686.889C302.128 686.952 301.917 687.047 301.728 687.173C301.538 687.3 301.385 687.463 301.269 687.663C301.164 687.853 301.111 688.079 301.111 688.343V694H299.847ZM315.577 694.19C314.819 694.19 314.181 694.047 313.665 693.763C313.159 693.468 312.722 693.078 312.353 692.594L313.254 691.867C313.57 692.267 313.923 692.578 314.313 692.799C314.703 693.01 315.156 693.115 315.672 693.115C316.209 693.115 316.625 692.999 316.92 692.767C317.226 692.536 317.379 692.209 317.379 691.788C317.379 691.472 317.273 691.203 317.063 690.982C316.862 690.75 316.494 690.592 315.956 690.508L315.308 690.413C314.929 690.36 314.582 690.281 314.265 690.176C313.949 690.06 313.67 689.912 313.428 689.733C313.196 689.544 313.012 689.312 312.875 689.038C312.748 688.764 312.685 688.437 312.685 688.058C312.685 687.658 312.759 687.31 312.906 687.015C313.054 686.71 313.254 686.457 313.507 686.257C313.77 686.057 314.081 685.909 314.439 685.814C314.797 685.709 315.182 685.656 315.593 685.656C316.257 685.656 316.81 685.772 317.252 686.004C317.705 686.236 318.1 686.557 318.437 686.968L317.6 687.726C317.421 687.473 317.157 687.247 316.81 687.047C316.462 686.836 316.025 686.731 315.498 686.731C314.971 686.731 314.571 686.847 314.297 687.078C314.034 687.3 313.902 687.605 313.902 687.995C313.902 688.395 314.034 688.685 314.297 688.864C314.571 689.043 314.961 689.175 315.466 689.259L316.099 689.354C317.005 689.491 317.647 689.754 318.026 690.144C318.406 690.523 318.595 691.024 318.595 691.645C318.595 692.436 318.327 693.057 317.789 693.51C317.252 693.963 316.515 694.19 315.577 694.19ZM325.858 685.846H327.106L323.456 695.896C323.361 696.139 323.266 696.339 323.172 696.497C323.077 696.665 322.961 696.797 322.824 696.892C322.687 696.987 322.513 697.055 322.302 697.097C322.102 697.139 321.855 697.161 321.56 697.161H320.912V696.054H322.192L322.808 694.316L319.758 685.846H321.022L322.982 691.393L323.361 692.72H323.44L323.883 691.393L325.858 685.846ZM331.389 694.19C330.63 694.19 329.993 694.047 329.476 693.763C328.971 693.468 328.534 693.078 328.165 692.594L329.066 691.867C329.382 692.267 329.735 692.578 330.124 692.799C330.514 693.01 330.967 693.115 331.483 693.115C332.021 693.115 332.437 692.999 332.732 692.767C333.037 692.536 333.19 692.209 333.19 691.788C333.19 691.472 333.085 691.203 332.874 690.982C332.674 690.75 332.305 690.592 331.768 690.508L331.12 690.413C330.741 690.36 330.393 690.281 330.077 690.176C329.761 690.06 329.482 689.912 329.239 689.733C329.008 689.544 328.823 689.312 328.686 689.038C328.56 688.764 328.497 688.437 328.497 688.058C328.497 687.658 328.57 687.31 328.718 687.015C328.865 686.71 329.066 686.457 329.318 686.257C329.582 686.057 329.893 685.909 330.251 685.814C330.609 685.709 330.994 685.656 331.404 685.656C332.068 685.656 332.621 685.772 333.064 686.004C333.517 686.236 333.912 686.557 334.249 686.968L333.411 687.726C333.232 687.473 332.969 687.247 332.621 687.047C332.274 686.836 331.836 686.731 331.31 686.731C330.783 686.731 330.382 686.847 330.109 687.078C329.845 687.3 329.714 687.605 329.714 687.995C329.714 688.395 329.845 688.685 330.109 688.864C330.382 689.043 330.772 689.175 331.278 689.259L331.91 689.354C332.816 689.491 333.459 689.754 333.838 690.144C334.217 690.523 334.407 691.024 334.407 691.645C334.407 692.436 334.138 693.057 333.601 693.51C333.064 693.963 332.326 694.19 331.389 694.19ZM338.616 694C338.173 694 337.836 693.879 337.604 693.637C337.383 693.384 337.272 693.057 337.272 692.657V686.952H335.929V685.846H336.688C336.962 685.846 337.146 685.793 337.241 685.688C337.346 685.572 337.399 685.377 337.399 685.103V683.586H338.537V685.846H340.322V686.952H338.537V692.894H340.196V694H338.616ZM345.64 694.19C345.082 694.19 344.576 694.09 344.123 693.889C343.681 693.689 343.296 693.405 342.97 693.036C342.654 692.657 342.406 692.209 342.227 691.693C342.059 691.166 341.974 690.576 341.974 689.923C341.974 689.28 342.059 688.696 342.227 688.169C342.406 687.642 342.654 687.194 342.97 686.826C343.296 686.446 343.681 686.157 344.123 685.956C344.576 685.756 345.082 685.656 345.64 685.656C346.188 685.656 346.678 685.756 347.11 685.956C347.542 686.157 347.911 686.436 348.216 686.794C348.522 687.142 348.754 687.558 348.912 688.042C349.08 688.527 349.164 689.059 349.164 689.638V690.239H343.302V690.618C343.302 690.966 343.354 691.292 343.46 691.598C343.576 691.893 343.734 692.151 343.934 692.372C344.145 692.594 344.397 692.767 344.692 692.894C344.998 693.02 345.34 693.083 345.72 693.083C346.236 693.083 346.683 692.962 347.063 692.72C347.453 692.478 347.753 692.13 347.963 691.677L348.864 692.325C348.601 692.883 348.19 693.336 347.632 693.684C347.073 694.021 346.41 694.19 345.64 694.19ZM345.64 686.715C345.293 686.715 344.977 686.778 344.692 686.905C344.408 687.02 344.16 687.189 343.95 687.41C343.749 687.632 343.591 687.895 343.476 688.2C343.36 688.495 343.302 688.822 343.302 689.18V689.291H347.805V689.117C347.805 688.39 347.605 687.811 347.205 687.379C346.815 686.936 346.294 686.715 345.64 686.715ZM351.53 694V685.846H352.794V687.173H352.857C352.952 686.963 353.058 686.768 353.173 686.589C353.3 686.399 353.447 686.236 353.616 686.099C353.795 685.962 354 685.856 354.232 685.783C354.464 685.698 354.738 685.656 355.054 685.656C355.591 685.656 356.086 685.788 356.539 686.051C356.992 686.304 357.33 686.725 357.551 687.315H357.582C357.73 686.873 358.004 686.488 358.404 686.162C358.815 685.825 359.368 685.656 360.063 685.656C360.896 685.656 361.544 685.93 362.007 686.478C362.481 687.015 362.718 687.779 362.718 688.769V694H361.454V688.991C361.454 688.264 361.312 687.716 361.027 687.347C360.743 686.978 360.29 686.794 359.668 686.794C359.415 686.794 359.173 686.826 358.941 686.889C358.72 686.952 358.52 687.047 358.341 687.173C358.162 687.3 358.02 687.463 357.914 687.663C357.809 687.853 357.756 688.079 357.756 688.343V694H356.492V688.991C356.492 688.264 356.35 687.716 356.065 687.347C355.781 686.978 355.338 686.794 354.738 686.794C354.485 686.794 354.243 686.826 354.011 686.889C353.779 686.952 353.574 687.047 353.395 687.173C353.216 687.3 353.068 687.463 352.952 687.663C352.847 687.853 352.794 688.079 352.794 688.343V694H351.53Z" fill="#607D8B"/>
<g filter="url(#filter0_d)">
<rect x="20" y="16" width="346.75" height="609.56" rx="20" fill="white"/>
</g>
<path d="M44.1095 54.2037C42.5081 54.2037 41.262 53.6619 40.371 52.5783C39.48 51.4826 39.0345 49.8753 39.0345 47.7562C39.0345 45.6371 39.48 44.0117 40.371 42.88C41.262 41.7361 42.5081 41.1642 44.1095 41.1642C45.169 41.1642 46.0539 41.405 46.7643 41.8866C47.4867 42.3682 48.0466 43.0485 48.4439 43.9274L47.2158 44.6679C46.963 44.0177 46.5777 43.5 46.06 43.1147C45.5422 42.7174 44.8921 42.5187 44.1095 42.5187C43.5676 42.5187 43.08 42.6211 42.6466 42.8258C42.2252 43.0305 41.864 43.3254 41.563 43.7107C41.274 44.084 41.0513 44.5355 40.8947 45.0652C40.7382 45.583 40.6599 46.1669 40.6599 46.8171V48.6953C40.6599 49.9957 40.9609 51.0131 41.563 51.7475C42.165 52.482 43.0138 52.8492 44.1095 52.8492C44.9161 52.8492 45.5904 52.6445 46.1322 52.2352C46.674 51.8138 47.0713 51.2599 47.3242 50.5736L48.5342 51.3321C48.1369 52.2231 47.565 52.9275 46.8185 53.4452C46.072 53.9509 45.169 54.2037 44.1095 54.2037ZM51.2359 53.987V44.6679H52.6807V46.3836H52.771C52.9396 45.9382 53.2406 45.5408 53.674 45.1917C54.1075 44.8425 54.7035 44.6679 55.462 44.6679H56.0219V46.1127H55.173C54.3904 46.1127 53.7764 46.2632 53.3309 46.5642C52.8975 46.8532 52.6807 47.2204 52.6807 47.6659V53.987H51.2359ZM61.7796 54.2037C61.1414 54.2037 60.5635 54.0893 60.0458 53.8606C59.5401 53.6318 59.1006 53.3067 58.7274 52.8853C58.3662 52.4519 58.0832 51.9402 57.8786 51.3502C57.6859 50.7482 57.5896 50.0739 57.5896 49.3275C57.5896 48.593 57.6859 47.9248 57.8786 47.3228C58.0832 46.7208 58.3662 46.2091 58.7274 45.7877C59.1006 45.3542 59.5401 45.0231 60.0458 44.7943C60.5635 44.5656 61.1414 44.4512 61.7796 44.4512C62.4057 44.4512 62.9655 44.5656 63.4592 44.7943C63.9528 45.0231 64.3742 45.3422 64.7234 45.7515C65.0725 46.1489 65.3374 46.6244 65.518 47.1783C65.7107 47.7321 65.807 48.3402 65.807 49.0024V49.6887H59.1066V50.1221C59.1066 50.5194 59.1668 50.8927 59.2872 51.2418C59.4197 51.579 59.6003 51.874 59.8291 52.1268C60.0699 52.3796 60.3588 52.5783 60.6959 52.7228C61.0451 52.8673 61.4364 52.9395 61.8699 52.9395C62.4598 52.9395 62.9715 52.801 63.405 52.5241C63.8505 52.2472 64.1936 51.8499 64.4344 51.3321L65.4639 52.0726C65.1628 52.7107 64.6933 53.2285 64.0552 53.6258C63.417 54.0111 62.6585 54.2037 61.7796 54.2037ZM61.7796 45.6612C61.3822 45.6612 61.021 45.7335 60.6959 45.878C60.3709 46.0104 60.0879 46.203 59.8471 46.4559C59.6184 46.7087 59.4378 47.0097 59.3053 47.3589C59.1729 47.696 59.1066 48.0693 59.1066 48.4786V48.605H64.2538V48.4064C64.2538 47.5756 64.0251 46.9134 63.5675 46.4198C63.122 45.9141 62.5261 45.6612 61.7796 45.6612ZM74.6444 52.4699H74.5721C74.0063 53.6258 73.0972 54.2037 71.845 54.2037C71.2671 54.2037 70.7434 54.0893 70.2738 53.8606C69.8042 53.6318 69.4009 53.3067 69.0638 52.8853C68.7387 52.4639 68.4858 51.9522 68.3052 51.3502C68.1367 50.7482 68.0524 50.0739 68.0524 49.3275C68.0524 48.581 68.1367 47.9067 68.3052 47.3047C68.4858 46.7027 68.7387 46.191 69.0638 45.7696C69.4009 45.3482 69.8042 45.0231 70.2738 44.7943C70.7434 44.5656 71.2671 44.4512 71.845 44.4512C72.4952 44.4512 73.0491 44.5957 73.5066 44.8846C73.9762 45.1616 74.3313 45.595 74.5721 46.185H74.6444V40.6224H76.0892V53.987H74.6444V52.4699ZM72.2424 52.9034C72.5675 52.9034 72.8745 52.8612 73.1634 52.777C73.4644 52.6927 73.7233 52.5723 73.94 52.4158C74.1568 52.2472 74.3253 52.0485 74.4457 51.8198C74.5782 51.579 74.6444 51.3081 74.6444 51.0071V47.5395C74.6444 47.2867 74.5782 47.0519 74.4457 46.8351C74.3253 46.6064 74.1568 46.4137 73.94 46.2572C73.7233 46.1007 73.4644 45.9803 73.1634 45.896C72.8745 45.7997 72.5675 45.7515 72.2424 45.7515C71.4236 45.7515 70.7795 46.0104 70.3099 46.5281C69.8404 47.0338 69.6056 47.702 69.6056 48.5328V50.1221C69.6056 50.9529 69.8404 51.6271 70.3099 52.1449C70.7795 52.6505 71.4236 52.9034 72.2424 52.9034ZM80.3799 42.4826C80.0669 42.4826 79.8381 42.4104 79.6936 42.2659C79.5612 42.1094 79.495 41.9107 79.495 41.6699V41.4351C79.495 41.1943 79.5612 41.0017 79.6936 40.8572C79.8381 40.7007 80.0669 40.6224 80.3799 40.6224C80.693 40.6224 80.9157 40.7007 81.0481 40.8572C81.1926 41.0017 81.2649 41.1943 81.2649 41.4351V41.6699C81.2649 41.9107 81.1926 42.1094 81.0481 42.2659C80.9157 42.4104 80.693 42.4826 80.3799 42.4826ZM79.6575 44.6679H81.1023V53.987H79.6575V44.6679ZM86.7281 53.987C86.2224 53.987 85.8371 53.8485 85.5722 53.5716C85.3194 53.2827 85.193 52.9094 85.193 52.4519V45.9321H83.6578V44.6679H84.5247C84.8378 44.6679 85.0485 44.6077 85.1568 44.4873C85.2773 44.3549 85.3375 44.1321 85.3375 43.8191V42.0853H86.6378V44.6679H88.6786V45.9321H86.6378V52.7228H88.5341V53.987H86.7281ZM99.9466 54.2037C98.9232 54.2037 98.0503 54.0111 97.3279 53.6258C96.6055 53.2285 95.9914 52.6867 95.4858 52.0004L96.6055 51.0612C97.051 51.6512 97.5446 52.1027 98.0864 52.4158C98.6282 52.7168 99.2664 52.8673 100.001 52.8673C100.904 52.8673 101.59 52.6505 102.06 52.2171C102.541 51.7837 102.782 51.2057 102.782 50.4833C102.782 49.8813 102.601 49.4178 102.24 49.0927C101.879 48.7676 101.283 48.5087 100.452 48.3161L99.4229 48.0813C98.267 47.8164 97.3821 47.4191 96.768 46.8893C96.166 46.3475 95.865 45.589 95.865 44.6137C95.865 44.0599 95.9674 43.5662 96.172 43.1328C96.3767 42.6993 96.6597 42.3381 97.0209 42.0492C97.3941 41.7602 97.8336 41.5435 98.3393 41.399C98.857 41.2425 99.4229 41.1642 100.037 41.1642C100.988 41.1642 101.801 41.3388 102.475 41.688C103.161 42.0371 103.739 42.5488 104.209 43.2231L103.071 44.0539C102.722 43.5723 102.3 43.193 101.807 42.9161C101.313 42.6391 100.699 42.5007 99.9647 42.5007C99.158 42.5007 98.5199 42.6753 98.0503 43.0244C97.5928 43.3616 97.364 43.8733 97.364 44.5596C97.364 45.1616 97.5567 45.6191 97.9419 45.9321C98.3393 46.2331 98.9353 46.4739 99.7299 46.6545L100.759 46.8893C101.999 47.1662 102.896 47.5877 103.45 48.1535C104.004 48.7194 104.281 49.4719 104.281 50.4111C104.281 50.989 104.179 51.5127 103.974 51.9823C103.781 52.4519 103.498 52.8492 103.125 53.1743C102.752 53.4994 102.294 53.7522 101.753 53.9328C101.223 54.1134 100.621 54.2037 99.9466 54.2037ZM112.996 52.4699H112.924C112.828 52.6867 112.707 52.9034 112.563 53.1201C112.43 53.3248 112.262 53.5114 112.057 53.68C111.852 53.8365 111.606 53.9629 111.317 54.0592C111.028 54.1556 110.69 54.2037 110.305 54.2037C109.342 54.2037 108.577 53.8967 108.012 53.2827C107.446 52.6566 107.163 51.7776 107.163 50.6459V44.6679H108.608V50.393C108.608 52.0666 109.318 52.9034 110.739 52.9034C111.028 52.9034 111.304 52.8673 111.569 52.795C111.846 52.7228 112.087 52.6144 112.292 52.4699C112.509 52.3255 112.677 52.1449 112.797 51.9281C112.93 51.6994 112.996 51.4285 112.996 51.1154V44.6679H114.441V53.987H112.996V52.4699ZM118.737 42.4826C118.424 42.4826 118.195 42.4104 118.05 42.2659C117.918 42.1094 117.852 41.9107 117.852 41.6699V41.4351C117.852 41.1943 117.918 41.0017 118.05 40.8572C118.195 40.7007 118.424 40.6224 118.737 40.6224C119.05 40.6224 119.273 40.7007 119.405 40.8572C119.549 41.0017 119.622 41.1943 119.622 41.4351V41.6699C119.622 41.9107 119.549 42.1094 119.405 42.2659C119.273 42.4104 119.05 42.4826 118.737 42.4826ZM118.014 44.6679H119.459V53.987H118.014V44.6679ZM125.825 54.2037C124.959 54.2037 124.23 54.0412 123.64 53.7161C123.062 53.379 122.563 52.9335 122.141 52.3796L123.171 51.5489C123.532 52.0064 123.935 52.3616 124.381 52.6144C124.826 52.8552 125.344 52.9756 125.934 52.9756C126.548 52.9756 127.023 52.8432 127.361 52.5783C127.71 52.3134 127.884 51.9402 127.884 51.4586C127.884 51.0974 127.764 50.7903 127.523 50.5375C127.294 50.2726 126.873 50.092 126.259 49.9957L125.518 49.8873C125.085 49.8271 124.688 49.7368 124.326 49.6164C123.965 49.484 123.646 49.3154 123.369 49.1107C123.104 48.894 122.894 48.6291 122.737 48.3161C122.593 48.003 122.52 47.6298 122.52 47.1963C122.52 46.7388 122.605 46.3415 122.773 46.0044C122.942 45.6552 123.171 45.3662 123.46 45.1375C123.761 44.9087 124.116 44.7402 124.525 44.6318C124.934 44.5114 125.374 44.4512 125.843 44.4512C126.602 44.4512 127.234 44.5836 127.74 44.8485C128.258 45.1134 128.709 45.4806 129.094 45.9502L128.137 46.8171C127.932 46.5281 127.631 46.2693 127.234 46.0405C126.837 45.7997 126.337 45.6793 125.735 45.6793C125.133 45.6793 124.676 45.8117 124.363 46.0766C124.062 46.3295 123.911 46.6786 123.911 47.1241C123.911 47.5816 124.062 47.9127 124.363 48.1174C124.676 48.3221 125.121 48.4726 125.699 48.5689L126.421 48.6773C127.457 48.8338 128.191 49.1348 128.625 49.5803C129.058 50.0137 129.275 50.5857 129.275 51.296C129.275 52.199 128.968 52.9094 128.354 53.4271C127.74 53.9449 126.897 54.2037 125.825 54.2037ZM135.017 54.2037C134.15 54.2037 133.422 54.0412 132.832 53.7161C132.254 53.379 131.754 52.9335 131.333 52.3796L132.362 51.5489C132.723 52.0064 133.127 52.3616 133.572 52.6144C134.018 52.8552 134.535 52.9756 135.125 52.9756C135.739 52.9756 136.215 52.8432 136.552 52.5783C136.901 52.3134 137.076 51.9402 137.076 51.4586C137.076 51.0974 136.956 50.7903 136.715 50.5375C136.486 50.2726 136.065 50.092 135.451 49.9957L134.71 49.8873C134.277 49.8271 133.879 49.7368 133.518 49.6164C133.157 49.484 132.838 49.3154 132.561 49.1107C132.296 48.894 132.085 48.6291 131.929 48.3161C131.784 48.003 131.712 47.6298 131.712 47.1963C131.712 46.7388 131.796 46.3415 131.965 46.0044C132.133 45.6552 132.362 45.3662 132.651 45.1375C132.952 44.9087 133.307 44.7402 133.717 44.6318C134.126 44.5114 134.566 44.4512 135.035 44.4512C135.794 44.4512 136.426 44.5836 136.931 44.8485C137.449 45.1134 137.901 45.4806 138.286 45.9502L137.329 46.8171C137.124 46.5281 136.823 46.2693 136.426 46.0405C136.028 45.7997 135.529 45.6793 134.927 45.6793C134.325 45.6793 133.867 45.8117 133.554 46.0766C133.253 46.3295 133.103 46.6786 133.103 47.1241C133.103 47.5816 133.253 47.9127 133.554 48.1174C133.867 48.3221 134.313 48.4726 134.891 48.5689L135.613 48.6773C136.649 48.8338 137.383 49.1348 137.816 49.5803C138.25 50.0137 138.467 50.5857 138.467 51.296C138.467 52.199 138.16 52.9094 137.546 53.4271C136.931 53.9449 136.089 54.2037 135.017 54.2037ZM145.019 54.2037C144.381 54.2037 143.803 54.0893 143.285 53.8606C142.779 53.6318 142.34 53.3067 141.967 52.8853C141.606 52.4519 141.323 51.9402 141.118 51.3502C140.925 50.7482 140.829 50.0739 140.829 49.3275C140.829 48.593 140.925 47.9248 141.118 47.3228C141.323 46.7208 141.606 46.2091 141.967 45.7877C142.34 45.3542 142.779 45.0231 143.285 44.7943C143.803 44.5656 144.381 44.4512 145.019 44.4512C145.645 44.4512 146.205 44.5656 146.699 44.7943C147.192 45.0231 147.614 45.3422 147.963 45.7515C148.312 46.1489 148.577 46.6244 148.757 47.1783C148.95 47.7321 149.046 48.3402 149.046 49.0024V49.6887H142.346V50.1221C142.346 50.5194 142.406 50.8927 142.527 51.2418C142.659 51.579 142.84 51.874 143.068 52.1268C143.309 52.3796 143.598 52.5783 143.935 52.7228C144.284 52.8673 144.676 52.9395 145.109 52.9395C145.699 52.9395 146.211 52.801 146.644 52.5241C147.09 52.2472 147.433 51.8499 147.674 51.3321L148.703 52.0726C148.402 52.7107 147.933 53.2285 147.295 53.6258C146.656 54.0111 145.898 54.2037 145.019 54.2037ZM145.019 45.6612C144.622 45.6612 144.26 45.7335 143.935 45.878C143.61 46.0104 143.327 46.203 143.086 46.4559C142.858 46.7087 142.677 47.0097 142.545 47.3589C142.412 47.696 142.346 48.0693 142.346 48.4786V48.605H147.493V48.4064C147.493 47.5756 147.264 46.9134 146.807 46.4198C146.361 45.9141 145.765 45.6612 145.019 45.6612ZM158.35 53.987H156.833V41.381H161.854C162.962 41.381 163.822 41.688 164.437 42.302C165.063 42.9161 165.376 43.801 165.376 44.9569C165.376 45.884 165.159 46.6485 164.725 47.2505C164.304 47.8405 163.678 48.2318 162.847 48.4244L165.737 53.987H164.021L161.294 48.5689H158.35V53.987ZM161.854 47.2686C162.456 47.2686 162.919 47.1121 163.245 46.799C163.582 46.486 163.75 46.0405 163.75 45.4626V44.5234C163.75 43.9455 163.582 43.5 163.245 43.187C162.919 42.8739 162.456 42.7174 161.854 42.7174H158.35V47.2686H161.854ZM171.977 54.2037C171.339 54.2037 170.761 54.0893 170.243 53.8606C169.737 53.6318 169.298 53.3067 168.924 52.8853C168.563 52.4519 168.28 51.9402 168.076 51.3502C167.883 50.7482 167.787 50.0739 167.787 49.3275C167.787 48.593 167.883 47.9248 168.076 47.3228C168.28 46.7208 168.563 46.2091 168.924 45.7877C169.298 45.3542 169.737 45.0231 170.243 44.7943C170.761 44.5656 171.339 44.4512 171.977 44.4512C172.603 44.4512 173.163 44.5656 173.656 44.7943C174.15 45.0231 174.571 45.3422 174.92 45.7515C175.27 46.1489 175.535 46.6244 175.715 47.1783C175.908 47.7321 176.004 48.3402 176.004 49.0024V49.6887H169.304V50.1221C169.304 50.5194 169.364 50.8927 169.484 51.2418C169.617 51.579 169.797 51.874 170.026 52.1268C170.267 52.3796 170.556 52.5783 170.893 52.7228C171.242 52.8673 171.634 52.9395 172.067 52.9395C172.657 52.9395 173.169 52.801 173.602 52.5241C174.048 52.2472 174.391 51.8499 174.632 51.3321L175.661 52.0726C175.36 52.7107 174.89 53.2285 174.252 53.6258C173.614 54.0111 172.856 54.2037 171.977 54.2037ZM171.977 45.6612C171.579 45.6612 171.218 45.7335 170.893 45.878C170.568 46.0104 170.285 46.203 170.044 46.4559C169.815 46.7087 169.635 47.0097 169.502 47.3589C169.37 47.696 169.304 48.0693 169.304 48.4786V48.605H174.451V48.4064C174.451 47.5756 174.222 46.9134 173.765 46.4198C173.319 45.9141 172.723 45.6612 171.977 45.6612ZM181.681 54.2037C180.814 54.2037 180.086 54.0412 179.496 53.7161C178.918 53.379 178.418 52.9335 177.997 52.3796L179.026 51.5489C179.387 52.0064 179.791 52.3616 180.236 52.6144C180.682 52.8552 181.199 52.9756 181.789 52.9756C182.403 52.9756 182.879 52.8432 183.216 52.5783C183.565 52.3134 183.74 51.9402 183.74 51.4586C183.74 51.0974 183.619 50.7903 183.379 50.5375C183.15 50.2726 182.728 50.092 182.114 49.9957L181.374 49.8873C180.94 49.8271 180.543 49.7368 180.182 49.6164C179.821 49.484 179.502 49.3154 179.225 49.1107C178.96 48.894 178.749 48.6291 178.593 48.3161C178.448 48.003 178.376 47.6298 178.376 47.1963C178.376 46.7388 178.46 46.3415 178.629 46.0044C178.797 45.6552 179.026 45.3662 179.315 45.1375C179.616 44.9087 179.971 44.7402 180.381 44.6318C180.79 44.5114 181.229 44.4512 181.699 44.4512C182.458 44.4512 183.09 44.5836 183.595 44.8485C184.113 45.1134 184.565 45.4806 184.95 45.9502L183.993 46.8171C183.788 46.5281 183.487 46.2693 183.09 46.0405C182.692 45.7997 182.193 45.6793 181.591 45.6793C180.989 45.6793 180.531 45.8117 180.218 46.0766C179.917 46.3295 179.767 46.6786 179.767 47.1241C179.767 47.5816 179.917 47.9127 180.218 48.1174C180.531 48.3221 180.977 48.4726 181.555 48.5689L182.277 48.6773C183.312 48.8338 184.047 49.1348 184.48 49.5803C184.914 50.0137 185.13 50.5857 185.13 51.296C185.13 52.199 184.823 52.9094 184.209 53.4271C183.595 53.9449 182.752 54.2037 181.681 54.2037ZM191.683 54.2037C191.045 54.2037 190.467 54.0893 189.949 53.8606C189.443 53.6318 189.004 53.3067 188.631 52.8853C188.269 52.4519 187.986 51.9402 187.782 51.3502C187.589 50.7482 187.493 50.0739 187.493 49.3275C187.493 48.593 187.589 47.9248 187.782 47.3228C187.986 46.7208 188.269 46.2091 188.631 45.7877C189.004 45.3542 189.443 45.0231 189.949 44.7943C190.467 44.5656 191.045 44.4512 191.683 44.4512C192.309 44.4512 192.869 44.5656 193.362 44.7943C193.856 45.0231 194.277 45.3422 194.627 45.7515C194.976 46.1489 195.241 46.6244 195.421 47.1783C195.614 47.7321 195.71 48.3402 195.71 49.0024V49.6887H189.01V50.1221C189.01 50.5194 189.07 50.8927 189.19 51.2418C189.323 51.579 189.504 51.874 189.732 52.1268C189.973 52.3796 190.262 52.5783 190.599 52.7228C190.948 52.8673 191.34 52.9395 191.773 52.9395C192.363 52.9395 192.875 52.801 193.308 52.5241C193.754 52.2472 194.097 51.8499 194.338 51.3321L195.367 52.0726C195.066 52.7107 194.596 53.2285 193.958 53.6258C193.32 54.0111 192.562 54.2037 191.683 54.2037ZM191.683 45.6612C191.285 45.6612 190.924 45.7335 190.599 45.878C190.274 46.0104 189.991 46.203 189.75 46.4559C189.522 46.7087 189.341 47.0097 189.209 47.3589C189.076 47.696 189.01 48.0693 189.01 48.4786V48.605H194.157V48.4064C194.157 47.5756 193.928 46.9134 193.471 46.4198C193.025 45.9141 192.429 45.6612 191.683 45.6612ZM205.36 53.987C204.819 53.987 204.427 53.8425 204.186 53.5536C203.958 53.2646 203.813 52.9034 203.753 52.4699H203.663C203.458 53.0479 203.121 53.4813 202.651 53.7703C202.182 54.0592 201.622 54.2037 200.972 54.2037C199.984 54.2037 199.214 53.9509 198.66 53.4452C198.118 52.9395 197.847 52.2532 197.847 51.3863C197.847 50.5074 198.166 49.8331 198.804 49.3636C199.455 48.894 200.46 48.6592 201.821 48.6592H203.663V47.7382C203.663 47.0759 203.482 46.5703 203.121 46.2211C202.76 45.8719 202.206 45.6973 201.459 45.6973C200.893 45.6973 200.418 45.8238 200.033 46.0766C199.659 46.3295 199.346 46.6666 199.093 47.088L198.227 46.2753C198.479 45.7696 198.883 45.3422 199.437 44.993C199.99 44.6318 200.689 44.4512 201.532 44.4512C202.663 44.4512 203.542 44.7281 204.168 45.282C204.794 45.8358 205.107 46.6064 205.107 47.5937V52.7228H206.173V53.987H205.36ZM201.206 52.9756C201.568 52.9756 201.899 52.9335 202.2 52.8492C202.501 52.7649 202.76 52.6445 202.976 52.488C203.193 52.3315 203.362 52.1509 203.482 51.9462C203.602 51.7415 203.663 51.5188 203.663 51.278V49.7428H201.748C200.917 49.7428 200.309 49.8632 199.924 50.104C199.551 50.3449 199.364 50.694 199.364 51.1515V51.5308C199.364 51.9883 199.527 52.3435 199.852 52.5964C200.189 52.8492 200.641 52.9756 201.206 52.9756ZM208.732 53.987V44.6679H210.177V46.3836H210.267C210.435 45.9382 210.736 45.5408 211.17 45.1917C211.603 44.8425 212.199 44.6679 212.958 44.6679H213.518V46.1127H212.669C211.886 46.1127 211.272 46.2632 210.827 46.5642C210.393 46.8532 210.177 47.2204 210.177 47.6659V53.987H208.732ZM219.239 54.2037C218.589 54.2037 218.005 54.0893 217.487 53.8606C216.97 53.6318 216.53 53.3067 216.169 52.8853C215.82 52.4639 215.549 51.9522 215.356 51.3502C215.176 50.7482 215.085 50.0739 215.085 49.3275C215.085 48.581 215.176 47.9067 215.356 47.3047C215.549 46.7027 215.82 46.191 216.169 45.7696C216.53 45.3482 216.97 45.0231 217.487 44.7943C218.005 44.5656 218.589 44.4512 219.239 44.4512C220.166 44.4512 220.907 44.6559 221.461 45.0652C222.027 45.4626 222.448 45.9863 222.725 46.6365L221.515 47.2505C221.346 46.7689 221.069 46.3957 220.684 46.1308C220.299 45.8659 219.817 45.7335 219.239 45.7335C218.806 45.7335 218.427 45.8057 218.102 45.9502C217.776 46.0826 217.506 46.2753 217.289 46.5281C217.072 46.7689 216.91 47.0639 216.801 47.4131C216.693 47.7502 216.639 48.1234 216.639 48.5328V50.1221C216.639 50.9408 216.855 51.6151 217.289 52.1449C217.734 52.6626 218.384 52.9214 219.239 52.9214C220.407 52.9214 221.25 52.3796 221.768 51.296L222.815 52.0004C222.514 52.6746 222.063 53.2104 221.461 53.6077C220.871 54.0051 220.13 54.2037 219.239 54.2037ZM225.351 40.6224H226.796V46.185H226.868C227.097 45.6552 227.416 45.2338 227.826 44.9208C228.247 44.6077 228.807 44.4512 229.505 44.4512C230.469 44.4512 231.227 44.7642 231.781 45.3903C232.347 46.0044 232.63 46.8773 232.63 48.0091V53.987H231.185V48.2619C231.185 46.5883 230.481 45.7515 229.072 45.7515C228.783 45.7515 228.5 45.7877 228.223 45.8599C227.958 45.9321 227.717 46.0405 227.501 46.185C227.284 46.3295 227.109 46.5161 226.977 46.7448C226.856 46.9616 226.796 47.2204 226.796 47.5214V53.987H225.351V40.6224ZM240.426 53.987V52.7228H242.196V42.6452H240.426V41.381H245.483V42.6452H243.713V52.7228H245.483V53.987H240.426ZM248.605 53.987V44.6679H250.05V46.185H250.122C250.351 45.6552 250.67 45.2338 251.08 44.9208C251.501 44.6077 252.061 44.4512 252.759 44.4512C253.722 44.4512 254.481 44.7642 255.035 45.3903C255.601 46.0044 255.884 46.8773 255.884 48.0091V53.987H254.439V48.2619C254.439 46.5883 253.735 45.7515 252.326 45.7515C252.037 45.7515 251.754 45.7877 251.477 45.8599C251.212 45.9321 250.971 46.0405 250.755 46.185C250.538 46.3295 250.363 46.5161 250.231 46.7448C250.11 46.9616 250.05 47.2204 250.05 47.5214V53.987H248.605ZM262.166 54.2037C261.299 54.2037 260.571 54.0412 259.981 53.7161C259.403 53.379 258.903 52.9335 258.482 52.3796L259.511 51.5489C259.872 52.0064 260.276 52.3616 260.721 52.6144C261.167 52.8552 261.685 52.9756 262.274 52.9756C262.889 52.9756 263.364 52.8432 263.701 52.5783C264.05 52.3134 264.225 51.9402 264.225 51.4586C264.225 51.0974 264.105 50.7903 263.864 50.5375C263.635 50.2726 263.214 50.092 262.6 49.9957L261.859 49.8873C261.426 49.8271 261.028 49.7368 260.667 49.6164C260.306 49.484 259.987 49.3154 259.71 49.1107C259.445 48.894 259.234 48.6291 259.078 48.3161C258.933 48.003 258.861 47.6298 258.861 47.1963C258.861 46.7388 258.945 46.3415 259.114 46.0044C259.282 45.6552 259.511 45.3662 259.8 45.1375C260.101 44.9087 260.456 44.7402 260.866 44.6318C261.275 44.5114 261.715 44.4512 262.184 44.4512C262.943 44.4512 263.575 44.5836 264.08 44.8485C264.598 45.1134 265.05 45.4806 265.435 45.9502L264.478 46.8171C264.273 46.5281 263.972 46.2693 263.575 46.0405C263.177 45.7997 262.678 45.6793 262.076 45.6793C261.474 45.6793 261.016 45.8117 260.703 46.0766C260.402 46.3295 260.252 46.6786 260.252 47.1241C260.252 47.5816 260.402 47.9127 260.703 48.1174C261.016 48.3221 261.462 48.4726 262.04 48.5689L262.762 48.6773C263.798 48.8338 264.532 49.1348 264.965 49.5803C265.399 50.0137 265.616 50.5857 265.616 51.296C265.616 52.199 265.309 52.9094 264.695 53.4271C264.08 53.9449 263.238 54.2037 262.166 54.2037ZM270.6 53.987C270.094 53.987 269.709 53.8485 269.444 53.5716C269.191 53.2827 269.065 52.9094 269.065 52.4519V45.9321H267.529V44.6679H268.396C268.709 44.6679 268.92 44.6077 269.028 44.4873C269.149 44.3549 269.209 44.1321 269.209 43.8191V42.0853H270.509V44.6679H272.55V45.9321H270.509V52.7228H272.406V53.987H270.6ZM276.092 42.4826C275.779 42.4826 275.55 42.4104 275.405 42.2659C275.273 42.1094 275.207 41.9107 275.207 41.6699V41.4351C275.207 41.1943 275.273 41.0017 275.405 40.8572C275.55 40.7007 275.779 40.6224 276.092 40.6224C276.405 40.6224 276.627 40.7007 276.76 40.8572C276.904 41.0017 276.976 41.1943 276.976 41.4351V41.6699C276.976 41.9107 276.904 42.1094 276.76 42.2659C276.627 42.4104 276.405 42.4826 276.092 42.4826ZM275.369 44.6679H276.814V53.987H275.369V44.6679ZM282.44 53.987C281.934 53.987 281.549 53.8485 281.284 53.5716C281.031 53.2827 280.905 52.9094 280.905 52.4519V45.9321H279.369V44.6679H280.236C280.549 44.6679 280.76 44.6077 280.868 44.4873C280.989 44.3549 281.049 44.1321 281.049 43.8191V42.0853H282.349V44.6679H284.39V45.9321H282.349V52.7228H284.246V53.987H282.44ZM292.952 52.4699H292.88C292.784 52.6867 292.663 52.9034 292.519 53.1201C292.386 53.3248 292.218 53.5114 292.013 53.68C291.809 53.8365 291.562 53.9629 291.273 54.0592C290.984 54.1556 290.647 54.2037 290.261 54.2037C289.298 54.2037 288.534 53.8967 287.968 53.2827C287.402 52.6566 287.119 51.7776 287.119 50.6459V44.6679H288.564V50.393C288.564 52.0666 289.274 52.9034 290.695 52.9034C290.984 52.9034 291.261 52.8673 291.526 52.795C291.802 52.7228 292.043 52.6144 292.248 52.4699C292.465 52.3255 292.633 52.1449 292.754 51.9281C292.886 51.6994 292.952 51.4285 292.952 51.1154V44.6679H294.397V53.987H292.952V52.4699ZM300.029 53.987C299.524 53.987 299.138 53.8485 298.874 53.5716C298.621 53.2827 298.494 52.9094 298.494 52.4519V45.9321H296.959V44.6679H297.826C298.139 44.6679 298.35 44.6077 298.458 44.4873C298.579 44.3549 298.639 44.1321 298.639 43.8191V42.0853H299.939V44.6679H301.98V45.9321H299.939V52.7228H301.835V53.987H300.029ZM308.232 54.2037C307.594 54.2037 307.016 54.0893 306.498 53.8606C305.993 53.6318 305.553 53.3067 305.18 52.8853C304.819 52.4519 304.536 51.9402 304.331 51.3502C304.138 50.7482 304.042 50.0739 304.042 49.3275C304.042 48.593 304.138 47.9248 304.331 47.3228C304.536 46.7208 304.819 46.2091 305.18 45.7877C305.553 45.3542 305.993 45.0231 306.498 44.7943C307.016 44.5656 307.594 44.4512 308.232 44.4512C308.858 44.4512 309.418 44.5656 309.912 44.7943C310.405 45.0231 310.827 45.3422 311.176 45.7515C311.525 46.1489 311.79 46.6244 311.97 47.1783C312.163 47.7321 312.259 48.3402 312.259 49.0024V49.6887H305.559V50.1221C305.559 50.5194 305.619 50.8927 305.74 51.2418C305.872 51.579 306.053 51.874 306.281 52.1268C306.522 52.3796 306.811 52.5783 307.148 52.7228C307.498 52.8673 307.889 52.9395 308.322 52.9395C308.912 52.9395 309.424 52.801 309.857 52.5241C310.303 52.2472 310.646 51.8499 310.887 51.3321L311.916 52.0726C311.615 52.7107 311.146 53.2285 310.508 53.6258C309.869 54.0111 309.111 54.2037 308.232 54.2037ZM308.232 45.6612C307.835 45.6612 307.473 45.7335 307.148 45.878C306.823 46.0104 306.54 46.203 306.3 46.4559C306.071 46.7087 305.89 47.0097 305.758 47.3589C305.625 47.696 305.559 48.0693 305.559 48.4786V48.605H310.706V48.4064C310.706 47.5756 310.477 46.9134 310.02 46.4198C309.574 45.9141 308.978 45.6612 308.232 45.6612Z" fill="#263238"/>
<path d="M38.9951 80.0578V78.9516H40.5438V70.1337H38.9951V69.0275H43.4199V70.1337H41.8712V78.9516H43.4199V80.0578H38.9951ZM45.9997 80.0578V71.9036H47.2639V73.231H47.3271C47.5273 72.7675 47.8064 72.3988 48.1646 72.1248C48.5334 71.8509 49.0232 71.714 49.6343 71.714C50.4771 71.714 51.1408 71.9879 51.6254 72.5357C52.1206 73.073 52.3682 73.8368 52.3682 74.8271V80.0578H51.1039V75.0483C51.1039 73.584 50.4876 72.8518 49.255 72.8518C49.0022 72.8518 48.7546 72.8834 48.5123 72.9466C48.2805 73.0098 48.0698 73.1046 47.8802 73.231C47.6906 73.3575 47.5378 73.5207 47.4219 73.7209C47.3166 73.9105 47.2639 74.1371 47.2639 74.4004V80.0578H45.9997ZM55.2635 80.0578V71.9036H56.5277V73.231H56.5909C56.7911 72.7675 57.0702 72.3988 57.4284 72.1248C57.7972 71.8509 58.2871 71.714 58.8981 71.714C59.7409 71.714 60.4046 71.9879 60.8892 72.5357C61.3844 73.073 61.632 73.8368 61.632 74.8271V80.0578H60.3677V75.0483C60.3677 73.584 59.7514 72.8518 58.5188 72.8518C58.266 72.8518 58.0184 72.8834 57.7761 72.9466C57.5443 73.0098 57.3336 73.1046 57.144 73.231C56.9544 73.3575 56.8016 73.5207 56.6857 73.7209C56.5804 73.9105 56.5277 74.1371 56.5277 74.4004V80.0578H55.2635ZM67.6088 80.2474C67.061 80.2474 66.5606 80.1473 66.1075 79.9472C65.6545 79.747 65.2647 79.4626 64.9381 79.0938C64.6221 78.7146 64.3745 78.2668 64.1954 77.7506C64.0163 77.2238 63.9268 76.6339 63.9268 75.9807C63.9268 75.3381 64.0163 74.7534 64.1954 74.2266C64.3745 73.6998 64.6221 73.2521 64.9381 72.8834C65.2647 72.5041 65.6545 72.2144 66.1075 72.0142C66.5606 71.8141 67.061 71.714 67.6088 71.714C68.1566 71.714 68.6518 71.8141 69.0943 72.0142C69.5473 72.2144 69.9371 72.5041 70.2637 72.8834C70.5903 73.2521 70.8431 73.6998 71.0222 74.2266C71.2013 74.7534 71.2908 75.3381 71.2908 75.9807C71.2908 76.6339 71.2013 77.2238 71.0222 77.7506C70.8431 78.2668 70.5903 78.7146 70.2637 79.0938C69.9371 79.4626 69.5473 79.747 69.0943 79.9472C68.6518 80.1473 68.1566 80.2474 67.6088 80.2474ZM67.6088 79.1254C68.2936 79.1254 68.852 78.9147 69.2839 78.4933C69.7158 78.0719 69.9318 77.4293 69.9318 76.5654V75.396C69.9318 74.5321 69.7158 73.8895 69.2839 73.4681C68.852 73.0467 68.2936 72.836 67.6088 72.836C66.924 72.836 66.3657 73.0467 65.9337 73.4681C65.5018 73.8895 65.2858 74.5321 65.2858 75.396V76.5654C65.2858 77.4293 65.5018 78.0719 65.9337 78.4933C66.3657 78.9147 66.924 79.1254 67.6088 79.1254ZM75.3302 80.0578L72.47 71.9036H73.7342L75.1564 75.9491L76.0414 78.7304H76.1204L77.0053 75.9491L78.4592 71.9036H79.676L76.7999 80.0578H75.3302ZM87.376 80.0578C86.9019 80.0578 86.5595 79.9314 86.3488 79.6785C86.1486 79.4257 86.0222 79.1096 85.9695 78.7304H85.8905C85.7114 79.2361 85.4164 79.6153 85.0055 79.8682C84.5947 80.121 84.1048 80.2474 83.5359 80.2474C82.672 80.2474 81.9978 80.0262 81.5131 79.5837C81.0391 79.1412 80.802 78.5407 80.802 77.7822C80.802 77.0131 81.0812 76.4232 81.6396 76.0123C82.2085 75.6014 83.0881 75.396 84.2786 75.396H85.8905V74.5901C85.8905 74.0106 85.7325 73.5682 85.4164 73.2626C85.1004 72.9571 84.6157 72.8044 83.9626 72.8044C83.4674 72.8044 83.0513 72.915 82.7142 73.1362C82.3876 73.3575 82.1136 73.6524 81.8924 74.0212L81.1339 73.31C81.3551 72.8676 81.708 72.4936 82.1927 72.1881C82.6773 71.872 83.2883 71.714 84.0258 71.714C85.0161 71.714 85.7851 71.9563 86.333 72.4409C86.8808 72.9255 87.1547 73.5998 87.1547 74.4636V78.9516H88.0871V80.0578H87.376ZM83.7413 79.1728C84.0574 79.1728 84.3471 79.136 84.6105 79.0622C84.8739 78.9885 85.1004 78.8831 85.29 78.7462C85.4796 78.6092 85.6271 78.4512 85.7325 78.2721C85.8378 78.093 85.8905 77.8981 85.8905 77.6874V76.3442H84.2154C83.4885 76.3442 82.9565 76.4495 82.6193 76.6602C82.2927 76.8709 82.1295 77.1764 82.1295 77.5768V77.9086C82.1295 78.309 82.2717 78.6198 82.5561 78.841C82.8511 79.0622 83.2462 79.1728 83.7413 79.1728ZM91.9751 80.0578C91.5326 80.0578 91.1955 79.9366 90.9637 79.6943C90.7425 79.4415 90.6319 79.1149 90.6319 78.7146V73.0098H89.2887V71.9036H90.0472C90.3211 71.9036 90.5055 71.8509 90.6003 71.7456C90.7056 71.6297 90.7583 71.4348 90.7583 71.1609V69.6438H91.8961V71.9036H93.6818V73.0098H91.8961V78.9516H93.5554V80.0578H91.9751ZM96.6281 69.9915C96.3542 69.9915 96.154 69.9283 96.0276 69.8018C95.9117 69.6649 95.8538 69.4911 95.8538 69.2804V69.0749C95.8538 68.8642 95.9117 68.6957 96.0276 68.5692C96.154 68.4323 96.3542 68.3638 96.6281 68.3638C96.902 68.3638 97.0969 68.4323 97.2128 68.5692C97.3392 68.6957 97.4025 68.8642 97.4025 69.0749V69.2804C97.4025 69.4911 97.3392 69.6649 97.2128 69.8018C97.0969 69.9283 96.902 69.9915 96.6281 69.9915ZM95.996 71.9036H97.2602V80.0578H95.996V71.9036ZM102.03 80.0578L99.1701 71.9036H100.434L101.857 75.9491L102.742 78.7304H102.821L103.705 75.9491L105.159 71.9036H106.376L103.5 80.0578H102.03ZM111.231 80.2474C110.673 80.2474 110.167 80.1473 109.714 79.9472C109.272 79.747 108.887 79.4626 108.561 79.0938C108.245 78.7146 107.997 78.2668 107.818 77.7506C107.649 77.2238 107.565 76.6339 107.565 75.9807C107.565 75.3381 107.649 74.7534 107.818 74.2266C107.997 73.6998 108.245 73.2521 108.561 72.8834C108.887 72.5041 109.272 72.2144 109.714 72.0142C110.167 71.8141 110.673 71.714 111.231 71.714C111.779 71.714 112.269 71.8141 112.701 72.0142C113.133 72.2144 113.502 72.4936 113.807 72.8518C114.113 73.1994 114.344 73.6156 114.502 74.1002C114.671 74.5848 114.755 75.1168 114.755 75.6963V76.2968H108.892V76.676C108.892 77.0237 108.945 77.3503 109.05 77.6558C109.166 77.9508 109.324 78.2089 109.525 78.4301C109.735 78.6514 109.988 78.8252 110.283 78.9516C110.589 79.078 110.931 79.1412 111.31 79.1412C111.826 79.1412 112.274 79.0201 112.653 78.7778C113.043 78.5355 113.344 78.1878 113.554 77.7348L114.455 78.3827C114.192 78.9411 113.781 79.3941 113.222 79.7417C112.664 80.0789 112 80.2474 111.231 80.2474ZM111.231 72.7728C110.884 72.7728 110.568 72.836 110.283 72.9624C109.999 73.0783 109.751 73.2468 109.54 73.4681C109.34 73.6893 109.182 73.9527 109.066 74.2582C108.95 74.5532 108.892 74.8798 108.892 75.238V75.3486H113.396V75.1748C113.396 74.4478 113.196 73.8684 112.796 73.4365C112.406 72.994 111.884 72.7728 111.231 72.7728ZM121.264 80.0578V69.0275H125.657C126.647 69.0275 127.406 69.312 127.933 69.8809C128.47 70.4392 128.739 71.2083 128.739 72.1881C128.739 73.1678 128.47 73.9422 127.933 74.511C127.406 75.0694 126.647 75.3486 125.657 75.3486H122.591V80.0578H121.264ZM122.591 74.1792H125.657C126.184 74.1792 126.589 74.0422 126.874 73.7683C127.169 73.4944 127.316 73.1046 127.316 72.5989V71.7772C127.316 71.2715 127.169 70.8817 126.874 70.6078C126.589 70.3339 126.184 70.1969 125.657 70.1969H122.591V74.1792ZM133.76 80.2474C133.202 80.2474 132.696 80.1473 132.243 79.9472C131.801 79.747 131.416 79.4626 131.09 79.0938C130.774 78.7146 130.526 78.2668 130.347 77.7506C130.178 77.2238 130.094 76.6339 130.094 75.9807C130.094 75.3381 130.178 74.7534 130.347 74.2266C130.526 73.6998 130.774 73.2521 131.09 72.8834C131.416 72.5041 131.801 72.2144 132.243 72.0142C132.696 71.8141 133.202 71.714 133.76 71.714C134.308 71.714 134.798 71.8141 135.23 72.0142C135.662 72.2144 136.031 72.4936 136.336 72.8518C136.642 73.1994 136.873 73.6156 137.031 74.1002C137.2 74.5848 137.284 75.1168 137.284 75.6963V76.2968H131.421V76.676C131.421 77.0237 131.474 77.3503 131.579 77.6558C131.695 77.9508 131.853 78.2089 132.054 78.4301C132.264 78.6514 132.517 78.8252 132.812 78.9516C133.118 79.078 133.46 79.1412 133.839 79.1412C134.355 79.1412 134.803 79.0201 135.182 78.7778C135.572 78.5355 135.873 78.1878 136.083 77.7348L136.984 78.3827C136.721 78.9411 136.31 79.3941 135.751 79.7417C135.193 80.0789 134.529 80.2474 133.76 80.2474ZM133.76 72.7728C133.413 72.7728 133.097 72.836 132.812 72.9624C132.528 73.0783 132.28 73.2468 132.069 73.4681C131.869 73.6893 131.711 73.9527 131.595 74.2582C131.479 74.5532 131.421 74.8798 131.421 75.238V75.3486H135.925V75.1748C135.925 74.4478 135.725 73.8684 135.325 73.4365C134.935 72.994 134.413 72.7728 133.76 72.7728ZM139.65 80.0578V71.9036H140.914V73.231H140.977C141.177 72.7675 141.456 72.3988 141.815 72.1248C142.183 71.8509 142.673 71.714 143.284 71.714C144.127 71.714 144.791 71.9879 145.275 72.5357C145.771 73.073 146.018 73.8368 146.018 74.8271V80.0578H144.754V75.0483C144.754 73.584 144.138 72.8518 142.905 72.8518C142.652 72.8518 142.405 72.8834 142.162 72.9466C141.931 73.0098 141.72 73.1046 141.53 73.231C141.341 73.3575 141.188 73.5207 141.072 73.7209C140.967 73.9105 140.914 74.1371 140.914 74.4004V80.0578H139.65ZM151.363 80.2474C150.604 80.2474 149.967 80.1052 149.451 79.8208C148.945 79.5258 148.508 79.136 148.139 78.6514L149.04 77.9244C149.356 78.3248 149.709 78.6356 150.099 78.8568C150.488 79.0675 150.941 79.1728 151.458 79.1728C151.995 79.1728 152.411 79.057 152.706 78.8252C153.012 78.5934 153.164 78.2668 153.164 77.8454C153.164 77.5294 153.059 77.2607 152.848 77.0395C152.648 76.8077 152.279 76.6497 151.742 76.5654L151.094 76.4706C150.715 76.4179 150.367 76.3389 150.051 76.2335C149.735 76.1177 149.456 75.9702 149.214 75.7911C148.982 75.6014 148.798 75.3697 148.661 75.0957C148.534 74.8218 148.471 74.4952 148.471 74.116C148.471 73.7156 148.545 73.368 148.692 73.073C148.84 72.7675 149.04 72.5146 149.293 72.3145C149.556 72.1143 149.867 71.9668 150.225 71.872C150.583 71.7666 150.968 71.714 151.379 71.714C152.042 71.714 152.596 71.8299 153.038 72.0616C153.491 72.2934 153.886 72.6147 154.223 73.0256L153.386 73.7841C153.207 73.5313 152.943 73.3048 152.596 73.1046C152.248 72.8939 151.811 72.7886 151.284 72.7886C150.757 72.7886 150.357 72.9044 150.083 73.1362C149.82 73.3575 149.688 73.663 149.688 74.0528C149.688 74.4531 149.82 74.7428 150.083 74.9219C150.357 75.101 150.747 75.2327 151.252 75.317L151.884 75.4118C152.79 75.5488 153.433 75.8121 153.812 76.2019C154.192 76.5812 154.381 77.0816 154.381 77.7032C154.381 78.4933 154.113 79.1149 153.575 79.5679C153.038 80.0209 152.301 80.2474 151.363 80.2474ZM157.529 69.9915C157.255 69.9915 157.054 69.9283 156.928 69.8018C156.812 69.6649 156.754 69.4911 156.754 69.2804V69.0749C156.754 68.8642 156.812 68.6957 156.928 68.5692C157.054 68.4323 157.255 68.3638 157.529 68.3638C157.802 68.3638 157.997 68.4323 158.113 68.5692C158.24 68.6957 158.303 68.8642 158.303 69.0749V69.2804C158.303 69.4911 158.24 69.6649 158.113 69.8018C157.997 69.9283 157.802 69.9915 157.529 69.9915ZM156.896 71.9036H158.161V80.0578H156.896V71.9036ZM164.211 80.2474C163.663 80.2474 163.163 80.1473 162.71 79.9472C162.257 79.747 161.867 79.4626 161.54 79.0938C161.224 78.7146 160.977 78.2668 160.797 77.7506C160.618 77.2238 160.529 76.6339 160.529 75.9807C160.529 75.3381 160.618 74.7534 160.797 74.2266C160.977 73.6998 161.224 73.2521 161.54 72.8834C161.867 72.5041 162.257 72.2144 162.71 72.0142C163.163 71.8141 163.663 71.714 164.211 71.714C164.759 71.714 165.254 71.8141 165.696 72.0142C166.149 72.2144 166.539 72.5041 166.866 72.8834C167.192 73.2521 167.445 73.6998 167.624 74.2266C167.803 74.7534 167.893 75.3381 167.893 75.9807C167.893 76.6339 167.803 77.2238 167.624 77.7506C167.445 78.2668 167.192 78.7146 166.866 79.0938C166.539 79.4626 166.149 79.747 165.696 79.9472C165.254 80.1473 164.759 80.2474 164.211 80.2474ZM164.211 79.1254C164.896 79.1254 165.454 78.9147 165.886 78.4933C166.318 78.0719 166.534 77.4293 166.534 76.5654V75.396C166.534 74.5321 166.318 73.8895 165.886 73.4681C165.454 73.0467 164.896 72.836 164.211 72.836C163.526 72.836 162.968 73.0467 162.536 73.4681C162.104 73.8895 161.888 74.5321 161.888 75.396V76.5654C161.888 77.4293 162.104 78.0719 162.536 78.4933C162.968 78.9147 163.526 79.1254 164.211 79.1254ZM170.254 80.0578V71.9036H171.518V73.231H171.582C171.782 72.7675 172.061 72.3988 172.419 72.1248C172.788 71.8509 173.278 71.714 173.889 71.714C174.732 71.714 175.395 71.9879 175.88 72.5357C176.375 73.073 176.623 73.8368 176.623 74.8271V80.0578H175.358V75.0483C175.358 73.584 174.742 72.8518 173.51 72.8518C173.257 72.8518 173.009 72.8834 172.767 72.9466C172.535 73.0098 172.324 73.1046 172.135 73.231C171.945 73.3575 171.792 73.5207 171.676 73.7209C171.571 73.9105 171.518 74.1371 171.518 74.4004V80.0578H170.254ZM186.759 80.2474C185.863 80.2474 185.099 80.0789 184.467 79.7417C183.835 79.3941 183.298 78.92 182.855 78.3195L183.835 77.4978C184.225 78.014 184.657 78.4091 185.131 78.683C185.605 78.9463 186.163 79.078 186.806 79.078C187.596 79.078 188.197 78.8884 188.607 78.5091C189.029 78.1299 189.24 77.6242 189.24 76.9921C189.24 76.4653 189.082 76.0597 188.766 75.7753C188.449 75.4908 187.928 75.2643 187.201 75.0957L186.3 74.8903C185.289 74.6585 184.515 74.3109 183.977 73.8473C183.451 73.3733 183.187 72.7095 183.187 71.8562C183.187 71.3716 183.277 70.9396 183.456 70.5604C183.635 70.1811 183.882 69.8651 184.199 69.6122C184.525 69.3594 184.91 69.1697 185.352 69.0433C185.805 68.9064 186.3 68.8379 186.838 68.8379C187.67 68.8379 188.381 68.9906 188.971 69.2962C189.571 69.6017 190.077 70.0494 190.488 70.6394L189.492 71.3663C189.187 70.9449 188.818 70.613 188.386 70.3707C187.954 70.1284 187.417 70.0073 186.774 70.0073C186.069 70.0073 185.51 70.16 185.099 70.4656C184.699 70.7605 184.499 71.2083 184.499 71.8088C184.499 72.3355 184.667 72.7359 185.004 73.0098C185.352 73.2732 185.874 73.4839 186.569 73.6419L187.47 73.8473C188.555 74.0896 189.34 74.4584 189.824 74.9535C190.309 75.4487 190.551 76.1071 190.551 76.9289C190.551 77.4346 190.462 77.8928 190.283 78.3037C190.114 78.7146 189.866 79.0622 189.54 79.3467C189.213 79.6311 188.813 79.8524 188.339 80.0104C187.875 80.1684 187.349 80.2474 186.759 80.2474ZM198.025 71.9036H199.273L195.623 81.9541C195.528 82.1964 195.433 82.3966 195.338 82.5546C195.243 82.7232 195.127 82.8549 194.99 82.9497C194.853 83.0445 194.68 83.113 194.469 83.1551C194.269 83.1973 194.021 83.2183 193.726 83.2183H193.078V82.1122H194.358L194.975 80.3739L191.925 71.9036H193.189L195.148 77.4504L195.528 78.7778H195.607L196.049 77.4504L198.025 71.9036ZM203.555 80.2474C202.797 80.2474 202.159 80.1052 201.643 79.8208C201.137 79.5258 200.7 79.136 200.331 78.6514L201.232 77.9244C201.548 78.3248 201.901 78.6356 202.291 78.8568C202.681 79.0675 203.134 79.1728 203.65 79.1728C204.187 79.1728 204.603 79.057 204.898 78.8252C205.204 78.5934 205.357 78.2668 205.357 77.8454C205.357 77.5294 205.251 77.2607 205.041 77.0395C204.84 76.8077 204.472 76.6497 203.934 76.5654L203.286 76.4706C202.907 76.4179 202.559 76.3389 202.243 76.2335C201.927 76.1177 201.648 75.9702 201.406 75.7911C201.174 75.6014 200.99 75.3697 200.853 75.0957C200.726 74.8218 200.663 74.4952 200.663 74.116C200.663 73.7156 200.737 73.368 200.884 73.073C201.032 72.7675 201.232 72.5146 201.485 72.3145C201.748 72.1143 202.059 71.9668 202.417 71.872C202.775 71.7666 203.16 71.714 203.571 71.714C204.235 71.714 204.788 71.8299 205.23 72.0616C205.683 72.2934 206.078 72.6147 206.415 73.0256L205.578 73.7841C205.399 73.5313 205.135 73.3048 204.788 73.1046C204.44 72.8939 204.003 72.7886 203.476 72.7886C202.949 72.7886 202.549 72.9044 202.275 73.1362C202.012 73.3575 201.88 73.663 201.88 74.0528C201.88 74.4531 202.012 74.7428 202.275 74.9219C202.549 75.101 202.939 75.2327 203.444 75.317L204.077 75.4118C204.983 75.5488 205.625 75.8121 206.004 76.2019C206.384 76.5812 206.573 77.0816 206.573 77.7032C206.573 78.4933 206.305 79.1149 205.767 79.5679C205.23 80.0209 204.493 80.2474 203.555 80.2474ZM210.782 80.0578C210.34 80.0578 210.002 79.9366 209.771 79.6943C209.549 79.4415 209.439 79.1149 209.439 78.7146V73.0098H208.096V71.9036H208.854C209.128 71.9036 209.312 71.8509 209.407 71.7456C209.513 71.6297 209.565 71.4348 209.565 71.1609V69.6438H210.703V71.9036H212.489V73.0098H210.703V78.9516H212.362V80.0578H210.782ZM217.807 80.2474C217.249 80.2474 216.743 80.1473 216.29 79.9472C215.847 79.747 215.463 79.4626 215.136 79.0938C214.82 78.7146 214.573 78.2668 214.394 77.7506C214.225 77.2238 214.141 76.6339 214.141 75.9807C214.141 75.3381 214.225 74.7534 214.394 74.2266C214.573 73.6998 214.82 73.2521 215.136 72.8834C215.463 72.5041 215.847 72.2144 216.29 72.0142C216.743 71.8141 217.249 71.714 217.807 71.714C218.355 71.714 218.845 71.8141 219.277 72.0142C219.709 72.2144 220.077 72.4936 220.383 72.8518C220.688 73.1994 220.92 73.6156 221.078 74.1002C221.247 74.5848 221.331 75.1168 221.331 75.6963V76.2968H215.468V76.676C215.468 77.0237 215.521 77.3503 215.626 77.6558C215.742 77.9508 215.9 78.2089 216.1 78.4301C216.311 78.6514 216.564 78.8252 216.859 78.9516C217.164 79.078 217.507 79.1412 217.886 79.1412C218.402 79.1412 218.85 79.0201 219.229 78.7778C219.619 78.5355 219.919 78.1878 220.13 77.7348L221.031 78.3827C220.767 78.9411 220.356 79.3941 219.798 79.7417C219.24 80.0789 218.576 80.2474 217.807 80.2474ZM217.807 72.7728C217.459 72.7728 217.143 72.836 216.859 72.9624C216.574 73.0783 216.327 73.2468 216.116 73.4681C215.916 73.6893 215.758 73.9527 215.642 74.2582C215.526 74.5532 215.468 74.8798 215.468 75.238V75.3486H219.972V75.1748C219.972 74.4478 219.772 73.8684 219.371 73.4365C218.982 72.994 218.46 72.7728 217.807 72.7728ZM223.696 80.0578V71.9036H224.961V73.231H225.024C225.119 73.0203 225.224 72.8254 225.34 72.6463C225.466 72.4567 225.614 72.2934 225.782 72.1564C225.961 72.0195 226.167 71.9141 226.399 71.8404C226.63 71.7561 226.904 71.714 227.22 71.714C227.758 71.714 228.253 71.8457 228.706 72.109C229.159 72.3619 229.496 72.7833 229.717 73.3733H229.749C229.896 72.9308 230.17 72.5462 230.571 72.2197C230.981 71.8825 231.535 71.714 232.23 71.714C233.062 71.714 233.71 71.9879 234.174 72.5357C234.648 73.073 234.885 73.8368 234.885 74.8271V80.0578H233.62V75.0483C233.62 74.3214 233.478 73.7736 233.194 73.4049C232.909 73.0361 232.456 72.8518 231.835 72.8518C231.582 72.8518 231.34 72.8834 231.108 72.9466C230.887 73.0098 230.686 73.1046 230.507 73.231C230.328 73.3575 230.186 73.5207 230.081 73.7209C229.975 73.9105 229.923 74.1371 229.923 74.4004V80.0578H228.658V75.0483C228.658 74.3214 228.516 73.7736 228.232 73.4049C227.947 73.0361 227.505 72.8518 226.904 72.8518C226.651 72.8518 226.409 72.8834 226.177 72.9466C225.946 73.0098 225.74 73.1046 225.561 73.231C225.382 73.3575 225.234 73.5207 225.119 73.7209C225.013 73.9105 224.961 74.1371 224.961 74.4004V80.0578H223.696Z" fill="#607D8B"/>
<path opacity="0.5" d="M348.763 403.651C341.03 394.558 333.492 386.088 325.538 386.088C319.331 386.088 313.379 391.244 307.389 396.431C302.912 400.31 298.414 404.206 293.774 405.978C283.703 410.122 272.856 401.835 262.785 390.232C251.939 378.629 241.093 362.882 231.021 339.676C228.614 334.525 226.244 329.006 223.896 323.537C215.666 304.368 207.696 285.805 199.257 285.805C193.156 285.805 186.77 297.061 180.272 308.514C176.044 315.965 171.769 323.5 167.494 328.073C161.232 335.287 154.67 335.132 148.181 334.979C144.234 334.886 140.314 334.793 136.505 336.361C126.493 339.421 117.142 353.072 107.232 367.539C106.406 368.746 105.576 369.958 104.741 371.17C94.6695 386.088 83.8233 401.835 72.9772 410.122C62.9057 417.581 52.0596 417.581 41.9882 397.691C40.64 395.321 39.3038 392.645 37.987 389.737" stroke="#3C9AF7" stroke-width="6" stroke-linecap="round"/>
<path opacity="0.5" d="M348.763 399.364C348.086 399.166 347.413 398.928 346.741 398.648C340.619 396.271 334.685 391.047 328.777 385.847C320.874 378.892 313.02 371.979 304.831 371.979C293.853 371.979 283.476 384.404 272.778 397.214C269.531 401.102 266.254 405.026 262.921 408.648C249.633 424.205 235.322 435.317 222.033 424.205C208.974 415.078 196.765 388.369 183.854 360.123C182.617 357.417 181.374 354.698 180.124 351.978C179.059 349.663 177.999 347.348 176.945 345.043C163.829 316.376 151.459 289.339 138.214 284.196C132.089 281.636 125.748 284.739 119.39 287.851C111.952 291.492 104.49 295.144 97.3257 289.752C89.9363 284.014 82.5469 270.278 75.2983 256.803C68.5087 244.181 61.8427 231.789 55.4157 226.415C49.4789 222.266 43.718 223.472 37.987 227.732" stroke="#FF5A5F" stroke-width="6" stroke-linecap="round"/>
<path opacity="0.5" d="M37.987 344.27L46.6206 364.932C47.6916 367.388 48.8764 370.163 50.1634 373.176C59.251 394.454 73.4298 427.652 88.5549 444.996C104.589 465.658 121.856 465.658 137.889 457.91C155.157 449.301 172.424 432.944 188.457 417.447C189.786 416.188 191.108 414.929 192.424 413.676C208.2 398.649 223.087 384.468 239.025 381.289C245.09 379.661 251.331 379.757 257.615 379.854C267.944 380.013 278.391 380.174 288.36 372.68C295.166 367.93 301.972 360.103 308.702 352.363C319.047 340.466 329.214 328.774 338.928 328.774C342.246 328.774 345.518 329.95 348.763 332.022" stroke="#A82CD0" stroke-width="6" stroke-linecap="round"/>
<defs>
<filter id="filter0_d" x="0" y="0" width="386.75" height="649.56" filterUnits="userSpaceOnUse" color-interpolation-filters="sRGB">
<feFlood flood-opacity="0" result="BackgroundImageFix"/>
<feColorMatrix in="SourceAlpha" type="matrix" values="0 0 0 0 0 0 0 0 0 0 0 0 0 0 0 0 0 0 127 0" result="hardAlpha"/>
<feOffset dy="4"/>
<feGaussianBlur stdDeviation="10"/>
<feComposite in2="hardAlpha" operator="out"/>
<feColorMatrix type="matrix" values="0 0 0 0 0.741667 0 0 0 0 0.741667 0 0 0 0 0.741667 0 0 0 0.25 0"/>
<feBlend mode="normal" in2="BackgroundImageFix" result="effect1_dropShadow"/>
<feBlend mode="normal" in="SourceGraphic" in2="effect1_dropShadow" result="shape"/>
</filter>
</defs>
</svg>
