<svg width="387" height="734" viewBox="0 0 387 734" fill="none" xmlns="http://www.w3.org/2000/svg">
<path d="M42.7284 697L41.6222 693.745H37.1658L36.0596 697H34.7164L38.5723 685.97H40.2632L44.119 697H42.7284ZM39.4256 687.202H39.3466L37.4819 692.575H41.2903L39.4256 687.202ZM48.5514 697.19C47.7929 697.19 47.1555 697.047 46.6393 696.763C46.1336 696.468 45.6964 696.078 45.3277 695.594L46.2284 694.867C46.5445 695.267 46.8974 695.578 47.2872 695.799C47.677 696.01 48.13 696.115 48.6462 696.115C49.1835 696.115 49.5996 695.999 49.8946 695.767C50.2002 695.536 50.3529 695.209 50.3529 694.788C50.3529 694.472 50.2476 694.203 50.0369 693.982C49.8367 693.75 49.468 693.592 48.9307 693.508L48.2828 693.413C47.9035 693.36 47.5558 693.281 47.2398 693.176C46.9237 693.06 46.6445 692.912 46.4022 692.733C46.1705 692.544 45.9861 692.312 45.8491 692.038C45.7227 691.764 45.6595 691.437 45.6595 691.058C45.6595 690.658 45.7333 690.31 45.8807 690.015C46.0282 689.71 46.2284 689.457 46.4812 689.257C46.7446 689.057 47.0554 688.909 47.4136 688.814C47.7718 688.709 48.1563 688.656 48.5672 688.656C49.2309 688.656 49.784 688.772 50.2265 689.004C50.6795 689.236 51.0746 689.557 51.4117 689.968L50.5742 690.726C50.3951 690.473 50.1317 690.247 49.784 690.047C49.4364 689.836 48.9991 689.731 48.4724 689.731C47.9456 689.731 47.5453 689.847 47.2714 690.078C47.008 690.3 46.8763 690.605 46.8763 690.995C46.8763 691.395 47.008 691.685 47.2714 691.864C47.5453 692.043 47.9351 692.175 48.4408 692.259L49.0729 692.354C49.9789 692.491 50.6216 692.754 51.0008 693.144C51.3801 693.523 51.5697 694.024 51.5697 694.645C51.5697 695.436 51.3011 696.057 50.7638 696.51C50.2265 696.963 49.489 697.19 48.5514 697.19ZM56.4417 697.19C55.6832 697.19 55.0458 697.047 54.5296 696.763C54.0239 696.468 53.5867 696.078 53.218 695.594L54.1187 694.867C54.4348 695.267 54.7877 695.578 55.1775 695.799C55.5673 696.01 56.0203 696.115 56.5366 696.115C57.0738 696.115 57.49 695.999 57.785 695.767C58.0905 695.536 58.2432 695.209 58.2432 694.788C58.2432 694.472 58.1379 694.203 57.9272 693.982C57.727 693.75 57.3583 693.592 56.821 693.508L56.1731 693.413C55.7938 693.36 55.4462 693.281 55.1301 693.176C54.8141 693.06 54.5349 692.912 54.2926 692.733C54.0608 692.544 53.8764 692.312 53.7395 692.038C53.6131 691.764 53.5498 691.437 53.5498 691.058C53.5498 690.658 53.6236 690.31 53.7711 690.015C53.9186 689.71 54.1187 689.457 54.3716 689.257C54.635 689.057 54.9457 688.909 55.3039 688.814C55.6621 688.709 56.0467 688.656 56.4575 688.656C57.1213 688.656 57.6743 688.772 58.1168 689.004C58.5698 689.236 58.9649 689.557 59.302 689.968L58.4645 690.726C58.2854 690.473 58.022 690.247 57.6743 690.047C57.3267 689.836 56.8895 689.731 56.3627 689.731C55.836 689.731 55.4356 689.847 55.1617 690.078C54.8983 690.3 54.7666 690.605 54.7666 690.995C54.7666 691.395 54.8983 691.685 55.1617 691.864C55.4356 692.043 55.8254 692.175 56.3311 692.259L56.9632 692.354C57.8692 692.491 58.5119 692.754 58.8912 693.144C59.2704 693.523 59.4601 694.024 59.4601 694.645C59.4601 695.436 59.1914 696.057 58.6541 696.51C58.1168 696.963 57.3794 697.19 56.4417 697.19ZM62.6074 686.934C62.3334 686.934 62.1333 686.87 62.0068 686.744C61.891 686.607 61.833 686.433 61.833 686.223V686.017C61.833 685.806 61.891 685.638 62.0068 685.511C62.1333 685.374 62.3334 685.306 62.6074 685.306C62.8813 685.306 63.0762 685.374 63.1921 685.511C63.3185 685.638 63.3817 685.806 63.3817 686.017V686.223C63.3817 686.433 63.3185 686.607 63.1921 686.744C63.0762 686.87 62.8813 686.934 62.6074 686.934ZM61.9752 688.846H63.2395V697H61.9752V688.846ZM68.6575 697.19C67.899 697.19 67.2616 697.047 66.7454 696.763C66.2397 696.468 65.8025 696.078 65.4338 695.594L66.3345 694.867C66.6506 695.267 67.0035 695.578 67.3933 695.799C67.7831 696.01 68.2361 696.115 68.7523 696.115C69.2896 696.115 69.7058 695.999 70.0008 695.767C70.3063 695.536 70.459 695.209 70.459 694.788C70.459 694.472 70.3537 694.203 70.143 693.982C69.9428 693.75 69.5741 693.592 69.0368 693.508L68.3889 693.413C68.0096 693.36 67.662 693.281 67.3459 693.176C67.0299 693.06 66.7507 692.912 66.5084 692.733C66.2766 692.544 66.0922 692.312 65.9553 692.038C65.8288 691.764 65.7656 691.437 65.7656 691.058C65.7656 690.658 65.8394 690.31 65.9869 690.015C66.1344 689.71 66.3345 689.457 66.5874 689.257C66.8508 689.057 67.1615 688.909 67.5197 688.814C67.8779 688.709 68.2625 688.656 68.6733 688.656C69.337 688.656 69.8901 688.772 70.3326 689.004C70.7856 689.236 71.1807 689.557 71.5178 689.968L70.6803 690.726C70.5012 690.473 70.2378 690.247 69.8901 690.047C69.5425 689.836 69.1053 689.731 68.5785 689.731C68.0518 689.731 67.6514 689.847 67.3775 690.078C67.1141 690.3 66.9824 690.605 66.9824 690.995C66.9824 691.395 67.1141 691.685 67.3775 691.864C67.6514 692.043 68.0412 692.175 68.5469 692.259L69.179 692.354C70.085 692.491 70.7277 692.754 71.107 693.144C71.4862 693.523 71.6758 694.024 71.6758 694.645C71.6758 695.436 71.4072 696.057 70.8699 696.51C70.3326 696.963 69.5952 697.19 68.6575 697.19ZM75.8845 697C75.442 697 75.1049 696.879 74.8731 696.637C74.6519 696.384 74.5413 696.057 74.5413 695.657V689.952H73.1981V688.846H73.9566C74.2305 688.846 74.4149 688.793 74.5097 688.688C74.615 688.572 74.6677 688.377 74.6677 688.103V686.586H75.8055V688.846H77.5912V689.952H75.8055V695.894H77.4648V697H75.8845ZM80.5375 686.934C80.2636 686.934 80.0634 686.87 79.937 686.744C79.8211 686.607 79.7632 686.433 79.7632 686.223V686.017C79.7632 685.806 79.8211 685.638 79.937 685.511C80.0634 685.374 80.2636 685.306 80.5375 685.306C80.8114 685.306 81.0063 685.374 81.1222 685.511C81.2486 685.638 81.3118 685.806 81.3118 686.017V686.223C81.3118 686.433 81.2486 686.607 81.1222 686.744C81.0063 686.87 80.8114 686.934 80.5375 686.934ZM79.9054 688.846H81.1696V697H79.9054V688.846ZM84.1383 697V688.846H85.4025V690.173H85.4657C85.6659 689.71 85.9451 689.341 86.3032 689.067C86.672 688.793 87.1619 688.656 87.7729 688.656C88.6157 688.656 89.2794 688.93 89.764 689.478C90.2592 690.015 90.5068 690.779 90.5068 691.769V697H89.2426V691.991C89.2426 690.526 88.6262 689.794 87.3936 689.794C87.1408 689.794 86.8932 689.826 86.6509 689.889C86.4191 689.952 86.2084 690.047 86.0188 690.173C85.8292 690.3 85.6764 690.463 85.5605 690.663C85.4552 690.853 85.4025 691.079 85.4025 691.343V697H84.1383ZM100.276 697.901C100.276 698.744 99.9444 699.36 99.2807 699.75C98.6275 700.15 97.6425 700.35 96.3256 700.35C95.0508 700.35 94.1343 700.176 93.5759 699.829C93.0176 699.481 92.7384 698.986 92.7384 698.343C92.7384 697.901 92.8543 697.553 93.086 697.3C93.3178 697.058 93.6339 696.879 94.0342 696.763V696.589C93.5496 696.357 93.3073 695.978 93.3073 695.451C93.3073 695.04 93.439 694.73 93.7023 694.519C93.9657 694.298 94.3028 694.134 94.7137 694.029V693.966C94.2291 693.734 93.8498 693.402 93.5759 692.97C93.3125 692.538 93.1808 692.038 93.1808 691.469C93.1808 691.058 93.2546 690.679 93.4021 690.331C93.5496 689.984 93.755 689.689 94.0184 689.446C94.2923 689.193 94.6136 688.999 94.9824 688.862C95.3616 688.725 95.783 688.656 96.2466 688.656C96.826 688.656 97.3422 688.762 97.7952 688.972V688.83C97.7952 688.514 97.869 688.256 98.0165 688.056C98.164 687.845 98.4063 687.74 98.7434 687.74H99.9602V688.846H98.4115V689.367C98.7065 689.62 98.933 689.926 99.0911 690.284C99.2596 690.632 99.3439 691.027 99.3439 691.469C99.3439 691.88 99.2702 692.259 99.1227 692.607C98.9752 692.955 98.7645 693.255 98.4906 693.508C98.2272 693.75 97.9059 693.94 97.5266 694.076C97.1473 694.213 96.7259 694.282 96.2624 694.282C95.999 694.282 95.7356 694.256 95.4722 694.203C95.1983 694.277 94.9507 694.387 94.7295 694.535C94.5083 694.672 94.3977 694.867 94.3977 695.119C94.3977 695.362 94.5135 695.525 94.7453 695.609C94.9771 695.694 95.2773 695.736 95.6461 695.736H97.3844C98.3957 695.736 99.1279 695.931 99.5809 696.32C100.044 696.7 100.276 697.227 100.276 697.901ZM99.0911 697.996C99.0911 697.669 98.9646 697.406 98.7118 697.205C98.4695 697.016 98.0323 696.921 97.4002 696.921H94.6821C94.1764 697.153 93.9236 697.521 93.9236 698.027C93.9236 698.385 94.0553 698.691 94.3186 698.944C94.5926 699.197 95.0508 699.323 95.6935 699.323H96.8629C97.5687 699.323 98.1166 699.212 98.5064 698.991C98.8962 698.77 99.0911 698.438 99.0911 697.996ZM96.2624 693.271C96.7997 693.271 97.2263 693.144 97.5424 692.891C97.8584 692.628 98.0165 692.228 98.0165 691.69V691.248C98.0165 690.711 97.8584 690.315 97.5424 690.063C97.2263 689.799 96.7997 689.668 96.2624 689.668C95.7251 689.668 95.2984 689.799 94.9824 690.063C94.6663 690.315 94.5083 690.711 94.5083 691.248V691.69C94.5083 692.228 94.6663 692.628 94.9824 692.891C95.2984 693.144 95.7251 693.271 96.2624 693.271ZM106.492 689.952H105.165V688.846H106.492V687.202C106.492 686.633 106.64 686.175 106.935 685.827C107.23 685.48 107.678 685.306 108.278 685.306H109.511V686.412H107.757V688.846H109.511V689.952H107.757V697H106.492V689.952ZM117.382 697C116.908 697 116.565 696.874 116.355 696.621C116.154 696.368 116.028 696.052 115.975 695.673H115.896C115.717 696.178 115.422 696.558 115.011 696.81C114.6 697.063 114.111 697.19 113.542 697.19C112.678 697.19 112.004 696.968 111.519 696.526C111.045 696.083 110.808 695.483 110.808 694.724C110.808 693.955 111.087 693.365 111.645 692.955C112.214 692.544 113.094 692.338 114.284 692.338H115.896V691.532C115.896 690.953 115.738 690.51 115.422 690.205C115.106 689.899 114.622 689.747 113.968 689.747C113.473 689.747 113.057 689.857 112.72 690.078C112.393 690.3 112.119 690.595 111.898 690.963L111.14 690.252C111.361 689.81 111.714 689.436 112.198 689.13C112.683 688.814 113.294 688.656 114.032 688.656C115.022 688.656 115.791 688.898 116.339 689.383C116.887 689.868 117.16 690.542 117.16 691.406V695.894H118.093V697H117.382ZM113.747 696.115C114.063 696.115 114.353 696.078 114.616 696.004C114.88 695.931 115.106 695.825 115.296 695.688C115.485 695.551 115.633 695.393 115.738 695.214C115.844 695.035 115.896 694.84 115.896 694.63V693.286H114.221C113.494 693.286 112.962 693.392 112.625 693.602C112.299 693.813 112.135 694.119 112.135 694.519V694.851C112.135 695.251 112.277 695.562 112.562 695.783C112.857 696.004 113.252 696.115 113.747 696.115ZM120.179 697V688.846H121.444V690.173H121.507C121.602 689.963 121.707 689.768 121.823 689.589C121.949 689.399 122.097 689.236 122.265 689.099C122.444 688.962 122.65 688.856 122.882 688.783C123.113 688.698 123.387 688.656 123.703 688.656C124.241 688.656 124.736 688.788 125.189 689.051C125.642 689.304 125.979 689.725 126.2 690.315H126.232C126.379 689.873 126.653 689.488 127.054 689.162C127.464 688.825 128.018 688.656 128.713 688.656C129.545 688.656 130.193 688.93 130.657 689.478C131.131 690.015 131.368 690.779 131.368 691.769V697H130.103V691.991C130.103 691.264 129.961 690.716 129.677 690.347C129.392 689.978 128.939 689.794 128.318 689.794C128.065 689.794 127.823 689.826 127.591 689.889C127.37 689.952 127.169 690.047 126.99 690.173C126.811 690.3 126.669 690.463 126.564 690.663C126.458 690.853 126.406 691.079 126.406 691.343V697H125.141V691.991C125.141 691.264 124.999 690.716 124.715 690.347C124.43 689.978 123.988 689.794 123.387 689.794C123.134 689.794 122.892 689.826 122.66 689.889C122.429 689.952 122.223 690.047 122.044 690.173C121.865 690.3 121.718 690.463 121.602 690.663C121.496 690.853 121.444 691.079 121.444 691.343V697H120.179ZM134.89 686.934C134.616 686.934 134.416 686.87 134.29 686.744C134.174 686.607 134.116 686.433 134.116 686.223V686.017C134.116 685.806 134.174 685.638 134.29 685.511C134.416 685.374 134.616 685.306 134.89 685.306C135.164 685.306 135.359 685.374 135.475 685.511C135.601 685.638 135.665 685.806 135.665 686.017V686.223C135.665 686.433 135.601 686.607 135.475 686.744C135.359 686.87 135.164 686.934 134.89 686.934ZM134.258 688.846H135.522V697H134.258V688.846ZM139.834 697C139.392 697 139.055 696.879 138.823 696.637C138.602 696.384 138.491 696.068 138.491 695.688V685.306H139.755V695.894H140.956V697H139.834ZM143.711 686.934C143.437 686.934 143.237 686.87 143.11 686.744C142.994 686.607 142.937 686.433 142.937 686.223V686.017C142.937 685.806 142.994 685.638 143.11 685.511C143.237 685.374 143.437 685.306 143.711 685.306C143.985 685.306 144.18 685.374 144.296 685.511C144.422 685.638 144.485 685.806 144.485 686.017V686.223C144.485 686.433 144.422 686.607 144.296 686.744C144.18 686.87 143.985 686.934 143.711 686.934ZM143.079 688.846H144.343V697H143.079V688.846ZM150.377 697.19C149.819 697.19 149.313 697.09 148.86 696.889C148.418 696.689 148.033 696.405 147.707 696.036C147.391 695.657 147.143 695.209 146.964 694.693C146.795 694.166 146.711 693.576 146.711 692.923C146.711 692.28 146.795 691.696 146.964 691.169C147.143 690.642 147.391 690.194 147.707 689.826C148.033 689.446 148.418 689.157 148.86 688.956C149.313 688.756 149.819 688.656 150.377 688.656C150.925 688.656 151.415 688.756 151.847 688.956C152.279 689.157 152.648 689.436 152.953 689.794C153.259 690.142 153.49 690.558 153.649 691.042C153.817 691.527 153.901 692.059 153.901 692.638V693.239H148.039V693.618C148.039 693.966 148.091 694.292 148.197 694.598C148.312 694.893 148.471 695.151 148.671 695.372C148.881 695.594 149.134 695.767 149.429 695.894C149.735 696.02 150.077 696.083 150.456 696.083C150.973 696.083 151.42 695.962 151.8 695.72C152.189 695.478 152.49 695.13 152.7 694.677L153.601 695.325C153.338 695.883 152.927 696.336 152.369 696.684C151.81 697.021 151.146 697.19 150.377 697.19ZM150.377 689.715C150.03 689.715 149.714 689.778 149.429 689.905C149.145 690.02 148.897 690.189 148.686 690.41C148.486 690.632 148.328 690.895 148.212 691.2C148.097 691.495 148.039 691.822 148.039 692.18V692.291H152.542V692.117C152.542 691.39 152.342 690.811 151.942 690.379C151.552 689.936 151.031 689.715 150.377 689.715ZM158.716 697.19C157.958 697.19 157.32 697.047 156.804 696.763C156.298 696.468 155.861 696.078 155.492 695.594L156.393 694.867C156.709 695.267 157.062 695.578 157.452 695.799C157.842 696.01 158.295 696.115 158.811 696.115C159.348 696.115 159.764 695.999 160.059 695.767C160.365 695.536 160.518 695.209 160.518 694.788C160.518 694.472 160.412 694.203 160.202 693.982C160.002 693.75 159.633 693.592 159.095 693.508L158.448 693.413C158.068 693.36 157.721 693.281 157.405 693.176C157.089 693.06 156.809 692.912 156.567 692.733C156.335 692.544 156.151 692.312 156.014 692.038C155.888 691.764 155.824 691.437 155.824 691.058C155.824 690.658 155.898 690.31 156.046 690.015C156.193 689.71 156.393 689.457 156.646 689.257C156.909 689.057 157.22 688.909 157.578 688.814C157.937 688.709 158.321 688.656 158.732 688.656C159.396 688.656 159.949 688.772 160.391 689.004C160.844 689.236 161.239 689.557 161.577 689.968L160.739 690.726C160.56 690.473 160.296 690.247 159.949 690.047C159.601 689.836 159.164 689.731 158.637 689.731C158.11 689.731 157.71 689.847 157.436 690.078C157.173 690.3 157.041 690.605 157.041 690.995C157.041 691.395 157.173 691.685 157.436 691.864C157.71 692.043 158.1 692.175 158.606 692.259L159.238 692.354C160.144 692.491 160.786 692.754 161.166 693.144C161.545 693.523 161.735 694.024 161.735 694.645C161.735 695.436 161.466 696.057 160.929 696.51C160.391 696.963 159.654 697.19 158.716 697.19ZM168.899 686.934C168.625 686.934 168.425 686.87 168.298 686.744C168.182 686.607 168.124 686.433 168.124 686.223V686.017C168.124 685.806 168.182 685.638 168.298 685.511C168.425 685.374 168.625 685.306 168.899 685.306C169.173 685.306 169.367 685.374 169.483 685.511C169.61 685.638 169.673 685.806 169.673 686.017V686.223C169.673 686.433 169.61 686.607 169.483 686.744C169.367 686.87 169.173 686.934 168.899 686.934ZM168.267 688.846H169.531V697H168.267V688.846ZM172.499 697V688.846H173.764V690.173H173.827C174.027 689.71 174.306 689.341 174.664 689.067C175.033 688.793 175.523 688.656 176.134 688.656C176.977 688.656 177.641 688.93 178.125 689.478C178.62 690.015 178.868 690.779 178.868 691.769V697H177.604V691.991C177.604 690.526 176.987 689.794 175.755 689.794C175.502 689.794 175.254 689.826 175.012 689.889C174.78 689.952 174.57 690.047 174.38 690.173C174.19 690.3 174.038 690.463 173.922 690.663C173.816 690.853 173.764 691.079 173.764 691.343V697H172.499ZM187.582 697C187.139 697 186.802 696.879 186.57 696.637C186.349 696.384 186.238 696.057 186.238 695.657V689.952H184.895V688.846H185.654C185.928 688.846 186.112 688.793 186.207 688.688C186.312 688.572 186.365 688.377 186.365 688.103V686.586H187.503V688.846H189.288V689.952H187.503V695.894H189.162V697H187.582ZM191.602 685.306H192.867V690.173H192.93C193.13 689.71 193.409 689.341 193.767 689.067C194.136 688.793 194.626 688.656 195.237 688.656C196.08 688.656 196.744 688.93 197.228 689.478C197.723 690.015 197.971 690.779 197.971 691.769V697H196.707V691.991C196.707 690.526 196.09 689.794 194.858 689.794C194.605 689.794 194.357 689.826 194.115 689.889C193.883 689.952 193.673 690.047 193.483 690.173C193.293 690.3 193.141 690.463 193.025 690.663C192.919 690.853 192.867 691.079 192.867 691.343V697H191.602V685.306ZM203.932 697.19C203.374 697.19 202.868 697.09 202.415 696.889C201.972 696.689 201.588 696.405 201.261 696.036C200.945 695.657 200.698 695.209 200.519 694.693C200.35 694.166 200.266 693.576 200.266 692.923C200.266 692.28 200.35 691.696 200.519 691.169C200.698 690.642 200.945 690.194 201.261 689.826C201.588 689.446 201.972 689.157 202.415 688.956C202.868 688.756 203.374 688.656 203.932 688.656C204.48 688.656 204.97 688.756 205.402 688.956C205.834 689.157 206.202 689.436 206.508 689.794C206.813 690.142 207.045 690.558 207.203 691.042C207.372 691.527 207.456 692.059 207.456 692.638V693.239H201.593V693.618C201.593 693.966 201.646 694.292 201.751 694.598C201.867 694.893 202.025 695.151 202.225 695.372C202.436 695.594 202.689 695.767 202.984 695.894C203.289 696.02 203.632 696.083 204.011 696.083C204.527 696.083 204.975 695.962 205.354 695.72C205.744 695.478 206.044 695.13 206.255 694.677L207.156 695.325C206.892 695.883 206.481 696.336 205.923 696.684C205.365 697.021 204.701 697.19 203.932 697.19ZM203.932 689.715C203.584 689.715 203.268 689.778 202.984 689.905C202.699 690.02 202.452 690.189 202.241 690.41C202.041 690.632 201.883 690.895 201.767 691.2C201.651 691.495 201.593 691.822 201.593 692.18V692.291H206.097V692.117C206.097 691.39 205.897 690.811 205.496 690.379C205.107 689.936 204.585 689.715 203.932 689.715ZM210.454 686.934C210.18 686.934 209.979 686.87 209.853 686.744C209.737 686.607 209.679 686.433 209.679 686.223V686.017C209.679 685.806 209.737 685.638 209.853 685.511C209.979 685.374 210.18 685.306 210.454 685.306C210.727 685.306 210.922 685.374 211.038 685.511C211.165 685.638 211.228 685.806 211.228 686.017V686.223C211.228 686.433 211.165 686.607 211.038 686.744C210.922 686.87 210.727 686.934 210.454 686.934ZM209.821 688.846H211.086V697H209.821V688.846ZM214.054 697V688.846H215.318V690.347H215.398C215.545 689.957 215.808 689.61 216.188 689.304C216.567 688.999 217.088 688.846 217.752 688.846H218.242V690.11H217.499C216.814 690.11 216.277 690.242 215.887 690.505C215.508 690.758 215.318 691.079 215.318 691.469V697H214.054ZM228.17 697.19C226.769 697.19 225.678 696.716 224.899 695.767C224.119 694.809 223.729 693.402 223.729 691.548C223.729 689.694 224.119 688.272 224.899 687.281C225.678 686.28 226.769 685.78 228.17 685.78C229.097 685.78 229.871 685.991 230.493 686.412C231.125 686.834 231.615 687.429 231.962 688.198L230.888 688.846C230.667 688.277 230.329 687.824 229.876 687.487C229.423 687.139 228.855 686.965 228.17 686.965C227.696 686.965 227.269 687.055 226.89 687.234C226.521 687.413 226.205 687.671 225.942 688.008C225.689 688.335 225.494 688.73 225.357 689.193C225.22 689.646 225.151 690.157 225.151 690.726V692.37C225.151 693.508 225.415 694.398 225.942 695.04C226.468 695.683 227.211 696.004 228.17 696.004C228.876 696.004 229.466 695.825 229.94 695.467C230.414 695.098 230.761 694.614 230.983 694.013L232.041 694.677C231.694 695.457 231.193 696.073 230.54 696.526C229.887 696.968 229.097 697.19 228.17 697.19ZM235.596 697C235.154 697 234.817 696.879 234.585 696.637C234.364 696.384 234.253 696.068 234.253 695.688V685.306H235.517V695.894H236.718V697H235.596ZM241.907 697.19C241.348 697.19 240.842 697.09 240.389 696.889C239.947 696.689 239.562 696.405 239.236 696.036C238.92 695.657 238.672 695.209 238.493 694.693C238.325 694.166 238.24 693.576 238.24 692.923C238.24 692.28 238.325 691.696 238.493 691.169C238.672 690.642 238.92 690.194 239.236 689.826C239.562 689.446 239.947 689.157 240.389 688.956C240.842 688.756 241.348 688.656 241.907 688.656C242.454 688.656 242.944 688.756 243.376 688.956C243.808 689.157 244.177 689.436 244.482 689.794C244.788 690.142 245.02 690.558 245.178 691.042C245.346 691.527 245.431 692.059 245.431 692.638V693.239H239.568V693.618C239.568 693.966 239.62 694.292 239.726 694.598C239.842 694.893 240 695.151 240.2 695.372C240.411 695.594 240.663 695.767 240.958 695.894C241.264 696.02 241.606 696.083 241.986 696.083C242.502 696.083 242.95 695.962 243.329 695.72C243.719 695.478 244.019 695.13 244.23 694.677L245.13 695.325C244.867 695.883 244.456 696.336 243.898 696.684C243.339 697.021 242.676 697.19 241.907 697.19ZM241.907 689.715C241.559 689.715 241.243 689.778 240.958 689.905C240.674 690.02 240.426 690.189 240.216 690.41C240.015 690.632 239.857 690.895 239.742 691.2C239.626 691.495 239.568 691.822 239.568 692.18V692.291H244.072V692.117C244.072 691.39 243.871 690.811 243.471 690.379C243.081 689.936 242.56 689.715 241.907 689.715ZM248.238 689.952H246.911V688.846H248.238V687.202C248.238 686.633 248.386 686.175 248.681 685.827C248.976 685.48 249.424 685.306 250.024 685.306H251.257V686.412H249.503V688.846H251.257V689.952H249.503V697H248.238V689.952ZM255.003 697C254.561 697 254.224 696.879 253.992 696.637C253.771 696.384 253.66 696.057 253.66 695.657V689.952H252.317V688.846H253.075C253.349 688.846 253.534 688.793 253.628 688.688C253.734 688.572 253.786 688.377 253.786 688.103V686.586H254.924V688.846H256.71V689.952H254.924V695.894H256.583V697H255.003ZM266.075 697.19C265.506 697.19 264.995 697.09 264.542 696.889C264.089 696.689 263.705 696.405 263.389 696.036C263.083 695.667 262.846 695.22 262.677 694.693C262.519 694.166 262.44 693.576 262.44 692.923C262.44 692.27 262.519 691.68 262.677 691.153C262.846 690.626 263.083 690.178 263.389 689.81C263.705 689.441 264.089 689.157 264.542 688.956C264.995 688.756 265.506 688.656 266.075 688.656C266.886 688.656 267.534 688.835 268.019 689.193C268.514 689.541 268.883 689.999 269.125 690.568L268.066 691.106C267.919 690.684 267.676 690.358 267.339 690.126C267.002 689.894 266.581 689.778 266.075 689.778C265.696 689.778 265.364 689.841 265.079 689.968C264.795 690.084 264.558 690.252 264.368 690.473C264.179 690.684 264.036 690.942 263.942 691.248C263.847 691.543 263.799 691.869 263.799 692.228V693.618C263.799 694.335 263.989 694.925 264.368 695.388C264.758 695.841 265.327 696.068 266.075 696.068C267.097 696.068 267.834 695.594 268.287 694.645L269.204 695.262C268.941 695.852 268.546 696.32 268.019 696.668C267.503 697.016 266.855 697.19 266.075 697.19ZM277.197 697C276.723 697 276.38 696.874 276.17 696.621C275.969 696.368 275.843 696.052 275.79 695.673H275.711C275.532 696.178 275.237 696.558 274.826 696.81C274.415 697.063 273.926 697.19 273.357 697.19C272.493 697.19 271.819 696.968 271.334 696.526C270.86 696.083 270.623 695.483 270.623 694.724C270.623 693.955 270.902 693.365 271.46 692.955C272.029 692.544 272.909 692.338 274.099 692.338H275.711V691.532C275.711 690.953 275.553 690.51 275.237 690.205C274.921 689.899 274.437 689.747 273.783 689.747C273.288 689.747 272.872 689.857 272.535 690.078C272.208 690.3 271.934 690.595 271.713 690.963L270.955 690.252C271.176 689.81 271.529 689.436 272.013 689.13C272.498 688.814 273.109 688.656 273.847 688.656C274.837 688.656 275.606 688.898 276.154 689.383C276.702 689.868 276.976 690.542 276.976 691.406V695.894H277.908V697H277.197ZM273.562 696.115C273.878 696.115 274.168 696.078 274.431 696.004C274.695 695.931 274.921 695.825 275.111 695.688C275.3 695.551 275.448 695.393 275.553 695.214C275.659 695.035 275.711 694.84 275.711 694.63V693.286H274.036C273.309 693.286 272.777 693.392 272.44 693.602C272.114 693.813 271.95 694.119 271.95 694.519V694.851C271.95 695.251 272.092 695.562 272.377 695.783C272.672 696.004 273.067 696.115 273.562 696.115ZM279.994 697V688.846H281.259V690.347H281.338C281.485 689.957 281.749 689.61 282.128 689.304C282.507 688.999 283.029 688.846 283.692 688.846H284.182V690.11H283.439C282.755 690.11 282.217 690.242 281.828 690.505C281.448 690.758 281.259 691.079 281.259 691.469V697H279.994ZM289.068 697.19C288.509 697.19 288.004 697.09 287.551 696.889C287.108 696.689 286.724 696.405 286.397 696.036C286.081 695.657 285.833 695.209 285.654 694.693C285.486 694.166 285.402 693.576 285.402 692.923C285.402 692.28 285.486 691.696 285.654 691.169C285.833 690.642 286.081 690.194 286.397 689.826C286.724 689.446 287.108 689.157 287.551 688.956C288.004 688.756 288.509 688.656 289.068 688.656C289.616 688.656 290.105 688.756 290.537 688.956C290.969 689.157 291.338 689.436 291.644 689.794C291.949 690.142 292.181 690.558 292.339 691.042C292.507 691.527 292.592 692.059 292.592 692.638V693.239H286.729V693.618C286.729 693.966 286.782 694.292 286.887 694.598C287.003 694.893 287.161 695.151 287.361 695.372C287.572 695.594 287.825 695.767 288.12 695.894C288.425 696.02 288.767 696.083 289.147 696.083C289.663 696.083 290.111 695.962 290.49 695.72C290.88 695.478 291.18 695.13 291.391 694.677L292.291 695.325C292.028 695.883 291.617 696.336 291.059 696.684C290.501 697.021 289.837 697.19 289.068 697.19ZM289.068 689.715C288.72 689.715 288.404 689.778 288.12 689.905C287.835 690.02 287.588 690.189 287.377 690.41C287.177 690.632 287.019 690.895 286.903 691.2C286.787 691.495 286.729 691.822 286.729 692.18V692.291H291.233V692.117C291.233 691.39 291.033 690.811 290.632 690.379C290.242 689.936 289.721 689.715 289.068 689.715ZM298.974 688.846H300.238V698.264C300.238 698.833 300.096 699.291 299.812 699.639C299.527 699.987 299.079 700.161 298.468 700.161H297.647V699.054H298.974V688.846ZM299.606 686.934C299.332 686.934 299.132 686.87 299.006 686.744C298.89 686.607 298.832 686.433 298.832 686.223V686.017C298.832 685.806 298.89 685.638 299.006 685.511C299.132 685.374 299.332 685.306 299.606 685.306C299.88 685.306 300.075 685.374 300.191 685.511C300.317 685.638 300.38 685.806 300.38 686.017V686.223C300.38 686.433 300.317 686.607 300.191 686.744C300.075 686.87 299.88 686.934 299.606 686.934ZM306.288 697.19C305.741 697.19 305.24 697.09 304.787 696.889C304.334 696.689 303.944 696.405 303.618 696.036C303.302 695.657 303.054 695.209 302.875 694.693C302.696 694.166 302.606 693.576 302.606 692.923C302.606 692.28 302.696 691.696 302.875 691.169C303.054 690.642 303.302 690.194 303.618 689.826C303.944 689.446 304.334 689.157 304.787 688.956C305.24 688.756 305.741 688.656 306.288 688.656C306.836 688.656 307.331 688.756 307.774 688.956C308.227 689.157 308.617 689.446 308.943 689.826C309.27 690.194 309.523 690.642 309.702 691.169C309.881 691.696 309.97 692.28 309.97 692.923C309.97 693.576 309.881 694.166 309.702 694.693C309.523 695.209 309.27 695.657 308.943 696.036C308.617 696.405 308.227 696.689 307.774 696.889C307.331 697.09 306.836 697.19 306.288 697.19ZM306.288 696.068C306.973 696.068 307.532 695.857 307.963 695.436C308.395 695.014 308.611 694.371 308.611 693.508V692.338C308.611 691.474 308.395 690.832 307.963 690.41C307.532 689.989 306.973 689.778 306.288 689.778C305.604 689.778 305.045 689.989 304.613 690.41C304.181 690.832 303.965 691.474 303.965 692.338V693.508C303.965 694.371 304.181 695.014 304.613 695.436C305.045 695.857 305.604 696.068 306.288 696.068ZM317.357 695.673H317.294C317.21 695.862 317.104 696.052 316.978 696.241C316.862 696.421 316.714 696.584 316.535 696.731C316.356 696.868 316.14 696.979 315.887 697.063C315.635 697.147 315.34 697.19 315.002 697.19C314.16 697.19 313.491 696.921 312.995 696.384C312.5 695.836 312.253 695.067 312.253 694.076V688.846H313.517V693.855C313.517 695.32 314.139 696.052 315.382 696.052C315.635 696.052 315.877 696.02 316.109 695.957C316.351 695.894 316.562 695.799 316.741 695.673C316.93 695.546 317.078 695.388 317.183 695.198C317.299 694.998 317.357 694.761 317.357 694.487V688.846H318.621V697H317.357V695.673ZM321.596 697V688.846H322.86V690.347H322.939C323.086 689.957 323.35 689.61 323.729 689.304C324.108 688.999 324.63 688.846 325.293 688.846H325.783V690.11H325.041C324.356 690.11 323.819 690.242 323.429 690.505C323.049 690.758 322.86 691.079 322.86 691.469V697H321.596ZM327.68 697V688.846H328.945V690.173H329.008C329.208 689.71 329.487 689.341 329.845 689.067C330.214 688.793 330.704 688.656 331.315 688.656C332.158 688.656 332.821 688.93 333.306 689.478C333.801 690.015 334.049 690.779 334.049 691.769V697H332.785V691.991C332.785 690.526 332.168 689.794 330.936 689.794C330.683 689.794 330.435 689.826 330.193 689.889C329.961 689.952 329.75 690.047 329.561 690.173C329.371 690.3 329.218 690.463 329.103 690.663C328.997 690.853 328.945 691.079 328.945 691.343V697H327.68ZM340.01 697.19C339.451 697.19 338.946 697.09 338.493 696.889C338.05 696.689 337.666 696.405 337.339 696.036C337.023 695.657 336.776 695.209 336.596 694.693C336.428 694.166 336.344 693.576 336.344 692.923C336.344 692.28 336.428 691.696 336.596 691.169C336.776 690.642 337.023 690.194 337.339 689.826C337.666 689.446 338.05 689.157 338.493 688.956C338.946 688.756 339.451 688.656 340.01 688.656C340.558 688.656 341.048 688.756 341.479 688.956C341.911 689.157 342.28 689.436 342.586 689.794C342.891 690.142 343.123 690.558 343.281 691.042C343.45 691.527 343.534 692.059 343.534 692.638V693.239H337.671V693.618C337.671 693.966 337.724 694.292 337.829 694.598C337.945 694.893 338.103 695.151 338.303 695.372C338.514 695.594 338.767 695.767 339.062 695.894C339.367 696.02 339.71 696.083 340.089 696.083C340.605 696.083 341.053 695.962 341.432 695.72C341.822 695.478 342.122 695.13 342.333 694.677L343.234 695.325C342.97 695.883 342.559 696.336 342.001 696.684C341.443 697.021 340.779 697.19 340.01 697.19ZM340.01 689.715C339.662 689.715 339.346 689.778 339.062 689.905C338.777 690.02 338.53 690.189 338.319 690.41C338.119 690.632 337.961 690.895 337.845 691.2C337.729 691.495 337.671 691.822 337.671 692.18V692.291H342.175V692.117C342.175 691.39 341.975 690.811 341.574 690.379C341.185 689.936 340.663 689.715 340.01 689.715ZM350.847 688.846H352.096L348.445 698.896C348.351 699.139 348.256 699.339 348.161 699.497C348.066 699.665 347.95 699.797 347.813 699.892C347.676 699.987 347.503 700.055 347.292 700.097C347.092 700.139 346.844 700.161 346.549 700.161H345.901V699.054H347.181L347.798 697.316L344.748 688.846H346.012L347.971 694.393L348.351 695.72H348.43L348.872 694.393L350.847 688.846Z" fill="#607D8B"/>
<g filter="url(#filter0_d)">
<rect x="20" y="16" width="347" height="610" rx="20" fill="white"/>
</g>
<path d="M39.6796 54V41.394H44.7003C45.8321 41.394 46.699 41.719 47.301 42.3692C47.9151 43.0073 48.2221 43.8863 48.2221 45.006C48.2221 46.1257 47.9151 47.0107 47.301 47.6609C46.699 48.299 45.8321 48.618 44.7003 48.618H41.1967V54H39.6796ZM41.1967 47.2816H44.7003C45.3024 47.2816 45.7659 47.1251 46.091 46.812C46.4281 46.499 46.5967 46.0535 46.5967 45.4756V44.5364C46.5967 43.9585 46.4281 43.513 46.091 43.2C45.7659 42.8869 45.3024 42.7304 44.7003 42.7304H41.1967V47.2816ZM50.808 54V44.6809H52.2528V46.3966H52.3431C52.5116 45.9512 52.8126 45.5538 53.2461 45.2047C53.6795 44.8555 54.2755 44.6809 55.0341 44.6809H55.5939V46.1257H54.7451C53.9625 46.1257 53.3484 46.2762 52.9029 46.5772C52.4695 46.8662 52.2528 47.2334 52.2528 47.6789V54H50.808ZM61.3697 54.2167C60.7436 54.2167 60.1717 54.1023 59.6539 53.8736C59.1362 53.6448 58.6907 53.3197 58.3175 52.8983C57.9563 52.4649 57.6733 51.9532 57.4687 51.3632C57.264 50.7612 57.1616 50.0869 57.1616 49.3405C57.1616 48.606 57.264 47.9378 57.4687 47.3358C57.6733 46.7338 57.9563 46.2221 58.3175 45.8007C58.6907 45.3672 59.1362 45.0361 59.6539 44.8073C60.1717 44.5786 60.7436 44.4642 61.3697 44.4642C61.9958 44.4642 62.5616 44.5786 63.0673 44.8073C63.5851 45.0361 64.0305 45.3672 64.4038 45.8007C64.777 46.2221 65.066 46.7338 65.2707 47.3358C65.4754 47.9378 65.5777 48.606 65.5777 49.3405C65.5777 50.0869 65.4754 50.7612 65.2707 51.3632C65.066 51.9532 64.777 52.4649 64.4038 52.8983C64.0305 53.3197 63.5851 53.6448 63.0673 53.8736C62.5616 54.1023 61.9958 54.2167 61.3697 54.2167ZM61.3697 52.9344C62.1523 52.9344 62.7904 52.6936 63.2841 52.212C63.7777 51.7304 64.0245 50.996 64.0245 50.0087V48.6722C64.0245 47.6849 63.7777 46.9505 63.2841 46.4689C62.7904 45.9873 62.1523 45.7465 61.3697 45.7465C60.5871 45.7465 59.9489 45.9873 59.4553 46.4689C58.9616 46.9505 58.7148 47.6849 58.7148 48.6722V50.0087C58.7148 50.996 58.9616 51.7304 59.4553 52.212C59.9489 52.6936 60.5871 52.9344 61.3697 52.9344ZM74.4104 52.4829H74.3382C73.7723 53.6388 72.8633 54.2167 71.6111 54.2167C71.0332 54.2167 70.5094 54.1023 70.0399 53.8736C69.5703 53.6448 69.1669 53.3197 68.8298 52.8983C68.5047 52.4769 68.2519 51.9652 68.0713 51.3632C67.9027 50.7612 67.8184 50.0869 67.8184 49.3405C67.8184 48.594 67.9027 47.9197 68.0713 47.3177C68.2519 46.7157 68.5047 46.204 68.8298 45.7826C69.1669 45.3612 69.5703 45.0361 70.0399 44.8073C70.5094 44.5786 71.0332 44.4642 71.6111 44.4642C72.2613 44.4642 72.8151 44.6087 73.2726 44.8976C73.7422 45.1746 74.0974 45.608 74.3382 46.198H74.4104V40.6354H75.8553V54H74.4104V52.4829ZM72.0084 52.9164C72.3335 52.9164 72.6405 52.8742 72.9295 52.79C73.2305 52.7057 73.4894 52.5853 73.7061 52.4288C73.9228 52.2602 74.0914 52.0615 74.2118 51.8328C74.3442 51.592 74.4104 51.3211 74.4104 51.0201V47.5525C74.4104 47.2997 74.3442 47.0649 74.2118 46.8481C74.0914 46.6194 73.9228 46.4267 73.7061 46.2702C73.4894 46.1137 73.2305 45.9933 72.9295 45.909C72.6405 45.8127 72.3335 45.7645 72.0084 45.7645C71.1897 45.7645 70.5455 46.0234 70.076 46.5411C69.6064 47.0468 69.3716 47.715 69.3716 48.5458V50.1351C69.3716 50.9659 69.6064 51.6401 70.076 52.1579C70.5455 52.6635 71.1897 52.9164 72.0084 52.9164ZM85.1667 52.4829H85.0945C84.9982 52.6997 84.8778 52.9164 84.7333 53.1331C84.6008 53.3378 84.4323 53.5244 84.2276 53.693C84.0229 53.8495 83.7761 53.9759 83.4871 54.0722C83.1981 54.1686 82.861 54.2167 82.4757 54.2167C81.5125 54.2167 80.748 53.9097 80.1821 53.2957C79.6162 52.6696 79.3333 51.7906 79.3333 50.6589V44.6809H80.7781V50.406C80.7781 52.0796 81.4884 52.9164 82.9092 52.9164C83.1982 52.9164 83.4751 52.8803 83.74 52.808C84.0169 52.7358 84.2577 52.6274 84.4624 52.4829C84.6791 52.3385 84.8477 52.1579 84.9681 51.9411C85.1005 51.7124 85.1667 51.4415 85.1667 51.1284V44.6809H86.6115V54H85.1667V52.4829ZM93.6525 54.2167C93.0023 54.2167 92.4184 54.1023 91.9006 53.8736C91.3829 53.6448 90.9435 53.3197 90.5822 52.8983C90.2331 52.4769 89.9622 51.9652 89.7695 51.3632C89.5889 50.7612 89.4986 50.0869 89.4986 49.3405C89.4986 48.594 89.5889 47.9197 89.7695 47.3177C89.9622 46.7157 90.2331 46.204 90.5822 45.7826C90.9435 45.3612 91.3829 45.0361 91.9006 44.8073C92.4184 44.5786 93.0023 44.4642 93.6525 44.4642C94.5796 44.4642 95.3201 44.6689 95.8739 45.0782C96.4398 45.4756 96.8612 45.9993 97.1381 46.6495L95.9281 47.2635C95.7595 46.7819 95.4826 46.4087 95.0973 46.1438C94.712 45.8789 94.2304 45.7465 93.6525 45.7465C93.219 45.7465 92.8398 45.8187 92.5147 45.9632C92.1896 46.0956 91.9187 46.2883 91.702 46.5411C91.4853 46.7819 91.3227 47.0769 91.2144 47.4261C91.106 47.7632 91.0518 48.1364 91.0518 48.5458V50.1351C91.0518 50.9538 91.2685 51.6281 91.702 52.1579C92.1475 52.6756 92.7976 52.9344 93.6525 52.9344C94.8204 52.9344 95.6632 52.3926 96.1809 51.309L97.2284 52.0134C96.9274 52.6876 96.4759 53.2234 95.8739 53.6207C95.2839 54.0181 94.5435 54.2167 93.6525 54.2167ZM101.823 54C101.318 54 100.933 53.8615 100.668 53.5846C100.415 53.2957 100.288 52.9224 100.288 52.4649V45.9451H98.7532V44.6809H99.6201C99.9332 44.6809 100.144 44.6207 100.252 44.5003C100.373 44.3679 100.433 44.1451 100.433 43.8321V42.0983H101.733V44.6809H103.774V45.9451H101.733V52.7358H103.63V54H101.823ZM121.327 43.3806H121.237L120.171 45.4936L117.155 50.9839L114.139 45.4936L113.073 43.3806H112.983V54H111.502V41.394H113.525L117.137 48.1846H117.227L120.857 41.394H122.808V54H121.327V43.3806ZM133.283 54C132.741 54 132.35 53.8555 132.109 53.5666C131.881 53.2776 131.736 52.9164 131.676 52.4829H131.586C131.381 53.0609 131.044 53.4943 130.574 53.7833C130.105 54.0722 129.545 54.2167 128.895 54.2167C127.907 54.2167 127.137 53.9639 126.583 53.4582C126.041 52.9525 125.77 52.2662 125.77 51.3993C125.77 50.5204 126.089 49.8461 126.727 49.3766C127.378 48.907 128.383 48.6722 129.743 48.6722H131.586V47.7512C131.586 47.0889 131.405 46.5833 131.044 46.2341C130.683 45.8849 130.129 45.7103 129.382 45.7103C128.816 45.7103 128.341 45.8368 127.956 46.0896C127.582 46.3425 127.269 46.6796 127.016 47.101L126.149 46.2883C126.402 45.7826 126.806 45.3552 127.36 45.006C127.913 44.6448 128.612 44.4642 129.455 44.4642C130.586 44.4642 131.465 44.7411 132.091 45.295C132.717 45.8488 133.03 46.6194 133.03 47.6067V52.7358H134.096V54H133.283ZM129.129 52.9886C129.491 52.9886 129.822 52.9465 130.123 52.8622C130.424 52.7779 130.683 52.6575 130.899 52.501C131.116 52.3445 131.285 52.1639 131.405 51.9592C131.525 51.7545 131.586 51.5318 131.586 51.291V49.7558H129.671C128.84 49.7558 128.232 49.8762 127.847 50.117C127.474 50.3579 127.287 50.707 127.287 51.1645V51.5438C127.287 52.0013 127.45 52.3565 127.775 52.6094C128.112 52.8622 128.564 52.9886 129.129 52.9886ZM136.655 54V44.6809H138.1V46.198H138.172C138.401 45.6682 138.72 45.2468 139.129 44.9338C139.55 44.6207 140.11 44.4642 140.809 44.4642C141.772 44.4642 142.53 44.7772 143.084 45.4033C143.65 46.0174 143.933 46.8903 143.933 48.0221V54H142.488V48.2749C142.488 46.6013 141.784 45.7645 140.375 45.7645C140.086 45.7645 139.803 45.8007 139.526 45.8729C139.261 45.9451 139.021 46.0535 138.804 46.198C138.587 46.3425 138.413 46.5291 138.28 46.7578C138.16 46.9746 138.1 47.2334 138.1 47.5344V54H136.655ZM154.189 54C153.647 54 153.256 53.8555 153.015 53.5666C152.786 53.2776 152.642 52.9164 152.581 52.4829H152.491C152.286 53.0609 151.949 53.4943 151.48 53.7833C151.01 54.0722 150.45 54.2167 149.8 54.2167C148.813 54.2167 148.042 53.9639 147.488 53.4582C146.947 52.9525 146.676 52.2662 146.676 51.3993C146.676 50.5204 146.995 49.8461 147.633 49.3766C148.283 48.907 149.288 48.6722 150.649 48.6722H152.491V47.7512C152.491 47.0889 152.31 46.5833 151.949 46.2341C151.588 45.8849 151.034 45.7103 150.288 45.7103C149.722 45.7103 149.246 45.8368 148.861 46.0896C148.488 46.3425 148.175 46.6796 147.922 47.101L147.055 46.2883C147.308 45.7826 147.711 45.3552 148.265 45.006C148.819 44.6448 149.517 44.4642 150.36 44.4642C151.492 44.4642 152.371 44.7411 152.997 45.295C153.623 45.8488 153.936 46.6194 153.936 47.6067V52.7358H155.001V54H154.189ZM150.035 52.9886C150.396 52.9886 150.727 52.9465 151.028 52.8622C151.329 52.7779 151.588 52.6575 151.805 52.501C152.021 52.3445 152.19 52.1639 152.31 51.9592C152.431 51.7545 152.491 51.5318 152.491 51.291V49.7558H150.577C149.746 49.7558 149.138 49.8762 148.753 50.117C148.379 50.3579 148.193 50.707 148.193 51.1645V51.5438C148.193 52.0013 148.355 52.3565 148.68 52.6094C149.017 52.8622 149.469 52.9886 150.035 52.9886ZM165.416 55.0294C165.416 55.9926 165.037 56.697 164.279 57.1425C163.532 57.6 162.406 57.8288 160.901 57.8288C159.444 57.8288 158.397 57.6301 157.759 57.2328C157.121 56.8355 156.802 56.2696 156.802 55.5351C156.802 55.0294 156.934 54.6321 157.199 54.3431C157.464 54.0662 157.825 53.8615 158.283 53.7291V53.5304C157.729 53.2656 157.452 52.8321 157.452 52.2301C157.452 51.7605 157.602 51.4053 157.903 51.1645C158.204 50.9117 158.59 50.7251 159.059 50.6047V50.5324C158.505 50.2676 158.072 49.8883 157.759 49.3946C157.458 48.901 157.307 48.3291 157.307 47.6789C157.307 47.2093 157.392 46.7759 157.56 46.3786C157.729 45.9813 157.964 45.6441 158.265 45.3672C158.578 45.0782 158.945 44.8555 159.366 44.699C159.8 44.5425 160.281 44.4642 160.811 44.4642C161.473 44.4642 162.063 44.5846 162.581 44.8254V44.6629C162.581 44.3017 162.665 44.0067 162.834 43.7779C163.002 43.5371 163.279 43.4167 163.665 43.4167H165.055V44.6809H163.285V45.2769C163.622 45.5659 163.881 45.915 164.062 46.3244C164.255 46.7217 164.351 47.1732 164.351 47.6789C164.351 48.1485 164.267 48.5819 164.098 48.9793C163.929 49.3766 163.689 49.7197 163.376 50.0087C163.075 50.2856 162.707 50.5023 162.274 50.6589C161.84 50.8154 161.359 50.8936 160.829 50.8936C160.528 50.8936 160.227 50.8635 159.926 50.8033C159.613 50.8876 159.33 51.014 159.077 51.1826C158.824 51.3391 158.698 51.5619 158.698 51.8508C158.698 52.1278 158.83 52.3144 159.095 52.4107C159.36 52.507 159.703 52.5552 160.125 52.5552H162.111C163.267 52.5552 164.104 52.7779 164.622 53.2234C165.152 53.6569 165.416 54.2589 165.416 55.0294ZM164.062 55.1378C164.062 54.7646 163.917 54.4635 163.628 54.2348C163.352 54.0181 162.852 53.9097 162.129 53.9097H159.023C158.445 54.1746 158.156 54.596 158.156 55.1739C158.156 55.5833 158.307 55.9324 158.608 56.2214C158.921 56.5104 159.444 56.6549 160.179 56.6549H161.515C162.322 56.6549 162.948 56.5284 163.394 56.2756C163.839 56.0227 164.062 55.6435 164.062 55.1378ZM160.829 49.7378C161.443 49.7378 161.931 49.5933 162.292 49.3043C162.653 49.0033 162.834 48.5458 162.834 47.9318V47.4261C162.834 46.812 162.653 46.3605 162.292 46.0716C161.931 45.7706 161.443 45.62 160.829 45.62C160.215 45.62 159.727 45.7706 159.366 46.0716C159.005 46.3605 158.824 46.812 158.824 47.4261V47.9318C158.824 48.5458 159.005 49.0033 159.366 49.3043C159.727 49.5933 160.215 49.7378 160.829 49.7378ZM170.996 54.2167C170.358 54.2167 169.78 54.1023 169.263 53.8736C168.757 53.6448 168.317 53.3197 167.944 52.8983C167.583 52.4649 167.3 51.9532 167.095 51.3632C166.903 50.7612 166.806 50.0869 166.806 49.3405C166.806 48.606 166.903 47.9378 167.095 47.3358C167.3 46.7338 167.583 46.2221 167.944 45.8007C168.317 45.3672 168.757 45.0361 169.263 44.8073C169.78 44.5786 170.358 44.4642 170.996 44.4642C171.622 44.4642 172.182 44.5786 172.676 44.8073C173.17 45.0361 173.591 45.3552 173.94 45.7645C174.289 46.1619 174.554 46.6374 174.735 47.1913C174.927 47.7451 175.024 48.3532 175.024 49.0154V49.7017H168.323V50.1351C168.323 50.5324 168.384 50.9057 168.504 51.2548C168.636 51.592 168.817 51.887 169.046 52.1398C169.287 52.3926 169.576 52.5913 169.913 52.7358C170.262 52.8803 170.653 52.9525 171.087 52.9525C171.677 52.9525 172.188 52.814 172.622 52.5371C173.067 52.2602 173.41 51.8629 173.651 51.3451L174.681 52.0856C174.38 52.7237 173.91 53.2415 173.272 53.6388C172.634 54.0241 171.875 54.2167 170.996 54.2167ZM170.996 45.6742C170.599 45.6742 170.238 45.7465 169.913 45.891C169.588 46.0234 169.305 46.216 169.064 46.4689C168.835 46.7217 168.655 47.0227 168.522 47.3719C168.39 47.709 168.323 48.0823 168.323 48.4916V48.618H173.471V48.4194C173.471 47.5886 173.242 46.9264 172.784 46.4328C172.339 45.9271 171.743 45.6742 170.996 45.6742ZM177.901 54V44.6809H179.346V46.198H179.418C179.527 45.9572 179.647 45.7344 179.78 45.5297C179.924 45.313 180.093 45.1264 180.285 44.9699C180.49 44.8134 180.725 44.693 180.99 44.6087C181.254 44.5124 181.567 44.4642 181.929 44.4642C182.543 44.4642 183.109 44.6147 183.626 44.9157C184.144 45.2047 184.529 45.6863 184.782 46.3605H184.818C184.987 45.8548 185.3 45.4154 185.757 45.0421C186.227 44.6568 186.859 44.4642 187.654 44.4642C188.605 44.4642 189.345 44.7772 189.875 45.4033C190.417 46.0174 190.688 46.8903 190.688 48.0221V54H189.243V48.2749C189.243 47.4441 189.081 46.818 188.755 46.3966C188.43 45.9752 187.913 45.7645 187.202 45.7645C186.913 45.7645 186.636 45.8007 186.372 45.8729C186.119 45.9451 185.89 46.0535 185.685 46.198C185.481 46.3425 185.318 46.5291 185.198 46.7578C185.077 46.9746 185.017 47.2334 185.017 47.5344V54H183.572V48.2749C183.572 47.4441 183.41 46.818 183.085 46.3966C182.759 45.9752 182.254 45.7645 181.567 45.7645C181.279 45.7645 181.002 45.8007 180.737 45.8729C180.472 45.9451 180.237 46.0535 180.032 46.198C179.828 46.3425 179.659 46.5291 179.527 46.7578C179.406 46.9746 179.346 47.2334 179.346 47.5344V54H177.901ZM197.669 54.2167C197.031 54.2167 196.453 54.1023 195.935 53.8736C195.43 53.6448 194.99 53.3197 194.617 52.8983C194.256 52.4649 193.973 51.9532 193.768 51.3632C193.575 50.7612 193.479 50.0869 193.479 49.3405C193.479 48.606 193.575 47.9378 193.768 47.3358C193.973 46.7338 194.256 46.2221 194.617 45.8007C194.99 45.3672 195.43 45.0361 195.935 44.8073C196.453 44.5786 197.031 44.4642 197.669 44.4642C198.295 44.4642 198.855 44.5786 199.349 44.8073C199.842 45.0361 200.264 45.3552 200.613 45.7645C200.962 46.1619 201.227 46.6374 201.407 47.1913C201.6 47.7451 201.696 48.3532 201.696 49.0154V49.7017H194.996V50.1351C194.996 50.5324 195.056 50.9057 195.177 51.2548C195.309 51.592 195.49 51.887 195.719 52.1398C195.959 52.3926 196.248 52.5913 196.585 52.7358C196.935 52.8803 197.326 52.9525 197.759 52.9525C198.349 52.9525 198.861 52.814 199.294 52.5371C199.74 52.2602 200.083 51.8629 200.324 51.3451L201.353 52.0856C201.052 52.7237 200.583 53.2415 199.945 53.6388C199.306 54.0241 198.548 54.2167 197.669 54.2167ZM197.669 45.6742C197.272 45.6742 196.91 45.7465 196.585 45.891C196.26 46.0234 195.977 46.216 195.737 46.4689C195.508 46.7217 195.327 47.0227 195.195 47.3719C195.062 47.709 194.996 48.0823 194.996 48.4916V48.618H200.143V48.4194C200.143 47.5886 199.915 46.9264 199.457 46.4328C199.012 45.9271 198.416 45.6742 197.669 45.6742ZM204.574 54V44.6809H206.019V46.198H206.091C206.32 45.6682 206.639 45.2468 207.048 44.9338C207.47 44.6207 208.029 44.4642 208.728 44.4642C209.691 44.4642 210.45 44.7772 211.003 45.4033C211.569 46.0174 211.852 46.8903 211.852 48.0221V54H210.407V48.2749C210.407 46.6013 209.703 45.7645 208.294 45.7645C208.005 45.7645 207.722 45.8007 207.446 45.8729C207.181 45.9451 206.94 46.0535 206.723 46.198C206.506 46.3425 206.332 46.5291 206.199 46.7578C206.079 46.9746 206.019 47.2334 206.019 47.5344V54H204.574ZM217.394 54C216.889 54 216.503 53.8615 216.238 53.5846C215.985 53.2957 215.859 52.9224 215.859 52.4649V45.9451H214.324V44.6809H215.191C215.504 44.6809 215.715 44.6207 215.823 44.5003C215.943 44.3679 216.004 44.1451 216.004 43.8321V42.0983H217.304V44.6809H219.345V45.9451H217.304V52.7358H219.2V54H217.394Z" fill="#263238"/>
<path d="M39.5296 69.06H43.2275C43.9123 69.06 44.5338 69.1759 45.0922 69.4077C45.6506 69.6395 46.1246 69.9871 46.5144 70.4507C46.9148 70.9037 47.2203 71.4779 47.431 72.1732C47.6417 72.858 47.7471 73.6586 47.7471 74.5752C47.7471 75.4917 47.6417 76.2977 47.431 76.993C47.2203 77.6778 46.9148 78.2519 46.5144 78.7155C46.1246 79.1685 45.6506 79.5109 45.0922 79.7427C44.5338 79.9744 43.9123 80.0903 43.2275 80.0903H39.5296V69.06ZM43.2275 78.9209C43.6805 78.9209 44.0966 78.8472 44.4759 78.6997C44.8552 78.5417 45.1818 78.3152 45.4557 78.0202C45.7296 77.7252 45.9403 77.367 46.0878 76.9456C46.2458 76.5137 46.3248 76.0238 46.3248 75.4759V73.6744C46.3248 73.1266 46.2458 72.642 46.0878 72.2206C45.9403 71.7886 45.7296 71.4252 45.4557 71.1302C45.1818 70.8352 44.8552 70.614 44.4759 70.4665C44.0966 70.3085 43.6805 70.2294 43.2275 70.2294H40.8571V78.9209H43.2275ZM53.3532 80.28C52.7948 80.28 52.2891 80.1799 51.8361 79.9797C51.3936 79.7795 51.0091 79.4951 50.6825 79.1264C50.3664 78.7471 50.1189 78.2994 49.9398 77.7831C49.7712 77.2564 49.6869 76.6664 49.6869 76.0132C49.6869 75.3706 49.7712 74.7859 49.9398 74.2591C50.1189 73.7324 50.3664 73.2846 50.6825 72.9159C51.0091 72.5366 51.3936 72.2469 51.8361 72.0468C52.2891 71.8466 52.7948 71.7465 53.3532 71.7465C53.901 71.7465 54.3909 71.8466 54.8228 72.0468C55.2548 72.2469 55.6235 72.5261 55.929 72.8843C56.2345 73.232 56.4663 73.6481 56.6243 74.1327C56.7929 74.6173 56.8772 75.1494 56.8772 75.7288V76.3293H51.0144V76.7086C51.0144 77.0562 51.067 77.3828 51.1724 77.6883C51.2883 77.9833 51.4463 78.2414 51.6465 78.4627C51.8572 78.6839 52.11 78.8577 52.405 78.9841C52.7105 79.1106 53.0529 79.1738 53.4322 79.1738C53.9484 79.1738 54.3961 79.0526 54.7754 78.8103C55.1652 78.568 55.4655 78.2203 55.6762 77.7673L56.5769 78.4152C56.3135 78.9736 55.9027 79.4266 55.3443 79.7743C54.7859 80.1114 54.1222 80.28 53.3532 80.28ZM53.3532 72.8053C53.0055 72.8053 52.6894 72.8685 52.405 72.9949C52.1205 73.1108 51.873 73.2794 51.6623 73.5006C51.4621 73.7218 51.3041 73.9852 51.1882 74.2907C51.0723 74.5857 51.0144 74.9123 51.0144 75.2705V75.3811H55.5181V75.2073C55.5181 74.4804 55.318 73.9009 54.9176 73.469C54.5278 73.0265 54.0063 72.8053 53.3532 72.8053ZM60.9206 80.0903L58.0604 71.9361H59.3246L60.7468 75.9816L61.6318 78.7629H61.7108L62.5957 75.9816L64.0496 71.9361H65.2664L62.3903 80.0903H60.9206ZM70.1215 80.28C69.5631 80.28 69.0574 80.1799 68.6044 79.9797C68.162 79.7795 67.7774 79.4951 67.4508 79.1264C67.1348 78.7471 66.8872 78.2994 66.7081 77.7831C66.5395 77.2564 66.4553 76.6664 66.4553 76.0132C66.4553 75.3706 66.5395 74.7859 66.7081 74.2591C66.8872 73.7324 67.1348 73.2846 67.4508 72.9159C67.7774 72.5366 68.162 72.2469 68.6044 72.0468C69.0574 71.8466 69.5631 71.7465 70.1215 71.7465C70.6693 71.7465 71.1592 71.8466 71.5911 72.0468C72.0231 72.2469 72.3918 72.5261 72.6973 72.8843C73.0029 73.232 73.2346 73.6481 73.3927 74.1327C73.5612 74.6173 73.6455 75.1494 73.6455 75.7288V76.3293H67.7827V76.7086C67.7827 77.0562 67.8354 77.3828 67.9407 77.6883C68.0566 77.9833 68.2146 78.2414 68.4148 78.4627C68.6255 78.6839 68.8783 78.8577 69.1733 78.9841C69.4788 79.1106 69.8212 79.1738 70.2005 79.1738C70.7167 79.1738 71.1645 79.0526 71.5437 78.8103C71.9335 78.568 72.2338 78.2203 72.4445 77.7673L73.3452 78.4152C73.0819 78.9736 72.671 79.4266 72.1126 79.7743C71.5543 80.1114 70.8906 80.28 70.1215 80.28ZM70.1215 72.8053C69.7738 72.8053 69.4578 72.8685 69.1733 72.9949C68.8889 73.1108 68.6413 73.2794 68.4306 73.5006C68.2304 73.7218 68.0724 73.9852 67.9565 74.2907C67.8406 74.5857 67.7827 74.9123 67.7827 75.2705V75.3811H72.2865V75.2073C72.2865 74.4804 72.0863 73.9009 71.686 73.469C71.2962 73.0265 70.7747 72.8053 70.1215 72.8053ZM77.3542 80.0903C76.9117 80.0903 76.5746 79.9692 76.3428 79.7269C76.1215 79.474 76.0109 79.158 76.0109 78.7787V68.3963H77.2751V78.9841H78.4762V80.0903H77.3542ZM83.6803 80.28C83.1324 80.28 82.632 80.1799 82.179 79.9797C81.726 79.7795 81.3362 79.4951 81.0096 79.1264C80.6936 78.7471 80.446 78.2994 80.2669 77.7831C80.0878 77.2564 79.9982 76.6664 79.9982 76.0132C79.9982 75.3706 80.0878 74.7859 80.2669 74.2591C80.446 73.7324 80.6936 73.2846 81.0096 72.9159C81.3362 72.5366 81.726 72.2469 82.179 72.0468C82.632 71.8466 83.1324 71.7465 83.6803 71.7465C84.2281 71.7465 84.7233 71.8466 85.1657 72.0468C85.6187 72.2469 86.0085 72.5366 86.3351 72.9159C86.6617 73.2846 86.9146 73.7324 87.0937 74.2591C87.2728 74.7859 87.3623 75.3706 87.3623 76.0132C87.3623 76.6664 87.2728 77.2564 87.0937 77.7831C86.9146 78.2994 86.6617 78.7471 86.3351 79.1264C86.0085 79.4951 85.6187 79.7795 85.1657 79.9797C84.7233 80.1799 84.2281 80.28 83.6803 80.28ZM83.6803 79.158C84.3651 79.158 84.9234 78.9473 85.3554 78.5259C85.7873 78.1045 86.0033 77.4618 86.0033 76.5979V75.4285C86.0033 74.5647 85.7873 73.922 85.3554 73.5006C84.9234 73.0792 84.3651 72.8685 83.6803 72.8685C82.9955 72.8685 82.4371 73.0792 82.0052 73.5006C81.5732 73.922 81.3573 74.5647 81.3573 75.4285V76.5979C81.3573 77.4618 81.5732 78.1045 82.0052 78.5259C82.4371 78.9473 82.9955 79.158 83.6803 79.158ZM89.7237 71.9361H90.9879V73.2636H91.0511C91.2618 72.7473 91.5673 72.3681 91.9676 72.1258C92.3785 71.8729 92.8684 71.7465 93.4373 71.7465C93.943 71.7465 94.4013 71.8466 94.8121 72.0468C95.223 72.2469 95.5707 72.5314 95.8551 72.9001C96.1501 73.2688 96.3713 73.7166 96.5188 74.2433C96.6769 74.7701 96.7559 75.3601 96.7559 76.0132C96.7559 76.6664 96.6769 77.2564 96.5188 77.7831C96.3713 78.3099 96.1501 78.7576 95.8551 79.1264C95.5707 79.4951 95.223 79.7795 94.8121 79.9797C94.4013 80.1799 93.943 80.28 93.4373 80.28C92.3311 80.28 91.5357 79.7743 91.0511 78.7629H90.9879V83.2509H89.7237V71.9361ZM93.0896 79.1422C93.806 79.1422 94.3697 78.9209 94.7805 78.4785C95.1914 78.0254 95.3968 77.4355 95.3968 76.7086V75.3179C95.3968 74.591 95.1914 74.0063 94.7805 73.5638C94.3697 73.1108 93.806 72.8843 93.0896 72.8843C92.8052 72.8843 92.5313 72.9264 92.2679 73.0107C92.0151 73.0845 91.7938 73.1898 91.6042 73.3268C91.4145 73.4637 91.2618 73.6323 91.1459 73.8325C91.0406 74.0221 90.9879 74.2275 90.9879 74.4488V77.4829C90.9879 77.7463 91.0406 77.9833 91.1459 78.194C91.2618 78.3942 91.4145 78.568 91.6042 78.7155C91.7938 78.8525 92.0151 78.9578 92.2679 79.0316C92.5313 79.1053 92.8052 79.1422 93.0896 79.1422ZM103.632 73.0423H102.305V71.9361H103.632V70.2927C103.632 69.7238 103.779 69.2655 104.074 68.9178C104.369 68.5702 104.817 68.3963 105.418 68.3963H106.65V69.5025H104.896V71.9361H106.65V73.0423H104.896V80.0903H103.632V73.0423ZM111.615 80.28C111.067 80.28 110.567 80.1799 110.114 79.9797C109.661 79.7795 109.271 79.4951 108.944 79.1264C108.628 78.7471 108.381 78.2994 108.202 77.7831C108.023 77.2564 107.933 76.6664 107.933 76.0132C107.933 75.3706 108.023 74.7859 108.202 74.2591C108.381 73.7324 108.628 73.2846 108.944 72.9159C109.271 72.5366 109.661 72.2469 110.114 72.0468C110.567 71.8466 111.067 71.7465 111.615 71.7465C112.163 71.7465 112.658 71.8466 113.1 72.0468C113.553 72.2469 113.943 72.5366 114.27 72.9159C114.596 73.2846 114.849 73.7324 115.028 74.2591C115.207 74.7859 115.297 75.3706 115.297 76.0132C115.297 76.6664 115.207 77.2564 115.028 77.7831C114.849 78.2994 114.596 78.7471 114.27 79.1264C113.943 79.4951 113.553 79.7795 113.1 79.9797C112.658 80.1799 112.163 80.28 111.615 80.28ZM111.615 79.158C112.3 79.158 112.858 78.9473 113.29 78.5259C113.722 78.1045 113.938 77.4618 113.938 76.5979V75.4285C113.938 74.5647 113.722 73.922 113.29 73.5006C112.858 73.0792 112.3 72.8685 111.615 72.8685C110.93 72.8685 110.372 73.0792 109.94 73.5006C109.508 73.922 109.292 74.5647 109.292 75.4285V76.5979C109.292 77.4618 109.508 78.1045 109.94 78.5259C110.372 78.9473 110.93 79.158 111.615 79.158ZM117.658 80.0903V71.9361H118.923V73.4374H119.002C119.149 73.0476 119.412 72.6999 119.792 72.3944C120.171 72.0889 120.693 71.9361 121.356 71.9361H121.846V73.2004H121.103C120.419 73.2004 119.881 73.332 119.491 73.5954C119.112 73.8483 118.923 74.1696 118.923 74.5594V80.0903H117.658ZM135.029 78.4785H134.982C134.845 78.9947 134.508 79.4266 133.97 79.7743C133.444 80.1114 132.759 80.28 131.916 80.28C131.242 80.28 130.62 80.1588 130.051 79.9165C129.493 79.6637 129.014 79.3002 128.613 78.8261C128.213 78.3415 127.897 77.7463 127.665 77.0404C127.444 76.324 127.333 75.5023 127.333 74.5752C127.333 73.6586 127.444 72.8474 127.665 72.1416C127.886 71.4252 128.202 70.8299 128.613 70.3559C129.024 69.8712 129.519 69.5025 130.099 69.2497C130.678 68.9968 131.321 68.8704 132.027 68.8704C133.017 68.8704 133.844 69.0916 134.508 69.5341C135.171 69.9766 135.682 70.5613 136.041 71.2882L134.95 71.9519C134.697 71.362 134.318 70.8984 133.812 70.5613C133.317 70.2242 132.722 70.0556 132.027 70.0556C131.542 70.0556 131.1 70.1452 130.699 70.3243C130.299 70.4928 129.951 70.7351 129.656 71.0512C129.372 71.3672 129.151 71.7465 128.993 72.189C128.835 72.6315 128.756 73.1266 128.756 73.6744V75.4601C128.756 76.008 128.835 76.5084 128.993 76.9614C129.151 77.4039 129.372 77.7831 129.656 78.0992C129.951 78.4152 130.309 78.6628 130.731 78.8419C131.152 79.0105 131.626 79.0948 132.153 79.0948C132.532 79.0948 132.891 79.0474 133.228 78.9525C133.575 78.8472 133.876 78.6944 134.128 78.4943C134.392 78.2941 134.597 78.0465 134.745 77.7515C134.892 77.446 134.966 77.0878 134.966 76.6769V75.5866H132.532V74.4172H136.262V80.0903H135.029V78.4785ZM142.111 80.28C141.564 80.28 141.063 80.1799 140.61 79.9797C140.157 79.7795 139.767 79.4951 139.441 79.1264C139.125 78.7471 138.877 78.2994 138.698 77.7831C138.519 77.2564 138.429 76.6664 138.429 76.0132C138.429 75.3706 138.519 74.7859 138.698 74.2591C138.877 73.7324 139.125 73.2846 139.441 72.9159C139.767 72.5366 140.157 72.2469 140.61 72.0468C141.063 71.8466 141.564 71.7465 142.111 71.7465C142.659 71.7465 143.154 71.8466 143.597 72.0468C144.05 72.2469 144.44 72.5366 144.766 72.9159C145.093 73.2846 145.346 73.7324 145.525 74.2591C145.704 74.7859 145.794 75.3706 145.794 76.0132C145.794 76.6664 145.704 77.2564 145.525 77.7831C145.346 78.2994 145.093 78.7471 144.766 79.1264C144.44 79.4951 144.05 79.7795 143.597 79.9797C143.154 80.1799 142.659 80.28 142.111 80.28ZM142.111 79.158C142.796 79.158 143.355 78.9473 143.787 78.5259C144.219 78.1045 144.434 77.4618 144.434 76.5979V75.4285C144.434 74.5647 144.219 73.922 143.787 73.5006C143.355 73.0792 142.796 72.8685 142.111 72.8685C141.427 72.8685 140.868 73.0792 140.436 73.5006C140.004 73.922 139.788 74.5647 139.788 75.4285V76.5979C139.788 77.4618 140.004 78.1045 140.436 78.5259C140.868 78.9473 141.427 79.158 142.111 79.158ZM151.236 80.28C150.689 80.28 150.188 80.1799 149.735 79.9797C149.282 79.7795 148.892 79.4951 148.566 79.1264C148.25 78.7471 148.002 78.2994 147.823 77.7831C147.644 77.2564 147.554 76.6664 147.554 76.0132C147.554 75.3706 147.644 74.7859 147.823 74.2591C148.002 73.7324 148.25 73.2846 148.566 72.9159C148.892 72.5366 149.282 72.2469 149.735 72.0468C150.188 71.8466 150.689 71.7465 151.236 71.7465C151.784 71.7465 152.279 71.8466 152.722 72.0468C153.175 72.2469 153.565 72.5366 153.891 72.9159C154.218 73.2846 154.471 73.7324 154.65 74.2591C154.829 74.7859 154.918 75.3706 154.918 76.0132C154.918 76.6664 154.829 77.2564 154.65 77.7831C154.471 78.2994 154.218 78.7471 153.891 79.1264C153.565 79.4951 153.175 79.7795 152.722 79.9797C152.279 80.1799 151.784 80.28 151.236 80.28ZM151.236 79.158C151.921 79.158 152.48 78.9473 152.911 78.5259C153.343 78.1045 153.559 77.4618 153.559 76.5979V75.4285C153.559 74.5647 153.343 73.922 152.911 73.5006C152.48 73.0792 151.921 72.8685 151.236 72.8685C150.552 72.8685 149.993 73.0792 149.561 73.5006C149.129 73.922 148.913 74.5647 148.913 75.4285V76.5979C148.913 77.4618 149.129 78.1045 149.561 78.5259C149.993 78.9473 150.552 79.158 151.236 79.158ZM162.495 78.7629H162.431C161.936 79.7743 161.141 80.28 160.045 80.28C159.54 80.28 159.081 80.1799 158.67 79.9797C158.26 79.7795 157.907 79.4951 157.612 79.1264C157.327 78.7576 157.106 78.3099 156.948 77.7831C156.8 77.2564 156.727 76.6664 156.727 76.0132C156.727 75.3601 156.8 74.7701 156.948 74.2433C157.106 73.7166 157.327 73.2688 157.612 72.9001C157.907 72.5314 158.26 72.2469 158.67 72.0468C159.081 71.8466 159.54 71.7465 160.045 71.7465C160.614 71.7465 161.099 71.8729 161.499 72.1258C161.91 72.3681 162.221 72.7473 162.431 73.2636H162.495V68.3963H163.759V80.0903H162.495V78.7629ZM160.393 79.1422C160.677 79.1422 160.946 79.1053 161.199 79.0316C161.462 78.9578 161.689 78.8525 161.878 78.7155C162.068 78.568 162.216 78.3942 162.321 78.194C162.437 77.9833 162.495 77.7463 162.495 77.4829V74.4488C162.495 74.2275 162.437 74.0221 162.321 73.8325C162.216 73.6323 162.068 73.4637 161.878 73.3268C161.689 73.1898 161.462 73.0845 161.199 73.0107C160.946 72.9264 160.677 72.8843 160.393 72.8843C159.677 72.8843 159.113 73.1108 158.702 73.5638C158.291 74.0063 158.086 74.591 158.086 75.3179V76.7086C158.086 77.4355 158.291 78.0254 158.702 78.4785C159.113 78.9209 159.677 79.1422 160.393 79.1422Z" fill="#607D8B"/>
<rect x="241" y="190" width="35" height="96" transform="rotate(90 241 190)" fill="#FF5A5F" stroke="#EDEDED" stroke-width="3"/>
<rect x="241" y="225" width="34" height="96" transform="rotate(90 241 225)" fill="#FF5A5F" stroke="#EDEDED" stroke-width="3"/>
<rect x="241" y="259" width="35" height="96" transform="rotate(90 241 259)" fill="#3C9AF7" stroke="#EDEDED" stroke-width="3"/>
<rect x="241" y="294" width="35" height="96" transform="rotate(90 241 294)" fill="#3C9AF7" stroke="#EDEDED" stroke-width="3"/>
<rect x="241" y="329" width="35" height="96" transform="rotate(90 241 329)" fill="#3C9AF7" stroke="#EDEDED" stroke-width="3"/>
<rect x="241" y="364" width="34" height="96" transform="rotate(90 241 364)" fill="white" stroke="#EDEDED" stroke-width="3"/>
<rect x="241" y="398" width="35" height="96" transform="rotate(90 241 398)" fill="white" stroke="#EDEDED" stroke-width="3"/>
<rect x="241" y="433" width="35" height="96" transform="rotate(90 241 433)" fill="white" stroke="#EDEDED" stroke-width="3"/>
<rect x="241" y="468" width="35" height="96" transform="rotate(90 241 468)" fill="#00A699" stroke="#EDEDED" stroke-width="3"/>
<rect x="241" y="503" width="34" height="96" transform="rotate(90 241 503)" fill="#00A699" stroke="#EDEDED" stroke-width="3"/>
<defs>
<filter id="filter0_d" x="0" y="0" width="387" height="650" filterUnits="userSpaceOnUse" color-interpolation-filters="sRGB">
<feFlood flood-opacity="0" result="BackgroundImageFix"/>
<feColorMatrix in="SourceAlpha" type="matrix" values="0 0 0 0 0 0 0 0 0 0 0 0 0 0 0 0 0 0 127 0" result="hardAlpha"/>
<feOffset dy="4"/>
<feGaussianBlur stdDeviation="10"/>
<feComposite in2="hardAlpha" operator="out"/>
<feColorMatrix type="matrix" values="0 0 0 0 0.741667 0 0 0 0 0.741667 0 0 0 0 0.741667 0 0 0 0.25 0"/>
<feBlend mode="normal" in2="BackgroundImageFix" result="effect1_dropShadow"/>
<feBlend mode="normal" in="SourceGraphic" in2="effect1_dropShadow" result="shape"/>
</filter>
</defs>
</svg>
