<svg width="387" height="731" viewBox="0 0 387 731" fill="none" xmlns="http://www.w3.org/2000/svg">
<path d="M40.388 694.19C38.9868 694.19 37.8964 693.716 37.1168 692.767C36.3372 691.809 35.9474 690.402 35.9474 688.548C35.9474 686.694 36.3372 685.272 37.1168 684.281C37.8964 683.28 38.9868 682.78 40.388 682.78C41.3151 682.78 42.0894 682.991 42.711 683.412C43.3431 683.834 43.833 684.429 44.1807 685.198L43.1061 685.846C42.8848 685.277 42.5477 684.824 42.0947 684.487C41.6417 684.139 41.0728 683.965 40.388 683.965C39.9139 683.965 39.4872 684.055 39.108 684.234C38.7393 684.413 38.4232 684.671 38.1598 685.008C37.907 685.335 37.7121 685.73 37.5751 686.193C37.4382 686.646 37.3697 687.157 37.3697 687.726V689.37C37.3697 690.508 37.6331 691.398 38.1598 692.04C38.6866 692.683 39.4293 693.004 40.388 693.004C41.0939 693.004 41.6838 692.825 42.1579 692.467C42.632 692.098 42.9796 691.614 43.2009 691.013L44.2597 691.677C43.912 692.457 43.4116 693.073 42.7584 693.526C42.1052 693.968 41.3151 694.19 40.388 694.19ZM49.5528 694.19C49.005 694.19 48.5046 694.09 48.0515 693.889C47.5985 693.689 47.2087 693.405 46.8821 693.036C46.5661 692.657 46.3185 692.209 46.1394 691.693C45.9603 691.166 45.8708 690.576 45.8708 689.923C45.8708 689.28 45.9603 688.696 46.1394 688.169C46.3185 687.642 46.5661 687.194 46.8821 686.826C47.2087 686.446 47.5985 686.157 48.0515 685.956C48.5046 685.756 49.005 685.656 49.5528 685.656C50.1006 685.656 50.5958 685.756 51.0383 685.956C51.4913 686.157 51.8811 686.446 52.2077 686.826C52.5342 687.194 52.7871 687.642 52.9662 688.169C53.1453 688.696 53.2348 689.28 53.2348 689.923C53.2348 690.576 53.1453 691.166 52.9662 691.693C52.7871 692.209 52.5342 692.657 52.2077 693.036C51.8811 693.405 51.4913 693.689 51.0383 693.889C50.5958 694.09 50.1006 694.19 49.5528 694.19ZM49.5528 693.068C50.2376 693.068 50.7959 692.857 51.2279 692.436C51.6598 692.014 51.8758 691.371 51.8758 690.508V689.338C51.8758 688.474 51.6598 687.832 51.2279 687.41C50.7959 686.989 50.2376 686.778 49.5528 686.778C48.868 686.778 48.3097 686.989 47.8777 687.41C47.4458 687.832 47.2298 688.474 47.2298 689.338V690.508C47.2298 691.371 47.4458 692.014 47.8777 692.436C48.3097 692.857 48.868 693.068 49.5528 693.068ZM55.5962 694V685.846H56.8604V687.173H56.9236C57.0184 686.963 57.1238 686.768 57.2397 686.589C57.3661 686.399 57.5136 686.236 57.6821 686.099C57.8612 685.962 58.0667 685.856 58.2985 685.783C58.5302 685.698 58.8041 685.656 59.1202 685.656C59.6575 685.656 60.1526 685.788 60.6056 686.051C61.0587 686.304 61.3958 686.725 61.617 687.315H61.6486C61.7961 686.873 62.07 686.488 62.4704 686.162C62.8812 685.825 63.4343 685.656 64.1296 685.656C64.9619 685.656 65.6098 685.93 66.0734 686.478C66.5475 687.015 66.7845 687.779 66.7845 688.769V694H65.5203V688.991C65.5203 688.264 65.3781 687.716 65.0936 687.347C64.8092 686.978 64.3562 686.794 63.7346 686.794C63.4817 686.794 63.2394 686.826 63.0077 686.889C62.7864 686.952 62.5863 687.047 62.4072 687.173C62.2281 687.3 62.0858 687.463 61.9805 687.663C61.8751 687.853 61.8225 688.079 61.8225 688.343V694H60.5582V688.991C60.5582 688.264 60.416 687.716 60.1316 687.347C59.8471 686.978 59.4046 686.794 58.8041 686.794C58.5513 686.794 58.309 686.826 58.0772 686.889C57.8454 686.952 57.64 687.047 57.4609 687.173C57.2818 687.3 57.1343 687.463 57.0184 687.663C56.9131 687.853 56.8604 688.079 56.8604 688.343V694H55.5962ZM69.6749 685.846H70.9391V687.173H71.0023C71.213 686.657 71.5185 686.278 71.9189 686.035C72.3297 685.783 72.8196 685.656 73.3885 685.656C73.8942 685.656 74.3525 685.756 74.7634 685.956C75.1742 686.157 75.5219 686.441 75.8063 686.81C76.1013 687.178 76.3226 687.626 76.47 688.153C76.6281 688.68 76.7071 689.27 76.7071 689.923C76.7071 690.576 76.6281 691.166 76.47 691.693C76.3226 692.22 76.1013 692.667 75.8063 693.036C75.5219 693.405 75.1742 693.689 74.7634 693.889C74.3525 694.09 73.8942 694.19 73.3885 694.19C72.2823 694.19 71.4869 693.684 71.0023 692.673H70.9391V697.161H69.6749V685.846ZM73.0409 693.052C73.7573 693.052 74.3209 692.831 74.7318 692.388C75.1426 691.935 75.3481 691.345 75.3481 690.618V689.228C75.3481 688.501 75.1426 687.916 74.7318 687.473C74.3209 687.02 73.7573 686.794 73.0409 686.794C72.7564 686.794 72.4825 686.836 72.2191 686.92C71.9663 686.994 71.745 687.099 71.5554 687.236C71.3658 687.373 71.213 687.542 71.0971 687.742C70.9918 687.932 70.9391 688.137 70.9391 688.358V691.393C70.9391 691.656 70.9918 691.893 71.0971 692.104C71.213 692.304 71.3658 692.478 71.5554 692.625C71.745 692.762 71.9663 692.867 72.2191 692.941C72.4825 693.015 72.7564 693.052 73.0409 693.052ZM84.1491 692.673H84.0859C84.0017 692.862 83.8963 693.052 83.7699 693.241C83.654 693.421 83.5065 693.584 83.3274 693.731C83.1483 693.868 82.9323 693.979 82.6795 694.063C82.4266 694.147 82.1317 694.19 81.7945 694.19C80.9517 694.19 80.2827 693.921 79.7876 693.384C79.2924 692.836 79.0449 692.067 79.0449 691.076V685.846H80.3091V690.855C80.3091 692.32 80.9307 693.052 82.1738 693.052C82.4266 693.052 82.669 693.02 82.9007 692.957C83.143 692.894 83.3537 692.799 83.5328 692.673C83.7225 692.546 83.87 692.388 83.9753 692.198C84.0912 691.998 84.1491 691.761 84.1491 691.487V685.846H85.4134V694H84.1491V692.673ZM90.1892 694C89.7467 694 89.4096 693.879 89.1778 693.637C88.9566 693.384 88.846 693.057 88.846 692.657V686.952H87.5027V685.846H88.2613C88.5352 685.846 88.7196 685.793 88.8144 685.688C88.9197 685.572 88.9724 685.377 88.9724 685.103V683.586H90.1102V685.846H91.8959V686.952H90.1102V692.894H91.7695V694H90.1892ZM97.2141 694.19C96.6557 694.19 96.15 694.09 95.697 693.889C95.2546 693.689 94.87 693.405 94.5434 693.036C94.2274 692.657 93.9798 692.209 93.8007 691.693C93.6321 691.166 93.5479 690.576 93.5479 689.923C93.5479 689.28 93.6321 688.696 93.8007 688.169C93.9798 687.642 94.2274 687.194 94.5434 686.826C94.87 686.446 95.2546 686.157 95.697 685.956C96.15 685.756 96.6557 685.656 97.2141 685.656C97.7619 685.656 98.2518 685.756 98.6837 685.956C99.1157 686.157 99.4844 686.436 99.7899 686.794C100.095 687.142 100.327 687.558 100.485 688.042C100.654 688.527 100.738 689.059 100.738 689.638V690.239H94.8753V690.618C94.8753 690.966 94.928 691.292 95.0333 691.598C95.1492 691.893 95.3072 692.151 95.5074 692.372C95.7181 692.594 95.9709 692.767 96.2659 692.894C96.5714 693.02 96.9138 693.083 97.2931 693.083C97.8093 693.083 98.2571 692.962 98.6363 692.72C99.0261 692.478 99.3264 692.13 99.5371 691.677L100.438 692.325C100.174 692.883 99.7636 693.336 99.2052 693.684C98.6469 694.021 97.9832 694.19 97.2141 694.19ZM97.2141 686.715C96.8664 686.715 96.5504 686.778 96.2659 686.905C95.9815 687.02 95.7339 687.189 95.5232 687.41C95.323 687.632 95.165 687.895 95.0491 688.2C94.9332 688.495 94.8753 688.822 94.8753 689.18V689.291H99.3791V689.117C99.3791 688.39 99.1789 687.811 98.7786 687.379C98.3888 686.936 97.8673 686.715 97.2141 686.715ZM103.104 694V685.846H104.368V687.347H104.447C104.594 686.957 104.858 686.61 105.237 686.304C105.616 685.999 106.138 685.846 106.801 685.846H107.291V687.11H106.549C105.864 687.11 105.326 687.242 104.937 687.505C104.557 687.758 104.368 688.079 104.368 688.469V694H103.104ZM115.007 694L112.146 685.846H113.411L114.833 689.891L115.718 692.673H115.797L116.682 689.891L118.136 685.846H119.352L116.476 694H115.007ZM121.897 683.934C121.623 683.934 121.423 683.87 121.297 683.744C121.181 683.607 121.123 683.433 121.123 683.223V683.017C121.123 682.806 121.181 682.638 121.297 682.511C121.423 682.374 121.623 682.306 121.897 682.306C122.171 682.306 122.366 682.374 122.482 682.511C122.608 682.638 122.672 682.806 122.672 683.017V683.223C122.672 683.433 122.608 683.607 122.482 683.744C122.366 683.87 122.171 683.934 121.897 683.934ZM121.265 685.846H122.529V694H121.265V685.846ZM127.947 694.19C127.189 694.19 126.552 694.047 126.035 693.763C125.53 693.468 125.092 693.078 124.724 692.594L125.624 691.867C125.941 692.267 126.293 692.578 126.683 692.799C127.073 693.01 127.526 693.115 128.042 693.115C128.58 693.115 128.996 692.999 129.291 692.767C129.596 692.536 129.749 692.209 129.749 691.788C129.749 691.472 129.644 691.203 129.433 690.982C129.233 690.75 128.864 690.592 128.327 690.508L127.679 690.413C127.3 690.36 126.952 690.281 126.636 690.176C126.32 690.06 126.041 689.912 125.798 689.733C125.567 689.544 125.382 689.312 125.245 689.038C125.119 688.764 125.056 688.437 125.056 688.058C125.056 687.658 125.129 687.31 125.277 687.015C125.424 686.71 125.624 686.457 125.877 686.257C126.141 686.057 126.451 685.909 126.81 685.814C127.168 685.709 127.552 685.656 127.963 685.656C128.627 685.656 129.18 685.772 129.623 686.004C130.076 686.236 130.471 686.557 130.808 686.968L129.97 687.726C129.791 687.473 129.528 687.247 129.18 687.047C128.832 686.836 128.395 686.731 127.868 686.731C127.342 686.731 126.941 686.847 126.667 687.078C126.404 687.3 126.272 687.605 126.272 687.995C126.272 688.395 126.404 688.685 126.667 688.864C126.941 689.043 127.331 689.175 127.837 689.259L128.469 689.354C129.375 689.491 130.018 689.754 130.397 690.144C130.776 690.523 130.966 691.024 130.966 691.645C130.966 692.436 130.697 693.057 130.16 693.51C129.623 693.963 128.885 694.19 127.947 694.19ZM134.113 683.934C133.839 683.934 133.639 683.87 133.513 683.744C133.397 683.607 133.339 683.433 133.339 683.223V683.017C133.339 682.806 133.397 682.638 133.513 682.511C133.639 682.374 133.839 682.306 134.113 682.306C134.387 682.306 134.582 682.374 134.698 682.511C134.824 682.638 134.887 682.806 134.887 683.017V683.223C134.887 683.433 134.824 683.607 134.698 683.744C134.582 683.87 134.387 683.934 134.113 683.934ZM133.481 685.846H134.745V694H133.481V685.846ZM140.795 694.19C140.248 694.19 139.747 694.09 139.294 693.889C138.841 693.689 138.451 693.405 138.125 693.036C137.809 692.657 137.561 692.209 137.382 691.693C137.203 691.166 137.113 690.576 137.113 689.923C137.113 689.28 137.203 688.696 137.382 688.169C137.561 687.642 137.809 687.194 138.125 686.826C138.451 686.446 138.841 686.157 139.294 685.956C139.747 685.756 140.248 685.656 140.795 685.656C141.343 685.656 141.838 685.756 142.281 685.956C142.734 686.157 143.124 686.446 143.45 686.826C143.777 687.194 144.03 687.642 144.209 688.169C144.388 688.696 144.477 689.28 144.477 689.923C144.477 690.576 144.388 691.166 144.209 691.693C144.03 692.209 143.777 692.657 143.45 693.036C143.124 693.405 142.734 693.689 142.281 693.889C141.838 694.09 141.343 694.19 140.795 694.19ZM140.795 693.068C141.48 693.068 142.039 692.857 142.47 692.436C142.902 692.014 143.118 691.371 143.118 690.508V689.338C143.118 688.474 142.902 687.832 142.47 687.41C142.039 686.989 141.48 686.778 140.795 686.778C140.111 686.778 139.552 686.989 139.12 687.41C138.688 687.832 138.472 688.474 138.472 689.338V690.508C138.472 691.371 138.688 692.014 139.12 692.436C139.552 692.857 140.111 693.068 140.795 693.068ZM146.839 694V685.846H148.103V687.173H148.166C148.366 686.71 148.646 686.341 149.004 686.067C149.372 685.793 149.862 685.656 150.473 685.656C151.316 685.656 151.98 685.93 152.465 686.478C152.96 687.015 153.207 687.779 153.207 688.769V694H151.943V688.991C151.943 687.526 151.327 686.794 150.094 686.794C149.841 686.794 149.594 686.826 149.351 686.889C149.12 686.952 148.909 687.047 148.719 687.173C148.53 687.3 148.377 687.463 148.261 687.663C148.156 687.853 148.103 688.079 148.103 688.343V694H146.839ZM160.562 686.952H159.234V685.846H160.562V684.202C160.562 683.633 160.709 683.175 161.004 682.827C161.299 682.48 161.747 682.306 162.348 682.306H163.58V683.412H161.826V685.846H163.58V686.952H161.826V694H160.562V686.952ZM168.545 694.19C167.997 694.19 167.497 694.09 167.044 693.889C166.591 693.689 166.201 693.405 165.874 693.036C165.558 692.657 165.311 692.209 165.132 691.693C164.952 691.166 164.863 690.576 164.863 689.923C164.863 689.28 164.952 688.696 165.132 688.169C165.311 687.642 165.558 687.194 165.874 686.826C166.201 686.446 166.591 686.157 167.044 685.956C167.497 685.756 167.997 685.656 168.545 685.656C169.093 685.656 169.588 685.756 170.03 685.956C170.483 686.157 170.873 686.446 171.2 686.826C171.526 687.194 171.779 687.642 171.958 688.169C172.137 688.696 172.227 689.28 172.227 689.923C172.227 690.576 172.137 691.166 171.958 691.693C171.779 692.209 171.526 692.657 171.2 693.036C170.873 693.405 170.483 693.689 170.03 693.889C169.588 694.09 169.093 694.19 168.545 694.19ZM168.545 693.068C169.23 693.068 169.788 692.857 170.22 692.436C170.652 692.014 170.868 691.371 170.868 690.508V689.338C170.868 688.474 170.652 687.832 170.22 687.41C169.788 686.989 169.23 686.778 168.545 686.778C167.86 686.778 167.302 686.989 166.87 687.41C166.438 687.832 166.222 688.474 166.222 689.338V690.508C166.222 691.371 166.438 692.014 166.87 692.436C167.302 692.857 167.86 693.068 168.545 693.068ZM174.588 694V685.846H175.853V687.347H175.932C176.079 686.957 176.342 686.61 176.722 686.304C177.101 685.999 177.622 685.846 178.286 685.846H178.776V687.11H178.033C177.349 687.11 176.811 687.242 176.421 687.505C176.042 687.758 175.853 688.079 175.853 688.469V694H174.588ZM189.905 692.673H189.842C189.346 693.684 188.551 694.19 187.455 694.19C186.95 694.19 186.491 694.09 186.081 693.889C185.67 693.689 185.317 693.405 185.022 693.036C184.737 692.667 184.516 692.22 184.358 691.693C184.211 691.166 184.137 690.576 184.137 689.923C184.137 689.27 184.211 688.68 184.358 688.153C184.516 687.626 184.737 687.178 185.022 686.81C185.317 686.441 185.67 686.157 186.081 685.956C186.491 685.756 186.95 685.656 187.455 685.656C188.024 685.656 188.509 685.783 188.909 686.035C189.32 686.278 189.631 686.657 189.842 687.173H189.905V682.306H191.169V694H189.905V692.673ZM187.803 693.052C188.087 693.052 188.356 693.015 188.609 692.941C188.872 692.867 189.099 692.762 189.288 692.625C189.478 692.478 189.626 692.304 189.731 692.104C189.847 691.893 189.905 691.656 189.905 691.393V688.358C189.905 688.137 189.847 687.932 189.731 687.742C189.626 687.542 189.478 687.373 189.288 687.236C189.099 687.099 188.872 686.994 188.609 686.92C188.356 686.836 188.087 686.794 187.803 686.794C187.087 686.794 186.523 687.02 186.112 687.473C185.701 687.916 185.496 688.501 185.496 689.228V690.618C185.496 691.345 185.701 691.935 186.112 692.388C186.523 692.831 187.087 693.052 187.803 693.052ZM200.065 694C199.591 694 199.248 693.874 199.038 693.621C198.838 693.368 198.711 693.052 198.658 692.673H198.579C198.4 693.178 198.105 693.558 197.694 693.81C197.284 694.063 196.794 694.19 196.225 694.19C195.361 694.19 194.687 693.968 194.202 693.526C193.728 693.083 193.491 692.483 193.491 691.724C193.491 690.955 193.77 690.365 194.328 689.955C194.897 689.544 195.777 689.338 196.968 689.338H198.579V688.532C198.579 687.953 198.421 687.51 198.105 687.205C197.789 686.899 197.305 686.747 196.651 686.747C196.156 686.747 195.74 686.857 195.403 687.078C195.076 687.3 194.803 687.595 194.581 687.963L193.823 687.252C194.044 686.81 194.397 686.436 194.882 686.13C195.366 685.814 195.977 685.656 196.715 685.656C197.705 685.656 198.474 685.898 199.022 686.383C199.57 686.868 199.844 687.542 199.844 688.406V692.894H200.776V694H200.065ZM196.43 693.115C196.746 693.115 197.036 693.078 197.299 693.004C197.563 692.931 197.789 692.825 197.979 692.688C198.169 692.551 198.316 692.393 198.421 692.214C198.527 692.035 198.579 691.84 198.579 691.63V690.286H196.904C196.177 690.286 195.645 690.392 195.308 690.602C194.982 690.813 194.818 691.119 194.818 691.519V691.851C194.818 692.251 194.961 692.562 195.245 692.783C195.54 693.004 195.935 693.115 196.43 693.115ZM209.518 694L205.852 682.97H207.274L209.092 688.532L210.309 692.673H210.388L211.636 688.532L213.469 682.97H214.844L211.13 694H209.518ZM217.423 683.934C217.15 683.934 216.949 683.87 216.823 683.744C216.707 683.607 216.649 683.433 216.649 683.223V683.017C216.649 682.806 216.707 682.638 216.823 682.511C216.949 682.374 217.15 682.306 217.423 682.306C217.697 682.306 217.892 682.374 218.008 682.511C218.135 682.638 218.198 682.806 218.198 683.017V683.223C218.198 683.433 218.135 683.607 218.008 683.744C217.892 683.87 217.697 683.934 217.423 683.934ZM216.791 685.846H218.056V694H216.791V685.846ZM221.024 694V685.846H222.288V687.173H222.352C222.552 686.71 222.831 686.341 223.189 686.067C223.558 685.793 224.048 685.656 224.659 685.656C225.502 685.656 226.165 685.93 226.65 686.478C227.145 687.015 227.393 687.779 227.393 688.769V694H226.128V688.991C226.128 687.526 225.512 686.794 224.28 686.794C224.027 686.794 223.779 686.826 223.537 686.889C223.305 686.952 223.094 687.047 222.905 687.173C222.715 687.3 222.562 687.463 222.446 687.663C222.341 687.853 222.288 688.079 222.288 688.343V694H221.024ZM233.322 694.19C232.753 694.19 232.242 694.09 231.789 693.889C231.336 693.689 230.952 693.405 230.636 693.036C230.33 692.667 230.093 692.22 229.925 691.693C229.767 691.166 229.687 690.576 229.687 689.923C229.687 689.27 229.767 688.68 229.925 688.153C230.093 687.626 230.33 687.178 230.636 686.81C230.952 686.441 231.336 686.157 231.789 685.956C232.242 685.756 232.753 685.656 233.322 685.656C234.133 685.656 234.781 685.835 235.266 686.193C235.761 686.541 236.13 686.999 236.372 687.568L235.313 688.106C235.166 687.684 234.923 687.358 234.586 687.126C234.249 686.894 233.828 686.778 233.322 686.778C232.943 686.778 232.611 686.841 232.327 686.968C232.042 687.084 231.805 687.252 231.615 687.473C231.426 687.684 231.284 687.942 231.189 688.248C231.094 688.543 231.047 688.869 231.047 689.228V690.618C231.047 691.335 231.236 691.925 231.615 692.388C232.005 692.841 232.574 693.068 233.322 693.068C234.344 693.068 235.081 692.594 235.534 691.645L236.451 692.262C236.188 692.852 235.793 693.32 235.266 693.668C234.75 694.016 234.102 694.19 233.322 694.19ZM239.15 683.934C238.876 683.934 238.676 683.87 238.549 683.744C238.434 683.607 238.376 683.433 238.376 683.223V683.017C238.376 682.806 238.434 682.638 238.549 682.511C238.676 682.374 238.876 682.306 239.15 682.306C239.424 682.306 239.619 682.374 239.735 682.511C239.861 682.638 239.924 682.806 239.924 683.017V683.223C239.924 683.433 239.861 683.607 239.735 683.744C239.619 683.87 239.424 683.934 239.15 683.934ZM238.518 685.846H239.782V694H238.518V685.846ZM249.991 694.19C249.096 694.19 248.332 694.021 247.7 693.684C247.068 693.336 246.53 692.862 246.088 692.262L247.068 691.44C247.458 691.956 247.89 692.351 248.364 692.625C248.838 692.889 249.396 693.02 250.039 693.02C250.829 693.02 251.429 692.831 251.84 692.451C252.262 692.072 252.472 691.566 252.472 690.934C252.472 690.408 252.314 690.002 251.998 689.717C251.682 689.433 251.161 689.207 250.434 689.038L249.533 688.833C248.522 688.601 247.747 688.253 247.21 687.79C246.683 687.315 246.42 686.652 246.42 685.798C246.42 685.314 246.509 684.882 246.689 684.503C246.868 684.123 247.115 683.807 247.431 683.554C247.758 683.302 248.142 683.112 248.585 682.986C249.038 682.849 249.533 682.78 250.07 682.78C250.903 682.78 251.614 682.933 252.204 683.238C252.804 683.544 253.31 683.992 253.721 684.582L252.725 685.309C252.42 684.887 252.051 684.555 251.619 684.313C251.187 684.071 250.65 683.949 250.007 683.949C249.301 683.949 248.743 684.102 248.332 684.408C247.932 684.703 247.731 685.15 247.731 685.751C247.731 686.278 247.9 686.678 248.237 686.952C248.585 687.215 249.106 687.426 249.802 687.584L250.702 687.79C251.788 688.032 252.572 688.401 253.057 688.896C253.542 689.391 253.784 690.049 253.784 690.871C253.784 691.377 253.694 691.835 253.515 692.246C253.347 692.657 253.099 693.004 252.773 693.289C252.446 693.573 252.046 693.795 251.572 693.953C251.108 694.111 250.581 694.19 249.991 694.19ZM261.257 692.673H261.194C261.11 692.862 261.004 693.052 260.878 693.241C260.762 693.421 260.615 693.584 260.435 693.731C260.256 693.868 260.04 693.979 259.788 694.063C259.535 694.147 259.24 694.19 258.903 694.19C258.06 694.19 257.391 693.921 256.896 693.384C256.401 692.836 256.153 692.067 256.153 691.076V685.846H257.417V690.855C257.417 692.32 258.039 693.052 259.282 693.052C259.535 693.052 259.777 693.02 260.009 692.957C260.251 692.894 260.462 692.799 260.641 692.673C260.831 692.546 260.978 692.388 261.083 692.198C261.199 691.998 261.257 691.761 261.257 691.487V685.846H262.521V694H261.257V692.673ZM265.496 694V685.846H266.76V687.347H266.839C266.986 686.957 267.25 686.61 267.629 686.304C268.008 685.999 268.53 685.846 269.194 685.846H269.683V687.11H268.941C268.256 687.11 267.719 687.242 267.329 687.505C266.95 687.758 266.76 688.079 266.76 688.469V694H265.496ZM278.084 694.901C278.084 695.744 277.752 696.36 277.089 696.75C276.436 697.15 275.451 697.35 274.134 697.35C272.859 697.35 271.942 697.176 271.384 696.829C270.826 696.481 270.546 695.986 270.546 695.343C270.546 694.901 270.662 694.553 270.894 694.3C271.126 694.058 271.442 693.879 271.842 693.763V693.589C271.358 693.357 271.115 692.978 271.115 692.451C271.115 692.04 271.247 691.73 271.51 691.519C271.774 691.298 272.111 691.134 272.522 691.029V690.966C272.037 690.734 271.658 690.402 271.384 689.97C271.121 689.538 270.989 689.038 270.989 688.469C270.989 688.058 271.063 687.679 271.21 687.331C271.358 686.984 271.563 686.689 271.826 686.446C272.1 686.193 272.422 685.999 272.79 685.862C273.17 685.725 273.591 685.656 274.055 685.656C274.634 685.656 275.15 685.762 275.603 685.972V685.83C275.603 685.514 275.677 685.256 275.825 685.056C275.972 684.845 276.214 684.74 276.551 684.74H277.768V685.846H276.22V686.367C276.515 686.62 276.741 686.926 276.899 687.284C277.068 687.632 277.152 688.027 277.152 688.469C277.152 688.88 277.078 689.259 276.931 689.607C276.783 689.955 276.573 690.255 276.299 690.508C276.035 690.75 275.714 690.94 275.335 691.076C274.955 691.213 274.534 691.282 274.07 691.282C273.807 691.282 273.544 691.256 273.28 691.203C273.006 691.277 272.759 691.387 272.538 691.535C272.316 691.672 272.206 691.867 272.206 692.119C272.206 692.362 272.322 692.525 272.553 692.609C272.785 692.694 273.085 692.736 273.454 692.736H275.192C276.204 692.736 276.936 692.931 277.389 693.32C277.853 693.7 278.084 694.227 278.084 694.901ZM276.899 694.996C276.899 694.669 276.773 694.406 276.52 694.205C276.278 694.016 275.84 693.921 275.208 693.921H272.49C271.984 694.153 271.732 694.521 271.732 695.027C271.732 695.385 271.863 695.691 272.127 695.944C272.401 696.197 272.859 696.323 273.502 696.323H274.671C275.377 696.323 275.925 696.212 276.314 695.991C276.704 695.77 276.899 695.438 276.899 694.996ZM274.07 690.271C274.608 690.271 275.034 690.144 275.35 689.891C275.667 689.628 275.825 689.228 275.825 688.69V688.248C275.825 687.711 275.667 687.315 275.35 687.063C275.034 686.799 274.608 686.668 274.07 686.668C273.533 686.668 273.106 686.799 272.79 687.063C272.474 687.315 272.316 687.711 272.316 688.248V688.69C272.316 689.228 272.474 689.628 272.79 689.891C273.106 690.144 273.533 690.271 274.07 690.271ZM280.473 683.934C280.199 683.934 279.999 683.87 279.873 683.744C279.757 683.607 279.699 683.433 279.699 683.223V683.017C279.699 682.806 279.757 682.638 279.873 682.511C279.999 682.374 280.199 682.306 280.473 682.306C280.747 682.306 280.942 682.374 281.058 682.511C281.184 682.638 281.248 682.806 281.248 683.017V683.223C281.248 683.433 281.184 683.607 281.058 683.744C280.942 683.87 280.747 683.934 280.473 683.934ZM279.841 685.846H281.105V694H279.841V685.846ZM287.108 694.19C286.539 694.19 286.028 694.09 285.575 693.889C285.122 693.689 284.738 693.405 284.422 693.036C284.116 692.667 283.879 692.22 283.711 691.693C283.553 691.166 283.474 690.576 283.474 689.923C283.474 689.27 283.553 688.68 283.711 688.153C283.879 687.626 284.116 687.178 284.422 686.81C284.738 686.441 285.122 686.157 285.575 685.956C286.028 685.756 286.539 685.656 287.108 685.656C287.919 685.656 288.567 685.835 289.052 686.193C289.547 686.541 289.916 686.999 290.158 687.568L289.099 688.106C288.952 687.684 288.71 687.358 288.372 687.126C288.035 686.894 287.614 686.778 287.108 686.778C286.729 686.778 286.397 686.841 286.113 686.968C285.828 687.084 285.591 687.252 285.402 687.473C285.212 687.684 285.07 687.942 284.975 688.248C284.88 688.543 284.833 688.869 284.833 689.228V690.618C284.833 691.335 285.022 691.925 285.402 692.388C285.791 692.841 286.36 693.068 287.108 693.068C288.13 693.068 288.868 692.594 289.321 691.645L290.237 692.262C289.974 692.852 289.579 693.32 289.052 693.668C288.536 694.016 287.888 694.19 287.108 694.19ZM298.23 694C297.756 694 297.413 693.874 297.203 693.621C297.003 693.368 296.876 693.052 296.823 692.673H296.744C296.565 693.178 296.27 693.558 295.86 693.81C295.449 694.063 294.959 694.19 294.39 694.19C293.526 694.19 292.852 693.968 292.367 693.526C291.893 693.083 291.656 692.483 291.656 691.724C291.656 690.955 291.935 690.365 292.494 689.955C293.062 689.544 293.942 689.338 295.133 689.338H296.744V688.532C296.744 687.953 296.586 687.51 296.27 687.205C295.954 686.899 295.47 686.747 294.817 686.747C294.321 686.747 293.905 686.857 293.568 687.078C293.242 687.3 292.968 687.595 292.746 687.963L291.988 687.252C292.209 686.81 292.562 686.436 293.047 686.13C293.531 685.814 294.142 685.656 294.88 685.656C295.87 685.656 296.639 685.898 297.187 686.383C297.735 686.868 298.009 687.542 298.009 688.406V692.894H298.941V694H298.23ZM294.595 693.115C294.911 693.115 295.201 693.078 295.464 693.004C295.728 692.931 295.954 692.825 296.144 692.688C296.334 692.551 296.481 692.393 296.586 692.214C296.692 692.035 296.744 691.84 296.744 691.63V690.286H295.069C294.342 690.286 293.81 690.392 293.473 690.602C293.147 690.813 292.983 691.119 292.983 691.519V691.851C292.983 692.251 293.126 692.562 293.41 692.783C293.705 693.004 294.1 693.115 294.595 693.115ZM302.371 694C301.928 694 301.591 693.879 301.359 693.637C301.138 693.384 301.028 693.068 301.028 692.688V682.306H302.292V692.894H303.493V694H302.371ZM311.086 694H309.759V682.97H314.152C315.121 682.97 315.874 683.238 316.412 683.776C316.959 684.313 317.233 685.087 317.233 686.099C317.233 686.91 317.044 687.579 316.664 688.106C316.296 688.622 315.748 688.964 315.021 689.133L317.549 694H316.048L313.662 689.259H311.086V694ZM314.152 688.121C314.679 688.121 315.084 687.984 315.369 687.711C315.664 687.437 315.811 687.047 315.811 686.541V685.719C315.811 685.214 315.664 684.824 315.369 684.55C315.084 684.276 314.679 684.139 314.152 684.139H311.086V688.121H314.152ZM322.873 694.19C322.325 694.19 321.824 694.09 321.371 693.889C320.918 693.689 320.529 693.405 320.202 693.036C319.886 692.657 319.638 692.209 319.459 691.693C319.28 691.166 319.191 690.576 319.191 689.923C319.191 689.28 319.28 688.696 319.459 688.169C319.638 687.642 319.886 687.194 320.202 686.826C320.529 686.446 320.918 686.157 321.371 685.956C321.824 685.756 322.325 685.656 322.873 685.656C323.42 685.656 323.916 685.756 324.358 685.956C324.811 686.157 325.201 686.446 325.528 686.826C325.854 687.194 326.107 687.642 326.286 688.169C326.465 688.696 326.555 689.28 326.555 689.923C326.555 690.576 326.465 691.166 326.286 691.693C326.107 692.209 325.854 692.657 325.528 693.036C325.201 693.405 324.811 693.689 324.358 693.889C323.916 694.09 323.42 694.19 322.873 694.19ZM322.873 693.068C323.557 693.068 324.116 692.857 324.548 692.436C324.98 692.014 325.196 691.371 325.196 690.508V689.338C325.196 688.474 324.98 687.832 324.548 687.41C324.116 686.989 323.557 686.778 322.873 686.778C322.188 686.778 321.63 686.989 321.198 687.41C320.766 687.832 320.55 688.474 320.55 689.338V690.508C320.55 691.371 320.766 692.014 321.198 692.436C321.63 692.857 322.188 693.068 322.873 693.068ZM328.916 682.306H330.18V687.173H330.243C330.454 686.657 330.76 686.278 331.16 686.035C331.571 685.783 332.061 685.656 332.63 685.656C333.135 685.656 333.594 685.756 334.005 685.956C334.415 686.157 334.763 686.441 335.047 686.81C335.342 687.178 335.564 687.626 335.711 688.153C335.869 688.68 335.948 689.27 335.948 689.923C335.948 690.576 335.869 691.166 335.711 691.693C335.564 692.22 335.342 692.667 335.047 693.036C334.763 693.405 334.415 693.689 334.005 693.889C333.594 694.09 333.135 694.19 332.63 694.19C331.523 694.19 330.728 693.684 330.243 692.673H330.18V694H328.916V682.306ZM332.282 693.052C332.998 693.052 333.562 692.831 333.973 692.388C334.384 691.935 334.589 691.345 334.589 690.618V689.228C334.589 688.501 334.384 687.916 333.973 687.473C333.562 687.02 332.998 686.794 332.282 686.794C331.998 686.794 331.724 686.836 331.46 686.92C331.207 686.994 330.986 687.099 330.797 687.236C330.607 687.373 330.454 687.542 330.338 687.742C330.233 687.932 330.18 688.137 330.18 688.358V691.393C330.18 691.656 330.233 691.893 330.338 692.104C330.454 692.304 330.607 692.478 330.797 692.625C330.986 692.762 331.207 692.867 331.46 692.941C331.724 693.015 331.998 693.052 332.282 693.052ZM341.447 694.19C340.899 694.19 340.398 694.09 339.945 693.889C339.492 693.689 339.103 693.405 338.776 693.036C338.46 692.657 338.212 692.209 338.033 691.693C337.854 691.166 337.765 690.576 337.765 689.923C337.765 689.28 337.854 688.696 338.033 688.169C338.212 687.642 338.46 687.194 338.776 686.826C339.103 686.446 339.492 686.157 339.945 685.956C340.398 685.756 340.899 685.656 341.447 685.656C341.994 685.656 342.49 685.756 342.932 685.956C343.385 686.157 343.775 686.446 344.101 686.826C344.428 687.194 344.681 687.642 344.86 688.169C345.039 688.696 345.129 689.28 345.129 689.923C345.129 690.576 345.039 691.166 344.86 691.693C344.681 692.209 344.428 692.657 344.101 693.036C343.775 693.405 343.385 693.689 342.932 693.889C342.49 694.09 341.994 694.19 341.447 694.19ZM341.447 693.068C342.131 693.068 342.69 692.857 343.122 692.436C343.554 692.014 343.77 691.371 343.77 690.508V689.338C343.77 688.474 343.554 687.832 343.122 687.41C342.69 686.989 342.131 686.778 341.447 686.778C340.762 686.778 340.203 686.989 339.771 687.41C339.34 687.832 339.124 688.474 339.124 689.338V690.508C339.124 691.371 339.34 692.014 339.771 692.436C340.203 692.857 340.762 693.068 341.447 693.068ZM349.291 694C348.849 694 348.512 693.879 348.28 693.637C348.059 693.384 347.948 693.057 347.948 692.657V686.952H346.605V685.846H347.364C347.637 685.846 347.822 685.793 347.917 685.688C348.022 685.572 348.075 685.377 348.075 685.103V683.586H349.212V685.846H350.998V686.952H349.212V692.894H350.872V694H349.291Z" fill="#607D8B"/>
<g filter="url(#filter0_d)">
<rect x="20" y="16" width="346.75" height="609.56" rx="20" fill="white"/>
</g>
<path d="M41.1837 53.987H39.6667V41.381H44.6874C45.7951 41.381 46.656 41.688 47.27 42.302C47.8961 42.9161 48.2092 43.801 48.2092 44.9569C48.2092 45.884 47.9924 46.6485 47.559 47.2505C47.1376 47.8405 46.5115 48.2318 45.6807 48.4244L48.5704 53.987H46.8546L44.1275 48.5689H41.1837V53.987ZM44.6874 47.2686C45.2894 47.2686 45.753 47.1121 46.078 46.799C46.4152 46.486 46.5837 46.0405 46.5837 45.4626V44.5234C46.5837 43.9455 46.4152 43.5 46.078 43.187C45.753 42.8739 45.2894 42.7174 44.6874 42.7174H41.1837V47.2686H44.6874ZM56.2529 54.2037C55.4341 54.2037 54.6937 54.0653 54.0315 53.7883C53.3813 53.4994 52.8214 53.084 52.3519 52.5422C51.8943 51.9883 51.5392 51.3081 51.2863 50.5014C51.0335 49.6826 50.907 48.7435 50.907 47.684C50.907 46.6244 51.0335 45.6913 51.2863 44.8846C51.5392 44.0779 51.8943 43.3977 52.3519 42.8438C52.8214 42.29 53.3813 41.8746 54.0315 41.5977C54.6937 41.3087 55.4341 41.1642 56.2529 41.1642C57.0596 41.1642 57.794 41.3087 58.4562 41.5977C59.1184 41.8746 59.6783 42.29 60.1358 42.8438C60.6054 43.3977 60.9666 44.0779 61.2194 44.8846C61.4723 45.6913 61.5987 46.6244 61.5987 47.684C61.5987 48.7435 61.4723 49.6826 61.2194 50.5014C60.9666 51.3081 60.6054 51.9883 60.1358 52.5422C59.6783 53.084 59.1184 53.4994 58.4562 53.7883C57.794 54.0653 57.0596 54.2037 56.2529 54.2037ZM56.2529 52.8492C56.7947 52.8492 57.2944 52.7529 57.7519 52.5602C58.2094 52.3676 58.6007 52.0907 58.9258 51.7295C59.2629 51.3683 59.5218 50.9348 59.7024 50.4291C59.883 49.9234 59.9733 49.3576 59.9733 48.7315V46.6365C59.9733 46.0104 59.883 45.4445 59.7024 44.9388C59.5218 44.4331 59.2629 43.9997 58.9258 43.6385C58.6007 43.2773 58.2094 43.0004 57.7519 42.8077C57.2944 42.6151 56.7947 42.5187 56.2529 42.5187C55.7111 42.5187 55.2114 42.6151 54.7539 42.8077C54.2964 43.0004 53.899 43.2773 53.5619 43.6385C53.2368 43.9997 52.984 44.4331 52.8034 44.9388C52.6228 45.4445 52.5325 46.0104 52.5325 46.6365V48.7315C52.5325 49.3576 52.6228 49.9234 52.8034 50.4291C52.984 50.9348 53.2368 51.3683 53.5619 51.7295C53.899 52.0907 54.2964 52.3676 54.7539 52.5602C55.2114 52.7529 55.7111 52.8492 56.2529 52.8492ZM68.3624 54.2037C67.339 54.2037 66.4661 54.0111 65.7437 53.6258C65.0213 53.2285 64.4072 52.6867 63.9015 52.0004L65.0213 51.0612C65.4668 51.6512 65.9604 52.1027 66.5022 52.4158C67.044 52.7168 67.6821 52.8673 68.4166 52.8673C69.3196 52.8673 70.0059 52.6505 70.4755 52.2171C70.9571 51.7837 71.1979 51.2057 71.1979 50.4833C71.1979 49.8813 71.0173 49.4178 70.6561 49.0927C70.2949 48.7676 69.6989 48.5087 68.8681 48.3161L67.8387 48.0813C66.6828 47.8164 65.7979 47.4191 65.1838 46.8893C64.5818 46.3475 64.2808 45.589 64.2808 44.6137C64.2808 44.0599 64.3831 43.5662 64.5878 43.1328C64.7925 42.6993 65.0754 42.3381 65.4367 42.0492C65.8099 41.7602 66.2494 41.5435 66.755 41.399C67.2728 41.2425 67.8387 41.1642 68.4527 41.1642C69.4039 41.1642 70.2166 41.3388 70.8908 41.688C71.5771 42.0371 72.1551 42.5488 72.6246 43.2231L71.4868 44.0539C71.1377 43.5723 70.7163 43.193 70.2226 42.9161C69.729 42.6391 69.1149 42.5007 68.3805 42.5007C67.5738 42.5007 66.9357 42.6753 66.4661 43.0244C66.0086 43.3616 65.7798 43.8733 65.7798 44.5596C65.7798 45.1616 65.9724 45.6191 66.3577 45.9321C66.755 46.2331 67.351 46.4739 68.1457 46.6545L69.1751 46.8893C70.4153 47.1662 71.3122 47.5877 71.8661 48.1535C72.4199 48.7194 72.6969 49.4719 72.6969 50.4111C72.6969 50.989 72.5945 51.5127 72.3898 51.9823C72.1972 52.4519 71.9143 52.8492 71.541 53.1743C71.1678 53.4994 70.7102 53.7522 70.1684 53.9328C69.6387 54.1134 69.0367 54.2037 68.3624 54.2037ZM85.0209 54.2037C83.4195 54.2037 82.1734 53.6619 81.2824 52.5783C80.3914 51.4826 79.9459 49.8753 79.9459 47.7562C79.9459 45.6371 80.3914 44.0117 81.2824 42.88C82.1734 41.7361 83.4195 41.1642 85.0209 41.1642C86.0804 41.1642 86.9653 41.405 87.6757 41.8866C88.3981 42.3682 88.958 43.0485 89.3553 43.9274L88.1272 44.6679C87.8744 44.0177 87.4891 43.5 86.9714 43.1147C86.4536 42.7174 85.8035 42.5187 85.0209 42.5187C84.4791 42.5187 83.9914 42.6211 83.558 42.8258C83.1366 43.0305 82.7754 43.3254 82.4744 43.7107C82.1854 44.084 81.9627 44.5355 81.8061 45.0652C81.6496 45.583 81.5714 46.1669 81.5714 46.8171V48.6953C81.5714 49.9957 81.8724 51.0131 82.4744 51.7475C83.0764 52.482 83.9252 52.8492 85.0209 52.8492C85.8276 52.8492 86.5018 52.6445 87.0436 52.2352C87.5854 51.8138 87.9827 51.2599 88.2356 50.5736L89.4456 51.3321C89.0483 52.2231 88.4764 52.9275 87.7299 53.4452C86.9834 53.9509 86.0804 54.2037 85.0209 54.2037ZM95.6691 54.2037C95.043 54.2037 94.4711 54.0893 93.9533 53.8606C93.4356 53.6318 92.9901 53.3067 92.6169 52.8853C92.2557 52.4519 91.9727 51.9402 91.7681 51.3502C91.5634 50.7482 91.461 50.0739 91.461 49.3275C91.461 48.593 91.5634 47.9248 91.7681 47.3228C91.9727 46.7208 92.2557 46.2091 92.6169 45.7877C92.9901 45.3542 93.4356 45.0231 93.9533 44.7943C94.4711 44.5656 95.043 44.4512 95.6691 44.4512C96.2952 44.4512 96.861 44.5656 97.3667 44.7943C97.8845 45.0231 98.3299 45.3542 98.7032 45.7877C99.0764 46.2091 99.3654 46.7208 99.5701 47.3228C99.7748 47.9248 99.8771 48.593 99.8771 49.3275C99.8771 50.0739 99.7748 50.7482 99.5701 51.3502C99.3654 51.9402 99.0764 52.4519 98.7032 52.8853C98.3299 53.3067 97.8845 53.6318 97.3667 53.8606C96.861 54.0893 96.2952 54.2037 95.6691 54.2037ZM95.6691 52.9214C96.4517 52.9214 97.0898 52.6806 97.5835 52.199C98.0771 51.7174 98.3239 50.983 98.3239 49.9957V48.6592C98.3239 47.6719 98.0771 46.9375 97.5835 46.4559C97.0898 45.9743 96.4517 45.7335 95.6691 45.7335C94.8865 45.7335 94.2483 45.9743 93.7547 46.4559C93.261 46.9375 93.0142 47.6719 93.0142 48.6592V49.9957C93.0142 50.983 93.261 51.7174 93.7547 52.199C94.2483 52.6806 94.8865 52.9214 95.6691 52.9214ZM102.75 53.987V44.6679H104.195V46.185H104.267C104.375 45.9442 104.496 45.7214 104.628 45.5167C104.773 45.3 104.941 45.1134 105.134 44.9569C105.339 44.8004 105.573 44.68 105.838 44.5957C106.103 44.4994 106.416 44.4512 106.777 44.4512C107.391 44.4512 107.957 44.6017 108.475 44.9027C108.993 45.1917 109.378 45.6733 109.631 46.3475H109.667C109.836 45.8418 110.149 45.4024 110.606 45.0291C111.076 44.6438 111.708 44.4512 112.502 44.4512C113.454 44.4512 114.194 44.7642 114.724 45.3903C115.266 46.0044 115.537 46.8773 115.537 48.0091V53.987H114.092V48.2619C114.092 47.4311 113.929 46.805 113.604 46.3836C113.279 45.9622 112.761 45.7515 112.051 45.7515C111.762 45.7515 111.485 45.7877 111.22 45.8599C110.967 45.9321 110.739 46.0405 110.534 46.185C110.329 46.3295 110.167 46.5161 110.046 46.7448C109.926 46.9616 109.866 47.2204 109.866 47.5214V53.987H108.421V48.2619C108.421 47.4311 108.258 46.805 107.933 46.3836C107.608 45.9622 107.102 45.7515 106.416 45.7515C106.127 45.7515 105.85 45.7877 105.585 45.8599C105.321 45.9321 105.086 46.0405 104.881 46.185C104.676 46.3295 104.508 46.5161 104.375 46.7448C104.255 46.9616 104.195 47.2204 104.195 47.5214V53.987H102.75ZM119.014 44.6679H120.459V46.185H120.531C120.772 45.595 121.121 45.1616 121.579 44.8846C122.048 44.5957 122.608 44.4512 123.258 44.4512C123.836 44.4512 124.36 44.5656 124.829 44.7943C125.299 45.0231 125.696 45.3482 126.021 45.7696C126.359 46.191 126.611 46.7027 126.78 47.3047C126.961 47.9067 127.051 48.581 127.051 49.3275C127.051 50.0739 126.961 50.7482 126.78 51.3502C126.611 51.9522 126.359 52.4639 126.021 52.8853C125.696 53.3067 125.299 53.6318 124.829 53.8606C124.36 54.0893 123.836 54.2037 123.258 54.2037C121.994 54.2037 121.085 53.6258 120.531 52.4699H120.459V57.599H119.014V44.6679ZM122.861 52.9034C123.68 52.9034 124.324 52.6505 124.793 52.1449C125.263 51.6271 125.498 50.9529 125.498 50.1221V48.5328C125.498 47.702 125.263 47.0338 124.793 46.5281C124.324 46.0104 123.68 45.7515 122.861 45.7515C122.536 45.7515 122.223 45.7997 121.922 45.896C121.633 45.9803 121.38 46.1007 121.163 46.2572C120.946 46.4137 120.772 46.6064 120.639 46.8351C120.519 47.0519 120.459 47.2867 120.459 47.5395V51.0071C120.459 51.3081 120.519 51.579 120.639 51.8198C120.772 52.0485 120.946 52.2472 121.163 52.4158C121.38 52.5723 121.633 52.6927 121.922 52.777C122.223 52.8612 122.536 52.9034 122.861 52.9034ZM135.73 52.4699H135.658C135.562 52.6867 135.441 52.9034 135.297 53.1201C135.164 53.3248 134.996 53.5114 134.791 53.68C134.586 53.8365 134.34 53.9629 134.051 54.0592C133.762 54.1556 133.425 54.2037 133.039 54.2037C132.076 54.2037 131.311 53.8967 130.746 53.2827C130.18 52.6566 129.897 51.7776 129.897 50.6459V44.6679H131.342V50.393C131.342 52.0666 132.052 52.9034 133.473 52.9034C133.762 52.9034 134.039 52.8673 134.303 52.795C134.58 52.7228 134.821 52.6144 135.026 52.4699C135.243 52.3255 135.411 52.1449 135.532 51.9281C135.664 51.6994 135.73 51.4285 135.73 51.1154V44.6679H137.175V53.987H135.73V52.4699ZM142.807 53.987C142.302 53.987 141.916 53.8485 141.651 53.5716C141.399 53.2827 141.272 52.9094 141.272 52.4519V45.9321H139.737V44.6679H140.604C140.917 44.6679 141.128 44.6077 141.236 44.4873C141.356 44.3549 141.417 44.1321 141.417 43.8191V42.0853H142.717V44.6679H144.758V45.9321H142.717V52.7228H144.613V53.987H142.807ZM151.01 54.2037C150.372 54.2037 149.794 54.0893 149.276 53.8606C148.77 53.6318 148.331 53.3067 147.958 52.8853C147.596 52.4519 147.314 51.9402 147.109 51.3502C146.916 50.7482 146.82 50.0739 146.82 49.3275C146.82 48.593 146.916 47.9248 147.109 47.3228C147.314 46.7208 147.596 46.2091 147.958 45.7877C148.331 45.3542 148.77 45.0231 149.276 44.7943C149.794 44.5656 150.372 44.4512 151.01 44.4512C151.636 44.4512 152.196 44.5656 152.689 44.7943C153.183 45.0231 153.605 45.3422 153.954 45.7515C154.303 46.1489 154.568 46.6244 154.748 47.1783C154.941 47.7321 155.037 48.3402 155.037 49.0024V49.6887H148.337V50.1221C148.337 50.5194 148.397 50.8927 148.518 51.2418C148.65 51.579 148.831 51.874 149.059 52.1268C149.3 52.3796 149.589 52.5783 149.926 52.7228C150.275 52.8673 150.667 52.9395 151.1 52.9395C151.69 52.9395 152.202 52.801 152.635 52.5241C153.081 52.2472 153.424 51.8499 153.665 51.3321L154.694 52.0726C154.393 52.7107 153.924 53.2285 153.285 53.6258C152.647 54.0111 151.889 54.2037 151.01 54.2037ZM151.01 45.6612C150.613 45.6612 150.251 45.7335 149.926 45.878C149.601 46.0104 149.318 46.203 149.077 46.4559C148.849 46.7087 148.668 47.0097 148.536 47.3589C148.403 47.696 148.337 48.0693 148.337 48.4786V48.605H153.484V48.4064C153.484 47.5756 153.255 46.9134 152.798 46.4198C152.352 45.9141 151.756 45.6612 151.01 45.6612ZM157.915 53.987V44.6679H159.36V46.3836H159.45C159.618 45.9382 159.919 45.5408 160.353 45.1917C160.786 44.8425 161.382 44.6679 162.141 44.6679H162.701V46.1127H161.852C161.069 46.1127 160.455 46.2632 160.01 46.5642C159.576 46.8532 159.36 47.2204 159.36 47.6659V53.987H157.915ZM172.824 53.987L168.634 41.381H170.259L172.336 47.7382L173.727 52.4699H173.817L175.244 47.7382L177.339 41.381H178.91L174.666 53.987H172.824ZM182.032 42.4826C181.719 42.4826 181.49 42.4104 181.346 42.2659C181.214 42.1094 181.147 41.9107 181.147 41.6699V41.4351C181.147 41.1943 181.214 41.0017 181.346 40.8572C181.49 40.7007 181.719 40.6224 182.032 40.6224C182.345 40.6224 182.568 40.7007 182.701 40.8572C182.845 41.0017 182.917 41.1943 182.917 41.4351V41.6699C182.917 41.9107 182.845 42.1094 182.701 42.2659C182.568 42.4104 182.345 42.4826 182.032 42.4826ZM181.31 44.6679H182.755V53.987H181.31V44.6679ZM189.121 54.2037C188.254 54.2037 187.526 54.0412 186.936 53.7161C186.358 53.379 185.858 52.9335 185.437 52.3796L186.466 51.5489C186.827 52.0064 187.231 52.3616 187.676 52.6144C188.122 52.8552 188.639 52.9756 189.229 52.9756C189.843 52.9756 190.319 52.8432 190.656 52.5783C191.005 52.3134 191.18 51.9402 191.18 51.4586C191.18 51.0974 191.059 50.7903 190.819 50.5375C190.59 50.2726 190.168 50.092 189.554 49.9957L188.814 49.8873C188.38 49.8271 187.983 49.7368 187.622 49.6164C187.261 49.484 186.942 49.3154 186.665 49.1107C186.4 48.894 186.189 48.6291 186.033 48.3161C185.888 48.003 185.816 47.6298 185.816 47.1963C185.816 46.7388 185.9 46.3415 186.069 46.0044C186.237 45.6552 186.466 45.3662 186.755 45.1375C187.056 44.9087 187.411 44.7402 187.821 44.6318C188.23 44.5114 188.669 44.4512 189.139 44.4512C189.898 44.4512 190.53 44.5836 191.035 44.8485C191.553 45.1134 192.005 45.4806 192.39 45.9502L191.433 46.8171C191.228 46.5281 190.927 46.2693 190.53 46.0405C190.132 45.7997 189.633 45.6793 189.031 45.6793C188.429 45.6793 187.971 45.8117 187.658 46.0766C187.357 46.3295 187.207 46.6786 187.207 47.1241C187.207 47.5816 187.357 47.9127 187.658 48.1174C187.971 48.3221 188.417 48.4726 188.995 48.5689L189.717 48.6773C190.752 48.8338 191.487 49.1348 191.92 49.5803C192.354 50.0137 192.57 50.5857 192.57 51.296C192.57 52.199 192.263 52.9094 191.649 53.4271C191.035 53.9449 190.193 54.2037 189.121 54.2037ZM196.341 42.4826C196.028 42.4826 195.8 42.4104 195.655 42.2659C195.523 42.1094 195.457 41.9107 195.457 41.6699V41.4351C195.457 41.1943 195.523 41.0017 195.655 40.8572C195.8 40.7007 196.028 40.6224 196.341 40.6224C196.655 40.6224 196.877 40.7007 197.01 40.8572C197.154 41.0017 197.226 41.1943 197.226 41.4351V41.6699C197.226 41.9107 197.154 42.1094 197.01 42.2659C196.877 42.4104 196.655 42.4826 196.341 42.4826ZM195.619 44.6679H197.064V53.987H195.619V44.6679ZM204.153 54.2037C203.526 54.2037 202.955 54.0893 202.437 53.8606C201.919 53.6318 201.474 53.3067 201.1 52.8853C200.739 52.4519 200.456 51.9402 200.252 51.3502C200.047 50.7482 199.945 50.0739 199.945 49.3275C199.945 48.593 200.047 47.9248 200.252 47.3228C200.456 46.7208 200.739 46.2091 201.1 45.7877C201.474 45.3542 201.919 45.0231 202.437 44.7943C202.955 44.5656 203.526 44.4512 204.153 44.4512C204.779 44.4512 205.345 44.5656 205.85 44.7943C206.368 45.0231 206.813 45.3542 207.187 45.7877C207.56 46.2091 207.849 46.7208 208.054 47.3228C208.258 47.9248 208.361 48.593 208.361 49.3275C208.361 50.0739 208.258 50.7482 208.054 51.3502C207.849 51.9402 207.56 52.4519 207.187 52.8853C206.813 53.3067 206.368 53.6318 205.85 53.8606C205.345 54.0893 204.779 54.2037 204.153 54.2037ZM204.153 52.9214C204.935 52.9214 205.573 52.6806 206.067 52.199C206.561 51.7174 206.807 50.983 206.807 49.9957V48.6592C206.807 47.6719 206.561 46.9375 206.067 46.4559C205.573 45.9743 204.935 45.7335 204.153 45.7335C203.37 45.7335 202.732 45.9743 202.238 46.4559C201.745 46.9375 201.498 47.6719 201.498 48.6592V49.9957C201.498 50.983 201.745 51.7174 202.238 52.199C202.732 52.6806 203.37 52.9214 204.153 52.9214ZM211.233 53.987V44.6679H212.678V46.185H212.75C212.979 45.6552 213.298 45.2338 213.708 44.9208C214.129 44.6077 214.689 44.4512 215.387 44.4512C216.351 44.4512 217.109 44.7642 217.663 45.3903C218.229 46.0044 218.512 46.8773 218.512 48.0091V53.987H217.067V48.2619C217.067 46.5883 216.363 45.7515 214.954 45.7515C214.665 45.7515 214.382 45.7877 214.105 45.8599C213.84 45.9321 213.599 46.0405 213.383 46.185C213.166 46.3295 212.991 46.5161 212.859 46.7448C212.738 46.9616 212.678 47.2204 212.678 47.5214V53.987H211.233Z" fill="#263238"/>
<path d="M44.6051 78.7304H44.5419C44.0468 79.7417 43.2514 80.2474 42.1557 80.2474C41.65 80.2474 41.1917 80.1473 40.7809 79.9472C40.37 79.747 40.0171 79.4626 39.7221 79.0938C39.4376 78.7251 39.2164 78.2774 39.0584 77.7506C38.9109 77.2238 38.8371 76.6339 38.8371 75.9807C38.8371 75.3275 38.9109 74.7376 39.0584 74.2108C39.2164 73.684 39.4376 73.2363 39.7221 72.8676C40.0171 72.4988 40.37 72.2144 40.7809 72.0142C41.1917 71.8141 41.65 71.714 42.1557 71.714C42.7246 71.714 43.2092 71.8404 43.6096 72.0932C44.0204 72.3355 44.3312 72.7148 44.5419 73.231H44.6051V68.3638H45.8693V80.0578H44.6051V78.7304ZM42.5034 79.1096C42.7878 79.1096 43.0565 79.0728 43.3093 78.999C43.5727 78.9253 43.7992 78.8199 43.9888 78.683C44.1784 78.5355 44.3259 78.3616 44.4313 78.1615C44.5472 77.9508 44.6051 77.7137 44.6051 77.4504V74.4162C44.6051 74.195 44.5472 73.9896 44.4313 73.7999C44.3259 73.5998 44.1784 73.4312 43.9888 73.2942C43.7992 73.1573 43.5727 73.0519 43.3093 72.9782C43.0565 72.8939 42.7878 72.8518 42.5034 72.8518C41.787 72.8518 41.2233 73.0783 40.8125 73.5313C40.4016 73.9738 40.1962 74.5585 40.1962 75.2854V76.676C40.1962 77.4029 40.4016 77.9929 40.8125 78.4459C41.2233 78.8884 41.787 79.1096 42.5034 79.1096ZM54.7652 80.0578C54.2912 80.0578 53.9488 79.9314 53.7381 79.6785C53.5379 79.4257 53.4115 79.1096 53.3588 78.7304H53.2798C53.1007 79.2361 52.8057 79.6153 52.3948 79.8682C51.984 80.121 51.4941 80.2474 50.9252 80.2474C50.0613 80.2474 49.3871 80.0262 48.9024 79.5837C48.4284 79.1412 48.1913 78.5407 48.1913 77.7822C48.1913 77.0131 48.4705 76.4232 49.0289 76.0123C49.5978 75.6014 50.4774 75.396 51.6679 75.396H53.2798V74.5901C53.2798 74.0106 53.1218 73.5682 52.8057 73.2626C52.4897 72.9571 52.005 72.8044 51.3519 72.8044C50.8567 72.8044 50.4406 72.915 50.1034 73.1362C49.7769 73.3575 49.5029 73.6524 49.2817 74.0212L48.5232 73.31C48.7444 72.8676 49.0973 72.4936 49.582 72.1881C50.0666 71.872 50.6776 71.714 51.4151 71.714C52.4054 71.714 53.1744 71.9563 53.7223 72.4409C54.2701 72.9255 54.544 73.5998 54.544 74.4636V78.9516H55.4764V80.0578H54.7652ZM51.1306 79.1728C51.4467 79.1728 51.7364 79.136 51.9998 79.0622C52.2631 78.9885 52.4897 78.8831 52.6793 78.7462C52.8689 78.6092 53.0164 78.4512 53.1218 78.2721C53.2271 78.093 53.2798 77.8981 53.2798 77.6874V76.3442H51.6047C50.8778 76.3442 50.3458 76.4495 50.0086 76.6602C49.682 76.8709 49.5187 77.1764 49.5187 77.5768V77.9086C49.5187 78.309 49.661 78.6198 49.9454 78.841C50.2404 79.0622 50.6355 79.1728 51.1306 79.1728ZM64.2188 80.0578L60.5525 69.0275H61.9748L63.7921 74.5901L65.0089 78.7304H65.0879L66.3363 74.5901L68.1694 69.0275H69.5443L65.8306 80.0578H64.2188ZM72.1238 69.9915C71.8499 69.9915 71.6497 69.9283 71.5233 69.8018C71.4074 69.6649 71.3495 69.4911 71.3495 69.2804V69.0749C71.3495 68.8642 71.4074 68.6957 71.5233 68.5692C71.6497 68.4323 71.8499 68.3638 72.1238 68.3638C72.3977 68.3638 72.5926 68.4323 72.7085 68.5692C72.8349 68.6957 72.8981 68.8642 72.8981 69.0749V69.2804C72.8981 69.4911 72.8349 69.6649 72.7085 69.8018C72.5926 69.9283 72.3977 69.9915 72.1238 69.9915ZM71.4917 71.9036H72.7559V80.0578H71.4917V71.9036ZM75.7246 80.0578V71.9036H76.9888V73.231H77.052C77.2522 72.7675 77.5313 72.3988 77.8895 72.1248C78.2583 71.8509 78.7481 71.714 79.3592 71.714C80.202 71.714 80.8657 71.9879 81.3503 72.5357C81.8455 73.073 82.093 73.8368 82.093 74.8271V80.0578H80.8288V75.0483C80.8288 73.584 80.2125 72.8518 78.9799 72.8518C78.7271 72.8518 78.4795 72.8834 78.2372 72.9466C78.0054 73.0098 77.7947 73.1046 77.6051 73.231C77.4154 73.3575 77.2627 73.5207 77.1468 73.7209C77.0414 73.9105 76.9888 74.1371 76.9888 74.4004V80.0578H75.7246ZM88.0225 80.2474C87.4536 80.2474 86.9426 80.1473 86.4896 79.9472C86.0366 79.747 85.6521 79.4626 85.336 79.0938C85.0305 78.7251 84.7935 78.2774 84.6249 77.7506C84.4669 77.2238 84.3879 76.6339 84.3879 75.9807C84.3879 75.3275 84.4669 74.7376 84.6249 74.2108C84.7935 73.684 85.0305 73.2363 85.336 72.8676C85.6521 72.4988 86.0366 72.2144 86.4896 72.0142C86.9426 71.8141 87.4536 71.714 88.0225 71.714C88.8337 71.714 89.4816 71.8931 89.9662 72.2513C90.4614 72.5989 90.8301 73.0572 91.0724 73.6261L90.0136 74.1634C89.8661 73.742 89.6238 73.4154 89.2867 73.1836C88.9496 72.9518 88.5282 72.836 88.0225 72.836C87.6432 72.836 87.3114 72.8992 87.0269 73.0256C86.7425 73.1415 86.5054 73.31 86.3158 73.5313C86.1262 73.742 85.9839 74.0001 85.8891 74.3056C85.7943 74.6006 85.7469 74.9272 85.7469 75.2854V76.676C85.7469 77.3924 85.9365 77.9824 86.3158 78.4459C86.7056 78.8989 87.2745 79.1254 88.0225 79.1254C89.0444 79.1254 89.7819 78.6514 90.2349 77.7032L91.1514 78.3195C90.888 78.9095 90.493 79.3783 89.9662 79.7259C89.45 80.0736 88.8021 80.2474 88.0225 80.2474ZM93.8503 69.9915C93.5764 69.9915 93.3762 69.9283 93.2498 69.8018C93.1339 69.6649 93.076 69.4911 93.076 69.2804V69.0749C93.076 68.8642 93.1339 68.6957 93.2498 68.5692C93.3762 68.4323 93.5764 68.3638 93.8503 68.3638C94.1242 68.3638 94.3191 68.4323 94.435 68.5692C94.5614 68.6957 94.6246 68.8642 94.6246 69.0749V69.2804C94.6246 69.4911 94.5614 69.6649 94.435 69.8018C94.3191 69.9283 94.1242 69.9915 93.8503 69.9915ZM93.2182 71.9036H94.4824V80.0578H93.2182V71.9036ZM105.482 80.2474C104.081 80.2474 102.99 79.7734 102.211 78.8252C101.431 77.8665 101.041 76.46 101.041 74.6059C101.041 72.7517 101.431 71.3294 102.211 70.3391C102.99 69.3383 104.081 68.8379 105.482 68.8379C106.409 68.8379 107.183 69.0486 107.805 69.47C108.437 69.8914 108.927 70.4866 109.274 71.2557L108.2 71.9036C107.979 71.3347 107.641 70.8817 107.188 70.5446C106.735 70.1969 106.167 70.0231 105.482 70.0231C105.008 70.0231 104.581 70.1126 104.202 70.2917C103.833 70.4708 103.517 70.7289 103.254 71.0661C103.001 71.3926 102.806 71.7877 102.669 72.2513C102.532 72.7043 102.463 73.2152 102.463 73.7841V75.4276C102.463 76.5654 102.727 77.4556 103.254 78.0983C103.78 78.7409 104.523 79.0622 105.482 79.0622C106.188 79.0622 106.778 78.8831 107.252 78.5249C107.726 78.1562 108.073 77.6716 108.295 77.0711L109.353 77.7348C109.006 78.5144 108.505 79.1307 107.852 79.5837C107.199 80.0262 106.409 80.2474 105.482 80.2474ZM114.647 80.2474C114.099 80.2474 113.598 80.1473 113.145 79.9472C112.692 79.747 112.303 79.4626 111.976 79.0938C111.66 78.7146 111.412 78.2668 111.233 77.7506C111.054 77.2238 110.965 76.6339 110.965 75.9807C110.965 75.3381 111.054 74.7534 111.233 74.2266C111.412 73.6998 111.66 73.2521 111.976 72.8834C112.303 72.5041 112.692 72.2144 113.145 72.0142C113.598 71.8141 114.099 71.714 114.647 71.714C115.194 71.714 115.69 71.8141 116.132 72.0142C116.585 72.2144 116.975 72.5041 117.301 72.8834C117.628 73.2521 117.881 73.6998 118.06 74.2266C118.239 74.7534 118.329 75.3381 118.329 75.9807C118.329 76.6339 118.239 77.2238 118.06 77.7506C117.881 78.2668 117.628 78.7146 117.301 79.0938C116.975 79.4626 116.585 79.747 116.132 79.9472C115.69 80.1473 115.194 80.2474 114.647 80.2474ZM114.647 79.1254C115.331 79.1254 115.89 78.9147 116.322 78.4933C116.754 78.0719 116.97 77.4293 116.97 76.5654V75.396C116.97 74.5321 116.754 73.8895 116.322 73.4681C115.89 73.0467 115.331 72.836 114.647 72.836C113.962 72.836 113.403 73.0467 112.971 73.4681C112.54 73.8895 112.324 74.5321 112.324 75.396V76.5654C112.324 77.4293 112.54 78.0719 112.971 78.4933C113.403 78.9147 113.962 79.1254 114.647 79.1254ZM120.69 71.9036H121.954V73.231H122.017C122.228 72.7148 122.534 72.3355 122.934 72.0932C123.345 71.8404 123.835 71.714 124.404 71.714C124.909 71.714 125.368 71.8141 125.778 72.0142C126.189 72.2144 126.537 72.4988 126.821 72.8676C127.116 73.2363 127.338 73.684 127.485 74.2108C127.643 74.7376 127.722 75.3275 127.722 75.9807C127.722 76.6339 127.643 77.2238 127.485 77.7506C127.338 78.2774 127.116 78.7251 126.821 79.0938C126.537 79.4626 126.189 79.747 125.778 79.9472C125.368 80.1473 124.909 80.2474 124.404 80.2474C123.297 80.2474 122.502 79.7417 122.017 78.7304H121.954V83.2183H120.69V71.9036ZM124.056 79.1096C124.772 79.1096 125.336 78.8884 125.747 78.4459C126.158 77.9929 126.363 77.4029 126.363 76.676V75.2854C126.363 74.5585 126.158 73.9738 125.747 73.5313C125.336 73.0783 124.772 72.8518 124.056 72.8518C123.771 72.8518 123.498 72.8939 123.234 72.9782C122.981 73.0519 122.76 73.1573 122.57 73.2942C122.381 73.4312 122.228 73.5998 122.112 73.7999C122.007 73.9896 121.954 74.195 121.954 74.4162V77.4504C121.954 77.7137 122.007 77.9508 122.112 78.1615C122.228 78.3616 122.381 78.5355 122.57 78.683C122.76 78.8199 122.981 78.9253 123.234 78.999C123.498 79.0728 123.771 79.1096 124.056 79.1096ZM130.139 71.9036H131.403V73.231H131.466C131.677 72.7148 131.983 72.3355 132.383 72.0932C132.794 71.8404 133.284 71.714 133.853 71.714C134.358 71.714 134.817 71.8141 135.227 72.0142C135.638 72.2144 135.986 72.4988 136.27 72.8676C136.565 73.2363 136.787 73.684 136.934 74.2108C137.092 74.7376 137.171 75.3275 137.171 75.9807C137.171 76.6339 137.092 77.2238 136.934 77.7506C136.787 78.2774 136.565 78.7251 136.27 79.0938C135.986 79.4626 135.638 79.747 135.227 79.9472C134.817 80.1473 134.358 80.2474 133.853 80.2474C132.746 80.2474 131.951 79.7417 131.466 78.7304H131.403V83.2183H130.139V71.9036ZM133.505 79.1096C134.221 79.1096 134.785 78.8884 135.196 78.4459C135.607 77.9929 135.812 77.4029 135.812 76.676V75.2854C135.812 74.5585 135.607 73.9738 135.196 73.5313C134.785 73.0783 134.221 72.8518 133.505 72.8518C133.22 72.8518 132.947 72.8939 132.683 72.9782C132.43 73.0519 132.209 73.1573 132.019 73.2942C131.83 73.4312 131.677 73.5998 131.561 73.7999C131.456 73.9896 131.403 74.195 131.403 74.4162V77.4504C131.403 77.7137 131.456 77.9508 131.561 78.1615C131.677 78.3616 131.83 78.5355 132.019 78.683C132.209 78.8199 132.43 78.9253 132.683 78.999C132.947 79.0728 133.22 79.1096 133.505 79.1096ZM142.654 80.2474C142.095 80.2474 141.59 80.1473 141.137 79.9472C140.694 79.747 140.31 79.4626 139.983 79.0938C139.667 78.7146 139.419 78.2668 139.24 77.7506C139.072 77.2238 138.987 76.6339 138.987 75.9807C138.987 75.3381 139.072 74.7534 139.24 74.2266C139.419 73.6998 139.667 73.2521 139.983 72.8834C140.31 72.5041 140.694 72.2144 141.137 72.0142C141.59 71.8141 142.095 71.714 142.654 71.714C143.202 71.714 143.691 71.8141 144.123 72.0142C144.555 72.2144 144.924 72.4936 145.23 72.8518C145.535 73.1994 145.767 73.6156 145.925 74.1002C146.093 74.5848 146.178 75.1168 146.178 75.6963V76.2968H140.315V76.676C140.315 77.0237 140.368 77.3503 140.473 77.6558C140.589 77.9508 140.747 78.2089 140.947 78.4301C141.158 78.6514 141.411 78.8252 141.706 78.9516C142.011 79.078 142.353 79.1412 142.733 79.1412C143.249 79.1412 143.697 79.0201 144.076 78.7778C144.466 78.5355 144.766 78.1878 144.977 77.7348L145.877 78.3827C145.614 78.9411 145.203 79.3941 144.645 79.7417C144.086 80.0789 143.423 80.2474 142.654 80.2474ZM142.654 72.7728C142.306 72.7728 141.99 72.836 141.706 72.9624C141.421 73.0783 141.173 73.2468 140.963 73.4681C140.763 73.6893 140.605 73.9527 140.489 74.2582C140.373 74.5532 140.315 74.8798 140.315 75.238V75.3486H144.819V75.1748C144.819 74.4478 144.618 73.8684 144.218 73.4365C143.828 72.994 143.307 72.7728 142.654 72.7728ZM149.886 80.0578C149.444 80.0578 149.107 79.9366 148.875 79.6943C148.654 79.4415 148.543 79.1254 148.543 78.7462V68.3638H149.807V78.9516H151.008V80.0578H149.886ZM153.763 69.9915C153.489 69.9915 153.289 69.9283 153.163 69.8018C153.047 69.6649 152.989 69.4911 152.989 69.2804V69.0749C152.989 68.8642 153.047 68.6957 153.163 68.5692C153.289 68.4323 153.489 68.3638 153.763 68.3638C154.037 68.3638 154.232 68.4323 154.348 68.5692C154.474 68.6957 154.537 68.8642 154.537 69.0749V69.2804C154.537 69.4911 154.474 69.6649 154.348 69.8018C154.232 69.9283 154.037 69.9915 153.763 69.9915ZM153.131 71.9036H154.395V80.0578H153.131V71.9036ZM163.29 80.0578C162.816 80.0578 162.473 79.9314 162.263 79.6785C162.062 79.4257 161.936 79.1096 161.883 78.7304H161.804C161.625 79.2361 161.33 79.6153 160.919 79.8682C160.509 80.121 160.019 80.2474 159.45 80.2474C158.586 80.2474 157.912 80.0262 157.427 79.5837C156.953 79.1412 156.716 78.5407 156.716 77.7822C156.716 77.0131 156.995 76.4232 157.553 76.0123C158.122 75.6014 159.002 75.396 160.192 75.396H161.804V74.5901C161.804 74.0106 161.646 73.5682 161.33 73.2626C161.014 72.9571 160.53 72.8044 159.876 72.8044C159.381 72.8044 158.965 72.915 158.628 73.1362C158.301 73.3575 158.028 73.6524 157.806 74.0212L157.048 73.31C157.269 72.8676 157.622 72.4936 158.107 72.1881C158.591 71.872 159.202 71.714 159.94 71.714C160.93 71.714 161.699 71.9563 162.247 72.4409C162.795 72.9255 163.069 73.5998 163.069 74.4636V78.9516H164.001V80.0578H163.29ZM159.655 79.1728C159.971 79.1728 160.261 79.136 160.524 79.0622C160.788 78.9885 161.014 78.8831 161.204 78.7462C161.393 78.6092 161.541 78.4512 161.646 78.2721C161.752 78.093 161.804 77.8981 161.804 77.6874V76.3442H160.129C159.402 76.3442 158.87 76.4495 158.533 76.6602C158.207 76.8709 158.043 77.1764 158.043 77.5768V77.9086C158.043 78.309 158.186 78.6198 158.47 78.841C158.765 79.0622 159.16 79.1728 159.655 79.1728ZM169.311 80.2474C168.416 80.2474 167.652 80.0789 167.02 79.7417C166.388 79.3941 165.85 78.92 165.408 78.3195L166.388 77.4978C166.778 78.014 167.209 78.4091 167.684 78.683C168.158 78.9463 168.716 79.078 169.359 79.078C170.149 79.078 170.749 78.8884 171.16 78.5091C171.582 78.1299 171.792 77.6242 171.792 76.9921C171.792 76.4653 171.634 76.0597 171.318 75.7753C171.002 75.4908 170.481 75.2643 169.754 75.0957L168.853 74.8903C167.842 74.6585 167.067 74.3109 166.53 73.8473C166.003 73.3733 165.74 72.7095 165.74 71.8562C165.74 71.3716 165.829 70.9396 166.008 70.5604C166.188 70.1811 166.435 69.8651 166.751 69.6122C167.078 69.3594 167.462 69.1697 167.905 69.0433C168.358 68.9064 168.853 68.8379 169.39 68.8379C170.223 68.8379 170.934 68.9906 171.524 69.2962C172.124 69.6017 172.63 70.0494 173.041 70.6394L172.045 71.3663C171.74 70.9449 171.371 70.613 170.939 70.3707C170.507 70.1284 169.97 70.0073 169.327 70.0073C168.621 70.0073 168.063 70.16 167.652 70.4656C167.252 70.7605 167.051 71.2083 167.051 71.8088C167.051 72.3355 167.22 72.7359 167.557 73.0098C167.905 73.2732 168.426 73.4839 169.122 73.6419L170.022 73.8473C171.107 74.0896 171.892 74.4584 172.377 74.9535C172.862 75.4487 173.104 76.1071 173.104 76.9289C173.104 77.4346 173.014 77.8928 172.835 78.3037C172.667 78.7146 172.419 79.0622 172.093 79.3467C171.766 79.6311 171.366 79.8524 170.892 80.0104C170.428 80.1684 169.901 80.2474 169.311 80.2474ZM176.184 69.9915C175.91 69.9915 175.71 69.9283 175.584 69.8018C175.468 69.6649 175.41 69.4911 175.41 69.2804V69.0749C175.41 68.8642 175.468 68.6957 175.584 68.5692C175.71 68.4323 175.91 68.3638 176.184 68.3638C176.458 68.3638 176.653 68.4323 176.769 68.5692C176.895 68.6957 176.958 68.8642 176.958 69.0749V69.2804C176.958 69.4911 176.895 69.6649 176.769 69.8018C176.653 69.9283 176.458 69.9915 176.184 69.9915ZM175.552 71.9036H176.816V80.0578H175.552V71.9036ZM179.785 80.0578V71.9036H181.049V73.231H181.112C181.207 73.0203 181.312 72.8254 181.428 72.6463C181.555 72.4567 181.702 72.2934 181.871 72.1564C182.05 72.0195 182.255 71.9141 182.487 71.8404C182.719 71.7561 182.993 71.714 183.309 71.714C183.846 71.714 184.341 71.8457 184.794 72.109C185.247 72.3619 185.584 72.7833 185.806 73.3733H185.837C185.985 72.9308 186.259 72.5462 186.659 72.2197C187.07 71.8825 187.623 71.714 188.318 71.714C189.151 71.714 189.798 71.9879 190.262 72.5357C190.736 73.073 190.973 73.8368 190.973 74.8271V80.0578H189.709V75.0483C189.709 74.3214 189.567 73.7736 189.282 73.4049C188.998 73.0361 188.545 72.8518 187.923 72.8518C187.67 72.8518 187.428 72.8834 187.196 72.9466C186.975 73.0098 186.775 73.1046 186.596 73.231C186.417 73.3575 186.274 73.5207 186.169 73.7209C186.064 73.9105 186.011 74.1371 186.011 74.4004V80.0578H184.747V75.0483C184.747 74.3214 184.605 73.7736 184.32 73.4049C184.036 73.0361 183.593 72.8518 182.993 72.8518C182.74 72.8518 182.498 72.8834 182.266 72.9466C182.034 73.0098 181.829 73.1046 181.649 73.231C181.47 73.3575 181.323 73.5207 181.207 73.7209C181.102 73.9105 181.049 74.1371 181.049 74.4004V80.0578H179.785ZM198.007 80.0578V69.0275H204.739V70.1969H199.334V73.8947H204.423V75.0641H199.334V78.8884H204.739V80.0578H198.007ZM207.376 80.0578V71.9036H208.64V73.231H208.703C208.903 72.7675 209.182 72.3988 209.541 72.1248C209.909 71.8509 210.399 71.714 211.01 71.714C211.853 71.714 212.517 71.9879 213.001 72.5357C213.497 73.073 213.744 73.8368 213.744 74.8271V80.0578H212.48V75.0483C212.48 73.584 211.864 72.8518 210.631 72.8518C210.378 72.8518 210.131 72.8834 209.888 72.9466C209.656 73.0098 209.446 73.1046 209.256 73.231C209.066 73.3575 208.914 73.5207 208.798 73.7209C208.692 73.9105 208.64 74.1371 208.64 74.4004V80.0578H207.376ZM218.317 80.0578L215.457 71.9036H216.721L218.144 75.9491L219.029 78.7304H219.108L219.993 75.9491L221.446 71.9036H222.663L219.787 80.0578H218.317ZM225.208 69.9915C224.934 69.9915 224.734 69.9283 224.608 69.8018C224.492 69.6649 224.434 69.4911 224.434 69.2804V69.0749C224.434 68.8642 224.492 68.6957 224.608 68.5692C224.734 68.4323 224.934 68.3638 225.208 68.3638C225.482 68.3638 225.677 68.4323 225.793 68.5692C225.919 68.6957 225.982 68.8642 225.982 69.0749V69.2804C225.982 69.4911 225.919 69.6649 225.793 69.8018C225.677 69.9283 225.482 69.9915 225.208 69.9915ZM224.576 71.9036H225.84V80.0578H224.576V71.9036ZM228.809 80.0578V71.9036H230.073V73.4049H230.152C230.3 73.0151 230.563 72.6674 230.942 72.3619C231.322 72.0564 231.843 71.9036 232.507 71.9036H232.997V73.1678H232.254C231.569 73.1678 231.032 73.2995 230.642 73.5629C230.263 73.8157 230.073 74.1371 230.073 74.5269V80.0578H228.809ZM237.898 80.2474C237.35 80.2474 236.85 80.1473 236.397 79.9472C235.944 79.747 235.554 79.4626 235.227 79.0938C234.911 78.7146 234.664 78.2668 234.485 77.7506C234.306 77.2238 234.216 76.6339 234.216 75.9807C234.216 75.3381 234.306 74.7534 234.485 74.2266C234.664 73.6998 234.911 73.2521 235.227 72.8834C235.554 72.5041 235.944 72.2144 236.397 72.0142C236.85 71.8141 237.35 71.714 237.898 71.714C238.446 71.714 238.941 71.8141 239.383 72.0142C239.836 72.2144 240.226 72.5041 240.553 72.8834C240.879 73.2521 241.132 73.6998 241.311 74.2266C241.49 74.7534 241.58 75.3381 241.58 75.9807C241.58 76.6339 241.49 77.2238 241.311 77.7506C241.132 78.2668 240.879 78.7146 240.553 79.0938C240.226 79.4626 239.836 79.747 239.383 79.9472C238.941 80.1473 238.446 80.2474 237.898 80.2474ZM237.898 79.1254C238.583 79.1254 239.141 78.9147 239.573 78.4933C240.005 78.0719 240.221 77.4293 240.221 76.5654V75.396C240.221 74.5321 240.005 73.8895 239.573 73.4681C239.141 73.0467 238.583 72.836 237.898 72.836C237.213 72.836 236.655 73.0467 236.223 73.4681C235.791 73.8895 235.575 74.5321 235.575 75.396V76.5654C235.575 77.4293 235.791 78.0719 236.223 78.4933C236.655 78.9147 237.213 79.1254 237.898 79.1254ZM243.941 80.0578V71.9036H245.206V73.231H245.269C245.469 72.7675 245.748 72.3988 246.106 72.1248C246.475 71.8509 246.965 71.714 247.576 71.714C248.419 71.714 249.083 71.9879 249.567 72.5357C250.062 73.073 250.31 73.8368 250.31 74.8271V80.0578H249.046V75.0483C249.046 73.584 248.429 72.8518 247.197 72.8518C246.944 72.8518 246.696 72.8834 246.454 72.9466C246.222 73.0098 246.012 73.1046 245.822 73.231C245.632 73.3575 245.48 73.5207 245.364 73.7209C245.258 73.9105 245.206 74.1371 245.206 74.4004V80.0578H243.941ZM253.205 80.0578V71.9036H254.469V73.231H254.533C254.627 73.0203 254.733 72.8254 254.849 72.6463C254.975 72.4567 255.123 72.2934 255.291 72.1564C255.47 72.0195 255.676 71.9141 255.907 71.8404C256.139 71.7561 256.413 71.714 256.729 71.714C257.267 71.714 257.762 71.8457 258.215 72.109C258.668 72.3619 259.005 72.7833 259.226 73.3733H259.258C259.405 72.9308 259.679 72.5462 260.079 72.2197C260.49 71.8825 261.043 71.714 261.739 71.714C262.571 71.714 263.219 71.9879 263.682 72.5357C264.156 73.073 264.394 73.8368 264.394 74.8271V80.0578H263.129V75.0483C263.129 74.3214 262.987 73.7736 262.703 73.4049C262.418 73.0361 261.965 72.8518 261.344 72.8518C261.091 72.8518 260.848 72.8834 260.617 72.9466C260.395 73.0098 260.195 73.1046 260.016 73.231C259.837 73.3575 259.695 73.5207 259.59 73.7209C259.484 73.9105 259.431 74.1371 259.431 74.4004V80.0578H258.167V75.0483C258.167 74.3214 258.025 73.7736 257.741 73.4049C257.456 73.0361 257.014 72.8518 256.413 72.8518C256.16 72.8518 255.918 72.8834 255.686 72.9466C255.454 73.0098 255.249 73.1046 255.07 73.231C254.891 73.3575 254.743 73.5207 254.627 73.7209C254.522 73.9105 254.469 74.1371 254.469 74.4004V80.0578H253.205ZM270.35 80.2474C269.791 80.2474 269.286 80.1473 268.833 79.9472C268.39 79.747 268.006 79.4626 267.679 79.0938C267.363 78.7146 267.115 78.2668 266.936 77.7506C266.768 77.2238 266.683 76.6339 266.683 75.9807C266.683 75.3381 266.768 74.7534 266.936 74.2266C267.115 73.6998 267.363 73.2521 267.679 72.8834C268.006 72.5041 268.39 72.2144 268.833 72.0142C269.286 71.8141 269.791 71.714 270.35 71.714C270.897 71.714 271.387 71.8141 271.819 72.0142C272.251 72.2144 272.62 72.4936 272.925 72.8518C273.231 73.1994 273.463 73.6156 273.621 74.1002C273.789 74.5848 273.874 75.1168 273.874 75.6963V76.2968H268.011V76.676C268.011 77.0237 268.064 77.3503 268.169 77.6558C268.285 77.9508 268.443 78.2089 268.643 78.4301C268.854 78.6514 269.106 78.8252 269.401 78.9516C269.707 79.078 270.049 79.1412 270.429 79.1412C270.945 79.1412 271.393 79.0201 271.772 78.7778C272.162 78.5355 272.462 78.1878 272.673 77.7348L273.573 78.3827C273.31 78.9411 272.899 79.3941 272.341 79.7417C271.782 80.0789 271.119 80.2474 270.35 80.2474ZM270.35 72.7728C270.002 72.7728 269.686 72.836 269.401 72.9624C269.117 73.0783 268.869 73.2468 268.659 73.4681C268.459 73.6893 268.301 73.9527 268.185 74.2582C268.069 74.5532 268.011 74.8798 268.011 75.238V75.3486H272.515V75.1748C272.515 74.4478 272.314 73.8684 271.914 73.4365C271.524 72.994 271.003 72.7728 270.35 72.7728ZM276.239 80.0578V71.9036H277.503V73.231H277.567C277.767 72.7675 278.046 72.3988 278.404 72.1248C278.773 71.8509 279.263 71.714 279.874 71.714C280.717 71.714 281.38 71.9879 281.865 72.5357C282.36 73.073 282.608 73.8368 282.608 74.8271V80.0578H281.343V75.0483C281.343 73.584 280.727 72.8518 279.494 72.8518C279.242 72.8518 278.994 72.8834 278.752 72.9466C278.52 73.0098 278.309 73.1046 278.12 73.231C277.93 73.3575 277.777 73.5207 277.661 73.7209C277.556 73.9105 277.503 74.1371 277.503 74.4004V80.0578H276.239ZM287.304 80.0578C286.862 80.0578 286.525 79.9366 286.293 79.6943C286.072 79.4415 285.961 79.1149 285.961 78.7146V73.0098H284.618V71.9036H285.376C285.65 71.9036 285.835 71.8509 285.93 71.7456C286.035 71.6297 286.088 71.4348 286.088 71.1609V69.6438H287.225V71.9036H289.011V73.0098H287.225V78.9516H288.885V80.0578H287.304Z" fill="#607D8B"/>
<rect x="37.987" y="234.842" width="310.776" height="223.838" fill="#EEF4FA"/>
<rect x="204.368" y="331.273" width="86.9351" height="86.9351" rx="1.5" stroke="#64FF61" stroke-width="3"/>
<path d="M155.904 275.314H219.854C220.682 275.314 221.354 275.985 221.354 276.814V340.763C221.354 341.592 220.682 342.263 219.854 342.263H155.904C155.076 342.263 154.404 341.592 154.404 340.763V276.814C154.404 275.985 155.076 275.314 155.904 275.314Z" stroke="#64FF61" stroke-width="3"/>
<rect x="94.4473" y="340.267" width="36.9711" height="36.9711" rx="1.5" stroke="#64FF61" stroke-width="3"/>
<circle cx="187.879" cy="308.789" r="19.9856" fill="#FF5A5F"/>
<circle cx="247.836" cy="374.741" r="24.982" fill="#FF5A5F"/>
<circle cx="113.433" cy="358.253" r="7.49459" fill="#FF5A5F"/>
<defs>
<filter id="filter0_d" x="0" y="0" width="386.75" height="649.56" filterUnits="userSpaceOnUse" color-interpolation-filters="sRGB">
<feFlood flood-opacity="0" result="BackgroundImageFix"/>
<feColorMatrix in="SourceAlpha" type="matrix" values="0 0 0 0 0 0 0 0 0 0 0 0 0 0 0 0 0 0 127 0" result="hardAlpha"/>
<feOffset dy="4"/>
<feGaussianBlur stdDeviation="10"/>
<feComposite in2="hardAlpha" operator="out"/>
<feColorMatrix type="matrix" values="0 0 0 0 0.741667 0 0 0 0 0.741667 0 0 0 0 0.741667 0 0 0 0.25 0"/>
<feBlend mode="normal" in2="BackgroundImageFix" result="effect1_dropShadow"/>
<feBlend mode="normal" in="SourceGraphic" in2="effect1_dropShadow" result="shape"/>
</filter>
</defs>
</svg>
