<svg width="387" height="734" viewBox="0 0 387 734" fill="none" xmlns="http://www.w3.org/2000/svg">
<path d="M56.0191 697V685.97H62.593V687.139H57.3465V690.837H62.1348V692.006H57.3465V697H56.0191ZM65.6343 686.934C65.3604 686.934 65.1602 686.87 65.0338 686.744C64.9179 686.607 64.86 686.433 64.86 686.223V686.017C64.86 685.806 64.9179 685.638 65.0338 685.511C65.1602 685.374 65.3604 685.306 65.6343 685.306C65.9082 685.306 66.1031 685.374 66.219 685.511C66.3454 685.638 66.4086 685.806 66.4086 686.017V686.223C66.4086 686.433 66.3454 686.607 66.219 686.744C66.1031 686.87 65.9082 686.934 65.6343 686.934ZM65.0022 688.846H66.2664V697H65.0022V688.846ZM69.2351 697V688.846H70.4993V690.173H70.5625C70.7626 689.71 71.0418 689.341 71.4 689.067C71.7688 688.793 72.2586 688.656 72.8697 688.656C73.7125 688.656 74.3762 688.93 74.8608 689.478C75.356 690.015 75.6035 690.779 75.6035 691.769V697H74.3393V691.991C74.3393 690.526 73.723 689.794 72.4904 689.794C72.2376 689.794 71.99 689.826 71.7477 689.889C71.5159 689.952 71.3052 690.047 71.1156 690.173C70.9259 690.3 70.7732 690.463 70.6573 690.663C70.5519 690.853 70.4993 691.079 70.4993 691.343V697H69.2351ZM83.7138 695.673H83.6505C83.1554 696.684 82.36 697.19 81.2643 697.19C80.7587 697.19 80.3004 697.09 79.8895 696.889C79.4786 696.689 79.1257 696.405 78.8307 696.036C78.5463 695.667 78.325 695.22 78.167 694.693C78.0195 694.166 77.9458 693.576 77.9458 692.923C77.9458 692.27 78.0195 691.68 78.167 691.153C78.325 690.626 78.5463 690.178 78.8307 689.81C79.1257 689.441 79.4786 689.157 79.8895 688.956C80.3004 688.756 80.7587 688.656 81.2643 688.656C81.8332 688.656 82.3179 688.783 82.7182 689.035C83.1291 689.278 83.4398 689.657 83.6505 690.173H83.7138V685.306H84.978V697H83.7138V695.673ZM81.612 696.052C81.8964 696.052 82.1651 696.015 82.4179 695.941C82.6813 695.867 82.9078 695.762 83.0975 695.625C83.2871 695.478 83.4346 695.304 83.5399 695.104C83.6558 694.893 83.7138 694.656 83.7138 694.393V691.358C83.7138 691.137 83.6558 690.932 83.5399 690.742C83.4346 690.542 83.2871 690.373 83.0975 690.236C82.9078 690.099 82.6813 689.994 82.4179 689.92C82.1651 689.836 81.8964 689.794 81.612 689.794C80.8956 689.794 80.332 690.02 79.9211 690.473C79.5102 690.916 79.3048 691.501 79.3048 692.228V693.618C79.3048 694.345 79.5102 694.935 79.9211 695.388C80.332 695.831 80.8956 696.052 81.612 696.052ZM93.7662 697C93.3237 697 92.9866 696.879 92.7548 696.637C92.5336 696.384 92.423 696.057 92.423 695.657V689.952H91.0797V688.846H91.8383C92.1122 688.846 92.2965 688.793 92.3913 688.688C92.4967 688.572 92.5494 688.377 92.5494 688.103V686.586H93.6872V688.846H95.4729V689.952H93.6872V695.894H95.3465V697H93.7662ZM97.7871 685.306H99.0513V690.173H99.1145C99.3147 689.71 99.5939 689.341 99.952 689.067C100.321 688.793 100.811 688.656 101.422 688.656C102.265 688.656 102.928 688.93 103.413 689.478C103.908 690.015 104.156 690.779 104.156 691.769V697H102.891V691.991C102.891 690.526 102.275 689.794 101.042 689.794C100.79 689.794 100.542 689.826 100.3 689.889C100.068 689.952 99.8572 690.047 99.6676 690.173C99.478 690.3 99.3252 690.463 99.2093 690.663C99.104 690.853 99.0513 691.079 99.0513 691.343V697H97.7871V685.306ZM110.117 697.19C109.558 697.19 109.053 697.09 108.6 696.889C108.157 696.689 107.773 696.405 107.446 696.036C107.13 695.657 106.882 695.209 106.703 694.693C106.535 694.166 106.45 693.576 106.45 692.923C106.45 692.28 106.535 691.696 106.703 691.169C106.882 690.642 107.13 690.194 107.446 689.826C107.773 689.446 108.157 689.157 108.6 688.956C109.053 688.756 109.558 688.656 110.117 688.656C110.664 688.656 111.154 688.756 111.586 688.956C112.018 689.157 112.387 689.436 112.692 689.794C112.998 690.142 113.23 690.558 113.388 691.042C113.556 691.527 113.641 692.059 113.641 692.638V693.239H107.778V693.618C107.778 693.966 107.83 694.292 107.936 694.598C108.052 694.893 108.21 695.151 108.41 695.372C108.621 695.594 108.873 695.767 109.168 695.894C109.474 696.02 109.816 696.083 110.196 696.083C110.712 696.083 111.16 695.962 111.539 695.72C111.929 695.478 112.229 695.13 112.44 694.677L113.34 695.325C113.077 695.883 112.666 696.336 112.108 696.684C111.549 697.021 110.886 697.19 110.117 697.19ZM110.117 689.715C109.769 689.715 109.453 689.778 109.168 689.905C108.884 690.02 108.636 690.189 108.426 690.41C108.226 690.632 108.068 690.895 107.952 691.2C107.836 691.495 107.778 691.822 107.778 692.18V692.291H112.282V692.117C112.282 691.39 112.081 690.811 111.681 690.379C111.291 689.936 110.77 689.715 110.117 689.715ZM120.023 697V688.846H121.287V690.173H121.35C121.445 689.963 121.55 689.768 121.666 689.589C121.793 689.399 121.94 689.236 122.109 689.099C122.288 688.962 122.493 688.856 122.725 688.783C122.957 688.698 123.231 688.656 123.547 688.656C124.084 688.656 124.579 688.788 125.032 689.051C125.485 689.304 125.822 689.725 126.044 690.315H126.075C126.223 689.873 126.497 689.488 126.897 689.162C127.308 688.825 127.861 688.656 128.556 688.656C129.389 688.656 130.037 688.93 130.5 689.478C130.974 690.015 131.211 690.779 131.211 691.769V697H129.947V691.991C129.947 691.264 129.805 690.716 129.52 690.347C129.236 689.978 128.783 689.794 128.161 689.794C127.908 689.794 127.666 689.826 127.434 689.889C127.213 689.952 127.013 690.047 126.834 690.173C126.655 690.3 126.513 690.463 126.407 690.663C126.302 690.853 126.249 691.079 126.249 691.343V697H124.985V691.991C124.985 691.264 124.843 690.716 124.558 690.347C124.274 689.978 123.831 689.794 123.231 689.794C122.978 689.794 122.736 689.826 122.504 689.889C122.272 689.952 122.067 690.047 121.888 690.173C121.708 690.3 121.561 690.463 121.445 690.663C121.34 690.853 121.287 691.079 121.287 691.343V697H120.023ZM137.183 697.19C136.635 697.19 136.135 697.09 135.682 696.889C135.229 696.689 134.839 696.405 134.512 696.036C134.196 695.657 133.949 695.209 133.77 694.693C133.591 694.166 133.501 693.576 133.501 692.923C133.501 692.28 133.591 691.696 133.77 691.169C133.949 690.642 134.196 690.194 134.512 689.826C134.839 689.446 135.229 689.157 135.682 688.956C136.135 688.756 136.635 688.656 137.183 688.656C137.731 688.656 138.226 688.756 138.669 688.956C139.122 689.157 139.511 689.446 139.838 689.826C140.165 690.194 140.417 690.642 140.596 691.169C140.776 691.696 140.865 692.28 140.865 692.923C140.865 693.576 140.776 694.166 140.596 694.693C140.417 695.209 140.165 695.657 139.838 696.036C139.511 696.405 139.122 696.689 138.669 696.889C138.226 697.09 137.731 697.19 137.183 697.19ZM137.183 696.068C137.868 696.068 138.426 695.857 138.858 695.436C139.29 695.014 139.506 694.371 139.506 693.508V692.338C139.506 691.474 139.29 690.832 138.858 690.41C138.426 689.989 137.868 689.778 137.183 689.778C136.498 689.778 135.94 689.989 135.508 690.41C135.076 690.832 134.86 691.474 134.86 692.338V693.508C134.86 694.371 135.076 695.014 135.508 695.436C135.94 695.857 136.498 696.068 137.183 696.068ZM145.676 697.19C144.917 697.19 144.28 697.047 143.764 696.763C143.258 696.468 142.821 696.078 142.452 695.594L143.353 694.867C143.669 695.267 144.022 695.578 144.412 695.799C144.801 696.01 145.254 696.115 145.771 696.115C146.308 696.115 146.724 695.999 147.019 695.767C147.325 695.536 147.477 695.209 147.477 694.788C147.477 694.472 147.372 694.203 147.161 693.982C146.961 693.75 146.592 693.592 146.055 693.508L145.407 693.413C145.028 693.36 144.68 693.281 144.364 693.176C144.048 693.06 143.769 692.912 143.527 692.733C143.295 692.544 143.111 692.312 142.974 692.038C142.847 691.764 142.784 691.437 142.784 691.058C142.784 690.658 142.858 690.31 143.005 690.015C143.153 689.71 143.353 689.457 143.606 689.257C143.869 689.057 144.18 688.909 144.538 688.814C144.896 688.709 145.281 688.656 145.692 688.656C146.355 688.656 146.909 688.772 147.351 689.004C147.804 689.236 148.199 689.557 148.536 689.968L147.699 690.726C147.52 690.473 147.256 690.247 146.909 690.047C146.561 689.836 146.124 689.731 145.597 689.731C145.07 689.731 144.67 689.847 144.396 690.078C144.132 690.3 144.001 690.605 144.001 690.995C144.001 691.395 144.132 691.685 144.396 691.864C144.67 692.043 145.06 692.175 145.565 692.259L146.197 692.354C147.103 692.491 147.746 692.754 148.125 693.144C148.505 693.523 148.694 694.024 148.694 694.645C148.694 695.436 148.426 696.057 147.888 696.51C147.351 696.963 146.614 697.19 145.676 697.19ZM152.903 697C152.46 697 152.123 696.879 151.892 696.637C151.67 696.384 151.56 696.057 151.56 695.657V689.952H150.216V688.846H150.975C151.249 688.846 151.433 688.793 151.528 688.688C151.633 688.572 151.686 688.377 151.686 688.103V686.586H152.824V688.846H154.61V689.952H152.824V695.894H154.483V697H152.903ZM160.941 697V688.846H162.205V690.173H162.268C162.363 689.963 162.468 689.768 162.584 689.589C162.71 689.399 162.858 689.236 163.027 689.099C163.206 688.962 163.411 688.856 163.643 688.783C163.875 688.698 164.149 688.656 164.465 688.656C165.002 688.656 165.497 688.788 165.95 689.051C166.403 689.304 166.74 689.725 166.961 690.315H166.993C167.141 689.873 167.414 689.488 167.815 689.162C168.226 688.825 168.779 688.656 169.474 688.656C170.306 688.656 170.954 688.93 171.418 689.478C171.892 690.015 172.129 690.779 172.129 691.769V697H170.865V691.991C170.865 691.264 170.722 690.716 170.438 690.347C170.154 689.978 169.701 689.794 169.079 689.794C168.826 689.794 168.584 689.826 168.352 689.889C168.131 689.952 167.931 690.047 167.752 690.173C167.572 690.3 167.43 690.463 167.325 690.663C167.22 690.853 167.167 691.079 167.167 691.343V697H165.903V691.991C165.903 691.264 165.76 690.716 165.476 690.347C165.192 689.978 164.749 689.794 164.149 689.794C163.896 689.794 163.653 689.826 163.422 689.889C163.19 689.952 162.984 690.047 162.805 690.173C162.626 690.3 162.479 690.463 162.363 690.663C162.257 690.853 162.205 691.079 162.205 691.343V697H160.941ZM178.085 697.19C177.527 697.19 177.021 697.09 176.568 696.889C176.125 696.689 175.741 696.405 175.414 696.036C175.098 695.657 174.851 695.209 174.672 694.693C174.503 694.166 174.419 693.576 174.419 692.923C174.419 692.28 174.503 691.696 174.672 691.169C174.851 690.642 175.098 690.194 175.414 689.826C175.741 689.446 176.125 689.157 176.568 688.956C177.021 688.756 177.527 688.656 178.085 688.656C178.633 688.656 179.123 688.756 179.555 688.956C179.987 689.157 180.355 689.436 180.661 689.794C180.966 690.142 181.198 690.558 181.356 691.042C181.525 691.527 181.609 692.059 181.609 692.638V693.239H175.746V693.618C175.746 693.966 175.799 694.292 175.904 694.598C176.02 694.893 176.178 695.151 176.378 695.372C176.589 695.594 176.842 695.767 177.137 695.894C177.442 696.02 177.785 696.083 178.164 696.083C178.68 696.083 179.128 695.962 179.507 695.72C179.897 695.478 180.197 695.13 180.408 694.677L181.309 695.325C181.045 695.883 180.635 696.336 180.076 696.684C179.518 697.021 178.854 697.19 178.085 697.19ZM178.085 689.715C177.737 689.715 177.421 689.778 177.137 689.905C176.852 690.02 176.605 690.189 176.394 690.41C176.194 690.632 176.036 690.895 175.92 691.2C175.804 691.495 175.746 691.822 175.746 692.18V692.291H180.25V692.117C180.25 691.39 180.05 690.811 179.649 690.379C179.26 689.936 178.738 689.715 178.085 689.715ZM183.974 697V688.846H185.239V690.173H185.302C185.502 689.71 185.781 689.341 186.139 689.067C186.508 688.793 186.998 688.656 187.609 688.656C188.452 688.656 189.116 688.93 189.6 689.478C190.095 690.015 190.343 690.779 190.343 691.769V697H189.079V691.991C189.079 690.526 188.462 689.794 187.23 689.794C186.977 689.794 186.729 689.826 186.487 689.889C186.255 689.952 186.045 690.047 185.855 690.173C185.665 690.3 185.513 690.463 185.397 690.663C185.291 690.853 185.239 691.079 185.239 691.343V697H183.974ZM195.04 697C194.597 697 194.26 696.879 194.028 696.637C193.807 696.384 193.697 696.057 193.697 695.657V689.952H192.353V688.846H193.112C193.386 688.846 193.57 688.793 193.665 688.688C193.77 688.572 193.823 688.377 193.823 688.103V686.586H194.961V688.846H196.746V689.952H194.961V695.894H196.62V697H195.04ZM199.693 686.934C199.419 686.934 199.219 686.87 199.092 686.744C198.976 686.607 198.918 686.433 198.918 686.223V686.017C198.918 685.806 198.976 685.638 199.092 685.511C199.219 685.374 199.419 685.306 199.693 685.306C199.967 685.306 200.162 685.374 200.277 685.511C200.404 685.638 200.467 685.806 200.467 686.017V686.223C200.467 686.433 200.404 686.607 200.277 686.744C200.162 686.87 199.967 686.934 199.693 686.934ZM199.061 688.846H200.325V697H199.061V688.846ZM206.375 697.19C205.827 697.19 205.327 697.09 204.874 696.889C204.421 696.689 204.031 696.405 203.704 696.036C203.388 695.657 203.141 695.209 202.962 694.693C202.783 694.166 202.693 693.576 202.693 692.923C202.693 692.28 202.783 691.696 202.962 691.169C203.141 690.642 203.388 690.194 203.704 689.826C204.031 689.446 204.421 689.157 204.874 688.956C205.327 688.756 205.827 688.656 206.375 688.656C206.923 688.656 207.418 688.756 207.861 688.956C208.314 689.157 208.703 689.446 209.03 689.826C209.357 690.194 209.609 690.642 209.788 691.169C209.968 691.696 210.057 692.28 210.057 692.923C210.057 693.576 209.968 694.166 209.788 694.693C209.609 695.209 209.357 695.657 209.03 696.036C208.703 696.405 208.314 696.689 207.861 696.889C207.418 697.09 206.923 697.19 206.375 697.19ZM206.375 696.068C207.06 696.068 207.618 695.857 208.05 695.436C208.482 695.014 208.698 694.371 208.698 693.508V692.338C208.698 691.474 208.482 690.832 208.05 690.41C207.618 689.989 207.06 689.778 206.375 689.778C205.69 689.778 205.132 689.989 204.7 690.41C204.268 690.832 204.052 691.474 204.052 692.338V693.508C204.052 694.371 204.268 695.014 204.7 695.436C205.132 695.857 205.69 696.068 206.375 696.068ZM212.418 697V688.846H213.683V690.173H213.746C213.946 689.71 214.225 689.341 214.583 689.067C214.952 688.793 215.442 688.656 216.053 688.656C216.896 688.656 217.56 688.93 218.044 689.478C218.539 690.015 218.787 690.779 218.787 691.769V697H217.523V691.991C217.523 690.526 216.906 689.794 215.674 689.794C215.421 689.794 215.173 689.826 214.931 689.889C214.699 689.952 214.489 690.047 214.299 690.173C214.109 690.3 213.957 690.463 213.841 690.663C213.735 690.853 213.683 691.079 213.683 691.343V697H212.418ZM224.748 697.19C224.19 697.19 223.684 697.09 223.231 696.889C222.788 696.689 222.404 696.405 222.077 696.036C221.761 695.657 221.514 695.209 221.335 694.693C221.166 694.166 221.082 693.576 221.082 692.923C221.082 692.28 221.166 691.696 221.335 691.169C221.514 690.642 221.761 690.194 222.077 689.826C222.404 689.446 222.788 689.157 223.231 688.956C223.684 688.756 224.19 688.656 224.748 688.656C225.296 688.656 225.786 688.756 226.218 688.956C226.65 689.157 227.018 689.436 227.324 689.794C227.629 690.142 227.861 690.558 228.019 691.042C228.188 691.527 228.272 692.059 228.272 692.638V693.239H222.409V693.618C222.409 693.966 222.462 694.292 222.567 694.598C222.683 694.893 222.841 695.151 223.041 695.372C223.252 695.594 223.505 695.767 223.8 695.894C224.105 696.02 224.448 696.083 224.827 696.083C225.343 696.083 225.791 695.962 226.17 695.72C226.56 695.478 226.86 695.13 227.071 694.677L227.972 695.325C227.708 695.883 227.297 696.336 226.739 696.684C226.181 697.021 225.517 697.19 224.748 697.19ZM224.748 689.715C224.4 689.715 224.084 689.778 223.8 689.905C223.515 690.02 223.268 690.189 223.057 690.41C222.857 690.632 222.699 690.895 222.583 691.2C222.467 691.495 222.409 691.822 222.409 692.18V692.291H226.913V692.117C226.913 691.39 226.713 690.811 226.312 690.379C225.923 689.936 225.401 689.715 224.748 689.715ZM235.852 695.673H235.789C235.294 696.684 234.499 697.19 233.403 697.19C232.897 697.19 232.439 697.09 232.028 696.889C231.617 696.689 231.264 696.405 230.969 696.036C230.685 695.667 230.464 695.22 230.306 694.693C230.158 694.166 230.084 693.576 230.084 692.923C230.084 692.27 230.158 691.68 230.306 691.153C230.464 690.626 230.685 690.178 230.969 689.81C231.264 689.441 231.617 689.157 232.028 688.956C232.439 688.756 232.897 688.656 233.403 688.656C233.972 688.656 234.456 688.783 234.857 689.035C235.268 689.278 235.578 689.657 235.789 690.173H235.852V685.306H237.117V697H235.852V695.673ZM233.751 696.052C234.035 696.052 234.304 696.015 234.556 695.941C234.82 695.867 235.046 695.762 235.236 695.625C235.426 695.478 235.573 695.304 235.678 695.104C235.794 694.893 235.852 694.656 235.852 694.393V691.358C235.852 691.137 235.794 690.932 235.678 690.742C235.573 690.542 235.426 690.373 235.236 690.236C235.046 690.099 234.82 689.994 234.556 689.92C234.304 689.836 234.035 689.794 233.751 689.794C233.034 689.794 232.471 690.02 232.06 690.473C231.649 690.916 231.443 691.501 231.443 692.228V693.618C231.443 694.345 231.649 694.935 232.06 695.388C232.471 695.831 233.034 696.052 233.751 696.052ZM244.103 697V688.846H245.367V690.173H245.431C245.525 689.963 245.631 689.768 245.747 689.589C245.873 689.399 246.021 689.236 246.189 689.099C246.368 688.962 246.574 688.856 246.806 688.783C247.037 688.698 247.311 688.656 247.627 688.656C248.165 688.656 248.66 688.788 249.113 689.051C249.566 689.304 249.903 689.725 250.124 690.315H250.156C250.303 689.873 250.577 689.488 250.977 689.162C251.388 688.825 251.941 688.656 252.637 688.656C253.469 688.656 254.117 688.93 254.58 689.478C255.055 690.015 255.292 690.779 255.292 691.769V697H254.027V691.991C254.027 691.264 253.885 690.716 253.601 690.347C253.316 689.978 252.863 689.794 252.242 689.794C251.989 689.794 251.746 689.826 251.515 689.889C251.293 689.952 251.093 690.047 250.914 690.173C250.735 690.3 250.593 690.463 250.488 690.663C250.382 690.853 250.33 691.079 250.33 691.343V697H249.065V691.991C249.065 691.264 248.923 690.716 248.639 690.347C248.354 689.978 247.912 689.794 247.311 689.794C247.058 689.794 246.816 689.826 246.584 689.889C246.352 689.952 246.147 690.047 245.968 690.173C245.789 690.3 245.641 690.463 245.525 690.663C245.42 690.853 245.367 691.079 245.367 691.343V697H244.103ZM261.248 697.19C260.689 697.19 260.184 697.09 259.731 696.889C259.288 696.689 258.904 696.405 258.577 696.036C258.261 695.657 258.013 695.209 257.834 694.693C257.666 694.166 257.581 693.576 257.581 692.923C257.581 692.28 257.666 691.696 257.834 691.169C258.013 690.642 258.261 690.194 258.577 689.826C258.904 689.446 259.288 689.157 259.731 688.956C260.184 688.756 260.689 688.656 261.248 688.656C261.795 688.656 262.285 688.756 262.717 688.956C263.149 689.157 263.518 689.436 263.823 689.794C264.129 690.142 264.361 690.558 264.519 691.042C264.687 691.527 264.772 692.059 264.772 692.638V693.239H258.909V693.618C258.909 693.966 258.962 694.292 259.067 694.598C259.183 694.893 259.341 695.151 259.541 695.372C259.752 695.594 260.005 695.767 260.299 695.894C260.605 696.02 260.947 696.083 261.327 696.083C261.843 696.083 262.291 695.962 262.67 695.72C263.06 695.478 263.36 695.13 263.571 694.677L264.471 695.325C264.208 695.883 263.797 696.336 263.239 696.684C262.68 697.021 262.017 697.19 261.248 697.19ZM261.248 689.715C260.9 689.715 260.584 689.778 260.299 689.905C260.015 690.02 259.767 690.189 259.557 690.41C259.357 690.632 259.199 690.895 259.083 691.2C258.967 691.495 258.909 691.822 258.909 692.18V692.291H263.413V692.117C263.413 691.39 263.212 690.811 262.812 690.379C262.422 689.936 261.901 689.715 261.248 689.715ZM267.137 697V688.846H268.401V690.173H268.465C268.559 689.963 268.665 689.768 268.781 689.589C268.907 689.399 269.054 689.236 269.223 689.099C269.402 688.962 269.608 688.856 269.839 688.783C270.071 688.698 270.345 688.656 270.661 688.656C271.198 688.656 271.694 688.788 272.147 689.051C272.6 689.304 272.937 689.725 273.158 690.315H273.19C273.337 689.873 273.611 689.488 274.011 689.162C274.422 688.825 274.975 688.656 275.671 688.656C276.503 688.656 277.151 688.93 277.614 689.478C278.088 690.015 278.325 690.779 278.325 691.769V697H277.061V691.991C277.061 691.264 276.919 690.716 276.635 690.347C276.35 689.978 275.897 689.794 275.275 689.794C275.023 689.794 274.78 689.826 274.549 689.889C274.327 689.952 274.127 690.047 273.948 690.173C273.769 690.3 273.627 690.463 273.521 690.663C273.416 690.853 273.363 691.079 273.363 691.343V697H272.099V691.991C272.099 691.264 271.957 690.716 271.672 690.347C271.388 689.978 270.946 689.794 270.345 689.794C270.092 689.794 269.85 689.826 269.618 689.889C269.386 689.952 269.181 690.047 269.002 690.173C268.823 690.3 268.675 690.463 268.559 690.663C268.454 690.853 268.401 691.079 268.401 691.343V697H267.137ZM284.282 697.19C283.723 697.19 283.217 697.09 282.764 696.889C282.322 696.689 281.937 696.405 281.611 696.036C281.295 695.657 281.047 695.209 280.868 694.693C280.7 694.166 280.615 693.576 280.615 692.923C280.615 692.28 280.7 691.696 280.868 691.169C281.047 690.642 281.295 690.194 281.611 689.826C281.937 689.446 282.322 689.157 282.764 688.956C283.217 688.756 283.723 688.656 284.282 688.656C284.829 688.656 285.319 688.756 285.751 688.956C286.183 689.157 286.552 689.436 286.857 689.794C287.163 690.142 287.395 690.558 287.553 691.042C287.721 691.527 287.806 692.059 287.806 692.638V693.239H281.943V693.618C281.943 693.966 281.995 694.292 282.101 694.598C282.217 694.893 282.375 695.151 282.575 695.372C282.786 695.594 283.038 695.767 283.333 695.894C283.639 696.02 283.981 696.083 284.361 696.083C284.877 696.083 285.324 695.962 285.704 695.72C286.094 695.478 286.394 695.13 286.605 694.677L287.505 695.325C287.242 695.883 286.831 696.336 286.273 696.684C285.714 697.021 285.051 697.19 284.282 697.19ZM284.282 689.715C283.934 689.715 283.618 689.778 283.333 689.905C283.049 690.02 282.801 690.189 282.591 690.41C282.39 690.632 282.232 690.895 282.117 691.2C282.001 691.495 281.943 691.822 281.943 692.18V692.291H286.446V692.117C286.446 691.39 286.246 690.811 285.846 690.379C285.456 689.936 284.935 689.715 284.282 689.715ZM296.637 697.19C295.879 697.19 295.241 697.047 294.725 696.763C294.219 696.468 293.782 696.078 293.413 695.594L294.314 694.867C294.63 695.267 294.983 695.578 295.373 695.799C295.763 696.01 296.216 696.115 296.732 696.115C297.269 696.115 297.685 695.999 297.98 695.767C298.286 695.536 298.439 695.209 298.439 694.788C298.439 694.472 298.333 694.203 298.123 693.982C297.922 693.75 297.554 693.592 297.016 693.508L296.369 693.413C295.989 693.36 295.642 693.281 295.326 693.176C295.01 693.06 294.73 692.912 294.488 692.733C294.256 692.544 294.072 692.312 293.935 692.038C293.809 691.764 293.745 691.437 293.745 691.058C293.745 690.658 293.819 690.31 293.967 690.015C294.114 689.71 294.314 689.457 294.567 689.257C294.83 689.057 295.141 688.909 295.499 688.814C295.858 688.709 296.242 688.656 296.653 688.656C297.317 688.656 297.87 688.772 298.312 689.004C298.765 689.236 299.16 689.557 299.497 689.968L298.66 690.726C298.481 690.473 298.217 690.247 297.87 690.047C297.522 689.836 297.085 689.731 296.558 689.731C296.031 689.731 295.631 689.847 295.357 690.078C295.094 690.3 294.962 690.605 294.962 690.995C294.962 691.395 295.094 691.685 295.357 691.864C295.631 692.043 296.021 692.175 296.527 692.259L297.159 692.354C298.065 692.491 298.707 692.754 299.087 693.144C299.466 693.523 299.656 694.024 299.656 694.645C299.656 695.436 299.387 696.057 298.85 696.51C298.312 696.963 297.575 697.19 296.637 697.19ZM303.864 697C303.422 697 303.085 696.879 302.853 696.637C302.632 696.384 302.521 696.057 302.521 695.657V689.952H301.178V688.846H301.936C302.21 688.846 302.395 688.793 302.489 688.688C302.595 688.572 302.647 688.377 302.647 688.103V686.586H303.785V688.846H305.571V689.952H303.785V695.894H305.444V697H303.864ZM310.905 697.19C310.357 697.19 309.857 697.09 309.404 696.889C308.951 696.689 308.561 696.405 308.234 696.036C307.918 695.657 307.671 695.209 307.491 694.693C307.312 694.166 307.223 693.576 307.223 692.923C307.223 692.28 307.312 691.696 307.491 691.169C307.671 690.642 307.918 690.194 308.234 689.826C308.561 689.446 308.951 689.157 309.404 688.956C309.857 688.756 310.357 688.656 310.905 688.656C311.453 688.656 311.948 688.756 312.39 688.956C312.843 689.157 313.233 689.446 313.56 689.826C313.886 690.194 314.139 690.642 314.318 691.169C314.497 691.696 314.587 692.28 314.587 692.923C314.587 693.576 314.497 694.166 314.318 694.693C314.139 695.209 313.886 695.657 313.56 696.036C313.233 696.405 312.843 696.689 312.39 696.889C311.948 697.09 311.453 697.19 310.905 697.19ZM310.905 696.068C311.59 696.068 312.148 695.857 312.58 695.436C313.012 695.014 313.228 694.371 313.228 693.508V692.338C313.228 691.474 313.012 690.832 312.58 690.41C312.148 689.989 311.59 689.778 310.905 689.778C310.22 689.778 309.662 689.989 309.23 690.41C308.798 690.832 308.582 691.474 308.582 692.338V693.508C308.582 694.371 308.798 695.014 309.23 695.436C309.662 695.857 310.22 696.068 310.905 696.068ZM319.982 697.19C319.413 697.19 318.903 697.09 318.449 696.889C317.996 696.689 317.612 696.405 317.296 696.036C316.99 695.667 316.753 695.22 316.585 694.693C316.427 694.166 316.348 693.576 316.348 692.923C316.348 692.27 316.427 691.68 316.585 691.153C316.753 690.626 316.99 690.178 317.296 689.81C317.612 689.441 317.996 689.157 318.449 688.956C318.903 688.756 319.413 688.656 319.982 688.656C320.794 688.656 321.441 688.835 321.926 689.193C322.421 689.541 322.79 689.999 323.032 690.568L321.974 691.106C321.826 690.684 321.584 690.358 321.247 690.126C320.909 689.894 320.488 689.778 319.982 689.778C319.603 689.778 319.271 689.841 318.987 689.968C318.702 690.084 318.465 690.252 318.276 690.473C318.086 690.684 317.944 690.942 317.849 691.248C317.754 691.543 317.707 691.869 317.707 692.228V693.618C317.707 694.335 317.896 694.925 318.276 695.388C318.665 695.841 319.234 696.068 319.982 696.068C321.004 696.068 321.742 695.594 322.195 694.645L323.111 695.262C322.848 695.852 322.453 696.32 321.926 696.668C321.41 697.016 320.762 697.19 319.982 697.19ZM325.178 685.306H326.442V692.717H326.506L327.754 691.327L330.061 688.846H331.594L328.576 692.07L331.894 697H330.361L327.659 692.844L326.442 694.092V697H325.178V685.306Z" fill="#607D8B"/>
<g filter="url(#filter0_d)">
<rect x="20" y="16" width="347" height="610" rx="20" fill="white"/>
</g>
<path d="M44 271C52.0475 270.745 60.5896 265.523 68.4524 260.716C69.7145 259.944 70.9622 259.172 72.1991 258.407C80.7719 253.106 88.825 248.125 97.573 245.694C101.822 244.395 106.269 243.703 110.822 242.994C116.021 242.185 121.357 241.354 126.694 239.574C129.789 238.628 132.99 237.295 136.224 235.949C142.498 233.337 148.899 230.672 154.904 230.672C161.273 230.672 167.274 233.15 173.375 235.668C176.863 237.108 180.384 238.562 184.025 239.574C193.125 242.912 203.135 242.912 212.236 235.123C216.446 232.081 220.657 227.66 224.8 223.311C230.506 217.32 236.084 211.465 241.356 209.531C248.043 207.672 254.323 211.027 260.74 214.455C263.93 216.158 267.153 217.88 270.477 218.989C275.027 220.38 279.805 220.38 284.582 220.38C289.36 220.38 294.138 220.38 298.688 221.77C302.903 222.942 307.117 225.198 311.264 227.418C316.966 230.47 322.54 233.454 327.808 233.454C332.813 233.454 337.591 231.229 342.369 229.003C342.912 228.75 343.456 228.497 344 228.247" stroke="#FF5A5F" stroke-width="5" stroke-linecap="round"/>
<ellipse opacity="0.2" cx="236.925" cy="208.5" rx="22.9245" ry="22.5" fill="#00A699"/>
<ellipse cx="237.37" cy="209" rx="10.3704" ry="10" fill="#00A699"/>
<path d="M39.6196 41.394H43.8457C44.6283 41.394 45.3387 41.5264 45.9768 41.7913C46.6149 42.0562 47.1567 42.4535 47.6022 42.9833C48.0598 43.501 48.4089 44.1572 48.6497 44.9518C48.8905 45.7344 49.0109 46.6495 49.0109 47.697C49.0109 48.7445 48.8905 49.6655 48.6497 50.4602C48.4089 51.2428 48.0598 51.899 47.6022 52.4288C47.1567 52.9465 46.6149 53.3378 45.9768 53.6027C45.3387 53.8676 44.6283 54 43.8457 54H39.6196V41.394ZM43.8457 52.6635C44.3634 52.6635 44.839 52.5793 45.2725 52.4107C45.7059 52.2301 46.0792 51.9712 46.3922 51.6341C46.7052 51.297 46.946 50.8876 47.1146 50.406C47.2952 49.9124 47.3855 49.3525 47.3855 48.7264V46.6675C47.3855 46.0415 47.2952 45.4876 47.1146 45.006C46.946 44.5124 46.7052 44.097 46.3922 43.7598C46.0792 43.4227 45.7059 43.1699 45.2725 43.0013C44.839 42.8207 44.3634 42.7304 43.8457 42.7304H41.1367V52.6635H43.8457ZM58.861 54C58.3191 54 57.9278 53.8555 57.687 53.5666C57.4583 53.2776 57.3138 52.9164 57.2536 52.4829H57.1633C56.9586 53.0609 56.6215 53.4943 56.1519 53.7833C55.6824 54.0722 55.1225 54.2167 54.4723 54.2167C53.485 54.2167 52.7145 53.9639 52.1606 53.4582C51.6188 52.9525 51.3479 52.2662 51.3479 51.3993C51.3479 50.5204 51.667 49.8461 52.3051 49.3766C52.9553 48.907 53.9606 48.6722 55.3211 48.6722H57.1633V47.7512C57.1633 47.0889 56.9827 46.5833 56.6215 46.2341C56.2603 45.8849 55.7064 45.7103 54.9599 45.7103C54.3941 45.7103 53.9185 45.8368 53.5332 46.0896C53.1599 46.3425 52.8469 46.6796 52.5941 47.101L51.7272 46.2883C51.98 45.7826 52.3833 45.3552 52.9372 45.006C53.491 44.6448 54.1894 44.4642 55.0322 44.4642C56.164 44.4642 57.0429 44.7411 57.669 45.295C58.2951 45.8488 58.6081 46.6194 58.6081 47.6067V52.7358H59.6737V54H58.861ZM54.7071 52.9886C55.0683 52.9886 55.3994 52.9465 55.7004 52.8622C56.0014 52.7779 56.2603 52.6575 56.477 52.501C56.6937 52.3445 56.8623 52.1639 56.9827 51.9592C57.1031 51.7545 57.1633 51.5318 57.1633 51.291V49.7558H55.2489C54.4181 49.7558 53.8101 49.8762 53.4248 50.117C53.0516 50.3579 52.865 50.707 52.865 51.1645V51.5438C52.865 52.0013 53.0275 52.3565 53.3526 52.6094C53.6897 52.8622 54.1412 52.9886 54.7071 52.9886ZM64.2913 54C63.7856 54 63.4003 53.8615 63.1354 53.5846C62.8826 53.2957 62.7562 52.9224 62.7562 52.4649V45.9451H61.2211V44.6809H62.088C62.401 44.6809 62.6117 44.6207 62.7201 44.5003C62.8405 44.3679 62.9007 44.1451 62.9007 43.8321V42.0983H64.201V44.6809H66.2418V45.9451H64.201V52.7358H66.0973V54H64.2913ZM75.8333 54C75.2915 54 74.9002 53.8555 74.6594 53.5666C74.4307 53.2776 74.2862 52.9164 74.226 52.4829H74.1357C73.931 53.0609 73.5939 53.4943 73.1243 53.7833C72.6547 54.0722 72.0949 54.2167 71.4447 54.2167C70.4574 54.2167 69.6868 53.9639 69.133 53.4582C68.5912 52.9525 68.3203 52.2662 68.3203 51.3993C68.3203 50.5204 68.6394 49.8461 69.2775 49.3766C69.9277 48.907 70.933 48.6722 72.2935 48.6722H74.1357V47.7512C74.1357 47.0889 73.9551 46.5833 73.5939 46.2341C73.2327 45.8849 72.6788 45.7103 71.9323 45.7103C71.3664 45.7103 70.8909 45.8368 70.5056 46.0896C70.1323 46.3425 69.8193 46.6796 69.5664 47.101L68.6996 46.2883C68.9524 45.7826 69.3557 45.3552 69.9096 45.006C70.4634 44.6448 71.1618 44.4642 72.0046 44.4642C73.1364 44.4642 74.0153 44.7411 74.6414 45.295C75.2675 45.8488 75.5805 46.6194 75.5805 47.6067V52.7358H76.6461V54H75.8333ZM71.6795 52.9886C72.0407 52.9886 72.3718 52.9465 72.6728 52.8622C72.9738 52.7779 73.2327 52.6575 73.4494 52.501C73.6661 52.3445 73.8347 52.1639 73.9551 51.9592C74.0755 51.7545 74.1357 51.5318 74.1357 51.291V49.7558H72.2213C71.3905 49.7558 70.7825 49.8762 70.3972 50.117C70.024 50.3579 69.8373 50.707 69.8373 51.1645V51.5438C69.8373 52.0013 69.9999 52.3565 70.325 52.6094C70.6621 52.8622 71.1136 52.9886 71.6795 52.9886ZM92.0064 54L90.7422 50.2796H85.6492L84.385 54H82.8499L87.2566 41.394H89.189L93.5957 54H92.0064ZM88.2318 42.8027H88.1415L86.0104 48.9431H90.363L88.2318 42.8027ZM96.0361 54V44.6809H97.4809V46.198H97.5532C97.782 45.6682 98.101 45.2468 98.5104 44.9338C98.9318 44.6207 99.4917 44.4642 100.19 44.4642C101.153 44.4642 101.912 44.7772 102.466 45.4033C103.031 46.0174 103.314 46.8903 103.314 48.0221V54H101.87V48.2749C101.87 46.6013 101.165 45.7645 99.7565 45.7645C99.4676 45.7645 99.1846 45.8007 98.9077 45.8729C98.6428 45.9451 98.402 46.0535 98.1853 46.198C97.9686 46.3425 97.794 46.5291 97.6615 46.7578C97.5411 46.9746 97.4809 47.2334 97.4809 47.5344V54H96.0361ZM113.57 54C113.028 54 112.637 53.8555 112.396 53.5666C112.167 53.2776 112.023 52.9164 111.963 52.4829H111.872C111.668 53.0609 111.331 53.4943 110.861 53.7833C110.391 54.0722 109.832 54.2167 109.181 54.2167C108.194 54.2167 107.424 53.9639 106.87 53.4582C106.328 52.9525 106.057 52.2662 106.057 51.3993C106.057 50.5204 106.376 49.8461 107.014 49.3766C107.664 48.907 108.67 48.6722 110.03 48.6722H111.872V47.7512C111.872 47.0889 111.692 46.5833 111.331 46.2341C110.969 45.8849 110.416 45.7103 109.669 45.7103C109.103 45.7103 108.628 45.8368 108.242 46.0896C107.869 46.3425 107.556 46.6796 107.303 47.101L106.436 46.2883C106.689 45.7826 107.092 45.3552 107.646 45.006C108.2 44.6448 108.898 44.4642 109.741 44.4642C110.873 44.4642 111.752 44.7411 112.378 45.295C113.004 45.8488 113.317 46.6194 113.317 47.6067V52.7358H114.383V54H113.57ZM109.416 52.9886C109.777 52.9886 110.109 52.9465 110.41 52.8622C110.711 52.7779 110.969 52.6575 111.186 52.501C111.403 52.3445 111.571 52.1639 111.692 51.9592C111.812 51.7545 111.872 51.5318 111.872 51.291V49.7558H109.958C109.127 49.7558 108.519 49.8762 108.134 50.117C107.761 50.3579 107.574 50.707 107.574 51.1645V51.5438C107.574 52.0013 107.737 52.3565 108.062 52.6094C108.399 52.8622 108.85 52.9886 109.416 52.9886ZM118.477 54C117.971 54 117.586 53.8615 117.321 53.5846C117.068 53.2957 116.942 52.9344 116.942 52.501V40.6354H118.386V52.7358H119.759V54H118.477ZM127.926 44.6809H129.352L125.181 56.1672C125.072 56.4442 124.964 56.6729 124.855 56.8535C124.747 57.0462 124.615 57.1967 124.458 57.305C124.302 57.4134 124.103 57.4916 123.862 57.5398C123.633 57.588 123.35 57.612 123.013 57.612H122.273V56.3478H123.736L124.44 54.3612L120.954 44.6809H122.399L124.639 51.0201L125.072 52.5371H125.162L125.668 51.0201L127.926 44.6809ZM134.42 54.2167C133.554 54.2167 132.825 54.0542 132.235 53.7291C131.657 53.392 131.158 52.9465 130.736 52.3926L131.766 51.5619C132.127 52.0194 132.53 52.3746 132.976 52.6274C133.421 52.8682 133.939 52.9886 134.529 52.9886C135.143 52.9886 135.618 52.8562 135.956 52.5913C136.305 52.3264 136.479 51.9532 136.479 51.4716C136.479 51.1104 136.359 50.8033 136.118 50.5505C135.889 50.2856 135.468 50.105 134.854 50.0087L134.113 49.9003C133.68 49.8401 133.283 49.7498 132.921 49.6294C132.56 49.497 132.241 49.3284 131.964 49.1237C131.699 48.907 131.489 48.6421 131.332 48.3291C131.188 48.016 131.115 47.6428 131.115 47.2093C131.115 46.7518 131.2 46.3545 131.368 46.0174C131.537 45.6682 131.766 45.3792 132.055 45.1505C132.356 44.9217 132.711 44.7532 133.12 44.6448C133.53 44.5244 133.969 44.4642 134.439 44.4642C135.197 44.4642 135.829 44.5966 136.335 44.8615C136.853 45.1264 137.304 45.4936 137.689 45.9632L136.732 46.8301C136.528 46.5411 136.227 46.2823 135.829 46.0535C135.432 45.8127 134.932 45.6923 134.33 45.6923C133.728 45.6923 133.271 45.8247 132.958 46.0896C132.657 46.3425 132.506 46.6916 132.506 47.1371C132.506 47.5946 132.657 47.9257 132.958 48.1304C133.271 48.3351 133.716 48.4856 134.294 48.5819L135.016 48.6903C136.052 48.8468 136.786 49.1478 137.22 49.5933C137.653 50.0267 137.87 50.5987 137.87 51.309C137.87 52.212 137.563 52.9224 136.949 53.4401C136.335 53.9579 135.492 54.2167 134.42 54.2167ZM141.641 42.4956C141.328 42.4956 141.099 42.4234 140.955 42.2789C140.822 42.1224 140.756 41.9237 140.756 41.6829V41.4481C140.756 41.2073 140.822 41.0147 140.955 40.8702C141.099 40.7137 141.328 40.6354 141.641 40.6354C141.954 40.6354 142.177 40.7137 142.309 40.8702C142.454 41.0147 142.526 41.2073 142.526 41.4481V41.6829C142.526 41.9237 142.454 42.1224 142.309 42.2789C142.177 42.4234 141.954 42.4956 141.641 42.4956ZM140.919 44.6809H142.363V54H140.919V44.6809ZM148.73 54.2167C147.863 54.2167 147.134 54.0542 146.544 53.7291C145.966 53.392 145.467 52.9465 145.045 52.3926L146.075 51.5619C146.436 52.0194 146.839 52.3746 147.285 52.6274C147.73 52.8682 148.248 52.9886 148.838 52.9886C149.452 52.9886 149.928 52.8562 150.265 52.5913C150.614 52.3264 150.789 51.9532 150.789 51.4716C150.789 51.1104 150.668 50.8033 150.427 50.5505C150.199 50.2856 149.777 50.105 149.163 50.0087L148.423 49.9003C147.989 49.8401 147.592 49.7498 147.231 49.6294C146.869 49.497 146.55 49.3284 146.274 49.1237C146.009 48.907 145.798 48.6421 145.641 48.3291C145.497 48.016 145.425 47.6428 145.425 47.2093C145.425 46.7518 145.509 46.3545 145.678 46.0174C145.846 45.6682 146.075 45.3792 146.364 45.1505C146.665 44.9217 147.02 44.7532 147.429 44.6448C147.839 44.5244 148.278 44.4642 148.748 44.4642C149.506 44.4642 150.138 44.5966 150.644 44.8615C151.162 45.1264 151.613 45.4936 151.999 45.9632L151.041 46.8301C150.837 46.5411 150.536 46.2823 150.138 46.0535C149.741 45.8127 149.241 45.6923 148.639 45.6923C148.037 45.6923 147.58 45.8247 147.267 46.0896C146.966 46.3425 146.815 46.6916 146.815 47.1371C146.815 47.5946 146.966 47.9257 147.267 48.1304C147.58 48.3351 148.025 48.4856 148.603 48.5819L149.326 48.6903C150.361 48.8468 151.096 49.1478 151.529 49.5933C151.962 50.0267 152.179 50.5987 152.179 51.309C152.179 52.212 151.872 52.9224 151.258 53.4401C150.644 53.9579 149.801 54.2167 148.73 54.2167Z" fill="#263238"/>
<path d="M39.3432 80.0903V71.9361H40.6074V73.4374H40.6865C40.834 73.0476 41.0973 72.6999 41.4766 72.3944C41.8559 72.0889 42.3774 71.9361 43.0411 71.9361H43.5309V73.2004H42.7882C42.1034 73.2004 41.5661 73.332 41.1763 73.5954C40.7971 73.8483 40.6074 74.1696 40.6074 74.5594V80.0903H39.3432ZM43.9955 82.4765L48.12 68.3963H49.2578L45.1333 82.4765H43.9955ZM54.6916 71.9361H55.9242L56.7934 75.4601L57.6625 79.0316H57.6941L58.6897 75.4601L59.7169 71.9361H60.8389L61.8977 75.4601L62.909 79.0316H62.9406L63.7782 75.4601L64.6631 71.9361H65.8483L63.6834 80.0903H62.1189L60.9811 76.1713L60.27 73.6902H60.2384L59.5431 76.1713L58.4053 80.0903H56.8724L54.6916 71.9361ZM73.7441 80.0903C73.27 80.0903 72.9276 79.9639 72.7169 79.7111C72.5168 79.4582 72.3903 79.1422 72.3377 78.7629H72.2587C72.0796 79.2686 71.7846 79.6479 71.3737 79.9007C70.9628 80.1535 70.4729 80.28 69.904 80.28C69.0402 80.28 68.3659 80.0587 67.8813 79.6163C67.4072 79.1738 67.1702 78.5733 67.1702 77.8147C67.1702 77.0457 67.4494 76.4557 68.0077 76.0448C68.5766 75.634 69.4563 75.4285 70.6468 75.4285H72.2587V74.6226C72.2587 74.0432 72.1006 73.6007 71.7846 73.2952C71.4685 72.9896 70.9839 72.8369 70.3307 72.8369C69.8356 72.8369 69.4194 72.9475 69.0823 73.1687C68.7557 73.39 68.4818 73.685 68.2606 74.0537L67.502 73.3426C67.7233 72.9001 68.0762 72.5261 68.5608 72.2206C69.0454 71.9045 69.6565 71.7465 70.3939 71.7465C71.3842 71.7465 72.1533 71.9888 72.7011 72.4734C73.249 72.958 73.5229 73.6323 73.5229 74.4962V78.9841H74.4552V80.0903H73.7441ZM70.1095 79.2054C70.4255 79.2054 70.7153 79.1685 70.9786 79.0948C71.242 79.021 71.4685 78.9157 71.6581 78.7787C71.8478 78.6418 71.9953 78.4837 72.1006 78.3046C72.206 78.1255 72.2587 77.9306 72.2587 77.7199V76.3767H70.5836C69.8566 76.3767 69.3246 76.482 68.9875 76.6927C68.6609 76.9035 68.4976 77.209 68.4976 77.6093V77.9412C68.4976 78.3415 68.6398 78.6523 68.9243 78.8735C69.2193 79.0948 69.6143 79.2054 70.1095 79.2054ZM77.885 80.0903C77.4425 80.0903 77.1054 79.9692 76.8736 79.7269C76.6524 79.474 76.5418 79.158 76.5418 78.7787V68.3963H77.806V78.9841H79.007V80.0903H77.885ZM82.3956 80.0903C81.9532 80.0903 81.616 79.9692 81.3843 79.7269C81.163 79.474 81.0524 79.158 81.0524 78.7787V68.3963H82.3166V78.9841H83.5176V80.0903H82.3956ZM88.0897 80.28C87.3311 80.28 86.6937 80.1377 86.1775 79.8533C85.6718 79.5583 85.2346 79.1685 84.8659 78.6839L85.7667 77.957C86.0827 78.3573 86.4356 78.6681 86.8254 78.8893C87.2152 79.1 87.6682 79.2054 88.1845 79.2054C88.7218 79.2054 89.1379 79.0895 89.4329 78.8577C89.7384 78.6259 89.8912 78.2994 89.8912 77.878C89.8912 77.5619 89.7858 77.2933 89.5751 77.072C89.3749 76.8402 89.0062 76.6822 88.4689 76.5979L87.821 76.5031C87.4417 76.4504 87.0941 76.3714 86.778 76.2661C86.462 76.1502 86.1828 76.0027 85.9405 75.8236C85.7087 75.634 85.5243 75.4022 85.3874 75.1283C85.261 74.8544 85.1978 74.5278 85.1978 74.1485C85.1978 73.7482 85.2715 73.4005 85.419 73.1055C85.5665 72.8 85.7667 72.5472 86.0195 72.347C86.2829 72.1468 86.5937 71.9993 86.9519 71.9045C87.3101 71.7992 87.6946 71.7465 88.1055 71.7465C88.7692 71.7465 89.3223 71.8624 89.7647 72.0942C90.2177 72.3259 90.6128 72.6473 90.9499 73.0581L90.1124 73.8167C89.9333 73.5638 89.6699 73.3373 89.3223 73.1371C88.9746 72.9264 88.5374 72.8211 88.0106 72.8211C87.4839 72.8211 87.0835 72.937 86.8096 73.1687C86.5463 73.39 86.4146 73.6955 86.4146 74.0853C86.4146 74.4856 86.5463 74.7754 86.8096 74.9545C87.0835 75.1335 87.4733 75.2652 87.979 75.3495L88.6111 75.4443C89.5172 75.5813 90.1598 75.8447 90.5391 76.2345C90.9183 76.6137 91.108 77.1142 91.108 77.7357C91.108 78.5259 90.8393 79.1474 90.302 79.6004C89.7647 80.0535 89.0273 80.28 88.0897 80.28ZM95.3166 80.0903C94.8742 80.0903 94.537 79.9692 94.3053 79.7269C94.084 79.474 93.9734 79.1474 93.9734 78.7471V73.0423H92.6302V71.9361H93.3887C93.6626 71.9361 93.847 71.8835 93.9418 71.7781C94.0472 71.6622 94.0998 71.4673 94.0998 71.1934V69.6763H95.2376V71.9361H97.0233V73.0423H95.2376V78.9841H96.8969V80.0903H95.3166ZM99.3375 80.0903V71.9361H100.602V73.4374H100.681C100.828 73.0476 101.092 72.6999 101.471 72.3944C101.85 72.0889 102.372 71.9361 103.035 71.9361H103.525V73.2004H102.783C102.098 73.2004 101.56 73.332 101.171 73.5954C100.791 73.8483 100.602 74.1696 100.602 74.5594V80.0903H99.3375ZM108.411 80.28C107.852 80.28 107.347 80.1799 106.894 79.9797C106.451 79.7795 106.067 79.4951 105.74 79.1264C105.424 78.7471 105.177 78.2994 104.997 77.7831C104.829 77.2564 104.745 76.6664 104.745 76.0132C104.745 75.3706 104.829 74.7859 104.997 74.2591C105.177 73.7324 105.424 73.2846 105.74 72.9159C106.067 72.5366 106.451 72.2469 106.894 72.0468C107.347 71.8466 107.852 71.7465 108.411 71.7465C108.959 71.7465 109.449 71.8466 109.88 72.0468C110.312 72.2469 110.681 72.5261 110.987 72.8843C111.292 73.232 111.524 73.6481 111.682 74.1327C111.851 74.6173 111.935 75.1494 111.935 75.7288V76.3293H106.072V76.7086C106.072 77.0562 106.125 77.3828 106.23 77.6883C106.346 77.9833 106.504 78.2414 106.704 78.4627C106.915 78.6839 107.168 78.8577 107.463 78.9841C107.768 79.1106 108.111 79.1738 108.49 79.1738C109.006 79.1738 109.454 79.0526 109.833 78.8103C110.223 78.568 110.523 78.2203 110.734 77.7673L111.635 78.4152C111.371 78.9736 110.96 79.4266 110.402 79.7743C109.844 80.1114 109.18 80.28 108.411 80.28ZM108.411 72.8053C108.063 72.8053 107.747 72.8685 107.463 72.9949C107.178 73.1108 106.931 73.2794 106.72 73.5006C106.52 73.7218 106.362 73.9852 106.246 74.2907C106.13 74.5857 106.072 74.9123 106.072 75.2705V75.3811H110.576V75.2073C110.576 74.4804 110.376 73.9009 109.975 73.469C109.586 73.0265 109.064 72.8053 108.411 72.8053ZM117.366 80.28C116.808 80.28 116.302 80.1799 115.849 79.9797C115.406 79.7795 115.022 79.4951 114.695 79.1264C114.379 78.7471 114.132 78.2994 113.953 77.7831C113.784 77.2564 113.7 76.6664 113.7 76.0132C113.7 75.3706 113.784 74.7859 113.953 74.2591C114.132 73.7324 114.379 73.2846 114.695 72.9159C115.022 72.5366 115.406 72.2469 115.849 72.0468C116.302 71.8466 116.808 71.7465 117.366 71.7465C117.914 71.7465 118.404 71.8466 118.836 72.0468C119.268 72.2469 119.636 72.5261 119.942 72.8843C120.247 73.232 120.479 73.6481 120.637 74.1327C120.806 74.6173 120.89 75.1494 120.89 75.7288V76.3293H115.027V76.7086C115.027 77.0562 115.08 77.3828 115.185 77.6883C115.301 77.9833 115.459 78.2414 115.659 78.4627C115.87 78.6839 116.123 78.8577 116.418 78.9841C116.723 79.1106 117.066 79.1738 117.445 79.1738C117.961 79.1738 118.409 79.0526 118.788 78.8103C119.178 78.568 119.478 78.2203 119.689 77.7673L120.59 78.4152C120.326 78.9736 119.916 79.4266 119.357 79.7743C118.799 80.1114 118.135 80.28 117.366 80.28ZM117.366 72.8053C117.018 72.8053 116.702 72.8685 116.418 72.9949C116.133 73.1108 115.886 73.2794 115.675 73.5006C115.475 73.7218 115.317 73.9852 115.201 74.2907C115.085 74.5857 115.027 74.9123 115.027 75.2705V75.3811H119.531V75.2073C119.531 74.4804 119.331 73.9009 118.93 73.469C118.541 73.0265 118.019 72.8053 117.366 72.8053ZM125.057 80.0903C124.614 80.0903 124.277 79.9692 124.046 79.7269C123.824 79.474 123.714 79.1474 123.714 78.7471V73.0423H122.37V71.9361H123.129C123.403 71.9361 123.587 71.8835 123.682 71.7781C123.787 71.6622 123.84 71.4673 123.84 71.1934V69.6763H124.978V71.9361H126.764V73.0423H124.978V78.9841H126.637V80.0903H125.057ZM129.078 68.3963H130.342V73.2636H130.405C130.616 72.7473 130.921 72.3681 131.322 72.1258C131.733 71.8729 132.223 71.7465 132.791 71.7465C133.297 71.7465 133.755 71.8466 134.166 72.0468C134.577 72.2469 134.925 72.5314 135.209 72.9001C135.504 73.2688 135.726 73.7166 135.873 74.2433C136.031 74.7701 136.11 75.3601 136.11 76.0132C136.11 76.6664 136.031 77.2564 135.873 77.7831C135.726 78.3099 135.504 78.7576 135.209 79.1264C134.925 79.4951 134.577 79.7795 134.166 79.9797C133.755 80.1799 133.297 80.28 132.791 80.28C131.685 80.28 130.89 79.7743 130.405 78.7629H130.342V80.0903H129.078V68.3963ZM132.444 79.1422C133.16 79.1422 133.724 78.9209 134.135 78.4785C134.546 78.0254 134.751 77.4355 134.751 76.7086V75.3179C134.751 74.591 134.546 74.0063 134.135 73.5638C133.724 73.1108 133.16 72.8843 132.444 72.8843C132.159 72.8843 131.885 72.9264 131.622 73.0107C131.369 73.0845 131.148 73.1898 130.958 73.3268C130.769 73.4637 130.616 73.6323 130.5 73.8325C130.395 74.0221 130.342 74.2275 130.342 74.4488V77.4829C130.342 77.7463 130.395 77.9833 130.5 78.194C130.616 78.3942 130.769 78.568 130.958 78.7155C131.148 78.8525 131.369 78.9578 131.622 79.0316C131.885 79.1053 132.159 79.1422 132.444 79.1422ZM141.593 80.28C141.034 80.28 140.529 80.1799 140.076 79.9797C139.633 79.7795 139.248 79.4951 138.922 79.1264C138.606 78.7471 138.358 78.2994 138.179 77.7831C138.011 77.2564 137.926 76.6664 137.926 76.0132C137.926 75.3706 138.011 74.7859 138.179 74.2591C138.358 73.7324 138.606 73.2846 138.922 72.9159C139.248 72.5366 139.633 72.2469 140.076 72.0468C140.529 71.8466 141.034 71.7465 141.593 71.7465C142.14 71.7465 142.63 71.8466 143.062 72.0468C143.494 72.2469 143.863 72.5261 144.168 72.8843C144.474 73.232 144.706 73.6481 144.864 74.1327C145.032 74.6173 145.117 75.1494 145.117 75.7288V76.3293H139.254V76.7086C139.254 77.0562 139.306 77.3828 139.412 77.6883C139.528 77.9833 139.686 78.2414 139.886 78.4627C140.097 78.6839 140.349 78.8577 140.644 78.9841C140.95 79.1106 141.292 79.1738 141.672 79.1738C142.188 79.1738 142.636 79.0526 143.015 78.8103C143.405 78.568 143.705 78.2203 143.916 77.7673L144.816 78.4152C144.553 78.9736 144.142 79.4266 143.584 79.7743C143.025 80.1114 142.362 80.28 141.593 80.28ZM141.593 72.8053C141.245 72.8053 140.929 72.8685 140.644 72.9949C140.36 73.1108 140.112 73.2794 139.902 73.5006C139.702 73.7218 139.543 73.9852 139.428 74.2907C139.312 74.5857 139.254 74.9123 139.254 75.2705V75.3811H143.758V75.2073C143.758 74.4804 143.557 73.9009 143.157 73.469C142.767 73.0265 142.246 72.8053 141.593 72.8053ZM149.284 80.0903C148.841 80.0903 148.504 79.9692 148.272 79.7269C148.051 79.474 147.94 79.1474 147.94 78.7471V73.0423H146.597V71.9361H147.356C147.629 71.9361 147.814 71.8835 147.909 71.7781C148.014 71.6622 148.067 71.4673 148.067 71.1934V69.6763H149.204V71.9361H150.99V73.0423H149.204V78.9841H150.864V80.0903H149.284ZM155.754 80.28C154.995 80.28 154.358 80.1377 153.842 79.8533C153.336 79.5583 152.899 79.1685 152.53 78.6839L153.431 77.957C153.747 78.3573 154.1 78.6681 154.49 78.8893C154.879 79.1 155.332 79.2054 155.849 79.2054C156.386 79.2054 156.802 79.0895 157.097 78.8577C157.403 78.6259 157.555 78.2994 157.555 77.878C157.555 77.5619 157.45 77.2933 157.239 77.072C157.039 76.8402 156.67 76.6822 156.133 76.5979L155.485 76.5031C155.106 76.4504 154.758 76.3714 154.442 76.2661C154.126 76.1502 153.847 76.0027 153.605 75.8236C153.373 75.634 153.189 75.4022 153.052 75.1283C152.925 74.8544 152.862 74.5278 152.862 74.1485C152.862 73.7482 152.936 73.4005 153.083 73.1055C153.231 72.8 153.431 72.5472 153.684 72.347C153.947 72.1468 154.258 71.9993 154.616 71.9045C154.974 71.7992 155.359 71.7465 155.77 71.7465C156.433 71.7465 156.986 71.8624 157.429 72.0942C157.882 72.3259 158.277 72.6473 158.614 73.0581L157.777 73.8167C157.597 73.5638 157.334 73.3373 156.986 73.1371C156.639 72.9264 156.202 72.8211 155.675 72.8211C155.148 72.8211 154.748 72.937 154.474 73.1687C154.21 73.39 154.079 73.6955 154.079 74.0853C154.079 74.4856 154.21 74.7754 154.474 74.9545C154.748 75.1335 155.138 75.2652 155.643 75.3495L156.275 75.4443C157.181 75.5813 157.824 75.8447 158.203 76.2345C158.583 76.6137 158.772 77.1142 158.772 77.7357C158.772 78.5259 158.503 79.1474 157.966 79.6004C157.429 80.0535 156.691 80.28 155.754 80.28Z" fill="#607D8B"/>
<rect opacity="0.3" x="38" y="296" width="31" height="218" rx="3" fill="#C4C4C4"/>
<rect x="38" y="328" width="31" height="186" rx="3" fill="#3C9AF7"/>
<path opacity="0.34" d="M46.3445 542V533.624H51.3365V534.512H47.3525V537.32H50.9885V538.208H47.3525V542H46.3445ZM53.0476 533.624H56.4916C57.1876 533.624 57.7316 533.82 58.1236 534.212C58.5236 534.604 58.7236 535.128 58.7236 535.784C58.7236 536.096 58.6796 536.36 58.5916 536.576C58.5036 536.792 58.3916 536.972 58.2556 537.116C58.1196 537.252 57.9716 537.356 57.8116 537.428C57.6516 537.492 57.5036 537.536 57.3676 537.56V537.632C57.5196 537.64 57.6876 537.68 57.8716 537.752C58.0636 537.824 58.2436 537.94 58.4116 538.1C58.5796 538.252 58.7196 538.452 58.8316 538.7C58.9516 538.94 59.0116 539.232 59.0116 539.576C59.0116 539.92 58.9556 540.24 58.8436 540.536C58.7396 540.832 58.5916 541.088 58.3996 541.304C58.2076 541.52 57.9796 541.692 57.7156 541.82C57.4516 541.94 57.1636 542 56.8516 542H53.0476V533.624ZM54.0556 541.112H56.5396C56.9716 541.112 57.3116 541.004 57.5596 540.788C57.8076 540.564 57.9316 540.24 57.9316 539.816V539.408C57.9316 538.984 57.8076 538.664 57.5596 538.448C57.3116 538.224 56.9716 538.112 56.5396 538.112H54.0556V541.112ZM54.0556 537.248H56.3716C56.7716 537.248 57.0836 537.148 57.3076 536.948C57.5316 536.748 57.6436 536.46 57.6436 536.084V535.676C57.6436 535.3 57.5316 535.012 57.3076 534.812C57.0836 534.612 56.7716 534.512 56.3716 534.512H54.0556V537.248Z" fill="#1D2125"/>
<path opacity="0.34" d="M45.807 315.144C45.327 315.144 44.907 315.084 44.547 314.964C44.187 314.836 43.883 314.664 43.635 314.448C43.395 314.232 43.211 313.976 43.083 313.68C42.963 313.384 42.903 313.064 42.903 312.72C42.903 312.144 43.059 311.688 43.371 311.352C43.683 311.016 44.091 310.78 44.595 310.644V310.548C44.155 310.396 43.803 310.152 43.539 309.816C43.283 309.472 43.155 309.06 43.155 308.58C43.155 307.94 43.387 307.432 43.851 307.056C44.315 306.672 44.967 306.48 45.807 306.48C46.647 306.48 47.299 306.672 47.763 307.056C48.227 307.432 48.459 307.94 48.459 308.58C48.459 309.06 48.327 309.472 48.063 309.816C47.807 310.152 47.459 310.396 47.019 310.548V310.644C47.523 310.78 47.931 311.016 48.243 311.352C48.555 311.688 48.711 312.144 48.711 312.72C48.711 313.064 48.647 313.384 48.519 313.68C48.399 313.976 48.215 314.232 47.967 314.448C47.727 314.664 47.427 314.836 47.067 314.964C46.707 315.084 46.287 315.144 45.807 315.144ZM45.807 314.268C46.391 314.268 46.843 314.14 47.163 313.884C47.483 313.62 47.643 313.248 47.643 312.768V312.516C47.643 312.036 47.483 311.668 47.163 311.412C46.843 311.148 46.391 311.016 45.807 311.016C45.223 311.016 44.771 311.148 44.451 311.412C44.131 311.668 43.971 312.036 43.971 312.516V312.768C43.971 313.248 44.131 313.62 44.451 313.884C44.771 314.14 45.223 314.268 45.807 314.268ZM45.807 310.176C46.335 310.176 46.735 310.064 47.007 309.84C47.279 309.616 47.415 309.288 47.415 308.856V308.676C47.415 308.244 47.279 307.916 47.007 307.692C46.735 307.468 46.335 307.356 45.807 307.356C45.279 307.356 44.879 307.468 44.607 307.692C44.335 307.916 44.199 308.244 44.199 308.676V308.856C44.199 309.288 44.335 309.616 44.607 309.84C44.879 310.064 45.279 310.176 45.807 310.176ZM53.0023 315.144C52.0023 315.144 51.2703 314.764 50.8063 314.004C50.3503 313.244 50.1223 312.18 50.1223 310.812C50.1223 309.444 50.3503 308.38 50.8063 307.62C51.2703 306.86 52.0023 306.48 53.0023 306.48C54.0023 306.48 54.7303 306.86 55.1863 307.62C55.6503 308.38 55.8823 309.444 55.8823 310.812C55.8823 312.18 55.6503 313.244 55.1863 314.004C54.7303 314.764 54.0023 315.144 53.0023 315.144ZM53.0023 314.268C53.3303 314.268 53.6103 314.2 53.8423 314.064C54.0743 313.928 54.2623 313.736 54.4063 313.488C54.5503 313.24 54.6543 312.948 54.7183 312.612C54.7903 312.276 54.8263 311.904 54.8263 311.496V310.128C54.8263 309.72 54.7903 309.348 54.7183 309.012C54.6543 308.676 54.5503 308.384 54.4063 308.136C54.2623 307.888 54.0743 307.696 53.8423 307.56C53.6103 307.424 53.3303 307.356 53.0023 307.356C52.6743 307.356 52.3943 307.424 52.1623 307.56C51.9303 307.696 51.7423 307.888 51.5983 308.136C51.4543 308.384 51.3463 308.676 51.2743 309.012C51.2103 309.348 51.1783 309.72 51.1783 310.128V311.496C51.1783 311.904 51.2103 312.276 51.2743 312.612C51.3463 312.948 51.4543 313.24 51.5983 313.488C51.7423 313.736 51.9303 313.928 52.1623 314.064C52.3943 314.2 52.6743 314.268 53.0023 314.268ZM60.1977 315.144C59.1977 315.144 58.4657 314.764 58.0017 314.004C57.5457 313.244 57.3177 312.18 57.3177 310.812C57.3177 309.444 57.5457 308.38 58.0017 307.62C58.4657 306.86 59.1977 306.48 60.1977 306.48C61.1977 306.48 61.9257 306.86 62.3817 307.62C62.8457 308.38 63.0777 309.444 63.0777 310.812C63.0777 312.18 62.8457 313.244 62.3817 314.004C61.9257 314.764 61.1977 315.144 60.1977 315.144ZM60.1977 314.268C60.5257 314.268 60.8057 314.2 61.0377 314.064C61.2697 313.928 61.4577 313.736 61.6017 313.488C61.7457 313.24 61.8497 312.948 61.9137 312.612C61.9857 312.276 62.0217 311.904 62.0217 311.496V310.128C62.0217 309.72 61.9857 309.348 61.9137 309.012C61.8497 308.676 61.7457 308.384 61.6017 308.136C61.4577 307.888 61.2697 307.696 61.0377 307.56C60.8057 307.424 60.5257 307.356 60.1977 307.356C59.8697 307.356 59.5897 307.424 59.3577 307.56C59.1257 307.696 58.9377 307.888 58.7937 308.136C58.6497 308.384 58.5417 308.676 58.4697 309.012C58.4057 309.348 58.3737 309.72 58.3737 310.128V311.496C58.3737 311.904 58.4057 312.276 58.4697 312.612C58.5417 312.948 58.6497 313.24 58.7937 313.488C58.9377 313.736 59.1257 313.928 59.3577 314.064C59.5897 314.2 59.8697 314.268 60.1977 314.268Z" fill="#1D2125"/>
<rect opacity="0.3" x="94" y="296" width="31" height="218" rx="3" fill="#C4C4C4"/>
<rect x="94" y="351" width="31" height="163" rx="3" fill="#3C9AF7"/>
<path opacity="0.34" d="M101.94 542L101.1 539.528H97.7161L96.8761 542H95.8561L98.7841 533.624H100.068L102.996 542H101.94ZM99.4321 534.56H99.3721L97.9561 538.64H100.848L99.4321 534.56ZM109.803 542L108.963 539.528H105.579L104.739 542H103.719L106.647 533.624H107.931L110.859 542H109.803ZM107.295 534.56H107.235L105.819 538.64H108.711L107.295 534.56ZM112.247 542V533.624H115.583C116.335 533.624 116.911 533.84 117.311 534.272C117.719 534.696 117.923 535.28 117.923 536.024C117.923 536.768 117.719 537.356 117.311 537.788C116.911 538.212 116.335 538.424 115.583 538.424H113.255V542H112.247ZM113.255 537.536H115.583C115.983 537.536 116.291 537.432 116.507 537.224C116.731 537.016 116.843 536.72 116.843 536.336V535.712C116.843 535.328 116.731 535.032 116.507 534.824C116.291 534.616 115.983 534.512 115.583 534.512H113.255V537.536ZM119.524 542V533.624H120.532V541.112H124.096V542H119.524Z" fill="#1D2125"/>
<path opacity="0.34" d="M101.307 315L104.511 307.488H100.935V309.048H100.035V306.624H105.531V307.512L102.387 315H101.307ZM112.798 315H107.302V313.968L110.038 311.448C110.43 311.088 110.758 310.708 111.022 310.308C111.286 309.9 111.418 309.492 111.418 309.084V308.94C111.418 308.476 111.29 308.1 111.034 307.812C110.778 307.524 110.39 307.38 109.87 307.38C109.614 307.38 109.39 307.416 109.198 307.488C109.006 307.56 108.838 307.66 108.694 307.788C108.558 307.916 108.442 308.068 108.346 308.244C108.258 308.412 108.186 308.596 108.13 308.796L107.23 308.448C107.31 308.2 107.418 307.96 107.554 307.728C107.698 307.488 107.874 307.276 108.082 307.092C108.298 306.908 108.554 306.76 108.85 306.648C109.154 306.536 109.51 306.48 109.918 306.48C110.326 306.48 110.69 306.54 111.01 306.66C111.33 306.78 111.598 306.948 111.814 307.164C112.03 307.38 112.194 307.636 112.306 307.932C112.426 308.228 112.486 308.556 112.486 308.916C112.486 309.244 112.438 309.548 112.342 309.828C112.254 310.108 112.13 310.376 111.97 310.632C111.81 310.88 111.614 311.124 111.382 311.364C111.158 311.604 110.914 311.844 110.65 312.084L108.394 314.112H112.798V315ZM117.198 315.144C116.198 315.144 115.466 314.764 115.002 314.004C114.546 313.244 114.318 312.18 114.318 310.812C114.318 309.444 114.546 308.38 115.002 307.62C115.466 306.86 116.198 306.48 117.198 306.48C118.198 306.48 118.926 306.86 119.382 307.62C119.846 308.38 120.078 309.444 120.078 310.812C120.078 312.18 119.846 313.244 119.382 314.004C118.926 314.764 118.198 315.144 117.198 315.144ZM117.198 314.268C117.526 314.268 117.806 314.2 118.038 314.064C118.27 313.928 118.458 313.736 118.602 313.488C118.746 313.24 118.85 312.948 118.914 312.612C118.986 312.276 119.022 311.904 119.022 311.496V310.128C119.022 309.72 118.986 309.348 118.914 309.012C118.85 308.676 118.746 308.384 118.602 308.136C118.458 307.888 118.27 307.696 118.038 307.56C117.806 307.424 117.526 307.356 117.198 307.356C116.87 307.356 116.59 307.424 116.358 307.56C116.126 307.696 115.938 307.888 115.794 308.136C115.65 308.384 115.542 308.676 115.47 309.012C115.406 309.348 115.374 309.72 115.374 310.128V311.496C115.374 311.904 115.406 312.276 115.47 312.612C115.542 312.948 115.65 313.24 115.794 313.488C115.938 313.736 116.126 313.928 116.358 314.064C116.59 314.2 116.87 314.268 117.198 314.268Z" fill="#1D2125"/>
<rect opacity="0.3" x="151" y="296" width="30" height="218" rx="3" fill="#C4C4C4"/>
<rect x="151" y="377" width="30" height="137" rx="3" fill="#3C9AF7"/>
<path opacity="0.34" d="M160.001 540.776H159.965C159.861 541.168 159.605 541.496 159.197 541.76C158.797 542.016 158.277 542.144 157.637 542.144C157.125 542.144 156.653 542.052 156.221 541.868C155.797 541.676 155.433 541.4 155.129 541.04C154.825 540.672 154.585 540.22 154.409 539.684C154.241 539.14 154.157 538.516 154.157 537.812C154.157 537.116 154.241 536.5 154.409 535.964C154.577 535.42 154.817 534.968 155.129 534.608C155.441 534.24 155.817 533.96 156.257 533.768C156.697 533.576 157.185 533.48 157.721 533.48C158.473 533.48 159.101 533.648 159.605 533.984C160.109 534.32 160.497 534.764 160.769 535.316L159.941 535.82C159.749 535.372 159.461 535.02 159.077 534.764C158.701 534.508 158.249 534.38 157.721 534.38C157.353 534.38 157.017 534.448 156.713 534.584C156.409 534.712 156.145 534.896 155.921 535.136C155.705 535.376 155.537 535.664 155.417 536C155.297 536.336 155.237 536.712 155.237 537.128V538.484C155.237 538.9 155.297 539.28 155.417 539.624C155.537 539.96 155.705 540.248 155.921 540.488C156.145 540.728 156.417 540.916 156.737 541.052C157.057 541.18 157.417 541.244 157.817 541.244C158.105 541.244 158.377 541.208 158.633 541.136C158.897 541.056 159.125 540.94 159.317 540.788C159.517 540.636 159.673 540.448 159.785 540.224C159.897 539.992 159.953 539.72 159.953 539.408V538.58H158.105V537.692H160.937V542H160.001V540.776ZM169.449 534.944H169.389L168.681 536.348L166.677 539.996L164.673 536.348L163.965 534.944H163.905V542H162.921V533.624H164.265L166.665 538.136H166.725L169.137 533.624H170.433V542H169.449V534.944ZM172.659 542V533.624H177.771V534.512H173.667V537.32H177.531V538.208H173.667V541.112H177.771V542H172.659Z" fill="#1D2125"/>
<path opacity="0.34" d="M158.319 315.144C157.887 315.144 157.495 315.072 157.143 314.928C156.799 314.776 156.503 314.564 156.255 314.292C156.015 314.012 155.831 313.672 155.703 313.272C155.575 312.872 155.511 312.424 155.511 311.928C155.511 311.304 155.603 310.72 155.787 310.176C155.971 309.624 156.207 309.124 156.495 308.676C156.791 308.22 157.115 307.82 157.467 307.476C157.819 307.124 158.163 306.84 158.499 306.624H159.795C159.347 306.952 158.947 307.272 158.595 307.584C158.243 307.896 157.935 308.224 157.671 308.568C157.407 308.904 157.183 309.268 156.999 309.66C156.815 310.044 156.667 310.48 156.555 310.968L156.615 310.992C156.815 310.648 157.071 310.364 157.383 310.14C157.703 309.908 158.119 309.792 158.631 309.792C158.991 309.792 159.323 309.852 159.627 309.972C159.931 310.092 160.191 310.264 160.407 310.488C160.623 310.712 160.791 310.984 160.911 311.304C161.039 311.624 161.103 311.98 161.103 312.372C161.103 312.78 161.035 313.156 160.899 313.5C160.771 313.836 160.583 314.128 160.335 314.376C160.095 314.616 159.803 314.804 159.459 314.94C159.115 315.076 158.735 315.144 158.319 315.144ZM158.307 314.268C158.859 314.268 159.287 314.116 159.591 313.812C159.903 313.508 160.059 313.072 160.059 312.504V312.408C160.059 311.84 159.903 311.404 159.591 311.1C159.287 310.796 158.859 310.644 158.307 310.644C157.755 310.644 157.323 310.796 157.011 311.1C156.707 311.404 156.555 311.84 156.555 312.408V312.504C156.555 313.072 156.707 313.508 157.011 313.812C157.323 314.116 157.755 314.268 158.307 314.268ZM164.002 315L167.206 307.488H163.63V309.048H162.73V306.624H168.226V307.512L165.082 315H164.002ZM172.698 315.144C171.698 315.144 170.966 314.764 170.502 314.004C170.046 313.244 169.818 312.18 169.818 310.812C169.818 309.444 170.046 308.38 170.502 307.62C170.966 306.86 171.698 306.48 172.698 306.48C173.698 306.48 174.426 306.86 174.882 307.62C175.346 308.38 175.578 309.444 175.578 310.812C175.578 312.18 175.346 313.244 174.882 314.004C174.426 314.764 173.698 315.144 172.698 315.144ZM172.698 314.268C173.026 314.268 173.306 314.2 173.538 314.064C173.77 313.928 173.958 313.736 174.102 313.488C174.246 313.24 174.35 312.948 174.414 312.612C174.486 312.276 174.522 311.904 174.522 311.496V310.128C174.522 309.72 174.486 309.348 174.414 309.012C174.35 308.676 174.246 308.384 174.102 308.136C173.958 307.888 173.77 307.696 173.538 307.56C173.306 307.424 173.026 307.356 172.698 307.356C172.37 307.356 172.09 307.424 171.858 307.56C171.626 307.696 171.438 307.888 171.294 308.136C171.15 308.384 171.042 308.676 170.97 309.012C170.906 309.348 170.874 309.72 170.874 310.128V311.496C170.874 311.904 170.906 312.276 170.97 312.612C171.042 312.948 171.15 313.24 171.294 313.488C171.438 313.736 171.626 313.928 171.858 314.064C172.09 314.2 172.37 314.268 172.698 314.268Z" fill="#1D2125"/>
<rect opacity="0.3" x="206" y="296" width="30" height="218" rx="3" fill="#C4C4C4"/>
<rect x="206" y="410" width="30" height="104" rx="3" fill="#3C9AF7"/>
<path opacity="0.34" d="M214.921 542L214.081 539.528H210.697L209.857 542H208.837L211.765 533.624H213.049L215.977 542H214.921ZM212.413 534.56H212.353L210.937 538.64H213.829L212.413 534.56ZM223.892 534.944H223.832L223.124 536.348L221.12 539.996L219.116 536.348L218.408 534.944H218.348V542H217.364V533.624H218.708L221.108 538.136H221.168L223.58 533.624H224.876V542H223.892V534.944ZM230.054 542.144C228.99 542.144 228.162 541.784 227.57 541.064C226.978 540.336 226.682 539.268 226.682 537.86C226.682 536.452 226.978 535.372 227.57 534.62C228.162 533.86 228.99 533.48 230.054 533.48C230.758 533.48 231.346 533.64 231.818 533.96C232.298 534.28 232.67 534.732 232.934 535.316L232.118 535.808C231.95 535.376 231.694 535.032 231.35 534.776C231.006 534.512 230.574 534.38 230.054 534.38C229.694 534.38 229.37 534.448 229.082 534.584C228.802 534.72 228.562 534.916 228.362 535.172C228.17 535.42 228.022 535.72 227.918 536.072C227.814 536.416 227.762 536.804 227.762 537.236V538.484C227.762 539.348 227.962 540.024 228.362 540.512C228.762 541 229.326 541.244 230.054 541.244C230.59 541.244 231.038 541.108 231.398 540.836C231.758 540.556 232.022 540.188 232.19 539.732L232.994 540.236C232.73 540.828 232.35 541.296 231.854 541.64C231.358 541.976 230.758 542.144 230.054 542.144Z" fill="#1D2125"/>
<path opacity="0.34" d="M214.319 315.144C213.887 315.144 213.495 315.072 213.143 314.928C212.799 314.776 212.503 314.564 212.255 314.292C212.015 314.012 211.831 313.672 211.703 313.272C211.575 312.872 211.511 312.424 211.511 311.928C211.511 311.304 211.603 310.72 211.787 310.176C211.971 309.624 212.207 309.124 212.495 308.676C212.791 308.22 213.115 307.82 213.467 307.476C213.819 307.124 214.163 306.84 214.499 306.624H215.795C215.347 306.952 214.947 307.272 214.595 307.584C214.243 307.896 213.935 308.224 213.671 308.568C213.407 308.904 213.183 309.268 212.999 309.66C212.815 310.044 212.667 310.48 212.555 310.968L212.615 310.992C212.815 310.648 213.071 310.364 213.383 310.14C213.703 309.908 214.119 309.792 214.631 309.792C214.991 309.792 215.323 309.852 215.627 309.972C215.931 310.092 216.191 310.264 216.407 310.488C216.623 310.712 216.791 310.984 216.911 311.304C217.039 311.624 217.103 311.98 217.103 312.372C217.103 312.78 217.035 313.156 216.899 313.5C216.771 313.836 216.583 314.128 216.335 314.376C216.095 314.616 215.803 314.804 215.459 314.94C215.115 315.076 214.735 315.144 214.319 315.144ZM214.307 314.268C214.859 314.268 215.287 314.116 215.591 313.812C215.903 313.508 216.059 313.072 216.059 312.504V312.408C216.059 311.84 215.903 311.404 215.591 311.1C215.287 310.796 214.859 310.644 214.307 310.644C213.755 310.644 213.323 310.796 213.011 311.1C212.707 311.404 212.555 311.84 212.555 312.408V312.504C212.555 313.072 212.707 313.508 213.011 313.812C213.323 314.116 213.755 314.268 214.307 314.268ZM221.502 315.144C220.502 315.144 219.77 314.764 219.306 314.004C218.85 313.244 218.622 312.18 218.622 310.812C218.622 309.444 218.85 308.38 219.306 307.62C219.77 306.86 220.502 306.48 221.502 306.48C222.502 306.48 223.23 306.86 223.686 307.62C224.15 308.38 224.382 309.444 224.382 310.812C224.382 312.18 224.15 313.244 223.686 314.004C223.23 314.764 222.502 315.144 221.502 315.144ZM221.502 314.268C221.83 314.268 222.11 314.2 222.342 314.064C222.574 313.928 222.762 313.736 222.906 313.488C223.05 313.24 223.154 312.948 223.218 312.612C223.29 312.276 223.326 311.904 223.326 311.496V310.128C223.326 309.72 223.29 309.348 223.218 309.012C223.154 308.676 223.05 308.384 222.906 308.136C222.762 307.888 222.574 307.696 222.342 307.56C222.11 307.424 221.83 307.356 221.502 307.356C221.174 307.356 220.894 307.424 220.662 307.56C220.43 307.696 220.242 307.888 220.098 308.136C219.954 308.384 219.846 308.676 219.774 309.012C219.71 309.348 219.678 309.72 219.678 310.128V311.496C219.678 311.904 219.71 312.276 219.774 312.612C219.846 312.948 219.954 313.24 220.098 313.488C220.242 313.736 220.43 313.928 220.662 314.064C220.894 314.2 221.174 314.268 221.502 314.268ZM228.698 315.144C227.698 315.144 226.966 314.764 226.502 314.004C226.046 313.244 225.818 312.18 225.818 310.812C225.818 309.444 226.046 308.38 226.502 307.62C226.966 306.86 227.698 306.48 228.698 306.48C229.698 306.48 230.426 306.86 230.882 307.62C231.346 308.38 231.578 309.444 231.578 310.812C231.578 312.18 231.346 313.244 230.882 314.004C230.426 314.764 229.698 315.144 228.698 315.144ZM228.698 314.268C229.026 314.268 229.306 314.2 229.538 314.064C229.77 313.928 229.958 313.736 230.102 313.488C230.246 313.24 230.35 312.948 230.414 312.612C230.486 312.276 230.522 311.904 230.522 311.496V310.128C230.522 309.72 230.486 309.348 230.414 309.012C230.35 308.676 230.246 308.384 230.102 308.136C229.958 307.888 229.77 307.696 229.538 307.56C229.306 307.424 229.026 307.356 228.698 307.356C228.37 307.356 228.09 307.424 227.858 307.56C227.626 307.696 227.438 307.888 227.294 308.136C227.15 308.384 227.042 308.676 226.97 309.012C226.906 309.348 226.874 309.72 226.874 310.128V311.496C226.874 311.904 226.906 312.276 226.97 312.612C227.042 312.948 227.15 313.24 227.294 313.488C227.438 313.736 227.626 313.928 227.858 314.064C228.09 314.2 228.37 314.268 228.698 314.268Z" fill="#1D2125"/>
<rect opacity="0.3" x="262" y="296" width="31" height="218" rx="3" fill="#C4C4C4"/>
<rect x="262" y="433" width="31" height="81" rx="3" fill="#3C9AF7"/>
<path opacity="0.34" d="M265.618 542.144C264.938 542.144 264.358 542.016 263.878 541.76C263.398 541.496 262.99 541.136 262.654 540.68L263.398 540.056C263.694 540.448 264.022 540.748 264.382 540.956C264.742 541.156 265.166 541.256 265.654 541.256C266.254 541.256 266.71 541.112 267.022 540.824C267.342 540.536 267.502 540.152 267.502 539.672C267.502 539.272 267.382 538.964 267.142 538.748C266.902 538.532 266.506 538.36 265.954 538.232L265.27 538.076C264.502 537.9 263.914 537.636 263.506 537.284C263.106 536.924 262.906 536.42 262.906 535.772C262.906 535.404 262.974 535.076 263.11 534.788C263.246 534.5 263.434 534.26 263.674 534.068C263.922 533.876 264.214 533.732 264.55 533.636C264.894 533.532 265.27 533.48 265.678 533.48C266.31 533.48 266.85 533.596 267.298 533.828C267.754 534.06 268.138 534.4 268.45 534.848L267.694 535.4C267.462 535.08 267.182 534.828 266.854 534.644C266.526 534.46 266.118 534.368 265.63 534.368C265.094 534.368 264.67 534.484 264.358 534.716C264.054 534.94 263.902 535.28 263.902 535.736C263.902 536.136 264.03 536.44 264.286 536.648C264.55 536.848 264.946 537.008 265.474 537.128L266.158 537.284C266.982 537.468 267.578 537.748 267.946 538.124C268.314 538.5 268.498 539 268.498 539.624C268.498 540.008 268.43 540.356 268.294 540.668C268.166 540.98 267.978 541.244 267.73 541.46C267.482 541.676 267.178 541.844 266.818 541.964C266.466 542.084 266.066 542.144 265.618 542.144ZM270.239 542V533.624H273.575C274.327 533.624 274.903 533.84 275.303 534.272C275.711 534.696 275.915 535.28 275.915 536.024C275.915 536.768 275.711 537.356 275.303 537.788C274.903 538.212 274.327 538.424 273.575 538.424H271.247V542H270.239ZM271.247 537.536H273.575C273.975 537.536 274.283 537.432 274.499 537.224C274.723 537.016 274.835 536.72 274.835 536.336V535.712C274.835 535.328 274.723 535.032 274.499 534.824C274.283 534.616 273.975 534.512 273.575 534.512H271.247V537.536ZM280.468 542.144C279.404 542.144 278.576 541.784 277.984 541.064C277.392 540.336 277.096 539.268 277.096 537.86C277.096 536.452 277.392 535.372 277.984 534.62C278.576 533.86 279.404 533.48 280.468 533.48C281.172 533.48 281.76 533.64 282.232 533.96C282.712 534.28 283.084 534.732 283.348 535.316L282.532 535.808C282.364 535.376 282.108 535.032 281.764 534.776C281.42 534.512 280.988 534.38 280.468 534.38C280.108 534.38 279.784 534.448 279.496 534.584C279.216 534.72 278.976 534.916 278.776 535.172C278.584 535.42 278.436 535.72 278.332 536.072C278.228 536.416 278.176 536.804 278.176 537.236V538.484C278.176 539.348 278.376 540.024 278.776 540.512C279.176 541 279.74 541.244 280.468 541.244C281.004 541.244 281.452 541.108 281.812 540.836C282.172 540.556 282.436 540.188 282.604 539.732L283.408 540.236C283.144 540.828 282.764 541.296 282.268 541.64C281.772 541.976 281.172 542.144 280.468 542.144ZM284.97 542V533.624H290.082V534.512H285.978V537.32H289.842V538.208H285.978V541.112H290.082V542H284.97Z" fill="#1D2125"/>
<path opacity="0.34" d="M272.183 307.512H268.511L268.271 310.704H268.355C268.555 310.424 268.779 310.2 269.027 310.032C269.283 309.864 269.631 309.78 270.071 309.78C270.431 309.78 270.763 309.84 271.067 309.96C271.371 310.08 271.635 310.252 271.859 310.476C272.083 310.692 272.255 310.96 272.375 311.28C272.503 311.6 272.567 311.964 272.567 312.372C272.567 312.78 272.503 313.156 272.375 313.5C272.247 313.836 272.059 314.128 271.811 314.376C271.571 314.616 271.275 314.804 270.923 314.94C270.579 315.076 270.187 315.144 269.747 315.144C269.395 315.144 269.083 315.104 268.811 315.024C268.547 314.944 268.311 314.836 268.103 314.7C267.895 314.564 267.711 314.412 267.551 314.244C267.399 314.076 267.259 313.9 267.131 313.716L267.887 313.14C267.991 313.308 268.099 313.46 268.211 313.596C268.331 313.732 268.459 313.848 268.595 313.944C268.739 314.04 268.903 314.116 269.087 314.172C269.271 314.22 269.491 314.244 269.747 314.244C270.323 314.244 270.759 314.092 271.055 313.788C271.351 313.484 271.499 313.056 271.499 312.504V312.384C271.499 311.832 271.351 311.404 271.055 311.1C270.759 310.796 270.323 310.644 269.747 310.644C269.363 310.644 269.059 310.716 268.835 310.86C268.619 310.996 268.423 311.16 268.247 311.352L267.395 311.232L267.695 306.624H272.183V307.512ZM277.002 315.144C276.522 315.144 276.102 315.084 275.742 314.964C275.382 314.836 275.078 314.664 274.83 314.448C274.59 314.232 274.406 313.976 274.278 313.68C274.158 313.384 274.098 313.064 274.098 312.72C274.098 312.144 274.254 311.688 274.566 311.352C274.878 311.016 275.286 310.78 275.79 310.644V310.548C275.35 310.396 274.998 310.152 274.734 309.816C274.478 309.472 274.35 309.06 274.35 308.58C274.35 307.94 274.582 307.432 275.046 307.056C275.51 306.672 276.162 306.48 277.002 306.48C277.842 306.48 278.494 306.672 278.958 307.056C279.422 307.432 279.654 307.94 279.654 308.58C279.654 309.06 279.522 309.472 279.258 309.816C279.002 310.152 278.654 310.396 278.214 310.548V310.644C278.718 310.78 279.126 311.016 279.438 311.352C279.75 311.688 279.906 312.144 279.906 312.72C279.906 313.064 279.842 313.384 279.714 313.68C279.594 313.976 279.41 314.232 279.162 314.448C278.922 314.664 278.622 314.836 278.262 314.964C277.902 315.084 277.482 315.144 277.002 315.144ZM277.002 314.268C277.586 314.268 278.038 314.14 278.358 313.884C278.678 313.62 278.838 313.248 278.838 312.768V312.516C278.838 312.036 278.678 311.668 278.358 311.412C278.038 311.148 277.586 311.016 277.002 311.016C276.418 311.016 275.966 311.148 275.646 311.412C275.326 311.668 275.166 312.036 275.166 312.516V312.768C275.166 313.248 275.326 313.62 275.646 313.884C275.966 314.14 276.418 314.268 277.002 314.268ZM277.002 310.176C277.53 310.176 277.93 310.064 278.202 309.84C278.474 309.616 278.61 309.288 278.61 308.856V308.676C278.61 308.244 278.474 307.916 278.202 307.692C277.93 307.468 277.53 307.356 277.002 307.356C276.474 307.356 276.074 307.468 275.802 307.692C275.53 307.916 275.394 308.244 275.394 308.676V308.856C275.394 309.288 275.53 309.616 275.802 309.84C276.074 310.064 276.474 310.176 277.002 310.176ZM284.198 315.144C283.198 315.144 282.466 314.764 282.002 314.004C281.546 313.244 281.318 312.18 281.318 310.812C281.318 309.444 281.546 308.38 282.002 307.62C282.466 306.86 283.198 306.48 284.198 306.48C285.198 306.48 285.926 306.86 286.382 307.62C286.846 308.38 287.078 309.444 287.078 310.812C287.078 312.18 286.846 313.244 286.382 314.004C285.926 314.764 285.198 315.144 284.198 315.144ZM284.198 314.268C284.526 314.268 284.806 314.2 285.038 314.064C285.27 313.928 285.458 313.736 285.602 313.488C285.746 313.24 285.85 312.948 285.914 312.612C285.986 312.276 286.022 311.904 286.022 311.496V310.128C286.022 309.72 285.986 309.348 285.914 309.012C285.85 308.676 285.746 308.384 285.602 308.136C285.458 307.888 285.27 307.696 285.038 307.56C284.806 307.424 284.526 307.356 284.198 307.356C283.87 307.356 283.59 307.424 283.358 307.56C283.126 307.696 282.938 307.888 282.794 308.136C282.65 308.384 282.542 308.676 282.47 309.012C282.406 309.348 282.374 309.72 282.374 310.128V311.496C282.374 311.904 282.406 312.276 282.47 312.612C282.542 312.948 282.65 313.24 282.794 313.488C282.938 313.736 283.126 313.928 283.358 314.064C283.59 314.2 283.87 314.268 284.198 314.268Z" fill="#1D2125"/>
<rect opacity="0.3" x="318" y="296" width="31" height="218" rx="3" fill="#C4C4C4"/>
<rect x="318" y="439" width="31" height="75" rx="3" fill="#3C9AF7"/>
<path opacity="0.34" d="M323.12 534.512V542H322.112V534.512H319.448V533.624H325.784V534.512H323.12ZM329.39 542.144C328.71 542.144 328.13 542.016 327.65 541.76C327.17 541.496 326.762 541.136 326.426 540.68L327.17 540.056C327.466 540.448 327.794 540.748 328.154 540.956C328.514 541.156 328.938 541.256 329.426 541.256C330.026 541.256 330.482 541.112 330.794 540.824C331.114 540.536 331.274 540.152 331.274 539.672C331.274 539.272 331.154 538.964 330.914 538.748C330.674 538.532 330.278 538.36 329.726 538.232L329.042 538.076C328.274 537.9 327.686 537.636 327.278 537.284C326.878 536.924 326.678 536.42 326.678 535.772C326.678 535.404 326.746 535.076 326.882 534.788C327.018 534.5 327.206 534.26 327.446 534.068C327.694 533.876 327.986 533.732 328.322 533.636C328.666 533.532 329.042 533.48 329.45 533.48C330.082 533.48 330.622 533.596 331.07 533.828C331.526 534.06 331.91 534.4 332.222 534.848L331.466 535.4C331.234 535.08 330.954 534.828 330.626 534.644C330.298 534.46 329.89 534.368 329.402 534.368C328.866 534.368 328.442 534.484 328.13 534.716C327.826 534.94 327.674 535.28 327.674 535.736C327.674 536.136 327.802 536.44 328.058 536.648C328.322 536.848 328.718 537.008 329.246 537.128L329.93 537.284C330.754 537.468 331.35 537.748 331.718 538.124C332.086 538.5 332.27 539 332.27 539.624C332.27 540.008 332.202 540.356 332.066 540.668C331.938 540.98 331.75 541.244 331.502 541.46C331.254 541.676 330.95 541.844 330.59 541.964C330.238 542.084 329.838 542.144 329.39 542.144ZM334.011 542V533.624H335.019V541.112H338.583V542H334.011ZM345.489 542L344.649 539.528H341.265L340.425 542H339.405L342.333 533.624H343.617L346.545 542H345.489ZM342.981 534.56H342.921L341.505 538.64H344.397L342.981 534.56Z" fill="#1D2125"/>
<path opacity="0.34" d="M329.183 307.512H325.511L325.271 310.704H325.355C325.555 310.424 325.779 310.2 326.027 310.032C326.283 309.864 326.631 309.78 327.071 309.78C327.431 309.78 327.763 309.84 328.067 309.96C328.371 310.08 328.635 310.252 328.859 310.476C329.083 310.692 329.255 310.96 329.375 311.28C329.503 311.6 329.567 311.964 329.567 312.372C329.567 312.78 329.503 313.156 329.375 313.5C329.247 313.836 329.059 314.128 328.811 314.376C328.571 314.616 328.275 314.804 327.923 314.94C327.579 315.076 327.187 315.144 326.747 315.144C326.395 315.144 326.083 315.104 325.811 315.024C325.547 314.944 325.311 314.836 325.103 314.7C324.895 314.564 324.711 314.412 324.551 314.244C324.399 314.076 324.259 313.9 324.131 313.716L324.887 313.14C324.991 313.308 325.099 313.46 325.211 313.596C325.331 313.732 325.459 313.848 325.595 313.944C325.739 314.04 325.903 314.116 326.087 314.172C326.271 314.22 326.491 314.244 326.747 314.244C327.323 314.244 327.759 314.092 328.055 313.788C328.351 313.484 328.499 313.056 328.499 312.504V312.384C328.499 311.832 328.351 311.404 328.055 311.1C327.759 310.796 327.323 310.644 326.747 310.644C326.363 310.644 326.059 310.716 325.835 310.86C325.619 310.996 325.423 311.16 325.247 311.352L324.395 311.232L324.695 306.624H329.183V307.512ZM333.534 310.176C334.102 310.176 334.526 310.048 334.806 309.792C335.094 309.528 335.238 309.192 335.238 308.784V308.7C335.238 308.26 335.098 307.932 334.818 307.716C334.546 307.492 334.186 307.38 333.738 307.38C333.306 307.38 332.954 307.476 332.682 307.668C332.41 307.852 332.186 308.104 332.01 308.424L331.266 307.848C331.37 307.68 331.494 307.516 331.638 307.356C331.79 307.188 331.966 307.04 332.166 306.912C332.366 306.784 332.598 306.68 332.862 306.6C333.126 306.52 333.426 306.48 333.762 306.48C334.114 306.48 334.446 306.528 334.758 306.624C335.07 306.712 335.338 306.848 335.562 307.032C335.794 307.208 335.974 307.428 336.102 307.692C336.238 307.956 336.306 308.256 336.306 308.592C336.306 308.864 336.262 309.108 336.174 309.324C336.094 309.54 335.982 309.728 335.838 309.888C335.694 310.048 335.522 310.184 335.322 310.296C335.13 310.408 334.922 310.492 334.698 310.548V310.596C334.922 310.644 335.138 310.724 335.346 310.836C335.562 310.94 335.75 311.08 335.91 311.256C336.078 311.424 336.21 311.632 336.306 311.88C336.41 312.12 336.462 312.396 336.462 312.708C336.462 313.068 336.394 313.4 336.258 313.704C336.122 314 335.93 314.256 335.682 314.472C335.434 314.68 335.134 314.844 334.782 314.964C334.43 315.084 334.042 315.144 333.618 315.144C333.258 315.144 332.938 315.104 332.658 315.024C332.378 314.944 332.13 314.836 331.914 314.7C331.698 314.564 331.506 314.412 331.338 314.244C331.178 314.076 331.034 313.9 330.906 313.716L331.662 313.14C331.766 313.308 331.878 313.46 331.998 313.596C332.126 313.732 332.266 313.848 332.418 313.944C332.57 314.04 332.742 314.116 332.934 314.172C333.126 314.22 333.35 314.244 333.606 314.244C334.198 314.244 334.646 314.112 334.95 313.848C335.254 313.576 335.406 313.192 335.406 312.696V312.6C335.406 312.104 335.254 311.724 334.95 311.46C334.646 311.188 334.198 311.052 333.606 311.052H332.622V310.176H333.534ZM341.198 315.144C340.198 315.144 339.466 314.764 339.002 314.004C338.546 313.244 338.318 312.18 338.318 310.812C338.318 309.444 338.546 308.38 339.002 307.62C339.466 306.86 340.198 306.48 341.198 306.48C342.198 306.48 342.926 306.86 343.382 307.62C343.846 308.38 344.078 309.444 344.078 310.812C344.078 312.18 343.846 313.244 343.382 314.004C342.926 314.764 342.198 315.144 341.198 315.144ZM341.198 314.268C341.526 314.268 341.806 314.2 342.038 314.064C342.27 313.928 342.458 313.736 342.602 313.488C342.746 313.24 342.85 312.948 342.914 312.612C342.986 312.276 343.022 311.904 343.022 311.496V310.128C343.022 309.72 342.986 309.348 342.914 309.012C342.85 308.676 342.746 308.384 342.602 308.136C342.458 307.888 342.27 307.696 342.038 307.56C341.806 307.424 341.526 307.356 341.198 307.356C340.87 307.356 340.59 307.424 340.358 307.56C340.126 307.696 339.938 307.888 339.794 308.136C339.65 308.384 339.542 308.676 339.47 309.012C339.406 309.348 339.374 309.72 339.374 310.128V311.496C339.374 311.904 339.406 312.276 339.47 312.612C339.542 312.948 339.65 313.24 339.794 313.488C339.938 313.736 340.126 313.928 340.358 314.064C340.59 314.2 340.87 314.268 341.198 314.268Z" fill="#1D2125"/>
<defs>
<filter id="filter0_d" x="0" y="0" width="387" height="650" filterUnits="userSpaceOnUse" color-interpolation-filters="sRGB">
<feFlood flood-opacity="0" result="BackgroundImageFix"/>
<feColorMatrix in="SourceAlpha" type="matrix" values="0 0 0 0 0 0 0 0 0 0 0 0 0 0 0 0 0 0 127 0" result="hardAlpha"/>
<feOffset dy="4"/>
<feGaussianBlur stdDeviation="10"/>
<feComposite in2="hardAlpha" operator="out"/>
<feColorMatrix type="matrix" values="0 0 0 0 0.741667 0 0 0 0 0.741667 0 0 0 0 0.741667 0 0 0 0.25 0"/>
<feBlend mode="normal" in2="BackgroundImageFix" result="effect1_dropShadow"/>
<feBlend mode="normal" in="SourceGraphic" in2="effect1_dropShadow" result="shape"/>
</filter>
</defs>
</svg>
