<svg width="387" height="731" viewBox="0 0 387 731" fill="none" xmlns="http://www.w3.org/2000/svg">
<path d="M39.2944 694V692.894H40.8431V684.076H39.2944V682.97H43.7191V684.076H42.1705V692.894H43.7191V694H39.2944ZM46.2989 694V685.846H47.5631V687.173H47.6263C47.8265 686.71 48.1057 686.341 48.4639 686.067C48.8326 685.793 49.3225 685.656 49.9335 685.656C50.7763 685.656 51.44 685.93 51.9247 686.478C52.4198 687.015 52.6674 687.779 52.6674 688.769V694H51.4032V688.991C51.4032 687.526 50.7869 686.794 49.5543 686.794C49.3014 686.794 49.0538 686.826 48.8115 686.889C48.5798 686.952 48.3691 687.047 48.1794 687.173C47.9898 687.3 47.837 687.463 47.7211 687.663C47.6158 687.853 47.5631 688.079 47.5631 688.343V694H46.2989ZM62.0289 694.19C61.2704 694.19 60.633 694.047 60.1168 693.763C59.6111 693.468 59.1739 693.078 58.8052 692.594L59.7059 691.867C60.022 692.267 60.3749 692.578 60.7647 692.799C61.1545 693.01 61.6075 693.115 62.1238 693.115C62.6611 693.115 63.0772 692.999 63.3722 692.767C63.6777 692.536 63.8305 692.209 63.8305 691.788C63.8305 691.472 63.7251 691.203 63.5144 690.982C63.3142 690.75 62.9455 690.592 62.4082 690.508L61.7603 690.413C61.381 690.36 61.0334 690.281 60.7173 690.176C60.4013 690.06 60.1221 689.912 59.8798 689.733C59.648 689.544 59.4636 689.312 59.3267 689.038C59.2003 688.764 59.1371 688.437 59.1371 688.058C59.1371 687.658 59.2108 687.31 59.3583 687.015C59.5058 686.71 59.7059 686.457 59.9588 686.257C60.2222 686.057 60.533 685.909 60.8912 685.814C61.2493 685.709 61.6339 685.656 62.0448 685.656C62.7085 685.656 63.2616 685.772 63.704 686.004C64.157 686.236 64.5521 686.557 64.8892 686.968L64.0517 687.726C63.8726 687.473 63.6092 687.247 63.2616 687.047C62.9139 686.836 62.4767 686.731 61.9499 686.731C61.4232 686.731 61.0228 686.847 60.7489 687.078C60.4856 687.3 60.3539 687.605 60.3539 687.995C60.3539 688.395 60.4856 688.685 60.7489 688.864C61.0228 689.043 61.4126 689.175 61.9183 689.259L62.5504 689.354C63.4565 689.491 64.0991 689.754 64.4784 690.144C64.8576 690.523 65.0473 691.024 65.0473 691.645C65.0473 692.436 64.7786 693.057 64.2413 693.51C63.704 693.963 62.9666 694.19 62.0289 694.19ZM70.6282 694.19C70.0698 694.19 69.5641 694.09 69.1111 693.889C68.6686 693.689 68.2841 693.405 67.9575 693.036C67.6415 692.657 67.3939 692.209 67.2148 691.693C67.0462 691.166 66.962 690.576 66.962 689.923C66.962 689.28 67.0462 688.696 67.2148 688.169C67.3939 687.642 67.6415 687.194 67.9575 686.826C68.2841 686.446 68.6686 686.157 69.1111 685.956C69.5641 685.756 70.0698 685.656 70.6282 685.656C71.176 685.656 71.6659 685.756 72.0978 685.956C72.5298 686.157 72.8985 686.436 73.204 686.794C73.5095 687.142 73.7413 687.558 73.8993 688.042C74.0679 688.527 74.1522 689.059 74.1522 689.638V690.239H68.2894V690.618C68.2894 690.966 68.3421 691.292 68.4474 691.598C68.5633 691.893 68.7213 692.151 68.9215 692.372C69.1322 692.594 69.385 692.767 69.68 692.894C69.9855 693.02 70.3279 693.083 70.7072 693.083C71.2234 693.083 71.6712 692.962 72.0504 692.72C72.4402 692.478 72.7405 692.13 72.9512 691.677L73.8519 692.325C73.5886 692.883 73.1777 693.336 72.6193 693.684C72.061 694.021 71.3972 694.19 70.6282 694.19ZM70.6282 686.715C70.2805 686.715 69.9645 686.778 69.68 686.905C69.3956 687.02 69.148 687.189 68.9373 687.41C68.7371 687.632 68.5791 687.895 68.4632 688.2C68.3473 688.495 68.2894 688.822 68.2894 689.18V689.291H72.7932V689.117C72.7932 688.39 72.593 687.811 72.1926 687.379C71.8028 686.936 71.2814 686.715 70.6282 686.715ZM82.4436 694C81.9696 694 81.6272 693.874 81.4165 693.621C81.2163 693.368 81.0899 693.052 81.0372 692.673H80.9582C80.7791 693.178 80.4841 693.558 80.0732 693.81C79.6624 694.063 79.1725 694.19 78.6036 694.19C77.7397 694.19 77.0654 693.968 76.5808 693.526C76.1067 693.083 75.8697 692.483 75.8697 691.724C75.8697 690.955 76.1489 690.365 76.7072 689.955C77.2761 689.544 78.1558 689.338 79.3463 689.338H80.9582V688.532C80.9582 687.953 80.8002 687.51 80.4841 687.205C80.168 686.899 79.6834 686.747 79.0302 686.747C78.5351 686.747 78.119 686.857 77.7818 687.078C77.4552 687.3 77.1813 687.595 76.9601 687.963L76.2016 687.252C76.4228 686.81 76.7757 686.436 77.2603 686.13C77.745 685.814 78.356 685.656 79.0935 685.656C80.0838 685.656 80.8528 685.898 81.4007 686.383C81.9485 686.868 82.2224 687.542 82.2224 688.406V692.894H83.1548V694H82.4436ZM78.809 693.115C79.1251 693.115 79.4148 693.078 79.6782 693.004C79.9415 692.931 80.168 692.825 80.3577 692.688C80.5473 692.551 80.6948 692.393 80.8001 692.214C80.9055 692.035 80.9582 691.84 80.9582 691.63V690.286H79.2831C78.5562 690.286 78.0241 690.392 77.687 690.602C77.3604 690.813 77.1971 691.119 77.1971 691.519V691.851C77.1971 692.251 77.3394 692.562 77.6238 692.783C77.9188 693.004 78.3139 693.115 78.809 693.115ZM85.2413 694V685.846H86.5055V687.347H86.5845C86.732 686.957 86.9954 686.61 87.3747 686.304C87.7539 685.999 88.2754 685.846 88.9391 685.846H89.429V687.11H88.6863C88.0015 687.11 87.4642 687.242 87.0744 687.505C86.6951 687.758 86.5055 688.079 86.5055 688.469V694H85.2413ZM94.283 694.19C93.7141 694.19 93.2031 694.09 92.7501 693.889C92.2971 693.689 91.9126 693.405 91.5965 693.036C91.291 692.667 91.054 692.22 90.8854 691.693C90.7274 691.166 90.6484 690.576 90.6484 689.923C90.6484 689.27 90.7274 688.68 90.8854 688.153C91.054 687.626 91.291 687.178 91.5965 686.81C91.9126 686.441 92.2971 686.157 92.7501 685.956C93.2031 685.756 93.7141 685.656 94.283 685.656C95.0942 685.656 95.7421 685.835 96.2267 686.193C96.7219 686.541 97.0906 686.999 97.3329 687.568L96.2741 688.106C96.1266 687.684 95.8843 687.358 95.5472 687.126C95.2101 686.894 94.7887 686.778 94.283 686.778C93.9037 686.778 93.5719 686.841 93.2874 686.968C93.003 687.084 92.7659 687.252 92.5763 687.473C92.3867 687.684 92.2444 687.942 92.1496 688.248C92.0548 688.543 92.0074 688.869 92.0074 689.228V690.618C92.0074 691.335 92.197 691.925 92.5763 692.388C92.9661 692.841 93.535 693.068 94.283 693.068C95.3049 693.068 96.0424 692.594 96.4954 691.645L97.4119 692.262C97.1486 692.852 96.7535 693.32 96.2267 693.668C95.7105 694.016 95.0626 694.19 94.283 694.19ZM99.4787 682.306H100.743V687.173H100.806C101.006 686.71 101.285 686.341 101.644 686.067C102.012 685.793 102.502 685.656 103.113 685.656C103.956 685.656 104.62 685.93 105.104 686.478C105.6 687.015 105.847 687.779 105.847 688.769V694H104.583V688.991C104.583 687.526 103.967 686.794 102.734 686.794C102.481 686.794 102.234 686.826 101.991 686.889C101.76 686.952 101.549 687.047 101.359 687.173C101.17 687.3 101.017 687.463 100.901 687.663C100.796 687.853 100.743 688.079 100.743 688.343V694H99.4787V682.306ZM113.202 686.952H111.874V685.846H113.202V684.202C113.202 683.633 113.349 683.175 113.644 682.827C113.939 682.48 114.387 682.306 114.988 682.306H116.22V683.412H114.466V685.846H116.22V686.952H114.466V694H113.202V686.952ZM121.185 694.19C120.637 694.19 120.137 694.09 119.684 693.889C119.231 693.689 118.841 693.405 118.514 693.036C118.198 692.657 117.951 692.209 117.771 691.693C117.592 691.166 117.503 690.576 117.503 689.923C117.503 689.28 117.592 688.696 117.771 688.169C117.951 687.642 118.198 687.194 118.514 686.826C118.841 686.446 119.231 686.157 119.684 685.956C120.137 685.756 120.637 685.656 121.185 685.656C121.733 685.656 122.228 685.756 122.67 685.956C123.123 686.157 123.513 686.446 123.84 686.826C124.166 687.194 124.419 687.642 124.598 688.169C124.777 688.696 124.867 689.28 124.867 689.923C124.867 690.576 124.777 691.166 124.598 691.693C124.419 692.209 124.166 692.657 123.84 693.036C123.513 693.405 123.123 693.689 122.67 693.889C122.228 694.09 121.733 694.19 121.185 694.19ZM121.185 693.068C121.87 693.068 122.428 692.857 122.86 692.436C123.292 692.014 123.508 691.371 123.508 690.508V689.338C123.508 688.474 123.292 687.832 122.86 687.41C122.428 686.989 121.87 686.778 121.185 686.778C120.5 686.778 119.942 686.989 119.51 687.41C119.078 687.832 118.862 688.474 118.862 689.338V690.508C118.862 691.371 119.078 692.014 119.51 692.436C119.942 692.857 120.5 693.068 121.185 693.068ZM127.228 694V685.846H128.492V687.347H128.571C128.719 686.957 128.982 686.61 129.362 686.304C129.741 685.999 130.262 685.846 130.926 685.846H131.416V687.11H130.673C129.988 687.11 129.451 687.242 129.061 687.505C128.682 687.758 128.492 688.079 128.492 688.469V694H127.228ZM144.204 694.901C144.204 695.744 143.872 696.36 143.208 696.75C142.555 697.15 141.57 697.35 140.253 697.35C138.979 697.35 138.062 697.176 137.504 696.829C136.945 696.481 136.666 695.986 136.666 695.343C136.666 694.901 136.782 694.553 137.014 694.3C137.246 694.058 137.562 693.879 137.962 693.763V693.589C137.477 693.357 137.235 692.978 137.235 692.451C137.235 692.04 137.367 691.73 137.63 691.519C137.893 691.298 138.231 691.134 138.641 691.029V690.966C138.157 690.734 137.778 690.402 137.504 689.97C137.24 689.538 137.109 689.038 137.109 688.469C137.109 688.058 137.182 687.679 137.33 687.331C137.477 686.984 137.683 686.689 137.946 686.446C138.22 686.193 138.541 685.999 138.91 685.862C139.289 685.725 139.711 685.656 140.174 685.656C140.754 685.656 141.27 685.762 141.723 685.972V685.83C141.723 685.514 141.797 685.256 141.944 685.056C142.092 684.845 142.334 684.74 142.671 684.74H143.888V685.846H142.339V686.367C142.634 686.62 142.861 686.926 143.019 687.284C143.187 687.632 143.272 688.027 143.272 688.469C143.272 688.88 143.198 689.259 143.05 689.607C142.903 689.955 142.692 690.255 142.418 690.508C142.155 690.75 141.834 690.94 141.454 691.076C141.075 691.213 140.654 691.282 140.19 691.282C139.927 691.282 139.663 691.256 139.4 691.203C139.126 691.277 138.878 691.387 138.657 691.535C138.436 691.672 138.325 691.867 138.325 692.119C138.325 692.362 138.441 692.525 138.673 692.609C138.905 692.694 139.205 692.736 139.574 692.736H141.312C142.323 692.736 143.056 692.931 143.509 693.32C143.972 693.7 144.204 694.227 144.204 694.901ZM143.019 694.996C143.019 694.669 142.892 694.406 142.64 694.205C142.397 694.016 141.96 693.921 141.328 693.921H138.61C138.104 694.153 137.851 694.521 137.851 695.027C137.851 695.385 137.983 695.691 138.246 695.944C138.52 696.197 138.979 696.323 139.621 696.323H140.791C141.496 696.323 142.044 696.212 142.434 695.991C142.824 695.77 143.019 695.438 143.019 694.996ZM140.19 690.271C140.727 690.271 141.154 690.144 141.47 689.891C141.786 689.628 141.944 689.228 141.944 688.69V688.248C141.944 687.711 141.786 687.315 141.47 687.063C141.154 686.799 140.727 686.668 140.19 686.668C139.653 686.668 139.226 686.799 138.91 687.063C138.594 687.315 138.436 687.711 138.436 688.248V688.69C138.436 689.228 138.594 689.628 138.91 689.891C139.226 690.144 139.653 690.271 140.19 690.271ZM148.934 694.19C148.376 694.19 147.87 694.09 147.417 693.889C146.975 693.689 146.59 693.405 146.263 693.036C145.947 692.657 145.7 692.209 145.521 691.693C145.352 691.166 145.268 690.576 145.268 689.923C145.268 689.28 145.352 688.696 145.521 688.169C145.7 687.642 145.947 687.194 146.263 686.826C146.59 686.446 146.975 686.157 147.417 685.956C147.87 685.756 148.376 685.656 148.934 685.656C149.482 685.656 149.972 685.756 150.404 685.956C150.836 686.157 151.204 686.436 151.51 686.794C151.815 687.142 152.047 687.558 152.205 688.042C152.374 688.527 152.458 689.059 152.458 689.638V690.239H146.595V690.618C146.595 690.966 146.648 691.292 146.753 691.598C146.869 691.893 147.027 692.151 147.227 692.372C147.438 692.594 147.691 692.767 147.986 692.894C148.291 693.02 148.634 693.083 149.013 693.083C149.529 693.083 149.977 692.962 150.356 692.72C150.746 692.478 151.046 692.13 151.257 691.677L152.158 692.325C151.894 692.883 151.484 693.336 150.925 693.684C150.367 694.021 149.703 694.19 148.934 694.19ZM148.934 686.715C148.586 686.715 148.27 686.778 147.986 686.905C147.701 687.02 147.454 687.189 147.243 687.41C147.043 687.632 146.885 687.895 146.769 688.2C146.653 688.495 146.595 688.822 146.595 689.18V689.291H151.099V689.117C151.099 688.39 150.899 687.811 150.499 687.379C150.109 686.936 149.587 686.715 148.934 686.715ZM154.823 694V685.846H156.088V687.173H156.151C156.351 686.71 156.63 686.341 156.988 686.067C157.357 685.793 157.847 685.656 158.458 685.656C159.301 685.656 159.965 685.93 160.449 686.478C160.944 687.015 161.192 687.779 161.192 688.769V694H159.928V688.991C159.928 687.526 159.311 686.794 158.079 686.794C157.826 686.794 157.578 686.826 157.336 686.889C157.104 686.952 156.894 687.047 156.704 687.173C156.514 687.3 156.362 687.463 156.246 687.663C156.14 687.853 156.088 688.079 156.088 688.343V694H154.823ZM167.153 694.19C166.595 694.19 166.089 694.09 165.636 693.889C165.193 693.689 164.809 693.405 164.482 693.036C164.166 692.657 163.919 692.209 163.74 691.693C163.571 691.166 163.487 690.576 163.487 689.923C163.487 689.28 163.571 688.696 163.74 688.169C163.919 687.642 164.166 687.194 164.482 686.826C164.809 686.446 165.193 686.157 165.636 685.956C166.089 685.756 166.595 685.656 167.153 685.656C167.701 685.656 168.191 685.756 168.623 685.956C169.055 686.157 169.423 686.436 169.729 686.794C170.034 687.142 170.266 687.558 170.424 688.042C170.593 688.527 170.677 689.059 170.677 689.638V690.239H164.814V690.618C164.814 690.966 164.867 691.292 164.972 691.598C165.088 691.893 165.246 692.151 165.446 692.372C165.657 692.594 165.91 692.767 166.205 692.894C166.51 693.02 166.853 693.083 167.232 693.083C167.748 693.083 168.196 692.962 168.575 692.72C168.965 692.478 169.265 692.13 169.476 691.677L170.377 692.325C170.113 692.883 169.703 693.336 169.144 693.684C168.586 694.021 167.922 694.19 167.153 694.19ZM167.153 686.715C166.805 686.715 166.489 686.778 166.205 686.905C165.92 687.02 165.673 687.189 165.462 687.41C165.262 687.632 165.104 687.895 164.988 688.2C164.872 688.495 164.814 688.822 164.814 689.18V689.291H169.318V689.117C169.318 688.39 169.118 687.811 168.717 687.379C168.328 686.936 167.806 686.715 167.153 686.715ZM175.492 694.19C174.733 694.19 174.096 694.047 173.58 693.763C173.074 693.468 172.637 693.078 172.268 692.594L173.169 691.867C173.485 692.267 173.838 692.578 174.228 692.799C174.617 693.01 175.07 693.115 175.587 693.115C176.124 693.115 176.54 692.999 176.835 692.767C177.141 692.536 177.293 692.209 177.293 691.788C177.293 691.472 177.188 691.203 176.977 690.982C176.777 690.75 176.408 690.592 175.871 690.508L175.223 690.413C174.844 690.36 174.496 690.281 174.18 690.176C173.864 690.06 173.585 689.912 173.343 689.733C173.111 689.544 172.927 689.312 172.79 689.038C172.663 688.764 172.6 688.437 172.6 688.058C172.6 687.658 172.674 687.31 172.821 687.015C172.969 686.71 173.169 686.457 173.422 686.257C173.685 686.057 173.996 685.909 174.354 685.814C174.712 685.709 175.097 685.656 175.508 685.656C176.171 685.656 176.724 685.772 177.167 686.004C177.62 686.236 178.015 686.557 178.352 686.968L177.515 687.726C177.336 687.473 177.072 687.247 176.724 687.047C176.377 686.836 175.94 686.731 175.413 686.731C174.886 686.731 174.486 686.847 174.212 687.078C173.948 687.3 173.817 687.605 173.817 687.995C173.817 688.395 173.948 688.685 174.212 688.864C174.486 689.043 174.876 689.175 175.381 689.259L176.013 689.354C176.919 689.491 177.562 689.754 177.941 690.144C178.321 690.523 178.51 691.024 178.51 691.645C178.51 692.436 178.242 693.057 177.704 693.51C177.167 693.963 176.429 694.19 175.492 694.19ZM190.968 694C190.494 694 190.152 693.874 189.941 693.621C189.741 693.368 189.614 693.052 189.562 692.673H189.483C189.304 693.178 189.009 693.558 188.598 693.81C188.187 694.063 187.697 694.19 187.128 694.19C186.264 694.19 185.59 693.968 185.105 693.526C184.631 693.083 184.394 692.483 184.394 691.724C184.394 690.955 184.673 690.365 185.232 689.955C185.801 689.544 186.68 689.338 187.871 689.338H189.483V688.532C189.483 687.953 189.325 687.51 189.009 687.205C188.693 686.899 188.208 686.747 187.555 686.747C187.06 686.747 186.644 686.857 186.306 687.078C185.98 687.3 185.706 687.595 185.485 687.963L184.726 687.252C184.947 686.81 185.3 686.436 185.785 686.13C186.27 685.814 186.881 685.656 187.618 685.656C188.608 685.656 189.377 685.898 189.925 686.383C190.473 686.868 190.747 687.542 190.747 688.406V692.894H191.679V694H190.968ZM187.334 693.115C187.65 693.115 187.939 693.078 188.203 693.004C188.466 692.931 188.693 692.825 188.882 692.688C189.072 692.551 189.219 692.393 189.325 692.214C189.43 692.035 189.483 691.84 189.483 691.63V690.286H187.808C187.081 690.286 186.549 690.392 186.212 690.602C185.885 690.813 185.722 691.119 185.722 691.519V691.851C185.722 692.251 185.864 692.562 186.148 692.783C186.443 693.004 186.838 693.115 187.334 693.115ZM196.215 694.19C195.457 694.19 194.819 694.047 194.303 693.763C193.797 693.468 193.36 693.078 192.992 692.594L193.892 691.867C194.208 692.267 194.561 692.578 194.951 692.799C195.341 693.01 195.794 693.115 196.31 693.115C196.847 693.115 197.264 692.999 197.559 692.767C197.864 692.536 198.017 692.209 198.017 691.788C198.017 691.472 197.911 691.203 197.701 690.982C197.501 690.75 197.132 690.592 196.595 690.508L195.947 690.413C195.567 690.36 195.22 690.281 194.904 690.176C194.588 690.06 194.308 689.912 194.066 689.733C193.834 689.544 193.65 689.312 193.513 689.038C193.387 688.764 193.323 688.437 193.323 688.058C193.323 687.658 193.397 687.31 193.545 687.015C193.692 686.71 193.892 686.457 194.145 686.257C194.409 686.057 194.719 685.909 195.077 685.814C195.436 685.709 195.82 685.656 196.231 685.656C196.895 685.656 197.448 685.772 197.89 686.004C198.343 686.236 198.738 686.557 199.076 686.968L198.238 687.726C198.059 687.473 197.796 687.247 197.448 687.047C197.1 686.836 196.663 686.731 196.136 686.731C195.61 686.731 195.209 686.847 194.935 687.078C194.672 687.3 194.54 687.605 194.54 687.995C194.54 688.395 194.672 688.685 194.935 688.864C195.209 689.043 195.599 689.175 196.105 689.259L196.737 689.354C197.643 689.491 198.285 689.754 198.665 690.144C199.044 690.523 199.234 691.024 199.234 691.645C199.234 692.436 198.965 693.057 198.428 693.51C197.89 693.963 197.153 694.19 196.215 694.19ZM204.106 694.19C203.347 694.19 202.71 694.047 202.193 693.763C201.688 693.468 201.251 693.078 200.882 692.594L201.783 691.867C202.099 692.267 202.452 692.578 202.841 692.799C203.231 693.01 203.684 693.115 204.2 693.115C204.738 693.115 205.154 692.999 205.449 692.767C205.754 692.536 205.907 692.209 205.907 691.788C205.907 691.472 205.802 691.203 205.591 690.982C205.391 690.75 205.022 690.592 204.485 690.508L203.837 690.413C203.458 690.36 203.11 690.281 202.794 690.176C202.478 690.06 202.199 689.912 201.956 689.733C201.725 689.544 201.54 689.312 201.403 689.038C201.277 688.764 201.214 688.437 201.214 688.058C201.214 687.658 201.287 687.31 201.435 687.015C201.582 686.71 201.783 686.457 202.035 686.257C202.299 686.057 202.61 685.909 202.968 685.814C203.326 685.709 203.711 685.656 204.121 685.656C204.785 685.656 205.338 685.772 205.781 686.004C206.234 686.236 206.629 686.557 206.966 686.968L206.128 687.726C205.949 687.473 205.686 687.247 205.338 687.047C204.991 686.836 204.553 686.731 204.027 686.731C203.5 686.731 203.1 686.847 202.826 687.078C202.562 687.3 202.431 687.605 202.431 687.995C202.431 688.395 202.562 688.685 202.826 688.864C203.1 689.043 203.489 689.175 203.995 689.259L204.627 689.354C205.533 689.491 206.176 689.754 206.555 690.144C206.934 690.523 207.124 691.024 207.124 691.645C207.124 692.436 206.855 693.057 206.318 693.51C205.781 693.963 205.043 694.19 204.106 694.19ZM212.721 694.19C212.173 694.19 211.672 694.09 211.219 693.889C210.766 693.689 210.377 693.405 210.05 693.036C209.734 692.657 209.486 692.209 209.307 691.693C209.128 691.166 209.039 690.576 209.039 689.923C209.039 689.28 209.128 688.696 209.307 688.169C209.486 687.642 209.734 687.194 210.05 686.826C210.377 686.446 210.766 686.157 211.219 685.956C211.672 685.756 212.173 685.656 212.721 685.656C213.268 685.656 213.764 685.756 214.206 685.956C214.659 686.157 215.049 686.446 215.376 686.826C215.702 687.194 215.955 687.642 216.134 688.169C216.313 688.696 216.403 689.28 216.403 689.923C216.403 690.576 216.313 691.166 216.134 691.693C215.955 692.209 215.702 692.657 215.376 693.036C215.049 693.405 214.659 693.689 214.206 693.889C213.764 694.09 213.268 694.19 212.721 694.19ZM212.721 693.068C213.405 693.068 213.964 692.857 214.396 692.436C214.828 692.014 215.044 691.371 215.044 690.508V689.338C215.044 688.474 214.828 687.832 214.396 687.41C213.964 686.989 213.405 686.778 212.721 686.778C212.036 686.778 211.478 686.989 211.046 687.41C210.614 687.832 210.398 688.474 210.398 689.338V690.508C210.398 691.371 210.614 692.014 211.046 692.436C211.478 692.857 212.036 693.068 212.721 693.068ZM221.798 694.19C221.229 694.19 220.718 694.09 220.265 693.889C219.812 693.689 219.428 693.405 219.112 693.036C218.806 692.667 218.569 692.22 218.401 691.693C218.243 691.166 218.164 690.576 218.164 689.923C218.164 689.27 218.243 688.68 218.401 688.153C218.569 687.626 218.806 687.178 219.112 686.81C219.428 686.441 219.812 686.157 220.265 685.956C220.718 685.756 221.229 685.656 221.798 685.656C222.609 685.656 223.257 685.835 223.742 686.193C224.237 686.541 224.606 686.999 224.848 687.568L223.789 688.106C223.642 687.684 223.4 687.358 223.062 687.126C222.725 686.894 222.304 686.778 221.798 686.778C221.419 686.778 221.087 686.841 220.803 686.968C220.518 687.084 220.281 687.252 220.091 687.473C219.902 687.684 219.76 687.942 219.665 688.248C219.57 688.543 219.523 688.869 219.523 689.228V690.618C219.523 691.335 219.712 691.925 220.091 692.388C220.481 692.841 221.05 693.068 221.798 693.068C222.82 693.068 223.558 692.594 224.011 691.645L224.927 692.262C224.664 692.852 224.269 693.32 223.742 693.668C223.226 694.016 222.578 694.19 221.798 694.19ZM227.626 683.934C227.352 683.934 227.152 683.87 227.026 683.744C226.91 683.607 226.852 683.433 226.852 683.223V683.017C226.852 682.806 226.91 682.638 227.026 682.511C227.152 682.374 227.352 682.306 227.626 682.306C227.9 682.306 228.095 682.374 228.211 682.511C228.337 682.638 228.4 682.806 228.4 683.017V683.223C228.4 683.433 228.337 683.607 228.211 683.744C228.095 683.87 227.9 683.934 227.626 683.934ZM226.994 685.846H228.258V694H226.994V685.846ZM237.153 694C236.679 694 236.336 693.874 236.126 693.621C235.925 693.368 235.799 693.052 235.746 692.673H235.667C235.488 693.178 235.193 693.558 234.782 693.81C234.371 694.063 233.882 694.19 233.313 694.19C232.449 694.19 231.775 693.968 231.29 693.526C230.816 693.083 230.579 692.483 230.579 691.724C230.579 690.955 230.858 690.365 231.416 689.955C231.985 689.544 232.865 689.338 234.055 689.338H235.667V688.532C235.667 687.953 235.509 687.51 235.193 687.205C234.877 686.899 234.393 686.747 233.739 686.747C233.244 686.747 232.828 686.857 232.491 687.078C232.164 687.3 231.89 687.595 231.669 687.963L230.911 687.252C231.132 686.81 231.485 686.436 231.969 686.13C232.454 685.814 233.065 685.656 233.803 685.656C234.793 685.656 235.562 685.898 236.11 686.383C236.658 686.868 236.932 687.542 236.932 688.406V692.894H237.864V694H237.153ZM233.518 693.115C233.834 693.115 234.124 693.078 234.387 693.004C234.651 692.931 234.877 692.825 235.067 692.688C235.256 692.551 235.404 692.393 235.509 692.214C235.615 692.035 235.667 691.84 235.667 691.63V690.286H233.992C233.265 690.286 232.733 690.392 232.396 690.602C232.07 690.813 231.906 691.119 231.906 691.519V691.851C231.906 692.251 232.049 692.562 232.333 692.783C232.628 693.004 233.023 693.115 233.518 693.115ZM241.752 694C241.309 694 240.972 693.879 240.741 693.637C240.519 693.384 240.409 693.057 240.409 692.657V686.952H239.065V685.846H239.824C240.098 685.846 240.282 685.793 240.377 685.688C240.482 685.572 240.535 685.377 240.535 685.103V683.586H241.673V685.846H243.459V686.952H241.673V692.894H243.332V694H241.752ZM248.777 694.19C248.218 694.19 247.713 694.09 247.26 693.889C246.817 693.689 246.433 693.405 246.106 693.036C245.79 692.657 245.543 692.209 245.363 691.693C245.195 691.166 245.111 690.576 245.111 689.923C245.111 689.28 245.195 688.696 245.363 688.169C245.543 687.642 245.79 687.194 246.106 686.826C246.433 686.446 246.817 686.157 247.26 685.956C247.713 685.756 248.218 685.656 248.777 685.656C249.325 685.656 249.815 685.756 250.246 685.956C250.678 686.157 251.047 686.436 251.353 686.794C251.658 687.142 251.89 687.558 252.048 688.042C252.217 688.527 252.301 689.059 252.301 689.638V690.239H246.438V690.618C246.438 690.966 246.491 691.292 246.596 691.598C246.712 691.893 246.87 692.151 247.07 692.372C247.281 692.594 247.534 692.767 247.829 692.894C248.134 693.02 248.477 693.083 248.856 693.083C249.372 693.083 249.82 692.962 250.199 692.72C250.589 692.478 250.889 692.13 251.1 691.677L252.001 692.325C251.737 692.883 251.326 693.336 250.768 693.684C250.21 694.021 249.546 694.19 248.777 694.19ZM248.777 686.715C248.429 686.715 248.113 686.778 247.829 686.905C247.544 687.02 247.297 687.189 247.086 687.41C246.886 687.632 246.728 687.895 246.612 688.2C246.496 688.495 246.438 688.822 246.438 689.18V689.291H250.942V689.117C250.942 688.39 250.742 687.811 250.341 687.379C249.951 686.936 249.43 686.715 248.777 686.715ZM259.881 692.673H259.818C259.323 693.684 258.527 694.19 257.432 694.19C256.926 694.19 256.468 694.09 256.057 693.889C255.646 693.689 255.293 693.405 254.998 693.036C254.714 692.667 254.492 692.22 254.334 691.693C254.187 691.166 254.113 690.576 254.113 689.923C254.113 689.27 254.187 688.68 254.334 688.153C254.492 687.626 254.714 687.178 254.998 686.81C255.293 686.441 255.646 686.157 256.057 685.956C256.468 685.756 256.926 685.656 257.432 685.656C258.001 685.656 258.485 685.783 258.886 686.035C259.296 686.278 259.607 686.657 259.818 687.173H259.881V682.306H261.145V694H259.881V692.673ZM257.779 693.052C258.064 693.052 258.333 693.015 258.585 692.941C258.849 692.867 259.075 692.762 259.265 692.625C259.454 692.478 259.602 692.304 259.707 692.104C259.823 691.893 259.881 691.656 259.881 691.393V688.358C259.881 688.137 259.823 687.932 259.707 687.742C259.602 687.542 259.454 687.373 259.265 687.236C259.075 687.099 258.849 686.994 258.585 686.92C258.333 686.836 258.064 686.794 257.779 686.794C257.063 686.794 256.499 687.02 256.089 687.473C255.678 687.916 255.472 688.501 255.472 689.228V690.618C255.472 691.345 255.678 691.935 256.089 692.388C256.499 692.831 257.063 693.052 257.779 693.052ZM267.279 685.846H268.511L269.38 689.37L270.25 692.941H270.281L271.277 689.37L272.304 685.846H273.426L274.485 689.37L275.496 692.941H275.528L276.365 689.37L277.25 685.846H278.435L276.27 694H274.706L273.568 690.081L272.857 687.6H272.825L272.13 690.081L270.992 694H269.46L267.279 685.846ZM281.176 683.934C280.902 683.934 280.702 683.87 280.576 683.744C280.46 683.607 280.402 683.433 280.402 683.223V683.017C280.402 682.806 280.46 682.638 280.576 682.511C280.702 682.374 280.902 682.306 281.176 682.306C281.45 682.306 281.645 682.374 281.761 682.511C281.887 682.638 281.951 682.806 281.951 683.017V683.223C281.951 683.433 281.887 683.607 281.761 683.744C281.645 683.87 281.45 683.934 281.176 683.934ZM280.544 685.846H281.808V694H280.544V685.846ZM286.578 694C286.136 694 285.799 693.879 285.567 693.637C285.346 693.384 285.235 693.057 285.235 692.657V686.952H283.892V685.846H284.651C284.924 685.846 285.109 685.793 285.204 685.688C285.309 685.572 285.362 685.377 285.362 685.103V683.586H286.499V685.846H288.285V686.952H286.499V692.894H288.159V694H286.578ZM290.599 682.306H291.864V687.173H291.927C292.127 686.71 292.406 686.341 292.764 686.067C293.133 685.793 293.623 685.656 294.234 685.656C295.077 685.656 295.74 685.93 296.225 686.478C296.72 687.015 296.968 687.779 296.968 688.769V694H295.704V688.991C295.704 687.526 295.087 686.794 293.855 686.794C293.602 686.794 293.354 686.826 293.112 686.889C292.88 686.952 292.669 687.047 292.48 687.173C292.29 687.3 292.137 687.463 292.022 687.663C291.916 687.853 291.864 688.079 291.864 688.343V694H290.599V682.306ZM307.894 694.19C306.493 694.19 305.402 693.716 304.623 692.767C303.843 691.809 303.453 690.402 303.453 688.548C303.453 686.694 303.843 685.272 304.623 684.281C305.402 683.28 306.493 682.78 307.894 682.78C308.821 682.78 309.595 682.991 310.217 683.412C310.849 683.834 311.339 684.429 311.687 685.198L310.612 685.846C310.391 685.277 310.054 684.824 309.601 684.487C309.148 684.139 308.579 683.965 307.894 683.965C307.42 683.965 306.993 684.055 306.614 684.234C306.245 684.413 305.929 684.671 305.666 685.008C305.413 685.335 305.218 685.73 305.081 686.193C304.944 686.646 304.876 687.157 304.876 687.726V689.37C304.876 690.508 305.139 691.398 305.666 692.04C306.192 692.683 306.935 693.004 307.894 693.004C308.6 693.004 309.19 692.825 309.664 692.467C310.138 692.098 310.486 691.614 310.707 691.013L311.766 691.677C311.418 692.457 310.917 693.073 310.264 693.526C309.611 693.968 308.821 694.19 307.894 694.19ZM318.027 694.19C317.311 694.19 316.663 694.068 316.084 693.826C315.515 693.573 315.025 693.21 314.614 692.736C314.214 692.251 313.903 691.656 313.682 690.95C313.46 690.234 313.35 689.412 313.35 688.485C313.35 687.558 313.46 686.741 313.682 686.035C313.903 685.33 314.214 684.734 314.614 684.25C315.025 683.765 315.515 683.402 316.084 683.159C316.663 682.906 317.311 682.78 318.027 682.78C318.733 682.78 319.376 682.906 319.955 683.159C320.535 683.402 321.025 683.765 321.425 684.25C321.836 684.734 322.152 685.33 322.373 686.035C322.594 686.741 322.705 687.558 322.705 688.485C322.705 689.412 322.594 690.234 322.373 690.95C322.152 691.656 321.836 692.251 321.425 692.736C321.025 693.21 320.535 693.573 319.955 693.826C319.376 694.068 318.733 694.19 318.027 694.19ZM318.027 693.004C318.502 693.004 318.939 692.92 319.339 692.752C319.739 692.583 320.082 692.341 320.366 692.025C320.661 691.709 320.888 691.329 321.046 690.887C321.204 690.444 321.283 689.949 321.283 689.401V687.568C321.283 687.02 321.204 686.525 321.046 686.083C320.888 685.64 320.661 685.261 320.366 684.945C320.082 684.629 319.739 684.387 319.339 684.218C318.939 684.05 318.502 683.965 318.027 683.965C317.553 683.965 317.116 684.05 316.716 684.218C316.315 684.387 315.968 684.629 315.673 684.945C315.388 685.261 315.167 685.64 315.009 686.083C314.851 686.525 314.772 687.02 314.772 687.568V689.401C314.772 689.949 314.851 690.444 315.009 690.887C315.167 691.329 315.388 691.709 315.673 692.025C315.968 692.341 316.315 692.583 316.716 692.752C317.116 692.92 317.553 693.004 318.027 693.004ZM325.374 694V682.97H329.767C330.757 682.97 331.516 683.254 332.042 683.823C332.58 684.381 332.848 685.15 332.848 686.13C332.848 687.11 332.58 687.884 332.042 688.453C331.516 689.012 330.757 689.291 329.767 689.291H326.701V694H325.374ZM326.701 688.121H329.767C330.293 688.121 330.699 687.984 330.984 687.711C331.279 687.437 331.426 687.047 331.426 686.541V685.719C331.426 685.214 331.279 684.824 330.984 684.55C330.699 684.276 330.293 684.139 329.767 684.139H326.701V688.121ZM335.239 682.97H338.937C339.622 682.97 340.243 683.086 340.802 683.317C341.36 683.549 341.834 683.897 342.224 684.36C342.624 684.813 342.93 685.388 343.141 686.083C343.351 686.768 343.457 687.568 343.457 688.485C343.457 689.401 343.351 690.207 343.141 690.903C342.93 691.587 342.624 692.162 342.224 692.625C341.834 693.078 341.36 693.421 340.802 693.652C340.243 693.884 339.622 694 338.937 694H335.239V682.97ZM338.937 692.831C339.39 692.831 339.806 692.757 340.185 692.609C340.565 692.451 340.891 692.225 341.165 691.93C341.439 691.635 341.65 691.277 341.797 690.855C341.955 690.423 342.034 689.933 342.034 689.386V687.584C342.034 687.036 341.955 686.552 341.797 686.13C341.65 685.698 341.439 685.335 341.165 685.04C340.891 684.745 340.565 684.524 340.185 684.376C339.806 684.218 339.39 684.139 338.937 684.139H336.567V692.831H338.937Z" fill="#607D8B"/>
<g filter="url(#filter0_d)">
<rect x="20" y="16" width="347" height="610" rx="20" fill="white"/>
<path d="M39.7398 41.4543H43.9659C44.7486 41.4543 45.4589 41.5867 46.097 41.8516C46.7352 42.1165 47.277 42.5138 47.7225 43.0436C48.18 43.5613 48.5292 44.2175 48.77 45.0121C49.0108 45.7947 49.1312 46.7098 49.1312 47.7573C49.1312 48.8048 49.0108 49.7258 48.77 50.5205C48.5292 51.3031 48.18 51.9593 47.7225 52.4891C47.277 53.0068 46.7352 53.3981 46.097 53.663C45.4589 53.9279 44.7486 54.0603 43.9659 54.0603H39.7398V41.4543ZM43.9659 52.7238C44.4837 52.7238 44.9593 52.6396 45.3927 52.471C45.8261 52.2904 46.1994 52.0315 46.5124 51.6944C46.8255 51.3573 47.0663 50.9479 47.2348 50.4663C47.4154 49.9727 47.5057 49.4128 47.5057 48.7867V46.7278C47.5057 46.1018 47.4154 45.5479 47.2348 45.0663C47.0663 44.5727 46.8255 44.1573 46.5124 43.8201C46.1994 43.483 45.8261 43.2302 45.3927 43.0616C44.9593 42.881 44.4837 42.7907 43.9659 42.7907H41.2569V52.7238H43.9659ZM58.9812 54.0603C58.4394 54.0603 58.0481 53.9158 57.8073 53.6269C57.5785 53.3379 57.434 52.9767 57.3738 52.5432H57.2835C57.0789 53.1212 56.7417 53.5546 56.2722 53.8436C55.8026 54.1325 55.2427 54.277 54.5926 54.277C53.6053 54.277 52.8347 54.0242 52.2808 53.5185C51.739 53.0128 51.4681 52.3265 51.4681 51.4596C51.4681 50.5807 51.7872 49.9064 52.4253 49.4369C53.0755 48.9673 54.0809 48.7325 55.4414 48.7325H57.2835V47.8115C57.2835 47.1493 57.1029 46.6436 56.7417 46.2944C56.3805 45.9452 55.8267 45.7707 55.0802 45.7707C54.5143 45.7707 54.0387 45.8971 53.6534 46.1499C53.2802 46.4028 52.9671 46.7399 52.7143 47.1613L51.8474 46.3486C52.1002 45.8429 52.5036 45.4155 53.0574 45.0663C53.6113 44.7051 54.3096 44.5245 55.1524 44.5245C56.2842 44.5245 57.1631 44.8014 57.7892 45.3553C58.4153 45.9091 58.7284 46.6797 58.7284 47.667V52.7961H59.7939V54.0603H58.9812ZM54.8273 53.0489C55.1885 53.0489 55.5196 53.0068 55.8207 52.9225C56.1217 52.8382 56.3805 52.7178 56.5972 52.5613C56.814 52.4048 56.9825 52.2242 57.1029 52.0195C57.2233 51.8148 57.2835 51.5921 57.2835 51.3513V49.8161H55.3691C54.5384 49.8161 53.9303 49.9365 53.5451 50.1774C53.1718 50.4182 52.9852 50.7673 52.9852 51.2248V51.6041C52.9852 52.0616 53.1477 52.4168 53.4728 52.6697C53.8099 52.9225 54.2615 53.0489 54.8273 53.0489ZM64.4115 54.0603C63.9059 54.0603 63.5206 53.9218 63.2557 53.6449C63.0028 53.356 62.8764 52.9827 62.8764 52.5252V46.0054H61.3413V44.7412H62.2082C62.5212 44.7412 62.7319 44.681 62.8403 44.5606C62.9607 44.4282 63.0209 44.2054 63.0209 43.8924V42.1586H64.3212V44.7412H66.362V46.0054H64.3212V52.7961H66.2176V54.0603H64.4115ZM75.9536 54.0603C75.4118 54.0603 75.0205 53.9158 74.7797 53.6269C74.5509 53.3379 74.4064 52.9767 74.3462 52.5432H74.2559C74.0512 53.1212 73.7141 53.5546 73.2446 53.8436C72.775 54.1325 72.2151 54.277 71.565 54.277C70.5777 54.277 69.8071 54.0242 69.2532 53.5185C68.7114 53.0128 68.4405 52.3265 68.4405 51.4596C68.4405 50.5807 68.7596 49.9064 69.3977 49.4369C70.0479 48.9673 71.0532 48.7325 72.4138 48.7325H74.2559V47.8115C74.2559 47.1493 74.0753 46.6436 73.7141 46.2944C73.3529 45.9452 72.7991 45.7707 72.0526 45.7707C71.4867 45.7707 71.0111 45.8971 70.6258 46.1499C70.2526 46.4028 69.9395 46.7399 69.6867 47.1613L68.8198 46.3486C69.0726 45.8429 69.476 45.4155 70.0298 45.0663C70.5837 44.7051 71.282 44.5245 72.1248 44.5245C73.2566 44.5245 74.1355 44.8014 74.7616 45.3553C75.3877 45.9091 75.7007 46.6797 75.7007 47.667V52.7961H76.7663V54.0603H75.9536ZM71.7997 53.0489C72.1609 53.0489 72.492 53.0068 72.793 52.9225C73.0941 52.8382 73.3529 52.7178 73.5696 52.5613C73.7864 52.4048 73.9549 52.2242 74.0753 52.0195C74.1957 51.8148 74.2559 51.5921 74.2559 51.3513V49.8161H72.3415C71.5108 49.8161 70.9027 49.9365 70.5175 50.1774C70.1442 50.4182 69.9576 50.7673 69.9576 51.2248V51.6041C69.9576 52.0616 70.1201 52.4168 70.4452 52.6697C70.7823 52.9225 71.2338 53.0489 71.7997 53.0489ZM92.1267 54.0603L90.8625 50.3399H85.7695L84.5053 54.0603H82.9701L87.3768 41.4543H89.3093L93.716 54.0603H92.1267ZM88.3521 42.863H88.2618L86.1307 49.0034H90.4832L88.3521 42.863ZM96.1564 54.0603V44.7412H97.6012V46.2583H97.6734C97.9022 45.7285 98.2213 45.3071 98.6306 44.9941C99.052 44.681 99.6119 44.5245 100.31 44.5245C101.273 44.5245 102.032 44.8375 102.586 45.4636C103.152 46.0777 103.435 46.9506 103.435 48.0824V54.0603H101.99V48.3352C101.99 46.6616 101.285 45.8248 99.8768 45.8248C99.5878 45.8248 99.3049 45.861 99.0279 45.9332C98.7631 46.0054 98.5223 46.1138 98.3055 46.2583C98.0888 46.4028 97.9142 46.5894 97.7818 46.8181C97.6614 47.0349 97.6012 47.2937 97.6012 47.5947V54.0603H96.1564ZM113.69 54.0603C113.149 54.0603 112.757 53.9158 112.516 53.6269C112.288 53.3379 112.143 52.9767 112.083 52.5432H111.993C111.788 53.1212 111.451 53.5546 110.981 53.8436C110.512 54.1325 109.952 54.277 109.302 54.277C108.314 54.277 107.544 54.0242 106.99 53.5185C106.448 53.0128 106.177 52.3265 106.177 51.4596C106.177 50.5807 106.496 49.9064 107.134 49.4369C107.785 48.9673 108.79 48.7325 110.151 48.7325H111.993V47.8115C111.993 47.1493 111.812 46.6436 111.451 46.2944C111.09 45.9452 110.536 45.7707 109.789 45.7707C109.223 45.7707 108.748 45.8971 108.363 46.1499C107.989 46.4028 107.676 46.7399 107.423 47.1613L106.557 46.3486C106.809 45.8429 107.213 45.4155 107.767 45.0663C108.32 44.7051 109.019 44.5245 109.862 44.5245C110.993 44.5245 111.872 44.8014 112.498 45.3553C113.124 45.9091 113.437 46.6797 113.437 47.667V52.7961H114.503V54.0603H113.69ZM109.536 53.0489C109.898 53.0489 110.229 53.0068 110.53 52.9225C110.831 52.8382 111.09 52.7178 111.306 52.5613C111.523 52.4048 111.692 52.2242 111.812 52.0195C111.932 51.8148 111.993 51.5921 111.993 51.3513V49.8161H110.078C109.247 49.8161 108.639 49.9365 108.254 50.1774C107.881 50.4182 107.694 50.7673 107.694 51.2248V51.6041C107.694 52.0616 107.857 52.4168 108.182 52.6697C108.519 52.9225 108.971 53.0489 109.536 53.0489ZM118.597 54.0603C118.091 54.0603 117.706 53.9218 117.441 53.6449C117.188 53.356 117.062 52.9947 117.062 52.5613V40.6957H118.507V52.7961H119.879V54.0603H118.597ZM128.046 44.7412H129.473L125.301 56.2275C125.192 56.5045 125.084 56.7332 124.976 56.9138C124.867 57.1065 124.735 57.257 124.578 57.3653C124.422 57.4737 124.223 57.5519 123.982 57.6001C123.754 57.6483 123.471 57.6724 123.134 57.6724H122.393V56.4081H123.856L124.56 54.4215L121.075 44.7412H122.52L124.759 51.0804L125.192 52.5974H125.283L125.788 51.0804L128.046 44.7412ZM134.541 54.277C133.674 54.277 132.945 54.1145 132.355 53.7894C131.778 53.4523 131.278 53.0068 130.856 52.4529L131.886 51.6222C132.247 52.0797 132.65 52.4349 133.096 52.6877C133.541 52.9285 134.059 53.0489 134.649 53.0489C135.263 53.0489 135.739 52.9165 136.076 52.6516C136.425 52.3867 136.6 52.0135 136.6 51.5319C136.6 51.1707 136.479 50.8636 136.238 50.6108C136.01 50.3459 135.588 50.1653 134.974 50.069L134.234 49.9606C133.8 49.9004 133.403 49.8101 133.042 49.6897C132.681 49.5573 132.361 49.3887 132.085 49.184C131.82 48.9673 131.609 48.7024 131.452 48.3894C131.308 48.0763 131.236 47.7031 131.236 47.2697C131.236 46.8121 131.32 46.4148 131.489 46.0777C131.657 45.7285 131.886 45.4395 132.175 45.2108C132.476 44.982 132.831 44.8135 133.24 44.7051C133.65 44.5847 134.089 44.5245 134.559 44.5245C135.317 44.5245 135.949 44.6569 136.455 44.9218C136.973 45.1867 137.424 45.5539 137.81 46.0235L136.852 46.8904C136.648 46.6014 136.347 46.3426 135.949 46.1138C135.552 45.873 135.052 45.7526 134.45 45.7526C133.848 45.7526 133.391 45.885 133.078 46.1499C132.777 46.4028 132.626 46.7519 132.626 47.1974C132.626 47.6549 132.777 47.986 133.078 48.1907C133.391 48.3954 133.836 48.5459 134.414 48.6422L135.137 48.7506C136.172 48.9071 136.907 49.2081 137.34 49.6536C137.774 50.087 137.99 50.659 137.99 51.3693C137.99 52.2723 137.683 52.9827 137.069 53.5004C136.455 54.0182 135.612 54.277 134.541 54.277ZM141.761 42.5559C141.448 42.5559 141.219 42.4837 141.075 42.3392C140.943 42.1827 140.876 41.984 140.876 41.7432V41.5084C140.876 41.2676 140.943 41.075 141.075 40.9305C141.219 40.774 141.448 40.6957 141.761 40.6957C142.074 40.6957 142.297 40.774 142.43 40.9305C142.574 41.075 142.646 41.2676 142.646 41.5084V41.7432C142.646 41.984 142.574 42.1827 142.43 42.3392C142.297 42.4837 142.074 42.5559 141.761 42.5559ZM141.039 44.7412H142.484V54.0603H141.039V44.7412ZM148.85 54.277C147.983 54.277 147.255 54.1145 146.665 53.7894C146.087 53.4523 145.587 53.0068 145.166 52.4529L146.195 51.6222C146.556 52.0797 146.96 52.4349 147.405 52.6877C147.851 52.9285 148.368 53.0489 148.958 53.0489C149.572 53.0489 150.048 52.9165 150.385 52.6516C150.734 52.3867 150.909 52.0135 150.909 51.5319C150.909 51.1707 150.788 50.8636 150.548 50.6108C150.319 50.3459 149.897 50.1653 149.283 50.069L148.543 49.9606C148.109 49.9004 147.712 49.8101 147.351 49.6897C146.99 49.5573 146.671 49.3887 146.394 49.184C146.129 48.9673 145.918 48.7024 145.762 48.3894C145.617 48.0763 145.545 47.7031 145.545 47.2697C145.545 46.8121 145.629 46.4148 145.798 46.0777C145.966 45.7285 146.195 45.4395 146.484 45.2108C146.785 44.982 147.14 44.8135 147.55 44.7051C147.959 44.5847 148.398 44.5245 148.868 44.5245C149.627 44.5245 150.259 44.6569 150.764 44.9218C151.282 45.1867 151.734 45.5539 152.119 46.0235L151.162 46.8904C150.957 46.6014 150.656 46.3426 150.259 46.1138C149.861 45.873 149.362 45.7526 148.76 45.7526C148.158 45.7526 147.7 45.885 147.387 46.1499C147.086 46.4028 146.936 46.7519 146.936 47.1974C146.936 47.6549 147.086 47.986 147.387 48.1907C147.7 48.3954 148.146 48.5459 148.724 48.6422L149.446 48.7506C150.481 48.9071 151.216 49.2081 151.649 49.6536C152.083 50.087 152.299 50.659 152.299 51.3693C152.299 52.2723 151.992 52.9827 151.378 53.5004C150.764 54.0182 149.922 54.277 148.85 54.277Z" fill="#263238"/>
<path d="M43.4174 80.3402C42.0162 80.3402 40.9258 79.8662 40.1462 78.918C39.3666 77.9593 38.9768 76.5529 38.9768 74.6987C38.9768 72.8445 39.3666 71.4222 40.1462 70.4319C40.9258 69.4311 42.0162 68.9307 43.4174 68.9307C44.3445 68.9307 45.1188 69.1414 45.7404 69.5628C46.3725 69.9842 46.8624 70.5794 47.21 71.3485L46.1354 71.9964C45.9142 71.4275 45.5771 70.9745 45.1241 70.6374C44.671 70.2897 44.1021 70.1159 43.4174 70.1159C42.9433 70.1159 42.5166 70.2054 42.1373 70.3845C41.7686 70.5636 41.4526 70.8217 41.1892 71.1589C40.9363 71.4855 40.7414 71.8805 40.6045 72.3441C40.4675 72.7971 40.399 73.308 40.399 73.8769V75.5204C40.399 76.6582 40.6624 77.5484 41.1892 78.1911C41.7159 78.8337 42.4587 79.155 43.4174 79.155C44.1232 79.155 44.7132 78.9759 45.1873 78.6177C45.6613 78.249 46.009 77.7644 46.2302 77.1639L47.289 77.8276C46.9414 78.6072 46.4409 79.2235 45.7878 79.6765C45.1346 80.119 44.3445 80.3402 43.4174 80.3402ZM53.5509 80.3402C52.8345 80.3402 52.1866 80.2191 51.6072 79.9768C51.0383 79.7239 50.5484 79.3605 50.1376 78.8864C49.7372 78.4018 49.4264 77.8065 49.2052 77.1007C48.984 76.3843 48.8733 75.5626 48.8733 74.6355C48.8733 73.7084 48.984 72.8919 49.2052 72.186C49.4264 71.4802 49.7372 70.8849 50.1376 70.4003C50.5484 69.9157 51.0383 69.5523 51.6072 69.3099C52.1866 69.0571 52.8345 68.9307 53.5509 68.9307C54.2568 68.9307 54.8994 69.0571 55.4789 69.3099C56.0583 69.5523 56.5482 69.9157 56.9485 70.4003C57.3594 70.8849 57.6754 71.4802 57.8967 72.186C58.1179 72.8919 58.2285 73.7084 58.2285 74.6355C58.2285 75.5626 58.1179 76.3843 57.8967 77.1007C57.6754 77.8065 57.3594 78.4018 56.9485 78.8864C56.5482 79.3605 56.0583 79.7239 55.4789 79.9768C54.8994 80.2191 54.2568 80.3402 53.5509 80.3402ZM53.5509 79.155C54.025 79.155 54.4622 79.0708 54.8626 78.9022C55.2629 78.7336 55.6053 78.4913 55.8897 78.1753C56.1847 77.8592 56.4112 77.4799 56.5693 77.0375C56.7273 76.595 56.8063 76.0998 56.8063 75.552V73.7189C56.8063 73.1711 56.7273 72.6759 56.5693 72.2334C56.4112 71.791 56.1847 71.4117 55.8897 71.0957C55.6053 70.7796 55.2629 70.5373 54.8626 70.3687C54.4622 70.2002 54.025 70.1159 53.5509 70.1159C53.0769 70.1159 52.6396 70.2002 52.2393 70.3687C51.839 70.5373 51.4913 70.7796 51.1963 71.0957C50.9119 71.4117 50.6906 71.791 50.5326 72.2334C50.3746 72.6759 50.2956 73.1711 50.2956 73.7189V75.552C50.2956 76.0998 50.3746 76.595 50.5326 77.0375C50.6906 77.4799 50.9119 77.8592 51.1963 78.1753C51.4913 78.4913 51.839 78.7336 52.2393 78.9022C52.6396 79.0708 53.0769 79.155 53.5509 79.155ZM60.8971 80.1506V69.1203H65.2902C66.2805 69.1203 67.039 69.4048 67.5658 69.9737C68.1031 70.532 68.3717 71.3011 68.3717 72.2809C68.3717 73.2606 68.1031 74.035 67.5658 74.6039C67.039 75.1622 66.2805 75.4414 65.2902 75.4414H62.2245V80.1506H60.8971ZM62.2245 74.272H65.2902C65.817 74.272 66.2226 74.135 66.507 73.8611C66.802 73.5872 66.9495 73.1974 66.9495 72.6917V71.87C66.9495 71.3643 66.802 70.9745 66.507 70.7006C66.2226 70.4267 65.817 70.2897 65.2902 70.2897H62.2245V74.272ZM70.7627 69.1203H74.4606C75.1453 69.1203 75.7669 69.2362 76.3253 69.468C76.8836 69.6997 77.3577 70.0474 77.7475 70.511C78.1479 70.964 78.4534 71.5381 78.6641 72.2334C78.8748 72.9182 78.9801 73.7189 78.9801 74.6355C78.9801 75.552 78.8748 76.358 78.6641 77.0533C78.4534 77.7381 78.1479 78.3122 77.7475 78.7758C77.3577 79.2288 76.8836 79.5712 76.3253 79.8029C75.7669 80.0347 75.1453 80.1506 74.4606 80.1506H70.7627V69.1203ZM74.4606 78.9812C74.9136 78.9812 75.3297 78.9075 75.709 78.76C76.0882 78.6019 76.4148 78.3754 76.6887 78.0804C76.9627 77.7855 77.1734 77.4273 77.3209 77.0059C77.4789 76.5739 77.5579 76.084 77.5579 75.5362V73.7347C77.5579 73.1869 77.4789 72.7023 77.3209 72.2809C77.1734 71.8489 76.9627 71.4855 76.6887 71.1905C76.4148 70.8955 76.0882 70.6742 75.709 70.5268C75.3297 70.3687 74.9136 70.2897 74.4606 70.2897H72.0902V78.9812H74.4606ZM92.8066 78.5387H92.7592C92.6222 79.0549 92.2851 79.4869 91.7478 79.8346C91.221 80.1717 90.5363 80.3402 89.6934 80.3402C89.0192 80.3402 88.3976 80.2191 87.8287 79.9768C87.2704 79.7239 86.791 79.3605 86.3907 78.8864C85.9903 78.4018 85.6743 77.8065 85.4425 77.1007C85.2213 76.3843 85.1107 75.5626 85.1107 74.6355C85.1107 73.7189 85.2213 72.9077 85.4425 72.2018C85.6638 71.4855 85.9798 70.8902 86.3907 70.4161C86.8015 69.9315 87.2967 69.5628 87.8761 69.3099C88.4556 69.0571 89.0982 68.9307 89.8041 68.9307C90.7944 68.9307 91.6214 69.1519 92.2851 69.5944C92.9488 70.0369 93.4598 70.6216 93.8179 71.3485L92.7276 72.0122C92.4747 71.4222 92.0955 70.9587 91.5898 70.6216C91.0946 70.2844 90.4994 70.1159 89.8041 70.1159C89.3194 70.1159 88.877 70.2054 88.4766 70.3845C88.0763 70.5531 87.7286 70.7954 87.4337 71.1115C87.1492 71.4275 86.928 71.8068 86.7699 72.2492C86.6119 72.6917 86.5329 73.1869 86.5329 73.7347V75.5204C86.5329 76.0682 86.6119 76.5687 86.7699 77.0217C86.928 77.4641 87.1492 77.8434 87.4337 78.1595C87.7286 78.4755 88.0868 78.7231 88.5082 78.9022C88.9296 79.0708 89.4037 79.155 89.9305 79.155C90.3097 79.155 90.6679 79.1076 91.0051 79.0128C91.3527 78.9075 91.653 78.7547 91.9058 78.5545C92.1692 78.3544 92.3746 78.1068 92.5221 77.8118C92.6696 77.5063 92.7434 77.1481 92.7434 76.7372V75.6468H90.3097V74.4774H94.0392V80.1506H92.8066V78.5387ZM99.8731 80.3402C99.3147 80.3402 98.809 80.2402 98.356 80.04C97.9135 79.8398 97.529 79.5554 97.2024 79.1866C96.8864 78.8074 96.6388 78.3596 96.4597 77.8434C96.2911 77.3167 96.2068 76.7267 96.2068 76.0735C96.2068 75.4309 96.2911 74.8462 96.4597 74.3194C96.6388 73.7926 96.8864 73.3449 97.2024 72.9762C97.529 72.5969 97.9135 72.3072 98.356 72.107C98.809 71.9069 99.3147 71.8068 99.8731 71.8068C100.421 71.8068 100.911 71.9069 101.343 72.107C101.775 72.3072 102.143 72.5864 102.449 72.9446C102.754 73.2922 102.986 73.7084 103.144 74.193C103.313 74.6776 103.397 75.2096 103.397 75.7891V76.3896H97.5343V76.7688C97.5343 77.1165 97.5869 77.4431 97.6923 77.7486C97.8082 78.0436 97.9662 78.3017 98.1664 78.5229C98.3771 78.7442 98.6299 78.918 98.9249 79.0444C99.2304 79.1708 99.5728 79.234 99.9521 79.234C100.468 79.234 100.916 79.1129 101.295 78.8706C101.685 78.6283 101.985 78.2806 102.196 77.8276L103.097 78.4755C102.833 79.0339 102.423 79.4869 101.864 79.8346C101.306 80.1717 100.642 80.3402 99.8731 80.3402ZM99.8731 72.8656C99.5254 72.8656 99.2094 72.9288 98.9249 73.0552C98.6405 73.1711 98.3929 73.3396 98.1822 73.5609C97.982 73.7821 97.824 74.0455 97.7081 74.351C97.5922 74.646 97.5343 74.9726 97.5343 75.3308V75.4414H102.038V75.2676C102.038 74.5406 101.838 73.9612 101.438 73.5293C101.048 73.0868 100.526 72.8656 99.8731 72.8656ZM105.763 80.1506V71.9964H107.027V73.3238H107.09C107.29 72.8603 107.569 72.4916 107.927 72.2176C108.296 71.9437 108.786 71.8068 109.397 71.8068C110.24 71.8068 110.904 72.0807 111.388 72.6285C111.883 73.1658 112.131 73.9296 112.131 74.9199V80.1506H110.867V75.1411C110.867 73.6768 110.25 72.9446 109.018 72.9446C108.765 72.9446 108.517 72.9762 108.275 73.0394C108.043 73.1026 107.833 73.1974 107.643 73.3238C107.453 73.4503 107.301 73.6135 107.185 73.8137C107.079 74.0033 107.027 74.2299 107.027 74.4932V80.1506H105.763ZM118.092 80.3402C117.534 80.3402 117.028 80.2402 116.575 80.04C116.133 79.8398 115.748 79.5554 115.421 79.1866C115.105 78.8074 114.858 78.3596 114.679 77.8434C114.51 77.3167 114.426 76.7267 114.426 76.0735C114.426 75.4309 114.51 74.8462 114.679 74.3194C114.858 73.7926 115.105 73.3449 115.421 72.9762C115.748 72.5969 116.133 72.3072 116.575 72.107C117.028 71.9069 117.534 71.8068 118.092 71.8068C118.64 71.8068 119.13 71.9069 119.562 72.107C119.994 72.3072 120.362 72.5864 120.668 72.9446C120.973 73.2922 121.205 73.7084 121.363 74.193C121.532 74.6776 121.616 75.2096 121.616 75.7891V76.3896H115.753V76.7688C115.753 77.1165 115.806 77.4431 115.911 77.7486C116.027 78.0436 116.185 78.3017 116.385 78.5229C116.596 78.7442 116.849 78.918 117.144 79.0444C117.449 79.1708 117.792 79.234 118.171 79.234C118.687 79.234 119.135 79.1129 119.514 78.8706C119.904 78.6283 120.204 78.2806 120.415 77.8276L121.316 78.4755C121.052 79.0339 120.642 79.4869 120.083 79.8346C119.525 80.1717 118.861 80.3402 118.092 80.3402ZM118.092 72.8656C117.744 72.8656 117.428 72.9288 117.144 73.0552C116.859 73.1711 116.612 73.3396 116.401 73.5609C116.201 73.7821 116.043 74.0455 115.927 74.351C115.811 74.646 115.753 74.9726 115.753 75.3308V75.4414H120.257V75.2676C120.257 74.5406 120.057 73.9612 119.657 73.5293C119.267 73.0868 118.745 72.8656 118.092 72.8656ZM125.783 80.1506C125.341 80.1506 125.003 80.0295 124.772 79.7871C124.55 79.5343 124.44 79.2077 124.44 78.8074V73.1026H123.097V71.9964H123.855C124.129 71.9964 124.313 71.9437 124.408 71.8384C124.514 71.7225 124.566 71.5276 124.566 71.2537V69.7366H125.704V71.9964H127.49V73.1026H125.704V79.0444H127.363V80.1506H125.783ZM130.436 70.0843C130.162 70.0843 129.962 70.0211 129.835 69.8946C129.72 69.7577 129.662 69.5839 129.662 69.3732V69.1677C129.662 68.957 129.72 68.7885 129.835 68.662C129.962 68.5251 130.162 68.4566 130.436 68.4566C130.71 68.4566 130.905 68.5251 131.021 68.662C131.147 68.7885 131.21 68.957 131.21 69.1677V69.3732C131.21 69.5839 131.147 69.7577 131.021 69.8946C130.905 70.0211 130.71 70.0843 130.436 70.0843ZM129.804 71.9964H131.068V80.1506H129.804V71.9964ZM137.071 80.3402C136.502 80.3402 135.991 80.2402 135.538 80.04C135.085 79.8398 134.7 79.5554 134.384 79.1866C134.079 78.8179 133.842 78.3702 133.673 77.8434C133.515 77.3167 133.436 76.7267 133.436 76.0735C133.436 75.4203 133.515 74.8304 133.673 74.3036C133.842 73.7768 134.079 73.3291 134.384 72.9604C134.7 72.5916 135.085 72.3072 135.538 72.107C135.991 71.9069 136.502 71.8068 137.071 71.8068C137.882 71.8068 138.53 71.9859 139.015 72.3441C139.51 72.6917 139.878 73.15 140.121 73.7189L139.062 74.2562C138.915 73.8348 138.672 73.5082 138.335 73.2764C137.998 73.0447 137.577 72.9288 137.071 72.9288C136.692 72.9288 136.36 72.992 136.075 73.1184C135.791 73.2343 135.554 73.4028 135.364 73.6241C135.175 73.8348 135.032 74.0929 134.938 74.3984C134.843 74.6934 134.795 75.02 134.795 75.3782V76.7688C134.795 77.4852 134.985 78.0752 135.364 78.5387C135.754 78.9917 136.323 79.2182 137.071 79.2182C138.093 79.2182 138.83 78.7442 139.283 77.796L140.2 78.4123C139.936 79.0023 139.541 79.4711 139.015 79.8187C138.498 80.1664 137.85 80.3402 137.071 80.3402ZM153.316 80.1506L152.209 76.8952H147.753L146.647 80.1506H145.304L149.16 69.1203H150.85L154.706 80.1506H153.316ZM150.013 70.3529H149.934L148.069 75.7258H151.878L150.013 70.3529ZM159.139 80.3402C158.38 80.3402 157.743 80.198 157.227 79.9136C156.721 79.6186 156.284 79.2288 155.915 78.7442L156.816 78.0172C157.132 78.4176 157.485 78.7284 157.874 78.9496C158.264 79.1603 158.717 79.2657 159.233 79.2657C159.771 79.2657 160.187 79.1498 160.482 78.918C160.787 78.6862 160.94 78.3596 160.94 77.9382C160.94 77.6222 160.835 77.3535 160.624 77.1323C160.424 76.9005 160.055 76.7425 159.518 76.6582L158.87 76.5634C158.491 76.5107 158.143 76.4317 157.827 76.3263C157.511 76.2105 157.232 76.063 156.989 75.8839C156.758 75.6942 156.573 75.4625 156.436 75.1886C156.31 74.9146 156.247 74.5881 156.247 74.2088C156.247 73.8084 156.32 73.4608 156.468 73.1658C156.615 72.8603 156.816 72.6074 157.068 72.4073C157.332 72.2071 157.643 72.0596 158.001 71.9648C158.359 71.8594 158.744 71.8068 159.154 71.8068C159.818 71.8068 160.371 71.9227 160.814 72.1544C161.267 72.3862 161.662 72.7075 161.999 73.1184L161.161 73.8769C160.982 73.6241 160.719 73.3976 160.371 73.1974C160.024 72.9867 159.586 72.8814 159.06 72.8814C158.533 72.8814 158.133 72.9972 157.859 73.229C157.595 73.4503 157.464 73.7558 157.464 74.1456C157.464 74.5459 157.595 74.8356 157.859 75.0147C158.133 75.1938 158.522 75.3255 159.028 75.4098L159.66 75.5046C160.566 75.6416 161.209 75.9049 161.588 76.2947C161.967 76.674 162.157 77.1744 162.157 77.796C162.157 78.5861 161.888 79.2077 161.351 79.6607C160.814 80.1137 160.076 80.3402 159.139 80.3402ZM167.029 80.3402C166.27 80.3402 165.633 80.198 165.117 79.9136C164.611 79.6186 164.174 79.2288 163.805 78.7442L164.706 78.0172C165.022 78.4176 165.375 78.7284 165.765 78.9496C166.155 79.1603 166.608 79.2657 167.124 79.2657C167.661 79.2657 168.077 79.1498 168.372 78.918C168.678 78.6862 168.83 78.3596 168.83 77.9382C168.83 77.6222 168.725 77.3535 168.514 77.1323C168.314 76.9005 167.946 76.7425 167.408 76.6582L166.76 76.5634C166.381 76.5107 166.033 76.4317 165.717 76.3263C165.401 76.2105 165.122 76.063 164.88 75.8839C164.648 75.6942 164.464 75.4625 164.327 75.1886C164.2 74.9146 164.137 74.5881 164.137 74.2088C164.137 73.8084 164.211 73.4608 164.358 73.1658C164.506 72.8603 164.706 72.6074 164.959 72.4073C165.222 72.2071 165.533 72.0596 165.891 71.9648C166.249 71.8594 166.634 71.8068 167.045 71.8068C167.708 71.8068 168.262 71.9227 168.704 72.1544C169.157 72.3862 169.552 72.7075 169.889 73.1184L169.052 73.8769C168.873 73.6241 168.609 73.3976 168.262 73.1974C167.914 72.9867 167.477 72.8814 166.95 72.8814C166.423 72.8814 166.023 72.9972 165.749 73.229C165.486 73.4503 165.354 73.7558 165.354 74.1456C165.354 74.5459 165.486 74.8356 165.749 75.0147C166.023 75.1938 166.413 75.3255 166.918 75.4098L167.55 75.5046C168.456 75.6416 169.099 75.9049 169.478 76.2947C169.858 76.674 170.047 77.1744 170.047 77.796C170.047 78.5861 169.779 79.2077 169.241 79.6607C168.704 80.1137 167.967 80.3402 167.029 80.3402ZM175.644 80.3402C175.096 80.3402 174.596 80.2402 174.143 80.04C173.69 79.8398 173.3 79.5554 172.973 79.1866C172.657 78.8074 172.41 78.3596 172.231 77.8434C172.052 77.3167 171.962 76.7267 171.962 76.0735C171.962 75.4309 172.052 74.8462 172.231 74.3194C172.41 73.7926 172.657 73.3449 172.973 72.9762C173.3 72.5969 173.69 72.3072 174.143 72.107C174.596 71.9069 175.096 71.8068 175.644 71.8068C176.192 71.8068 176.687 71.9069 177.129 72.107C177.582 72.3072 177.972 72.5969 178.299 72.9762C178.625 73.3449 178.878 73.7926 179.057 74.3194C179.236 74.8462 179.326 75.4309 179.326 76.0735C179.326 76.7267 179.236 77.3167 179.057 77.8434C178.878 78.3596 178.625 78.8074 178.299 79.1866C177.972 79.5554 177.582 79.8398 177.129 80.04C176.687 80.2402 176.192 80.3402 175.644 80.3402ZM175.644 79.2182C176.329 79.2182 176.887 79.0075 177.319 78.5861C177.751 78.1647 177.967 77.5221 177.967 76.6582V75.4888C177.967 74.6249 177.751 73.9823 177.319 73.5609C176.887 73.1395 176.329 72.9288 175.644 72.9288C174.959 72.9288 174.401 73.1395 173.969 73.5609C173.537 73.9823 173.321 74.6249 173.321 75.4888V76.6582C173.321 77.5221 173.537 78.1647 173.969 78.5861C174.401 79.0075 174.959 79.2182 175.644 79.2182ZM184.721 80.3402C184.153 80.3402 183.642 80.2402 183.189 80.04C182.736 79.8398 182.351 79.5554 182.035 79.1866C181.73 78.8179 181.492 78.3702 181.324 77.8434C181.166 77.3167 181.087 76.7267 181.087 76.0735C181.087 75.4203 181.166 74.8304 181.324 74.3036C181.492 73.7768 181.73 73.3291 182.035 72.9604C182.351 72.5916 182.736 72.3072 183.189 72.107C183.642 71.9069 184.153 71.8068 184.721 71.8068C185.533 71.8068 186.181 71.9859 186.665 72.3441C187.16 72.6917 187.529 73.15 187.771 73.7189L186.713 74.2562C186.565 73.8348 186.323 73.5082 185.986 73.2764C185.649 73.0447 185.227 72.9288 184.721 72.9288C184.342 72.9288 184.01 72.992 183.726 73.1184C183.441 73.2343 183.204 73.4028 183.015 73.6241C182.825 73.8348 182.683 74.0929 182.588 74.3984C182.493 74.6934 182.446 75.02 182.446 75.3782V76.7688C182.446 77.4852 182.636 78.0752 183.015 78.5387C183.405 78.9917 183.974 79.2182 184.721 79.2182C185.743 79.2182 186.481 78.7442 186.934 77.796L187.85 78.4123C187.587 79.0023 187.192 79.4711 186.665 79.8187C186.149 80.1664 185.501 80.3402 184.721 80.3402ZM190.549 70.0843C190.275 70.0843 190.075 70.0211 189.949 69.8946C189.833 69.7577 189.775 69.5839 189.775 69.3732V69.1677C189.775 68.957 189.833 68.7885 189.949 68.662C190.075 68.5251 190.275 68.4566 190.549 68.4566C190.823 68.4566 191.018 68.5251 191.134 68.662C191.26 68.7885 191.324 68.957 191.324 69.1677V69.3732C191.324 69.5839 191.26 69.7577 191.134 69.8946C191.018 70.0211 190.823 70.0843 190.549 70.0843ZM189.917 71.9964H191.181V80.1506H189.917V71.9964ZM200.076 80.1506C199.602 80.1506 199.26 80.0242 199.049 79.7713C198.849 79.5185 198.722 79.2024 198.67 78.8232H198.591C198.412 79.3289 198.117 79.7081 197.706 79.961C197.295 80.2138 196.805 80.3402 196.236 80.3402C195.372 80.3402 194.698 80.119 194.213 79.6765C193.739 79.234 193.502 78.6335 193.502 77.875C193.502 77.1059 193.781 76.516 194.34 76.1051C194.909 75.6942 195.788 75.4888 196.979 75.4888H198.591V74.6829C198.591 74.1034 198.433 73.661 198.117 73.3554C197.801 73.0499 197.316 72.8972 196.663 72.8972C196.168 72.8972 195.751 73.0078 195.414 73.229C195.088 73.4503 194.814 73.7452 194.593 74.114L193.834 73.4028C194.055 72.9604 194.408 72.5864 194.893 72.2809C195.377 71.9648 195.988 71.8068 196.726 71.8068C197.716 71.8068 198.485 72.0491 199.033 72.5337C199.581 73.0183 199.855 73.6926 199.855 74.5564V79.0444H200.787V80.1506H200.076ZM196.441 79.2657C196.758 79.2657 197.047 79.2288 197.311 79.155C197.574 79.0813 197.801 78.9759 197.99 78.839C198.18 78.702 198.327 78.544 198.433 78.3649C198.538 78.1858 198.591 77.9909 198.591 77.7802V76.437H196.916C196.189 76.437 195.657 76.5423 195.32 76.753C194.993 76.9637 194.83 77.2692 194.83 77.6696V78.0014C194.83 78.4018 194.972 78.7126 195.256 78.9338C195.551 79.155 195.946 79.2657 196.441 79.2657ZM204.675 80.1506C204.233 80.1506 203.896 80.0295 203.664 79.7871C203.443 79.5343 203.332 79.2077 203.332 78.8074V73.1026H201.989V71.9964H202.747C203.021 71.9964 203.206 71.9437 203.3 71.8384C203.406 71.7225 203.458 71.5276 203.458 71.2537V69.7366H204.596V71.9964H206.382V73.1026H204.596V79.0444H206.256V80.1506H204.675ZM209.328 70.0843C209.054 70.0843 208.854 70.0211 208.728 69.8946C208.612 69.7577 208.554 69.5839 208.554 69.3732V69.1677C208.554 68.957 208.612 68.7885 208.728 68.662C208.854 68.5251 209.054 68.4566 209.328 68.4566C209.602 68.4566 209.797 68.5251 209.913 68.662C210.039 68.7885 210.103 68.957 210.103 69.1677V69.3732C210.103 69.5839 210.039 69.7577 209.913 69.8946C209.797 70.0211 209.602 70.0843 209.328 70.0843ZM208.696 71.9964H209.96V80.1506H208.696V71.9964ZM216.011 80.3402C215.463 80.3402 214.962 80.2402 214.509 80.04C214.056 79.8398 213.667 79.5554 213.34 79.1866C213.024 78.8074 212.776 78.3596 212.597 77.8434C212.418 77.3167 212.329 76.7267 212.329 76.0735C212.329 75.4309 212.418 74.8462 212.597 74.3194C212.776 73.7926 213.024 73.3449 213.34 72.9762C213.667 72.5969 214.056 72.3072 214.509 72.107C214.962 71.9069 215.463 71.8068 216.011 71.8068C216.558 71.8068 217.054 71.9069 217.496 72.107C217.949 72.3072 218.339 72.5969 218.665 72.9762C218.992 73.3449 219.245 73.7926 219.424 74.3194C219.603 74.8462 219.693 75.4309 219.693 76.0735C219.693 76.7267 219.603 77.3167 219.424 77.8434C219.245 78.3596 218.992 78.8074 218.665 79.1866C218.339 79.5554 217.949 79.8398 217.496 80.04C217.054 80.2402 216.558 80.3402 216.011 80.3402ZM216.011 79.2182C216.695 79.2182 217.254 79.0075 217.686 78.5861C218.118 78.1647 218.334 77.5221 218.334 76.6582V75.4888C218.334 74.6249 218.118 73.9823 217.686 73.5609C217.254 73.1395 216.695 72.9288 216.011 72.9288C215.326 72.9288 214.767 73.1395 214.335 73.5609C213.904 73.9823 213.688 74.6249 213.688 75.4888V76.6582C213.688 77.5221 213.904 78.1647 214.335 78.5861C214.767 79.0075 215.326 79.2182 216.011 79.2182ZM222.054 80.1506V71.9964H223.318V73.3238H223.381C223.582 72.8603 223.861 72.4916 224.219 72.2176C224.588 71.9437 225.078 71.8068 225.689 71.8068C226.531 71.8068 227.195 72.0807 227.68 72.6285C228.175 73.1658 228.422 73.9296 228.422 74.9199V80.1506H227.158V75.1411C227.158 73.6768 226.542 72.9446 225.309 72.9446C225.056 72.9446 224.809 72.9762 224.567 73.0394C224.335 73.1026 224.124 73.1974 223.934 73.3238C223.745 73.4503 223.592 73.6135 223.476 73.8137C223.371 74.0033 223.318 74.2299 223.318 74.4932V80.1506H222.054Z" fill="#607D8B"/>
<g clip-path="url(#clip0)">
<rect x="38.0602" y="124.361" width="37" height="37" rx="1.95569" fill="#855CF8"/>
<g opacity="0.48">
<rect x="77.174" y="124.361" width="37" height="37" rx="1.95569" fill="#855CF8"/>
</g>
<g opacity="0.16">
<rect x="116.288" y="124.361" width="37" height="37" rx="1.95569" fill="#263238"/>
</g>
<rect x="38.0602" y="163.475" width="37" height="37" rx="1.95569" fill="#263238"/>
<rect x="77.174" y="163.475" width="37" height="37" rx="1.95569" fill="#855CF8"/>
<g opacity="0.16">
<rect x="116.288" y="163.475" width="37" height="37" rx="1.95569" fill="#263238"/>
</g>
<g opacity="0.48">
<rect x="38.0602" y="202.589" width="37" height="37" rx="1.95569" fill="#855CF8"/>
</g>
<g opacity="0.48">
<rect x="77.174" y="202.589" width="37" height="37" rx="1.95569" fill="#855CF8"/>
</g>
<g opacity="0.16">
<rect x="116.288" y="202.589" width="37" height="37" rx="1.95569" fill="#263238"/>
</g>
<g opacity="0.48">
<rect x="38.0602" y="241.703" width="37" height="37" rx="1.95569" fill="#855CF8"/>
</g>
<g opacity="0.16">
<rect x="77.174" y="241.703" width="37" height="37" rx="1.95569" fill="#263238"/>
</g>
<g opacity="0.16">
<rect x="116.288" y="241.703" width="37" height="37" rx="1.95569" fill="#263238"/>
</g>
<g opacity="0.16">
<rect x="38.0602" y="280.816" width="37" height="37" rx="1.95569" fill="#263238"/>
</g>
<g opacity="0.16">
<rect x="77.174" y="280.816" width="37" height="37" rx="1.95569" fill="#263238"/>
</g>
<g opacity="0.48">
<rect x="116.288" y="280.816" width="37" height="37" rx="1.95569" fill="#855CF8"/>
</g>
<g opacity="0.48">
<rect x="38.0602" y="319.93" width="37" height="37" rx="1.95569" fill="#855CF8"/>
</g>
<rect x="77.174" y="319.93" width="37" height="37" rx="1.95569" fill="#855CF8"/>
<rect x="116.288" y="319.93" width="37" height="37" rx="1.95569" fill="#263238"/>
<g opacity="0.16">
<rect x="38.0602" y="359.044" width="37" height="37" rx="1.95569" fill="#263238"/>
</g>
<g opacity="0.48">
<rect x="77.174" y="359.044" width="37" height="37" rx="1.95569" fill="#855CF8"/>
</g>
<rect x="116.288" y="359.044" width="37" height="37" rx="1.95569" fill="#855CF8"/>
<g opacity="0.16">
<rect x="38.0602" y="398.157" width="37" height="37" rx="1.95569" fill="#263238"/>
</g>
<rect x="77.174" y="398.157" width="37" height="37" rx="1.95569" fill="#855CF8"/>
<g opacity="0.48">
<rect x="116.288" y="398.157" width="37" height="37" rx="1.95569" fill="#855CF8"/>
</g>
<g opacity="0.48">
<rect x="38.0602" y="437.271" width="37" height="37" rx="1.95569" fill="#855CF8"/>
</g>
<g opacity="0.48">
<rect x="77.174" y="437.271" width="37" height="37" rx="1.95569" fill="#855CF8"/>
</g>
<g opacity="0.48">
<rect x="116.288" y="437.271" width="37" height="37" rx="1.95569" fill="#855CF8"/>
</g>
<rect x="38.0602" y="476.385" width="37" height="37" rx="1.95569" fill="#263238"/>
<rect x="77.174" y="476.385" width="37" height="37" rx="1.95569" fill="#855CF8"/>
<g opacity="0.48">
<rect x="116.288" y="476.385" width="37" height="37" rx="1.95569" fill="#855CF8"/>
</g>
<rect x="38.0602" y="515.498" width="37" height="37" rx="1.95569" fill="#855CF8"/>
<rect x="77.174" y="515.498" width="37" height="37" rx="1.95569" fill="#855CF8"/>
<g opacity="0.16">
<rect x="116.288" y="515.498" width="37" height="37" rx="1.95569" fill="#263238"/>
</g>
<g opacity="0.48">
<rect x="38.0602" y="554.612" width="37" height="37" rx="1.95569" fill="#855CF8"/>
</g>
<g opacity="0.48">
<rect x="77.174" y="554.612" width="37" height="37" rx="1.95569" fill="#855CF8"/>
</g>
<g opacity="0.16">
<rect x="116.288" y="554.612" width="37" height="37" rx="1.95569" fill="#263238"/>
</g>
<g opacity="0.48">
<rect x="155.401" y="124.361" width="37" height="37" rx="1.95569" fill="#855CF8"/>
</g>
<g opacity="0.16">
<rect x="194.515" y="124.361" width="37" height="37" rx="1.95569" fill="#263238"/>
</g>
<g opacity="0.16">
<rect x="233.629" y="124.361" width="37" height="37" rx="1.95569" fill="#263238"/>
</g>
<g opacity="0.16">
<rect x="155.401" y="163.475" width="37" height="37" rx="1.95569" fill="#263238"/>
</g>
<g opacity="0.16">
<rect x="194.515" y="163.475" width="37" height="37" rx="1.95569" fill="#263238"/>
</g>
<g opacity="0.16">
<rect x="233.629" y="163.475" width="37" height="37" rx="1.95569" fill="#263238"/>
</g>
<g opacity="0.16">
<rect x="155.401" y="202.589" width="37" height="37" rx="1.95569" fill="#263238"/>
</g>
<g opacity="0.48">
<rect x="194.515" y="202.589" width="37" height="37" rx="1.95569" fill="#855CF8"/>
</g>
<g opacity="0.48">
<rect x="233.629" y="202.589" width="37" height="37" rx="1.95569" fill="#855CF8"/>
</g>
<g opacity="0.16">
<rect x="155.401" y="241.703" width="37" height="37" rx="1.95569" fill="#263238"/>
</g>
<g opacity="0.48">
<rect x="194.515" y="241.703" width="37" height="37" rx="1.95569" fill="#855CF8"/>
</g>
<rect x="233.629" y="241.703" width="37" height="37" rx="1.95569" fill="#855CF8"/>
<g opacity="0.48">
<rect x="155.401" y="280.816" width="37" height="37" rx="1.95569" fill="#855CF8"/>
</g>
<g opacity="0.16">
<rect x="194.515" y="280.816" width="37" height="37" rx="1.95569" fill="#263238"/>
</g>
<g opacity="0.16">
<rect x="233.629" y="280.816" width="37" height="37" rx="1.95569" fill="#263238"/>
</g>
<rect x="155.401" y="319.93" width="37" height="37" rx="1.95569" fill="#855CF8"/>
<g opacity="0.48">
<rect x="194.515" y="319.93" width="37" height="37" rx="1.95569" fill="#855CF8"/>
</g>
<g opacity="0.16">
<rect x="233.629" y="319.93" width="37" height="37" rx="1.95569" fill="#263238"/>
</g>
<rect x="155.401" y="359.044" width="37" height="37" rx="1.95569" fill="#855CF8"/>
<g opacity="0.48">
<rect x="194.515" y="359.044" width="37" height="37" rx="1.95569" fill="#855CF8"/>
</g>
<g opacity="0.16">
<rect x="233.629" y="359.044" width="37" height="37" rx="1.95569" fill="#263238"/>
</g>
<g opacity="0.48">
<rect x="155.401" y="398.157" width="37" height="37" rx="1.95569" fill="#855CF8"/>
</g>
<g opacity="0.16">
<rect x="194.515" y="398.157" width="37" height="37" rx="1.95569" fill="#263238"/>
</g>
<g opacity="0.16">
<rect x="233.629" y="398.157" width="37" height="37" rx="1.95569" fill="#263238"/>
</g>
<g opacity="0.16">
<rect x="155.401" y="437.271" width="37" height="37" rx="1.95569" fill="#263238"/>
</g>
<g opacity="0.16">
<rect x="194.515" y="437.271" width="37" height="37" rx="1.95569" fill="#263238"/>
</g>
<g opacity="0.48">
<rect x="233.629" y="437.271" width="37" height="37" rx="1.95569" fill="#855CF8"/>
</g>
<g opacity="0.16">
<rect x="155.401" y="476.385" width="37" height="37" rx="1.95569" fill="#263238"/>
</g>
<g opacity="0.16">
<rect x="194.515" y="476.385" width="37" height="37" rx="1.95569" fill="#263238"/>
</g>
<g opacity="0.48">
<rect x="233.629" y="476.385" width="37" height="37" rx="1.95569" fill="#855CF8"/>
</g>
<g opacity="0.48">
<rect x="155.401" y="515.498" width="37" height="37" rx="1.95569" fill="#855CF8"/>
</g>
<g opacity="0.16">
<rect x="194.515" y="515.498" width="37" height="37" rx="1.95569" fill="#263238"/>
</g>
<g opacity="0.48">
<rect x="233.629" y="515.498" width="37" height="37" rx="1.95569" fill="#855CF8"/>
</g>
<g opacity="0.16">
<rect x="155.401" y="554.612" width="37" height="37" rx="1.95569" fill="#263238"/>
</g>
<g opacity="0.48">
<rect x="194.515" y="554.612" width="37" height="37" rx="1.95569" fill="#855CF8"/>
</g>
<g opacity="0.16">
<rect x="233.629" y="554.612" width="37" height="37" rx="1.95569" fill="#263238"/>
</g>
<g opacity="0.16">
<rect x="272.742" y="124.361" width="37" height="37" rx="1.95569" fill="#263238"/>
</g>
<g opacity="0.48">
<rect x="311.856" y="124.361" width="37" height="37" rx="1.95569" fill="#855CF8"/>
</g>
<g opacity="0.48">
<rect x="272.742" y="163.475" width="37" height="37" rx="1.95569" fill="#855CF8"/>
</g>
<g opacity="0.48">
<rect x="311.856" y="163.475" width="37" height="37" rx="1.95569" fill="#855CF8"/>
</g>
<rect x="272.742" y="202.589" width="37" height="37" rx="1.95569" fill="#855CF8"/>
<rect x="311.856" y="202.589" width="37" height="37" rx="1.95569" fill="#855CF8"/>
<rect x="272.742" y="241.703" width="37" height="37" rx="1.95569" fill="#263238"/>
<rect x="311.856" y="241.703" width="37" height="37" rx="1.95569" fill="#263238"/>
<g opacity="0.48">
<rect x="272.742" y="280.816" width="37" height="37" rx="1.95569" fill="#855CF8"/>
</g>
<rect x="311.856" y="280.816" width="37" height="37" rx="1.95569" fill="#855CF8"/>
<g opacity="0.48">
<rect x="272.742" y="319.93" width="37" height="37" rx="1.95569" fill="#855CF8"/>
</g>
<g opacity="0.48">
<rect x="311.856" y="319.93" width="37" height="37" rx="1.95569" fill="#855CF8"/>
</g>
<g opacity="0.16">
<rect x="272.742" y="359.044" width="37" height="37" rx="1.95569" fill="#263238"/>
</g>
<g opacity="0.48">
<rect x="311.856" y="359.044" width="37" height="37" rx="1.95569" fill="#855CF8"/>
</g>
<g opacity="0.48">
<rect x="272.742" y="398.157" width="37" height="37" rx="1.95569" fill="#855CF8"/>
</g>
<g opacity="0.16">
<rect x="311.856" y="398.157" width="37" height="37" rx="1.95569" fill="#263238"/>
</g>
<rect x="272.742" y="437.271" width="37" height="37" rx="1.95569" fill="#855CF8"/>
<rect x="311.856" y="437.271" width="37" height="37" rx="1.95569" fill="#855CF8"/>
<rect x="272.742" y="476.385" width="37" height="37" rx="1.95569" fill="#855CF8"/>
<rect x="311.856" y="476.385" width="37" height="37" rx="1.95569" fill="#263238"/>
<g opacity="0.48">
<rect x="272.742" y="515.498" width="37" height="37" rx="1.95569" fill="#855CF8"/>
</g>
<rect x="311.856" y="515.498" width="37" height="37" rx="1.95569" fill="#855CF8"/>
<g opacity="0.16">
<rect x="272.742" y="554.612" width="37" height="37" rx="1.95569" fill="#263238"/>
</g>
<g opacity="0.48">
<rect x="311.856" y="554.612" width="37" height="37" rx="1.95569" fill="#855CF8"/>
</g>
</g>
</g>
<defs>
<filter id="filter0_d" x="0" y="0" width="387" height="650" filterUnits="userSpaceOnUse" color-interpolation-filters="sRGB">
<feFlood flood-opacity="0" result="BackgroundImageFix"/>
<feColorMatrix in="SourceAlpha" type="matrix" values="0 0 0 0 0 0 0 0 0 0 0 0 0 0 0 0 0 0 127 0" result="hardAlpha"/>
<feOffset dy="4"/>
<feGaussianBlur stdDeviation="10"/>
<feComposite in2="hardAlpha" operator="out"/>
<feColorMatrix type="matrix" values="0 0 0 0 0.741667 0 0 0 0 0.741667 0 0 0 0 0.741667 0 0 0 0.25 0"/>
<feBlend mode="normal" in2="BackgroundImageFix" result="effect1_dropShadow"/>
<feBlend mode="normal" in="SourceGraphic" in2="effect1_dropShadow" result="shape"/>
</filter>
<clipPath id="clip0">
<rect width="310.88" height="483.879" fill="white" transform="translate(38.0602 124.361)"/>
</clipPath>
</defs>
</svg>
